<?xml version="1.0" encoding="utf-8"?>
<!-- Generator: Adobe Illustrator 17.0.0, SVG Export Plug-In . SVG Version: 6.00 Build 0)  -->
<!DOCTYPE svg PUBLIC "-//W3C//DTD SVG 1.1//EN" "http://www.w3.org/Graphics/SVG/1.1/DTD/svg11.dtd">
<svg version="1.1" id="Layer_1" xmlns="http://www.w3.org/2000/svg" xmlns:xlink="http://www.w3.org/1999/xlink" x="0px" y="0px"
	 width="144px" height="46.26px" viewBox="0 48.878 144 46.26" enable-background="new 0 48.878 144 46.26" xml:space="preserve">
<g>
	<g>
		<g>
			<g>
				
					<linearGradient id="SVGID_1_" gradientUnits="userSpaceOnUse" x1="1900.3096" y1="2738.4258" x2="2017.7872" y2="2738.4258" gradientTransform="matrix(0.2462 0 0 0.2462 -467.2462 -598.5144)">
					<stop  offset="0.0036" style="stop-color:#F3C167"/>
					<stop  offset="1" style="stop-color:#F3DC6D"/>
				</linearGradient>
				<path fill="url(#SVGID_1_)" d="M29.489,58.142c0-1.157-0.32-1.428-0.32-1.428c-0.345-0.32-0.886,0.025-0.886,0.025l-3.938,2.855
					h0.025L2.88,75.151c-2.142,1.452-2.314,1.772-2.314,3.274v1.994l0,0C0.591,88.37,7.04,94.794,14.991,94.794
					s14.4-6.425,14.425-14.375l0,0V61.76l0,0L29.489,58.142z"/>
			</g>
			<g>
				<path fill="#F99247" d="M23.335,53.44c0-0.911-0.246-1.132-0.246-1.132c-0.271-0.271-0.689,0.025-0.689,0.025l-3.102,2.24h0.025
					L2.412,66.831c-1.698,1.157-1.822,1.403-1.822,2.585v10.658l0,0c0.025,6.252,5.095,11.323,11.348,11.323
					s11.323-5.071,11.348-11.323l0,0V56.295l0,0L23.335,53.44z"/>
			</g>
			<path fill="#0004cad9" d="M17.649,49.797c0-0.689-0.197-0.837-0.197-0.837c-0.197-0.197-0.517,0.025-0.517,0.025l-2.314,1.698l0,0
				L1.945,59.865c-1.255,0.862-1.354,1.058-1.354,1.945v17.452l0,0c0.025,4.702,3.84,8.492,8.517,8.492
				c4.702,0,8.517-3.791,8.517-8.492l0,0V51.938l0,0L17.649,49.797z"/>
		</g>
		<g>
			<path fill="#0004cad9" d="M34.782,64.049c0-7.926,4.357-12.972,11.225-12.972c5.169,0,9.477,3.668,10.018,8.542h-1.403
				c-0.542-4.111-4.234-7.237-8.615-7.237c-5.982,0-9.797,4.505-9.797,11.668c0,7.335,3.84,11.963,9.797,11.963
				c4.48,0,8.074-2.658,8.615-6.769h1.403c-0.591,4.849-4.628,8.074-10.018,8.074C39.163,77.317,34.782,72.148,34.782,64.049z"/>
			<path fill="#0004cad9" d="M57.698,57.92h1.28v3.766h0.049c0.763-2.609,2.56-4.012,5.095-4.012c0.689,0,1.378,0.172,1.723,0.32
				v1.378c-0.394-0.197-1.108-0.394-1.945-0.394c-2.978,0-4.849,2.56-4.849,6.154v11.815h-1.378V57.92H57.698z"/>
			<path fill="#0004cad9" d="M80.985,71.631c-0.615,3.225-3.545,5.563-7.754,5.563c-5.169,0-8.492-3.618-8.492-9.723
				c0-5.908,3.323-9.797,8.345-9.797c4.923,0,8.123,3.668,8.123,9.182v0.788H66.142v0.074c0,5.194,2.831,8.222,7.114,8.222
				c3.471,0,5.785-1.846,6.351-4.332h1.378C80.985,71.608,80.985,71.631,80.985,71.631z M66.166,66.486h13.662
				c-0.025-4.505-2.732-7.582-6.745-7.582C69.12,58.905,66.363,61.932,66.166,66.486z"/>
			<path fill="#0004cad9" d="M82.437,71.803c0-3.249,2.338-5.095,6.794-5.44l6.523-0.468v-1.698c0-3.323-2.018-5.292-5.44-5.292
				c-3.225,0-5.366,1.649-5.834,4.529h-1.329c0.345-3.52,3.151-5.785,7.163-5.785c4.16,0,6.794,2.462,6.794,6.449v12.825h-1.329
				v-4.086h-0.025c-0.935,2.585-3.791,4.357-7.015,4.357C85.022,77.194,82.437,75.003,82.437,71.803z M95.754,69.883v-2.831
				l-6.351,0.468c-3.643,0.271-5.612,1.748-5.612,4.283c0,2.412,2.142,4.16,5.095,4.16C92.726,75.963,95.754,73.255,95.754,69.883z"
				/>
			<path fill="#0004cad9" d="M102.178,53.022v4.898h3.963v1.206h-3.963v13.465c0,2.289,0.837,3.175,2.757,3.175
				c0.098,0,1.403-0.025,1.452-0.025v1.231c-0.098,0.025-1.403,0.025-1.625,0.025c-2.757,0-3.938-1.231-3.938-4.357V59.102h-2.782
				v-1.206h2.782v-4.874H102.178z"/>
			<path fill="#0004cad9" d="M107.84,52.16c0-0.615,0.492-1.108,1.108-1.108s1.108,0.468,1.108,1.108c0,0.591-0.492,1.083-1.108,1.083
				S107.84,52.775,107.84,52.16z M108.234,57.92h1.378v19.028h-1.378V57.92z"/>
			<path fill="#0004cad9" d="M119.36,76.948h-1.625l-7.163-19.028h1.477l6.498,17.625h0.025l6.523-17.625h1.452L119.36,76.948z"/>
			<path fill="#0004cad9" d="M142.474,71.631c-0.615,3.225-3.545,5.563-7.754,5.563c-5.169,0-8.492-3.618-8.492-9.723
				c0-5.908,3.323-9.797,8.345-9.797c4.923,0,8.123,3.668,8.123,9.182v0.788h-15.065v0.074c0,5.194,2.831,8.222,7.114,8.222
				c3.471,0,5.785-1.846,6.351-4.332h1.378V71.631z M127.631,66.486h13.662c-0.025-4.505-2.732-7.582-6.745-7.582
				C130.585,58.905,127.852,61.932,127.631,66.486z"/>
		</g>
	</g>
	<g>
		<path fill="#231F20" d="M36.062,88.025c0-2.905,1.625-4.775,4.16-4.775c1.969,0,3.52,1.28,3.766,3.102h-0.886
			c-0.246-1.354-1.452-2.289-2.88-2.289c-1.969,0-3.249,1.551-3.249,3.963c0,2.462,1.28,4.012,3.249,4.012
			c1.477,0,2.609-0.788,2.88-2.092h0.886c-0.32,1.822-1.748,2.905-3.766,2.905C37.686,92.849,36.062,90.978,36.062,88.025z"/>
		<path fill="#231F20" d="M44.702,89.231c0-2.166,1.255-3.545,3.151-3.545c1.92,0,3.151,1.378,3.151,3.545s-1.255,3.545-3.151,3.545
			C45.957,92.775,44.702,91.397,44.702,89.231z M50.142,89.231c0-1.748-0.886-2.782-2.289-2.782s-2.289,1.058-2.289,2.782
			c0,1.748,0.886,2.782,2.289,2.782C49.28,92.012,50.142,90.954,50.142,89.231z"/>
		<path fill="#231F20" d="M51.938,85.76h0.812v1.305h0.025c0.394-0.862,1.206-1.378,2.338-1.378c1.526,0,2.511,0.985,2.511,2.56
			v4.48h-0.862V88.37c0-1.231-0.714-1.92-1.895-1.92c-1.231,0-2.068,0.886-2.068,2.191v4.086h-0.862L51.938,85.76L51.938,85.76z"/>
		<path fill="#231F20" d="M60.062,84.086v1.674h1.403v0.714h-1.403v4.48c0,0.714,0.295,1.034,0.935,1.034
			c0.098,0,0.443-0.025,0.492-0.025v0.738c-0.098,0.025-0.492,0.049-0.665,0.049c-1.157,0-1.625-0.492-1.625-1.748v-4.529h-0.985
			V85.76H59.2v-1.674H60.062z"/>
		<path fill="#231F20" d="M67.865,90.732c-0.197,1.182-1.354,2.043-2.855,2.043c-1.92,0-3.151-1.354-3.151-3.545
			c0-2.166,1.231-3.569,3.102-3.569c1.822,0,3.003,1.329,3.003,3.397v0.369h-5.218v0.049c0,1.575,0.911,2.535,2.289,2.535
			c1.034,0,1.797-0.517,1.994-1.28C67.028,90.732,67.865,90.732,67.865,90.732z M62.745,88.738h4.332
			c-0.025-1.378-0.862-2.314-2.117-2.314S62.818,87.36,62.745,88.738z"/>
		<path fill="#231F20" d="M68.874,85.76h0.812v1.305h0.025c0.394-0.862,1.206-1.378,2.338-1.378c1.526,0,2.511,0.985,2.511,2.56
			v4.48h-0.862V88.37c0-1.231-0.714-1.92-1.895-1.92c-1.231,0-2.068,0.886-2.068,2.191v4.086h-0.862L68.874,85.76L68.874,85.76z"/>
		<path fill="#231F20" d="M77.022,84.086v1.674h1.403v0.714h-1.403v4.48c0,0.714,0.295,1.034,0.935,1.034
			c0.098,0,0.443-0.025,0.492-0.025v0.738c-0.098,0.025-0.492,0.049-0.665,0.049c-1.157,0-1.625-0.492-1.625-1.748v-4.529h-0.985
			V85.76h0.985v-1.674C76.16,84.086,77.022,84.086,77.022,84.086z"/>
		<path fill="#231F20" d="M84.948,92.702h-0.812l-2.56-9.305h0.911l2.043,7.951h0.049l2.24-7.951h0.886l2.24,7.951h0.049
			l2.043-7.951h0.911l-2.56,9.305h-0.812l-2.289-7.803h-0.049L84.948,92.702z"/>
		<path fill="#231F20" d="M93.538,85.76h0.812v1.231h0.025c0.246-0.837,0.886-1.305,1.772-1.305c0.172,0,0.418,0.049,0.517,0.074
			v0.862c-0.098-0.049-0.394-0.098-0.64-0.098c-0.985,0-1.625,0.763-1.625,1.895v4.308h-0.862L93.538,85.76L93.538,85.76z"/>
		<path fill="#231F20" d="M97.28,83.791c0-0.32,0.271-0.591,0.591-0.591s0.566,0.246,0.566,0.591c0,0.32-0.246,0.566-0.566,0.566
			C97.551,84.382,97.28,84.111,97.28,83.791z M97.428,85.76h0.862v6.942h-0.862V85.76z"/>
		<path fill="#231F20" d="M100.849,84.086v1.674h1.403v0.714h-1.403v4.48c0,0.714,0.295,1.034,0.935,1.034
			c0.098,0,0.443-0.025,0.492-0.025v0.738c-0.098,0.025-0.492,0.049-0.665,0.049c-1.157,0-1.625-0.492-1.625-1.748v-4.529h-0.985
			V85.76h0.985v-1.674C99.988,84.086,100.849,84.086,100.849,84.086z"/>
		<path fill="#231F20" d="M103.138,83.791c0-0.32,0.271-0.591,0.591-0.591s0.566,0.246,0.566,0.591c0,0.32-0.246,0.566-0.566,0.566
			C103.385,84.382,103.138,84.111,103.138,83.791z M103.286,85.76h0.862v6.942h-0.862V85.76z"/>
		<path fill="#231F20" d="M105.477,85.76h0.812v1.305h0.025c0.394-0.862,1.206-1.378,2.338-1.378c1.526,0,2.511,0.985,2.511,2.56
			v4.48h-0.862V88.37c0-1.231-0.714-1.92-1.895-1.92c-1.231,0-2.068,0.886-2.068,2.191v4.086h-0.862L105.477,85.76L105.477,85.76z"
			/>
		<path fill="#231F20" d="M112.369,93.342h0.886c0.172,0.615,0.911,1.034,1.969,1.034c1.28,0,2.142-0.665,2.142-1.748v-1.403h-0.025
			c-0.394,0.886-1.28,1.502-2.388,1.502c-1.748,0-2.929-1.428-2.929-3.52c0-2.117,1.182-3.545,2.954-3.545
			c1.108,0,2.018,0.615,2.412,1.526h0.025V85.76h0.812v6.818c0,1.6-1.182,2.56-3.052,2.56
			C113.625,95.114,112.542,94.4,112.369,93.342z M117.366,89.206c0-1.649-0.911-2.782-2.265-2.782c-1.329,0-2.215,1.108-2.215,2.782
			c0,1.649,0.886,2.757,2.215,2.757C116.455,91.963,117.366,90.831,117.366,89.206z"/>
	</g>
</g>
</svg>
