<?xml version="1.0" encoding="utf-8"?>
<!-- Generator: Adobe Illustrator 17.0.0, SVG Export Plug-In . SVG Version: 6.00 Build 0)  -->
<!DOCTYPE svg PUBLIC "-//W3C//DTD SVG 1.1//EN" "http://www.w3.org/Graphics/SVG/1.1/DTD/svg11.dtd">
<svg version="1.1" id="Layer_1" xmlns="http://www.w3.org/2000/svg" xmlns:xlink="http://www.w3.org/1999/xlink" x="0px" y="0px"
	 width="106.864px" height="80px" viewBox="0 0 106.864 80" enable-background="new 0 0 106.864 80" xml:space="preserve">
<g>
	<path opacity="0.25" fill="#91095D" d="M26.519,30.732c-0.035,0.027-0.07,0.057-0.102,0.085c0.189-0.227,0.331-0.344,0.331-0.344
		s0.02,0.022,0.055,0.065C26.708,30.592,26.613,30.657,26.519,30.732z"/>
	<path fill="none" d="M27.918,39.004c-0.01-0.015-0.022-0.025-0.03-0.035"/>
	<g opacity="0.25">
		<path fill="#91095D" d="M25.861,31.655c0.107-0.314,0.284-0.595,0.55-0.834C26.245,31.018,26.041,31.299,25.861,31.655z"/>
	</g>
	<polygon fill="#FFFFFF" points="27.863,38.942 27.866,38.942 27.866,38.944 	"/>
	<g>
		<g>
			<g>
				<g>
					<g>
						<g>
							
								<linearGradient id="SVGID_1_" gradientUnits="userSpaceOnUse" x1="-408.9683" y1="76.182" x2="-406.4066" y2="76.182" gradientTransform="matrix(1 0 0 1 480.4834 0)">
								<stop  offset="0.0176" style="stop-color:#F4BD6C"/>
								<stop  offset="1" style="stop-color:#FFD49C"/>
							</linearGradient>
							<path fill="url(#SVGID_1_)" d="M72.243,75.353c-0.003,0.136-0.011,0.289-0.029,0.449c-0.054,0.499-0.579,0.774-0.699,0.831
								c0.067,0.006,0.127,0.019,0.178,0.041c0.861,0.375,1.354,0.471,2.191,0.114c0.065-0.028,0.133-0.028,0.193-0.009
								c-0.033-0.419-0.114-0.999-0.179-1.426H72.243z"/>
							
								<linearGradient id="SVGID_2_" gradientUnits="userSpaceOnUse" x1="-412.6237" y1="77.7918" x2="-406.208" y2="77.7918" gradientTransform="matrix(1 0 0 1 480.4834 0)">
								<stop  offset="0" style="stop-color:#3B5FF4"/>
								<stop  offset="1" style="stop-color:#314FAD"/>
							</linearGradient>
							<path fill="url(#SVGID_2_)" d="M74.035,78.928c-0.325,0.072-4.908-0.025-5.973-0.049c-0.13-0.003-0.225-0.123-0.197-0.25
								c0.044-0.198,0.165-0.48,0.494-0.698c0.527-0.349,2.672-1.546,3.334-1.258c0.861,0.375,1.354,0.471,2.191,0.114
								c0.175-0.075,0.372,0.046,0.379,0.236C74.289,77.7,74.296,78.87,74.035,78.928z"/>
						</g>
						<g>
							
								<linearGradient id="SVGID_3_" gradientUnits="userSpaceOnUse" x1="-399.3089" y1="76.182" x2="-396.7471" y2="76.182" gradientTransform="matrix(1 0 0 1 480.4834 0)">
								<stop  offset="0.0176" style="stop-color:#F4BD6C"/>
								<stop  offset="1" style="stop-color:#FFD49C"/>
							</linearGradient>
							<path fill="url(#SVGID_3_)" d="M81.902,75.353c-0.003,0.136-0.011,0.289-0.029,0.449c-0.054,0.499-0.579,0.774-0.699,0.831
								c0.067,0.006,0.127,0.019,0.178,0.041c0.861,0.375,1.354,0.471,2.191,0.114c0.065-0.028,0.133-0.028,0.193-0.009
								c-0.033-0.419-0.114-0.999-0.179-1.426H81.902z"/>
							
								<linearGradient id="SVGID_4_" gradientUnits="userSpaceOnUse" x1="-402.9643" y1="77.7918" x2="-396.5486" y2="77.7918" gradientTransform="matrix(1 0 0 1 480.4834 0)">
								<stop  offset="0" style="stop-color:#3B5FF4"/>
								<stop  offset="1" style="stop-color:#314FAD"/>
							</linearGradient>
							<path fill="url(#SVGID_4_)" d="M83.694,78.928c-0.325,0.072-4.908-0.025-5.973-0.049c-0.13-0.003-0.225-0.123-0.197-0.25
								c0.044-0.198,0.165-0.48,0.494-0.698c0.527-0.349,2.672-1.546,3.334-1.258c0.861,0.375,1.354,0.471,2.191,0.114
								c0.175-0.075,0.372,0.046,0.379,0.236C83.949,77.7,83.955,78.87,83.694,78.928z"/>
						</g>
						
							<linearGradient id="SVGID_5_" gradientUnits="userSpaceOnUse" x1="-397.973" y1="71.5496" x2="-413.346" y2="33.071" gradientTransform="matrix(1 0 0 1 480.4834 0)">
							<stop  offset="0" style="stop-color:#112B7F"/>
							<stop  offset="0.1636" style="stop-color:#1C388F"/>
							<stop  offset="0.4035" style="stop-color:#2845A0"/>
							<stop  offset="0.6676" style="stop-color:#2F4DAA"/>
							<stop  offset="1" style="stop-color:#314FAD"/>
						</linearGradient>
						<path fill="url(#SVGID_5_)" d="M72.671,44.496c0,0-3.136,12.262-3.208,13.704c-0.072,1.442,2.542,17.563,2.542,17.563h2.521
							c0,0,0.504-15.482,0.759-16.976c0.288-1.694,2.647-8.534,2.647-8.534s0.496,7.508,0.46,9.021
							c-0.013,0.549,3.056,16.345,3.056,16.345h2.427c0,0,0.415-15.146,0.271-16.299c-0.144-1.153,1.339-9.832-0.271-14.866
							L72.671,44.496z"/>
						
							<linearGradient id="SVGID_6_" gradientUnits="userSpaceOnUse" x1="-452.9631" y1="50.5137" x2="-458.5551" y2="45.4429" gradientTransform="matrix(0.9991 0.0431 -0.0431 0.9991 514.9937 -0.918)">
							<stop  offset="0.0176" style="stop-color:#F4BD6C"/>
							<stop  offset="1" style="stop-color:#FFD49C"/>
						</linearGradient>
						<path fill="url(#SVGID_6_)" d="M59.797,27.77c0,0-1.43-1.615-1.644-1.606c-0.215,0.009,0.443,1.322,0.248,1.296
							c-0.195-0.026-1.865-0.223-1.865-0.223s-1.298-1.359-1.464-1.241c-0.166,0.118,0.57,1.685,1.326,1.949
							c0.756,0.265,2.976,0.932,2.976,0.932l0.374,0.427l0.727-0.718L59.797,27.77z"/>
						<path fill="#FFFFFF" d="M81.89,26.577c-1.288-0.189-2.366-0.165-2.366-0.165l-2.718,0.021c0,0-0.735,0.253-1.452,0.477v17.964
							c1.777,0.392,4.163,0.633,6.536,0.005V26.577z"/>
						<g>
							<linearGradient id="SVGID_7_" gradientUnits="userSpaceOnUse" x1="73.5223" y1="21.304" x2="81.0457" y2="21.304">
								<stop  offset="0" style="stop-color:#112B7F"/>
								<stop  offset="0.1636" style="stop-color:#1C388F"/>
								<stop  offset="0.4035" style="stop-color:#2845A0"/>
								<stop  offset="0.6676" style="stop-color:#2F4DAA"/>
								<stop  offset="1" style="stop-color:#314FAD"/>
							</linearGradient>
							<path fill="url(#SVGID_7_)" d="M75.011,21.745c0,0-1.543,0.075-1.487-1.788c0.05-1.639,2.776-2.715,3.848-1.68
								c0,0,2.164-0.734,2.936,0.452c0.772,1.186,1.515,5.575-0.969,6.008L75.011,21.745z"/>
							<linearGradient id="SVGID_8_" gradientUnits="userSpaceOnUse" x1="78.3012" y1="27.2704" x2="78.1732" y2="20.5527">
								<stop  offset="0.0176" style="stop-color:#F4BD6C"/>
								<stop  offset="1" style="stop-color:#FFD49C"/>
							</linearGradient>
							<polygon fill="url(#SVGID_8_)" points="79.532,23.246 76.977,23.246 76.977,26.379 78.12,27.762 79.532,26.379 							"/>
							<linearGradient id="SVGID_9_" gradientUnits="userSpaceOnUse" x1="77.6016" y1="27.2837" x2="77.4736" y2="20.5661">
								<stop  offset="0.0176" style="stop-color:#F4BD6C"/>
								<stop  offset="1" style="stop-color:#FFD49C"/>
							</linearGradient>
							<path fill="url(#SVGID_9_)" d="M79.969,21.976c-0.311-0.332-0.67-0.064-0.67-0.064s-0.005,0.005-0.014,0.015
								c-0.921-0.218-1.809-1.255-1.809-1.255c-0.47,0.621-2.54,1.054-2.54,1.054v1.383c0,1.273,0.986,2.305,2.202,2.305
								c1.024,0,1.884-0.732,2.131-1.723C80.026,23.796,80.276,22.303,79.969,21.976z"/>
						</g>
						
							<linearGradient id="SVGID_10_" gradientUnits="userSpaceOnUse" x1="-396.5779" y1="46.4728" x2="-394.4703" y2="46.4728" gradientTransform="matrix(1 0 0 1 480.4834 0)">
							<stop  offset="0.0176" style="stop-color:#F4BD6C"/>
							<stop  offset="1" style="stop-color:#FFD49C"/>
						</linearGradient>
						<path fill="url(#SVGID_10_)" d="M84.595,44.694c0,0-0.889,1.177-0.649,3.004c0.24,1.826,1.538-1.442,2.066-1.562
							L84.595,44.694z"/>
						<linearGradient id="SVGID_11_" gradientUnits="userSpaceOnUse" x1="78.0857" y1="48.9108" x2="59.3188" y2="9.1024">
							<stop  offset="0" style="stop-color:#3B5FF4"/>
							<stop  offset="1" style="stop-color:#314FAD"/>
						</linearGradient>
						<path fill="url(#SVGID_11_)" d="M76.896,26.428c-0.007,1.353-0.345,14.807-1.58,20.276c-1.816-0.405-3.945-0.832-3.945-0.832
							c-0.053-2.595,1.774-11.522,1.774-11.522l-3.406,4.281c-0.621,0.588-1.617,0.501-2.125-0.185l-8.207-9.197l1.19-0.919
							l7.14,4.823c0,0,3.62-4.5,4.431-5.039c0.811-0.54,4.638-1.681,4.638-1.681L76.896,26.428z"/>
						<linearGradient id="SVGID_12_" gradientUnits="userSpaceOnUse" x1="88.0687" y1="44.2046" x2="69.3019" y2="4.3961">
							<stop  offset="0" style="stop-color:#3B5FF4"/>
							<stop  offset="1" style="stop-color:#314FAD"/>
						</linearGradient>
						<path fill="url(#SVGID_12_)" d="M92.444,37.119c-1.618,2.728-6.264,9.184-6.264,9.184l-1.585-1.609l3.233-7.605l-3.329-3.406
							L84.284,46.11c-1.221,0.662-2.156,0.561-3.423,0.7c-0.528-6.152-1.337-20.399-1.337-20.399s3.514-0.079,5.438,1.163
							c1.788,1.153,5.817,5.974,7.359,7.858C92.714,35.913,92.761,36.585,92.444,37.119z"/>
						<linearGradient id="SVGID_13_" gradientUnits="userSpaceOnUse" x1="76.7483" y1="47.8058" x2="80.7815" y2="18.7674">
							<stop  offset="0" style="stop-color:#112B7F"/>
							<stop  offset="0.1636" style="stop-color:#1C388F"/>
							<stop  offset="0.4035" style="stop-color:#2845A0"/>
							<stop  offset="0.6676" style="stop-color:#2F4DAA"/>
							<stop  offset="1" style="stop-color:#314FAD"/>
						</linearGradient>
						<path fill="url(#SVGID_13_)" d="M78.12,27.762l-0.913,0.9l0.512,0.711c0,0-0.853,10.777-0.853,12.113
							c0,1.339,1.223,2.332,1.223,2.332s1.763-1.422,1.706-2.189S78.572,29.43,78.572,29.43l0.597-0.654L78.12,27.762z"/>
					</g>
					<g>
						
							<linearGradient id="SVGID_14_" gradientUnits="userSpaceOnUse" x1="-942.0506" y1="34.2703" x2="-941.9584" y2="10.2973" gradientTransform="matrix(1 0 0 1 973.2192 0)">
							<stop  offset="0.0176" style="stop-color:#F4BD6C"/>
							<stop  offset="1" style="stop-color:#FFD49C"/>
						</linearGradient>
						<path fill="url(#SVGID_14_)" d="M31.029,27.314c0,0-0.187,0.976,0.371,1.752l-0.95-0.031c0.145-1.516-0.729-3.34-0.797-3.527
							c-0.003-0.005-0.003-0.01-0.003-0.013c-0.104-0.096-0.189-0.215-0.228-0.356c-0.117-0.41,0.192-0.828,0.488-0.911
							c0.218-0.062,0.454,0.062,0.613,0.296c0.223-0.197,0.706-0.683,0.672-1.103c0,0,1.023,0.104,1.739-0.13
							C32.934,23.291,33.609,27.42,31.029,27.314z"/>
						<g>
							
								<linearGradient id="SVGID_15_" gradientUnits="userSpaceOnUse" x1="1222.4017" y1="76.9811" x2="1224.7981" y2="76.9811" gradientTransform="matrix(-1 0 0 1 1259.576 0)">
								<stop  offset="0.0176" style="stop-color:#F4BD6C"/>
								<stop  offset="1" style="stop-color:#FFD49C"/>
							</linearGradient>
							<path fill="url(#SVGID_15_)" d="M36.493,76.205c0.003,0.128,0.01,0.27,0.027,0.42c0.051,0.467,0.541,0.724,0.654,0.777
								c-0.062,0.006-0.119,0.018-0.166,0.039c-0.806,0.351-1.267,0.441-2.05,0.107c-0.061-0.026-0.124-0.027-0.18-0.008
								c0.03-0.392,0.106-0.934,0.167-1.334H36.493z"/>
							
								<linearGradient id="SVGID_16_" gradientUnits="userSpaceOnUse" x1="1218.9822" y1="78.487" x2="1224.9839" y2="78.487" gradientTransform="matrix(-1 0 0 1 1259.576 0)">
								<stop  offset="0" style="stop-color:#112B7F"/>
								<stop  offset="0.1636" style="stop-color:#1C388F"/>
								<stop  offset="0.4035" style="stop-color:#2845A0"/>
								<stop  offset="0.6676" style="stop-color:#2F4DAA"/>
								<stop  offset="1" style="stop-color:#314FAD"/>
							</linearGradient>
							<path fill="url(#SVGID_16_)" d="M34.817,79.55c0.304,0.067,4.591-0.023,5.587-0.046c0.122-0.003,0.211-0.115,0.184-0.234
								c-0.041-0.186-0.155-0.449-0.462-0.653c-0.493-0.327-2.499-1.447-3.119-1.177c-0.806,0.351-1.267,0.441-2.05,0.107
								c-0.164-0.07-0.348,0.043-0.355,0.221C34.579,78.401,34.573,79.496,34.817,79.55z"/>
						</g>
						<g>
							
								<linearGradient id="SVGID_17_" gradientUnits="userSpaceOnUse" x1="1357.2971" y1="309.0812" x2="1359.6936" y2="309.0812" gradientTransform="matrix(-0.9848 -0.1736 -0.1736 0.9848 1415.6172 8.1953)">
								<stop  offset="0.0176" style="stop-color:#F4BD6C"/>
								<stop  offset="1" style="stop-color:#FFD49C"/>
							</linearGradient>
							<path fill="url(#SVGID_17_)" d="M24.759,76.07c-0.019,0.126-0.037,0.268-0.047,0.418c-0.031,0.469,0.407,0.807,0.509,0.879
								c-0.062-0.005-0.12-0.003-0.171,0.009c-0.854,0.205-1.324,0.214-2.037-0.251c-0.055-0.036-0.118-0.048-0.176-0.039
								c0.098-0.381,0.267-0.902,0.396-1.285L24.759,76.07z"/>
							
								<linearGradient id="SVGID_18_" gradientUnits="userSpaceOnUse" x1="1353.8776" y1="310.5872" x2="1359.8794" y2="310.5872" gradientTransform="matrix(-0.9848 -0.1736 -0.1736 0.9848 1415.6172 8.1953)">
								<stop  offset="0" style="stop-color:#112B7F"/>
								<stop  offset="0.1636" style="stop-color:#1C388F"/>
								<stop  offset="0.4035" style="stop-color:#2845A0"/>
								<stop  offset="0.6676" style="stop-color:#2F4DAA"/>
								<stop  offset="1" style="stop-color:#314FAD"/>
							</linearGradient>
							<path fill="url(#SVGID_18_)" d="M22.527,79.072c0.288,0.119,4.526,0.774,5.511,0.925c0.12,0.019,0.228-0.077,0.222-0.199
								c-0.008-0.19-0.074-0.469-0.342-0.723c-0.429-0.407-2.21-1.859-2.867-1.7c-0.854,0.206-1.324,0.214-2.037-0.25
								c-0.149-0.097-0.35-0.018-0.388,0.156C22.492,77.899,22.296,78.977,22.527,79.072z"/>
						</g>
						
							<linearGradient id="SVGID_19_" gradientUnits="userSpaceOnUse" x1="-945.1959" y1="32.4956" x2="-926.986" y2="32.4956" gradientTransform="matrix(1 0 0 1 973.2192 0)">
							<stop  offset="0.0176" style="stop-color:#F4BD6C"/>
							<stop  offset="1" style="stop-color:#FFD49C"/>
						</linearGradient>
						<path fill="url(#SVGID_19_)" d="M28.023,31.164c0,0,4.076,4.334,5.224,4.421c1.148,0.086,11.281-3.854,11.281-3.854
							l1.166-0.423c0.387-0.141,0.61-0.547,0.519-0.949l-0.007-0.03c-0.105-0.467-0.588-0.744-1.045-0.6l-0.362,0.115
							c-0.162,0.051-0.302,0.155-0.397,0.295l-0.421,0.614l-10.331,1.847l-2.921-3.193L28.023,31.164z"/>
						
							<linearGradient id="SVGID_20_" gradientUnits="userSpaceOnUse" x1="2575.7842" y1="63.5213" x2="2566.729" y2="60.062" gradientTransform="matrix(-1 0 0 1 2597.2542 0)">
							<stop  offset="0" style="stop-color:#314FAD"/>
							<stop  offset="0.3324" style="stop-color:#2F4DAA"/>
							<stop  offset="0.5965" style="stop-color:#2845A0"/>
							<stop  offset="0.8364" style="stop-color:#1C388F"/>
							<stop  offset="1" style="stop-color:#112B7F"/>
						</linearGradient>
						<path fill="url(#SVGID_20_)" d="M26.37,47.004c-0.106,0.159-0.477,3.341-0.159,5.781c0.318,2.44,2.329,8.253,2.329,8.253
							s-5.264,13.094-5.688,15.056l2.421,0.62c0,0,7.775-11.274,8.465-14.827c0.689-3.553-0.048-14.034-0.048-14.034L26.37,47.004z"
							/>
						
							<linearGradient id="SVGID_21_" gradientUnits="userSpaceOnUse" x1="2572.3452" y1="63.4455" x2="2555.6462" y2="58.7406" gradientTransform="matrix(-1 0 0 1 2597.2542 0)">
							<stop  offset="0" style="stop-color:#112B7F"/>
							<stop  offset="0.1636" style="stop-color:#1C388F"/>
							<stop  offset="0.4035" style="stop-color:#2845A0"/>
							<stop  offset="0.6676" style="stop-color:#2F4DAA"/>
							<stop  offset="1" style="stop-color:#314FAD"/>
						</linearGradient>
						<path fill="url(#SVGID_21_)" d="M26.972,46.283c-0.442,1.16-0.434,5.08,1.016,7.93c1.225,2.407,4.762,6.65,4.859,7.157
							s0.643,13.451,1.676,15.181l2.497,0.065c0,0,0.58-15.747,0.132-17.472c-0.447-1.725-2.406-13.677-2.406-13.677L26.972,46.283z
							"/>
						<linearGradient id="SVGID_22_" gradientUnits="userSpaceOnUse" x1="34.6502" y1="50.5906" x2="24.4138" y2="27.8145">
							<stop  offset="0" style="stop-color:#FF3C4A"/>
							<stop  offset="1" style="stop-color:#FF9400"/>
						</linearGradient>
						<path fill="url(#SVGID_22_)" d="M27.278,29.389c2.831-0.978,4.5-1.015,5.824,1.671c0.753,1.529,2.713,15.587,2.713,15.587
							s-4.384,4.644-10.219-0.115c0,0,1.091-0.861,0.155-7.175c-0.796-5.369-1.098-8.233,0.518-9.453
							C26.558,29.686,26.904,29.518,27.278,29.389z"/>
						<linearGradient id="SVGID_23_" gradientUnits="userSpaceOnUse" x1="39.0132" y1="50.1291" x2="25.0776" y2="28.2067">
							<stop  offset="0" style="stop-color:#FFAD00"/>
							<stop  offset="1" style="stop-color:#FF0095"/>
						</linearGradient>
						<path fill="url(#SVGID_23_)" d="M32.916,36.025c0,0-3.243-7.775-6.396-5.294c-2.636,2.074,2.189,7.951,2.189,7.951
							L32.916,36.025z"/>
						<linearGradient id="SVGID_24_" gradientUnits="userSpaceOnUse" x1="36.1327" y1="49.9243" x2="25.8962" y2="27.1483">
							<stop  offset="0" style="stop-color:#FF3C4A"/>
							<stop  offset="1" style="stop-color:#FF9400"/>
						</linearGradient>
						<path fill="url(#SVGID_24_)" d="M32.916,36.025c0,0-3.243-7.775-6.396-5.294c-2.636,2.074,2.189,7.951,2.189,7.951
							L32.916,36.025z"/>
						<path opacity="0.25" fill="#91095D" d="M28.635,38.59l-0.769,0.351h-0.002c-0.55-0.695-1.111-1.559-1.86-3.058
							c-0.926-1.855-0.615-3.299-0.142-4.228C25.074,33.956,28.12,37.938,28.635,38.59z"/>
						<linearGradient id="SVGID_25_" gradientUnits="userSpaceOnUse" x1="21.99" y1="28.1416" x2="32.934" y2="28.1416">
							<stop  offset="0" style="stop-color:#112B7F"/>
							<stop  offset="0.1636" style="stop-color:#1C388F"/>
							<stop  offset="0.4035" style="stop-color:#2845A0"/>
							<stop  offset="0.6676" style="stop-color:#2F4DAA"/>
							<stop  offset="1" style="stop-color:#314FAD"/>
						</linearGradient>
						<path fill="url(#SVGID_25_)" d="M32.934,23.289c-0.715,0.235-1.738,0.131-1.738,0.131c0.032,0.422-0.451,0.905-0.673,1.102
							c-0.16-0.232-0.395-0.358-0.614-0.294c-0.296,0.083-0.603,0.499-0.488,0.91c0.04,0.139,0.125,0.259,0.23,0.355
							c0,0.003,0,0.008,0.003,0.013c1.048,2.038,0.862,3.528,0.862,3.528c0.288,1.281,1.101,6.93-3.739,6.9
							c-5.952-0.037-5.61-4.78-2.981-8.648c2.626-3.868,2.714-7.057,5.311-6.937C31.706,20.468,32.715,21.627,32.934,23.289z"/>
						<path opacity="0.25" fill="#102D77" d="M37.02,76.615l-1.046-0.027c0.002-4.298,0.299-14.727,0.234-16.166
							c-0.077-1.688-2.361-7.859-3.349-12.04c0.934-0.284,1.681-0.725,2.189-1.093c0.568,3.414,1.768,10.551,2.104,11.853
							C37.6,60.867,37.02,76.615,37.02,76.615z"/>
						<path opacity="0.25" fill="#91095D" d="M35.814,46.646c0,0-1.108,1.175-2.953,1.738c-0.077-0.324-0.147-0.637-0.207-0.934
							c-0.827-4.131-4.791-8.509-4.791-8.509l1.576-0.72c1.315,1.145,4.027,3.424,4.883,3.489c0.139,0.01,0.396-0.057,0.742-0.187
							C35.496,44.355,35.814,46.646,35.814,46.646z"/>
						<g>
							<g>
								<linearGradient id="SVGID_26_" gradientUnits="userSpaceOnUse" x1="14.3162" y1="69.7331" x2="69.9804" y2="-1.8351">
									<stop  offset="0" style="stop-color:#FF3C4A"/>
									<stop  offset="1" style="stop-color:#FF9400"/>
								</linearGradient>
								<path fill="url(#SVGID_26_)" d="M16.613,74.264c8.643-8.307,15.461-16.594,20.265-24.63
									c5.864-9.806,8.723-19.259,8.509-28.106l-2.159,0.07l2.672-4.537l2.963,4.353l-2.221,0.072
									c0.224,9.094-2.697,18.781-8.691,28.801c-4.866,8.138-11.756,16.515-20.481,24.899"/>
							</g>
						</g>
						<linearGradient id="SVGID_27_" gradientUnits="userSpaceOnUse" x1="29.4396" y1="38.164" x2="46.1982" y2="38.164">
							<stop  offset="0.0176" style="stop-color:#F4BD6C"/>
							<stop  offset="1" style="stop-color:#FFD49C"/>
						</linearGradient>
						<path fill="url(#SVGID_27_)" d="M46.198,35.45c0,0.356-0.229,0.675-0.568,0.787l-1.046,0.349c0,0-9.114,5.209-10.262,5.125
							c-0.857-0.065-3.568-2.343-4.883-3.489l3.058-1.932l2.226,2.435l8.738-2.986c0.212-0.037,0.406-0.142,0.548-0.301l0.598-0.66
							l0.565-0.137c0.067-0.015,0.132-0.025,0.197-0.025C45.815,34.616,46.198,34.98,46.198,35.45z"/>
					</g>
					<g>
						<linearGradient id="SVGID_28_" gradientUnits="userSpaceOnUse" x1="55.3193" y1="48.6944" x2="66.4789" y2="48.6944">
							<stop  offset="0" style="stop-color:#112B7F"/>
							<stop  offset="0.1636" style="stop-color:#1C388F"/>
							<stop  offset="0.4035" style="stop-color:#2845A0"/>
							<stop  offset="0.6676" style="stop-color:#2F4DAA"/>
							<stop  offset="1" style="stop-color:#314FAD"/>
						</linearGradient>
						<path fill="url(#SVGID_28_)" d="M66.479,47.368l-0.618-1.55l-1.404,0.324c-0.259-0.361-0.567-0.676-0.912-0.937l0.362-1.394
							l-1.533-0.659l-0.763,1.221c-0.427-0.071-0.868-0.078-1.308-0.017l-0.73-1.242l-1.55,0.618l0.324,1.404
							c-0.361,0.259-0.676,0.567-0.937,0.912l-1.394-0.362l-0.659,1.533l1.221,0.763c-0.071,0.427-0.078,0.867-0.017,1.308
							l-1.242,0.73l0.618,1.55l1.404-0.324c0.259,0.361,0.567,0.676,0.912,0.937l-0.362,1.394l1.533,0.659l0.763-1.221
							c0.427,0.071,0.868,0.078,1.308,0.017l0.73,1.242l1.55-0.618l-0.324-1.404c0.361-0.259,0.676-0.567,0.937-0.912l1.394,0.362
							l0.659-1.533l-1.221-0.763c0.071-0.427,0.078-0.868,0.017-1.308L66.479,47.368z M61.71,50.728
							c-1.123,0.448-2.397-0.1-2.844-1.223c-0.448-1.123,0.1-2.397,1.223-2.844c1.123-0.448,2.397,0.1,2.844,1.223
							C63.381,49.007,62.833,50.28,61.71,50.728z"/>
						<linearGradient id="SVGID_29_" gradientUnits="userSpaceOnUse" x1="59.8575" y1="48.6944" x2="61.9408" y2="48.6944">
							<stop  offset="0" style="stop-color:#112B7F"/>
							<stop  offset="0.1636" style="stop-color:#1C388F"/>
							<stop  offset="0.4035" style="stop-color:#2845A0"/>
							<stop  offset="0.6676" style="stop-color:#2F4DAA"/>
							<stop  offset="1" style="stop-color:#314FAD"/>
						</linearGradient>
						<circle fill="url(#SVGID_29_)" cx="60.899" cy="48.694" r="1.041"/>
					</g>
					<g>
						<linearGradient id="SVGID_30_" gradientUnits="userSpaceOnUse" x1="18.9678" y1="57.2971" x2="2.9307" y2="35.6299">
							<stop  offset="0" style="stop-color:#FF3C4A"/>
							<stop  offset="1" style="stop-color:#FF9400"/>
						</linearGradient>
						<path fill="url(#SVGID_30_)" d="M18.704,47.998l-0.491-1.695L16.702,46.5c-0.235-0.407-0.527-0.77-0.864-1.081l0.524-1.43
							l-1.546-0.851l-0.929,1.207c-0.442-0.118-0.905-0.172-1.375-0.153l-0.641-1.382L10.177,43.3l0.197,1.511
							c-0.407,0.235-0.77,0.527-1.081,0.864l-1.43-0.524l-0.851,1.546l1.207,0.929c-0.118,0.442-0.172,0.905-0.153,1.375
							l-1.382,0.641l0.491,1.695l1.511-0.197c0.235,0.407,0.527,0.77,0.864,1.081l-0.524,1.43l1.546,0.851l0.929-1.207
							c0.442,0.118,0.905,0.172,1.375,0.153l0.641,1.382l1.695-0.491l-0.197-1.511c0.407-0.235,0.77-0.527,1.081-0.864l1.43,0.524
							l0.851-1.546l-1.207-0.929c0.118-0.442,0.172-0.905,0.153-1.375L18.704,47.998z M13.338,51.044
							c-1.228,0.356-2.513-0.352-2.868-1.58s0.352-2.513,1.58-2.868c1.228-0.356,2.513,0.352,2.868,1.58
							C15.274,49.404,14.566,50.689,13.338,51.044z"/>
						<linearGradient id="SVGID_31_" gradientUnits="userSpaceOnUse" x1="18.9678" y1="57.2971" x2="2.9307" y2="35.6299">
							<stop  offset="0" style="stop-color:#FF3C4A"/>
							<stop  offset="1" style="stop-color:#FF9400"/>
						</linearGradient>
						<circle fill="url(#SVGID_31_)" cx="12.693" cy="48.82" r="1.101"/>
					</g>
					<g>
						<linearGradient id="SVGID_32_" gradientUnits="userSpaceOnUse" x1="30.4282" y1="30.7941" x2="6.7137" y2="6.3972">
							<stop  offset="0" style="stop-color:#3B5FF4"/>
							<stop  offset="1" style="stop-color:#314FAD"/>
						</linearGradient>
						<path fill="url(#SVGID_32_)" d="M9.086,10.407h12.905c1.451,0,2.638,1.187,2.638,2.638v4.86c0,1.451-1.187,2.638-2.638,2.638
							l0,0c-0.532,0-0.946,0.464-0.885,0.993l0.166,1.442c0.029,0.247-0.256,0.405-0.451,0.249l-2.814-2.251
							c-0.35-0.28-0.786-0.433-1.234-0.433H9.086c-1.451,0-2.638-1.187-2.638-2.638v-4.86C6.448,11.594,7.635,10.407,9.086,10.407z"
							/>
						<path fill="#FFFFFF" d="M20.103,14.047h-9.668c-0.282,0-0.512,0.23-0.512,0.512l0,0c0,0.281,0.23,0.512,0.512,0.512h9.668
							c0.281,0,0.512-0.23,0.512-0.512l0,0C20.615,14.277,20.385,14.047,20.103,14.047z"/>
						<path fill="#FFFFFF" d="M17.416,16.464h-4.294c-0.282,0-0.512,0.23-0.512,0.512l0,0c0,0.281,0.23,0.512,0.512,0.512h4.294
							c0.281,0,0.512-0.23,0.512-0.512l0,0C17.928,16.694,17.698,16.464,17.416,16.464z"/>
					</g>
					<g>
						<path fill="#FFFFFF" d="M96.036,11.488H85.32c-1.205,0-2.191,0.986-2.191,2.191v4.036c0,1.205,0.986,2.191,2.191,2.191l0,0
							c0.442,0,0.786,0.385,0.735,0.825l-0.138,1.197c-0.024,0.205,0.213,0.336,0.374,0.207l2.337-1.87
							c0.291-0.233,0.652-0.36,1.025-0.36h6.383c1.205,0,2.191-0.986,2.191-2.191v-4.036C98.227,12.474,97.241,11.488,96.036,11.488
							z"/>
						<linearGradient id="SVGID_33_" gradientUnits="userSpaceOnUse" x1="97.6384" y1="20.9235" x2="85.1667" y2="9.5893">
							<stop  offset="0" style="stop-color:#3B5FF4"/>
							<stop  offset="1" style="stop-color:#314FAD"/>
						</linearGradient>
						<path fill="url(#SVGID_33_)" d="M95.268,14.098H86.06c-0.268,0-0.487,0.219-0.487,0.487l0,0c0,0.268,0.219,0.488,0.487,0.488
							h9.208c0.268,0,0.488-0.219,0.488-0.488l0,0C95.756,14.317,95.537,14.098,95.268,14.098z"/>
						<linearGradient id="SVGID_34_" gradientUnits="userSpaceOnUse" x1="96.4926" y1="22.1843" x2="84.0208" y2="10.85">
							<stop  offset="0" style="stop-color:#3B5FF4"/>
							<stop  offset="1" style="stop-color:#314FAD"/>
						</linearGradient>
						<path fill="url(#SVGID_34_)" d="M92.709,16.4h-4.09c-0.268,0-0.488,0.219-0.488,0.488l0,0c0,0.268,0.219,0.488,0.488,0.488
							h4.09c0.268,0,0.487-0.219,0.487-0.488l0,0C93.197,16.619,92.977,16.4,92.709,16.4z"/>
					</g>
					<g>
						<linearGradient id="SVGID_35_" gradientUnits="userSpaceOnUse" x1="43.6711" y1="65.3711" x2="57.6841" y2="65.3711">
							<stop  offset="0" style="stop-color:#112B7F"/>
							<stop  offset="0.1636" style="stop-color:#1C388F"/>
							<stop  offset="0.4035" style="stop-color:#2845A0"/>
							<stop  offset="0.6676" style="stop-color:#2F4DAA"/>
							<stop  offset="1" style="stop-color:#314FAD"/>
						</linearGradient>
						<circle fill="url(#SVGID_35_)" cx="50.678" cy="65.371" r="7.005"/>
						<linearGradient id="SVGID_36_" gradientUnits="userSpaceOnUse" x1="61.1831" y1="61.8441" x2="48.9846" y2="66.5358">
							<stop  offset="0" style="stop-color:#FF3C4A"/>
							<stop  offset="1" style="stop-color:#FF9400"/>
						</linearGradient>
						<path fill="url(#SVGID_36_)" d="M55.33,70.606c0.964-0.855,1.704-1.984,2.084-3.314c1.061-3.72-1.095-7.596-4.815-8.657
							l-1.978,6.935L55.33,70.606z"/>
					</g>
					<g>
						<linearGradient id="SVGID_37_" gradientUnits="userSpaceOnUse" x1="64.1875" y1="28.034" x2="54.1217" y2="13.4755">
							<stop  offset="0" style="stop-color:#FF3C4A"/>
							<stop  offset="1" style="stop-color:#FF9400"/>
						</linearGradient>
						<circle fill="url(#SVGID_37_)" cx="57.417" cy="18.242" r="7.095"/>
						<path fill="#FFFFFF" d="M57.417,12.598c-3.117,0-5.644,2.527-5.644,5.644c0,3.117,2.527,5.644,5.644,5.644
							c3.117,0,5.644-2.527,5.644-5.644C63.061,15.125,60.534,12.598,57.417,12.598z M57.417,22.695
							c-2.459,0-4.453-1.994-4.453-4.453c0-2.459,1.994-4.453,4.453-4.453c2.459,0,4.453,1.994,4.453,4.453
							C61.87,20.701,59.876,22.695,57.417,22.695z"/>
						<path fill="#FFFFFF" d="M57.417,15.175c-1.694,0-3.067,1.373-3.067,3.067c0,1.694,1.373,3.067,3.067,3.067
							c1.694,0,3.067-1.373,3.067-3.067C60.484,16.548,59.111,15.175,57.417,15.175z M57.417,20.104
							c-1.028,0-1.862-0.834-1.862-1.862s0.834-1.862,1.862-1.862s1.862,0.834,1.862,1.862S58.446,20.104,57.417,20.104z"/>
					</g>
					<linearGradient id="SVGID_38_" gradientUnits="userSpaceOnUse" x1="100.8639" y1="64.3794" x2="86.4191" y2="45.1576">
						<stop  offset="0" style="stop-color:#FF3C4A"/>
						<stop  offset="1" style="stop-color:#FF9400"/>
					</linearGradient>
					<circle fill="url(#SVGID_38_)" cx="94.893" cy="56.434" r="5.524"/>
					<circle fill="#FFFFFF" cx="94.893" cy="56.433" r="4.057"/>
					<g>
						<linearGradient id="SVGID_39_" gradientUnits="userSpaceOnUse" x1="104.3438" y1="67.0346" x2="85.833" y2="46.05">
							<stop  offset="0" style="stop-color:#FF3C4A"/>
							<stop  offset="1" style="stop-color:#FF9400"/>
						</linearGradient>
						<path fill="url(#SVGID_39_)" d="M96.203,56.409c-0.178-0.184-0.472-0.349-0.881-0.493c-0.202-0.069-0.358-0.129-0.472-0.18
							c-0.114-0.054-0.193-0.101-0.24-0.142c-0.045-0.043-0.069-0.096-0.069-0.161c0-0.073,0.032-0.131,0.096-0.169
							c0.062-0.036,0.174-0.056,0.33-0.056c0.328,0,0.697,0.092,1.106,0.274l0.349-0.836c-0.394-0.169-0.789-0.266-1.177-0.287
							v-0.397h-0.609v0.403c-0.414,0.043-0.725,0.154-0.933,0.337c-0.208,0.182-0.311,0.435-0.311,0.759
							c0,0.21,0.034,0.386,0.105,0.53c0.069,0.142,0.18,0.27,0.332,0.384s0.354,0.219,0.602,0.309
							c0.221,0.081,0.397,0.15,0.525,0.206c0.131,0.058,0.223,0.109,0.279,0.154c0.056,0.045,0.084,0.099,0.084,0.163
							c0,0.094-0.039,0.161-0.116,0.202c-0.077,0.041-0.199,0.06-0.364,0.06c-0.202,0-0.435-0.039-0.701-0.116
							s-0.512-0.174-0.74-0.289v0.976c0.397,0.172,0.81,0.268,1.237,0.287v0.549h0.609v-0.566c0.399-0.049,0.703-0.178,0.911-0.382
							c0.208-0.206,0.313-0.474,0.313-0.802C96.471,56.834,96.381,56.596,96.203,56.409z"/>
					</g>
					<linearGradient id="SVGID_40_" gradientUnits="userSpaceOnUse" x1="49.3281" y1="33.8229" x2="54.1487" y2="33.8229">
						<stop  offset="0" style="stop-color:#112B7F"/>
						<stop  offset="0.1636" style="stop-color:#1C388F"/>
						<stop  offset="0.4035" style="stop-color:#2845A0"/>
						<stop  offset="0.6676" style="stop-color:#2F4DAA"/>
						<stop  offset="1" style="stop-color:#314FAD"/>
					</linearGradient>
					<polygon fill="url(#SVGID_40_)" points="54.149,32.518 51.738,28.833 49.328,32.518 50.583,32.518 50.583,38.813 
						52.894,38.813 52.894,32.518 					"/>
					<linearGradient id="SVGID_41_" gradientUnits="userSpaceOnUse" x1="67.7309" y1="12.5288" x2="72.7874" y2="12.5288">
						<stop  offset="0" style="stop-color:#3B5FF4"/>
						<stop  offset="1" style="stop-color:#314FAD"/>
					</linearGradient>
					<polygon fill="url(#SVGID_41_)" points="72.787,13.078 70.259,9.213 67.731,13.078 69.047,13.078 69.047,15.845 71.471,15.845 
						71.471,13.078 					"/>
					<linearGradient id="SVGID_42_" gradientUnits="userSpaceOnUse" x1="43.7568" y1="12.1862" x2="43.7568" y2="-1.254">
						<stop  offset="0" style="stop-color:#FF3C4A"/>
						<stop  offset="1" style="stop-color:#FF9400"/>
					</linearGradient>
					<polygon fill="url(#SVGID_42_)" points="46.213,3.755 43.757,0 41.301,3.755 42.58,3.755 42.58,6.824 44.934,6.824 
						44.934,3.755 					"/>
				</g>
			</g>
		</g>
	</g>
</g>
</svg>
