<?xml version="1.0" encoding="utf-8"?>
<!-- Generator: Adobe Illustrator 17.0.0, SVG Export Plug-In . SVG Version: 6.00 Build 0)  -->
<!DOCTYPE svg PUBLIC "-//W3C//DTD SVG 1.1//EN" "http://www.w3.org/Graphics/SVG/1.1/DTD/svg11.dtd">
<svg version="1.1" id="Layer_1" xmlns="http://www.w3.org/2000/svg" xmlns:xlink="http://www.w3.org/1999/xlink" x="0px" y="0px"
	 width="144px" height="144px" viewBox="0 0 144 144" enable-background="new 0 0 144 144" xml:space="preserve">
<g>
	<g>
		<path fill="#0004cad9" d="M133.6,87.995h-1.605c4.377,0.119,7.891,3.697,7.891,8.103c0,4.481-3.633,8.114-8.114,8.114l-2.057,0.011
			c4.611,0,8.324,3.847,8.104,8.506c-0.205,4.364-3.965,7.722-8.334,7.722h-8.193c0,0-2.775,0-7.806,0c-5.51,0-13.727,0-23.995,0
			c-12.001,0-18.974-2.514-22.583-4.47c-1.996-1.082-3.232-3.171-3.232-5.441V63.424c0-2.312,1.299-4.405,3.338-5.494
			c6.114-3.266,13.522-14.14,14.62-23.706c1.558-13.578-1.236-20.095,3.533-20.128c8.712-0.062,13.571,5.529,15.247,12.231
			c2.42,9.68,0.335,16.755-0.838,20.776c-2.252,7.722,6.376,8.437,6.376,8.437h13.705h1.634h14.365c4.369,0,8.128,3.358,8.334,7.722
			c0.219,4.659-3.493,8.506-8.105,8.506h-2.057c4.611,0,8.324,3.847,8.104,8.506C141.728,84.638,137.969,87.995,133.6,87.995z
			 M60.825,61.091v54.791c0,2.07-1.678,3.749-3.749,3.749H27.607c-2.071,0-3.749-1.678-3.749-3.749V61.091
			c0-2.071,1.678-3.749,3.749-3.749h29.468C59.146,57.342,60.825,59.021,60.825,61.091z M38.256,110.301
			c0-2.095-1.698-3.793-3.793-3.793c-2.095,0-3.793,1.698-3.793,3.793c0,2.095,1.698,3.793,3.793,3.793
			C36.558,114.094,38.256,112.396,38.256,110.301z"/>
		<path fill="#11A3A3" d="M100.415,26.326c-0.09-0.361,0.043,8.099-3.056,13.812c-7.665,14.129,0.83,17.408,3.147,18.818
			c4.626,2.816,6.909-0.632,20.424-1.657c8.974-0.681,13.624,3.4,21.842,2.129c-1.486-2.348-4.159-3.889-7.117-3.889h-29.704
			c0,0-8.628-0.716-6.376-8.437C100.751,43.081,102.835,36.006,100.415,26.326z"/>
		<path fill="#11A3A3" d="M105.199,111.683c-2.103-1.933-6.486-0.72-4.447-2.49c15.916-13.82-1.197-16.731-3.016-18.192
			c-2.177-1.749-0.122-6.877-10.168-7.254c-1.723-0.065-9.193,2.055-10.714,8.513c-1.36,5.778,1.027,5.201,2.201,8.493
			c-3.561,9.549,2.039,12.303-1.285,18.754c3.226,0.57,7.099,0.944,11.722,0.944h17.639
			C105.489,119.387,106.159,112.565,105.199,111.683z"/>
		<path fill="#11A3A3" d="M45.878,67.273c4.798,13.674-1.762,16.203,2.42,17.613c1.082,0.365,2.983-4.338,3.698-3.436
			c4.009,5.055,1.964-6.378,2.073-10.304c0.314-11.325,5.687-4.206,6.755-7.854v-2.2c0-2.071-1.678-3.749-3.749-3.749H39.937
			C39.937,67.196,45.332,65.716,45.878,67.273z"/>
		<path fill="#11A3A3" d="M38.239,110.637c-0.17,1.937-1.795,3.457-3.776,3.457c-2.095,0-3.793-1.698-3.793-3.793
			c0-1.437,0.805-2.679,1.983-3.323c-0.397-0.512-0.694-1.094-0.841-1.726c-0.35-1.501-0.573-10.611-0.985-11.938
			c-0.831-2.677-0.682-7.693,1.378-9.494c2.241-1.959,4.151-4.56,4.524-5.763c3.612-11.656-1.38-15.271-7.037-16.285
			c-0.735-0.132,0.527-3.755,0.653-4.43h-2.736c-2.071,0-3.749,1.679-3.749,3.749v54.791c0,2.071,1.678,3.749,3.749,3.749h17.424
			C44.199,118.936,38.729,110.593,38.239,110.637z"/>
	</g>
	<g>
		<path fill="#AF704A" d="M17.755,84.318c0,0-2.575,12.865-2.448,13.875c0.128,1.009,14.015,21.052,14.015,21.052
			s0.911-1.099,1.294-1.41c0.383-0.311-2.885-10.748-8.059-18.114c0,0,1.338-14.497,1.231-15.483
			C23.682,83.252,17.755,84.318,17.755,84.318z"/>
		<path fill="#AF704A" d="M30.274,83.509c0,0,0.939,2.883-4.084,17.152c-1.4,6.842-5.957,18.505-7.214,22.577l-1.98-0.415
			c2.092-40.489,4.949-40.463,4.498-38.623C21.875,82.646,30.274,83.509,30.274,83.509z"/>
		<path opacity="0.5" fill="#AF704A" d="M21.177,84.28c0,0-2.723,17.011-2.881,18.974c0,0,1.813-18.056,2.065-18.974H21.177z"/>
		<g>
			<polygon fill="#20357E" points="8.701,65.218 10.824,72.694 14.158,72.233 12.68,64.215 			"/>
			<polygon fill="#2F4CA0" points="13.264,64.215 14.438,71.577 14.158,72.233 12.68,64.215 			"/>
			<circle fill="#2F4CA0" cx="10.923" cy="66.337" r="0.389"/>
		</g>
		<path fill="#FBF4DB" d="M9.542,69.411c0,0,0.386-0.063,0.482,0.48c0.096,0.543,0.524,0.93,0.509,0.799
			c-0.161-1.416,1.393-3.077,1.617-3.173c0.224-0.096,1.327-0.26,1.409-0.157c0.377,0.471-0.164,2.311,0.109,2.924
			c0.282,0.632-0.109,0.77-0.54,2.011c-0.089,0.258,2.289,3.492,2.289,3.492l0.361-1.586l2.82,0.944l-0.563,3.888
			c0,0-0.843,1.673-2.618,0.611C12.924,78.152,9.127,70.306,9.542,69.411z"/>
		<path fill="#FBF4DB" d="M13.129,72.295c-0.257,0.055-0.448,0.623-1.481,0.644c-0.274,0.006,2.602,1.823,3.069,1.822
			C13.237,72.79,13.017,72.318,13.129,72.295z"/>
		<path fill="#FBF4DB" d="M15.417,75.787c0,0,1.442,0.781,1.843,1.445c0.508,0.84,0.775,1.801,0.775,1.801l0.563-3.979l-1.893-0.573
			c0,0,0.224,0.595,0.302,1.673C16.309,75.81,15.417,75.787,15.417,75.787z"/>
		<path fill="#FBF4DB" d="M17.149,56.63c0,0,1.194,5.08,2.709,5.921c1.514,0.841,2.087,0.389,2.423,0.557
			c0.131,0.065,0.111,0.574-0.063,1.37c-0.254,1.161-0.407,2.718-0.407,2.718s4.508-1.479,4.677-2.405c0.168-0.925,0-5.721,0-5.721
			s1.178-2.692,0.673-3.786c-0.505-1.094-3.281-3.365-3.281-3.365C22.54,52.027,17.725,51.832,17.149,56.63z"/>
		<path fill="#FF9650" d="M22.364,63.591c-0.035,1.178-0.644,3.147,0.793,2.572c1.437-0.575,3.235-1.948,3.402-3.937
			c0,0,5.211,1.069,6.336,1.491c3.393,1.274,3.508,7.477,3.042,11.573c0,0-2.56,0.134-4.176-0.955
			c-0.185,2.137-1.678,8.36-1.486,9.174c0.192,0.814-12.489,1.329-12.632,1.377c-0.144,0.048,0.281-10.033,0.185-9.999
			c-0.096,0.034-2.049-0.686-2.049-0.686s1.206-7.727,1.733-8.254C18.039,65.42,21.779,63.732,22.364,63.591z"/>
		<path fill="#735429" d="M16.996,122.822c0,0-4.585,0.565-5.495,1.188c-0.91,0.623,6.533,1.511,7.443,1.032
			c0.91-0.479,0.032-1.805,0.032-1.805L16.996,122.822z"/>
		<path fill="#735429" d="M29.323,119.245c0,0,0.225,3.034,0,3.577s-2.045,0.827-1.758,1.188c0.287,0.361,2.91,0.358,3.084,0
			c0.174-0.358,2.219-5.169,1.692-5.6c-0.527-0.431-1.724-0.575-1.724-0.575L29.323,119.245z"/>
		<path fill="#FBF4DB" d="M22.281,63.108c1.037-0.232,2.195-0.693,2.823-2.672c0,2.419-1.068,4.242-2.886,4.555
			C22.179,64.441,22.501,63.238,22.281,63.108z"/>
		<path opacity="0.5" fill="#FF9650" d="M30.004,68.638c0,0,2.203,8.531-2.136,9.278c-2.373,0.409-0.63,2.078,0.818,1.317
			c1.447-0.762-3.415,4.464-2.744,4.799c0.67,0.335,4.325-0.762,4.325-0.762l1.494-8.936L30.004,68.638z"/>
		<path opacity="0.5" fill="#AF704A" d="M25.316,104.214l-1.962,6.341l4.18,6.1C27.534,116.655,27.801,108.095,25.316,104.214z"/>
		<path fill="#FBF4DB" d="M32.021,74.481c0.811,0.607,3.916,0.808,3.916,0.808s-0.026,2.082-0.696,3.004
			c-0.67,0.922-6.849,8.105-6.849,8.105s-1.444,0.465-1.99-0.691c-0.056-0.118,4.681-7.26,5.278-8.084
			C32.277,76.799,32.057,75.382,32.021,74.481z"/>
		<path opacity="0.5" fill="#AF704A" d="M27.02,84.666l-0.618,1.041c0,0,0.482,1.162,1.99,0.691c0,0,0,0.544-1.655,0.796
			c-0.855,0.13-2.492-2.052-2.492-2.052S25.871,85.033,27.02,84.666z"/>
		<path fill="#735429" d="M18.579,57.449c0.186,0.068,0.368,0.181,0.564,0.16c0.196-0.021,0.369-0.281,0.232-0.427
			c0.15,0.24,0.548,0.13,0.675-0.124c0.126-0.254-0.166-0.588,0.007-0.838c0.187-0.154,0.499-0.1,0.628,0.108
			c-0.079-0.306,0.33-0.599,0.58-0.416c0.123,0.09,0.18,0.244,0.254,0.38c0.074,0.135,0.194,0.27,0.344,0.264
			s0.053-0.182,0.118-0.32c0.156-0.263,0.252-0.263,0.415-0.122c0.004,0.114,0.007,0.227,0.011,0.341
			c0.057-0.196,0.297-0.309,0.478-0.226c0.181,0.083,0.26,0.343,0.158,0.518c0.068,0.246,0.359,0.398,0.591,0.308
			c0.232-0.09,0.354-0.403,0.247-0.634c0.404,0.129,0.617,0.682,0.41,1.063c0.233,0.158,0.353,0.475,0.284,0.754
			c-0.192,0.037,0.04,0.069,0.116,0.255c0.357-0.209,0.357-0.209,0.715-0.418c0.186,0.409-0.067,0.961-0.49,1.072
			c0.053,0.097,0.106,0.193,0.158,0.29c-0.283,0.172-0.364,0.615-0.162,0.882c0.202,0.267,0.638,0.292,0.868,0.05
			c0.182,0.232,0.467,0.49,0.722,0.349c0.2-0.11,0.224-0.387,0.289-0.611c0.065-0.224,0.313-0.455,0.49-0.309
			c0.006-0.168,0.012-0.337,0.018-0.505c0.484,0.076,0.854-0.659,0.516-1.024c0.229-0.036,0.459-0.073,0.677-0.155
			c0.262-0.099,0.509-0.272,0.636-0.529c0.127-0.256,0.105-0.602-0.1-0.798c0.219-0.138,0.216-0.207,0.472-0.216
			c0.391-0.716-0.228-0.547-0.075-0.835c0.121-0.229,0.498-0.217,0.608-0.451c0.109-0.235,0.035-0.793-0.189-0.914
			c0.368,0.027,0.474-0.527,0.272-0.85c-0.314-0.503-0.822-0.212-0.817-0.346c0.016-0.377,0.074-0.8-0.487-0.958
			c0.283-0.299,0.317-0.623,0.047-1.131c-0.27-0.508-0.653-0.701-1.146-0.424c0.044-0.716-0.652-1.376-1.34-1.271
			c0.029-0.186,0.055-0.391-0.04-0.552c-0.095-0.161-0.364-0.212-0.449-0.045c-0.118-0.32-0.449-0.543-0.781-0.525
			c-0.332,0.018-0.398-0.422-0.482-0.091c0.115-0.097-0.01-0.303-0.157-0.325c-0.147-0.022-0.594,0.241-0.742,0.253
			c-0.238,0.018-0.154-0.315-0.389-0.356c-0.235-0.041-1.021-0.06-0.968,0.18c-0.627-0.543-0.61-0.418-0.897-0.221
			c-0.134-0.32-0.594-0.429-0.849-0.2c-0.21,0.189-0.248,0.509-0.403,0.749c-0.155,0.239-0.59,0.325-0.659,0.046
			c-0.146,0.217-0.291,0.435-0.437,0.652c-0.038-0.316-0.511-0.384-0.727-0.156c-0.215,0.228-0.223,0.588-0.175,0.903
			c-0.284-0.129-0.595-0.261-0.895-0.179c-0.3,0.082-0.519,0.493-0.315,0.734c-0.427-0.064-0.881,0.145-1.119,0.516
			c-0.232-0.309-0.728-0.289-1.014-0.033c-0.286,0.257-0.389,0.674-0.384,1.065c0.003,0.266,0.065,0.557,0.271,0.716
			c-0.264-0.176-0.537,0.231-0.567,0.553c-0.03,0.323-0.091,0.754-0.403,0.79c0.08,0.249,0.689,0.661,0.863,0.852
			c-0.149,0.229-0.298,0.457-0.446,0.686c-0.058,0.089-0.117,0.181-0.137,0.286c-0.061,0.325,0.285,0.592,0.604,0.618
			c-0.466,0.138-0.726,0.733-0.57,1.207c0.156,0.474,1.138,0.691,1.6,0.481c-0.166,0.687,0.555,0.959,0.696,1.01
			c0.353,0.127,0.949-0.342,1.004-0.857C17.962,58.512,18.458,58.394,18.579,57.449z"/>
	</g>
	<g>
		<path fill="#BE3E87" d="M86.243,118.023c0,0-1.571,5.213,1.325,6.391s11.86-2.429,13.253-2.215
			c1.394,0.214,13.485,7.356,13.485,7.356v-1.601c0,0-10.48-9.152-11.998-9.735c-1.4-0.538-8.388-3.446-10.209-2.696
			C90.279,116.273,86.243,118.023,86.243,118.023z"/>
		<path opacity="0.4" fill="#BE3E87" d="M113.775,127.492c-1.206,0.446-2.331-0.363-3.169-1.259
			c-0.437-0.467-0.275-1.056,0.097-1.382c-0.386-0.328-0.786-0.668-1.195-1.014c-0.318,0.3-0.619,0.61-1,0.836
			c-0.416,0.246-1.07,0.117-1.295-0.34c-0.013-0.026-0.023-0.053-0.036-0.079c-0.114-0.101-0.211-0.232-0.273-0.404
			c-0.414-1.15-0.999-2.226-1.447-3.362c-1.491-1.193-2.704-2.099-3.148-2.27c-1.4-0.538-8.388-3.446-10.209-2.696
			c-1.821,0.75-5.857,2.5-5.857,2.5s-1.571,5.213,1.325,6.391c2.896,1.178,11.86-2.429,13.253-2.215
			c1.394,0.214,13.485,7.356,13.485,7.356v-1.601C114.307,127.954,114.111,127.783,113.775,127.492z"/>
		<path fill="#FF748C" d="M93.369,85.163c3.649,2.399,0.445,7.137,6.208,7.95c8.198,1.156,10.26,8.105,1.281,11.803
			c-8.534,3.516-17.721-3.403-18.793-8.117C80.994,92.085,84.113,79.078,93.369,85.163z"/>
		<path opacity="0.5" fill="#FF748C" d="M100.559,102.934c4.725-7.358-11.473-4.099-9.883-16.555
			c-7.089,0.074-9.51,6.461-8.611,10.421C83.136,101.513,98.561,106.045,100.559,102.934z"/>
		<path fill="#FBF4DB" d="M93.523,91.078c-1.258,2.327-2.871,4.003-3.559,4.242c-0.939,0.326-1.751,0.16-1.751,0.16l0.783,1.981
			c0,0,3.356,0.818,3.463,1.354s-5.678,5.203-6.589,5.471c-0.911,0.268-1.346-4.681-1.667-6.877l1.096-0.031
			c0,0,0.226-2.222-0.257-3.885c-2.69-1.857,1.761-8.049,2.993-8.585C89.267,84.371,95.729,86.997,93.523,91.078z"/>
		<path fill="#FF748C" d="M85.869,89.954c-3.041,5.149,0.014,8.861-0.652,11.452c-1.024-0.403-0.344,0.523-2.894-1.889
			c-5.547-5.247-3.434-11.591,1.87-15.306c2.811-1.969,7.828-1.154,9.448,1.345c1.218,1.879,0.568,4.738-0.111,6.02
			c-1.799,0.769-3.561,0.683-4.692-1.622C87.129,86.467,86.341,89.155,85.869,89.954z"/>
		<path fill="#FB85D1" d="M116.584,126.754c-1.068,0.35-3.662,1.254-3.37,2.242c0.292,0.988,1.905,1.001,2.301,0.818
			c1.184-0.547,3.149-2.535,3.164-3.181C118.694,125.987,117.578,126.428,116.584,126.754z"/>
		<path opacity="0.5" fill="#FB85D1" d="M115.515,129.814c1.184-0.547,3.149-2.535,3.164-3.181c0.004-0.184-0.085-0.277-0.234-0.313
			c-0.399,0.103-0.919,0.352-1.411,0.566c-1.052,0.46-3.605,1.636-3.259,2.732c0.004,0.013,0.011,0.024,0.015,0.037
			C114.389,129.973,115.242,129.941,115.515,129.814z"/>
		<path fill="#FBF4DB" d="M88.214,95.479c0,0-1.808-0.633-2.073-1.21l2.855,3.19L88.214,95.479z"/>
		<path fill="#BE3E87" d="M82.956,118.891c0,0-0.246,5.993,2.862,6.331c6.329,0.687,11.136-7.473,12.53-7.259
			c1.394,0.214,9.512,11.592,9.512,11.592l0.512-1.747c0,0-7.975-14.874-9.712-15.339c-1.386-0.371-10.283,3.628-12.104,4.377
			C84.734,117.597,82.956,118.891,82.956,118.891z"/>
		<path fill="#FB85D1" d="M109.665,125.112c-0.984,0.746-3.357,2.617-2.774,3.647c0.583,1.03,1.501,1.043,1.901,0.783
			c2.152-1.4,3.139-4.508,2.967-5.248C111.587,123.554,110.58,124.418,109.665,125.112z"/>
		<path opacity="0.5" fill="#FB85D1" d="M111.758,124.295c-0.009-0.041-0.023-0.075-0.037-0.107
			c-0.43,0.099-1.096,0.686-1.723,1.193c-0.969,0.786-3.255,2.714-2.812,3.781c0.563,0.616,1.268,0.599,1.605,0.38
			C110.944,128.143,111.93,125.035,111.758,124.295z"/>
		<path fill="#E49FF1" d="M84.434,97.376c0,0,1.229,4.895,4.468,4.34c1.815-0.311,1.353-2.5,0.57-4.134c0,0,2.654,0.398,3.611,1.609
			c0.959,1.212,2.49,7.67,2.49,7.67s-0.605,3.249-1.474,3.458c-0.331,0.08-1.351-3.609-1.441-3.149
			c-0.184,0.946-2.202,2.664-0.31,7.46c0.326,0.826-5.098,0.095-9.364,6.649c-1.887,2.899,0.997-10.798,0.482-11.097
			c-0.556,0.47-3.196-0.297-3.196-0.297S78.158,98.977,84.434,97.376z"/>
		<path opacity="0.3" fill="#E49FF1" d="M88.404,114.32c-0.244-0.303-0.341-0.689-0.203-1.03c-1.466-0.919-3.042-1.529-3.557-3.374
			c-0.335-1.2-0.655-2.403-0.986-3.604c-0.019-0.027-0.039-0.052-0.056-0.082c-0.059-0.104-0.106-0.194-0.15-0.28
			c0.035,0.478,0.06,0.957,0.064,1.44c0.006,0.819,0.169,2.079-0.189,2.854c-0.004,0.008-0.009,0.014-0.012,0.022
			c0.06-0.022,0.113-0.048,0.153-0.081c0.269,0.156-0.389,3.967-0.81,7.159c0.085,0.097,0.155,0.219,0.199,0.369
			c0.173,0.591,0.227,1.163,0.213,1.778c-0.001,0.064-0.021,0.345-0.043,0.669c0.18-0.476,0.317-0.982,0.432-1.242
			c0.311-0.704,0.704-1.326,1.301-1.826c1.121-0.94,2.494-1.107,3.881-0.956c0.587-0.28,1.132-0.483,1.616-0.641
			C89.555,115.262,88.87,114.899,88.404,114.32z"/>
		<path opacity="0.3" fill="#E49FF1" d="M93.556,106.691c-0.155,0.806-0.579,0.066-0.854-0.741
			c-0.329-0.969-0.785-1.723-1.153-2.671c0.261,0.877,1.096,3.131,0.683,3.754c-0.691,1.043-1.741,1.68-2.295,1.324
			c0.156,0.204,0.179,0.764,0.318,3.326c0.02,0.372,1.56,3.007,1.337,3.423c0.548-0.154,0.84-0.264,0.757-0.474
			c-1.891-4.797,0.127-6.515,0.31-7.46c0.089-0.46,1.109,3.229,1.441,3.149c0.869-0.21,1.474-3.458,1.474-3.458
			s-0.553-2.151-0.944-3.583C94.578,103.418,93.978,104.492,93.556,106.691z"/>
		<g>
			<polygon fill="#BE3E87" points="95.199,92.678 98.779,94.566 96.073,100.752 93.369,100.084 			"/>
			<polygon fill="#E49FF1" points="95.199,92.678 94.692,92.684 93.002,99.523 93.369,100.084 			"/>
			
				<ellipse transform="matrix(0.9708 0.2398 -0.2398 0.9708 25.6739 -20.3509)" fill="#E49FF1" cx="96.459" cy="95.32" rx="0.427" ry="0.576"/>
		</g>
		<path fill="#FBF4DB" d="M97.018,97.696c0,0,1.3-2.267,0.979-0.74c-0.321,1.527,0.854,3.148,0.086,5.551
			c-0.701,2.195-2.392,8.71-2.851,9.057c-0.819,0.619-1.744-1.319-1.548-2.695c0.518-3.629,2.907-7.473,2.388-8.117
			c-0.519-0.643-1.689-0.901-2.095-1.476c-0.392-0.555-0.776-1.794-1.148-2.356c-0.373-0.562,2.956,1.357,2.956,1.357L97.018,97.696
			z"/>
		<path fill="#FBF4DB" d="M80.272,109.887c0,0,0.99,4.128,1.231,4.289c0.241,0.161,8.807,2.078,9.386,1.638
			c1.296-0.983,3.192-1.268,4.546-1.608c1.354-0.341-1.809-1.797-2.841-1.504c-0.742,0.211-1.741,1.206-1.741,1.206l-6.65-1.518
			l-0.697-2.503C83.506,109.887,81.625,110.204,80.272,109.887z"/>
		<path fill="#FF748C" d="M85.487,89.954c0,0-2.562,3.992,0,8.4c1.179,2.029-3.33,2.254-4.923-0.894
			C76.836,90.09,83.984,90.549,85.487,89.954z"/>
	</g>
	<g>
		<path fill="#54C8CF" d="M47.157,27.119c9.462-2.559,14.863,3.042,10.067,13.598c-4.095,9.014-14.959,15.767-18.954,7.227
			c-3.38-7.227,4.946-9.81,4.313-13.219C41.891,30.998,44.553,25.791,47.157,27.119z"/>
		<path fill="#54C8CF" d="M48.233,29.352c9.462-2.559,9.676,4.163,9.112,6.981c-1.509,10.204-11.3,19.333-16.139,11.241
			c-3.803-6.359,2.135-10.134,4.365-11.886C46.955,34.601,47.989,35.207,48.233,29.352z"/>
		<path fill="#FBF4DB" d="M50.482,57.87c0,0,0.434,12.421,0.123,18.14c0.289,4.201-2.021,5.107-1.946,3.915
			c0.683-10.827-2.694-19.186-2.78-21.004C45.794,57.103,50.482,57.87,50.482,57.87z"/>
		<path fill="#FBF4DB" d="M51.34,57.862c0,0-0.049,15.313-0.048,18.149c0,0,0.288,3.89,1.847,3.022
			c-0.356-11.024,2.344-16.784,2.42-18.508C55.636,58.801,51.34,57.862,51.34,57.862z"/>
		<path fill="#FBF4DB" d="M50.676,65.701c-0.068-4.222-0.194-7.832-0.194-7.832s-4.688-0.767-4.603,1.051
			c0.056,1.182,1.502,5.131,2.32,10.724C48.939,69.221,50.364,66.638,50.676,65.701z"/>
		<path fill="#FBF4DB" d="M51.34,57.862c0,0-0.012,3.714-0.024,7.821c1.542-3.009,3.718-2.997,3.764-3.018
			c0.268-0.991,0.46-1.699,0.48-2.14C55.636,58.801,51.34,57.862,51.34,57.862z"/>
		<rect x="47.287" y="35.249" fill="#FBF4DB" width="7.134" height="6.36"/>
		<rect x="47.287" y="35.249" fill="#FBF4DB" width="7.134" height="6.36"/>
		<path fill="#FFB39C" d="M56.233,51.832c-3.745-0.171-10.581-0.646-10.759,0c-0.178,0.646-2.216,1.922-2.604,2.746
			c-1.675,3.557-1.165,6.61-0.723,7.395c1.016,1.804,2.797,3.666,8.098,0.855s6.876,1.22,9.315,0
			c1.976-0.988-0.065-7.308-0.554-8.204C58.129,53.019,56.591,51.848,56.233,51.832z"/>
		<path opacity="0.3" fill="#FFB39C" d="M56.233,51.832c-3.745-0.171-10.581-0.646-10.759,0c-0.178,0.646-2.216,1.922-2.604,2.746
			c-1.675,3.557-1.165,6.61-0.723,7.395c1.016,1.804,2.797,3.666,8.098,0.855s6.876,1.22,9.315,0
			c1.185-0.592-3.041-5.004-11.542,0.37c-3.875,2.45-5.656-3.562-3.875-7.706c1.15-2.676,5.442-0.971,7.15-1.158
			C55.367,53.887,56.471,51.842,56.233,51.832z"/>
		<path fill="#FFD54A" d="M57.524,39.144c-0.311-0.61-1.915-1.054-3.557-2.377c-0.637,4.239-2.582,4.243-3.114,4.243
			c-0.532,0-2.644-0.004-3.281-4.243c-1.675,1.519-4.486,2.413-4.601,3.371c-0.327,2.712-0.824,6.114-0.824,6.114
			c1.162,0.435,2.252-0.23,2.252-0.23l1.074,5.809c0,0,1.22,0.682,5.38,0.682s5.38-0.682,5.38-0.682l1.074-5.809
			c0,0,1.091,0.665,2.252,0.23C59.56,46.252,58.766,41.577,57.524,39.144z"/>
		<path fill="#FBF4DB" d="M55.724,33.751c0.763-6.207-4.887-6.207-4.887-6.207s-5.65,0-4.887,6.207c0,0-0.83,0.056-0.587,1.248
			c0.271,1.33,0.977,1.773,1.444,1.649c0,0,1.492,2.838,4.03,2.838c2.538,0,4.03-2.838,4.03-2.838
			c0.466,0.124,1.173-0.319,1.444-1.649C56.553,33.807,55.724,33.751,55.724,33.751z"/>
		<path fill="#54C8CF" d="M47.307,30.654c0,0,0,2.199-0.708,3.937c0,0-1.479-0.78-1.028,1.097c0,0-0.609-0.71-1.127-1.558
			c-1.276-2.093-0.859-2.825-0.259-4.235c0.939-2.204,2.971-2.777,2.971-2.777s2.68-3.145,5.961-1.797
			c3.28,1.348,7.316,5.682,4.227,11.012C55.775,30.258,49.901,35.963,47.307,30.654z"/>
		<g>
			<polygon fill="#C74373" points="51.901,44.457 49.806,44.457 49.447,40.284 52.26,40.284 			"/>
			<polygon fill="#EA6D73" points="51.994,40.138 49.714,40.138 49.447,40.284 52.26,40.284 			"/>
			<path fill="#EA6D73" d="M51.156,41.317c-0.004,0.163-0.135,0.292-0.292,0.292c-0.157,0-0.288-0.129-0.292-0.292
				c-0.004-0.167,0.127-0.307,0.292-0.307C51.029,41.01,51.16,41.149,51.156,41.317z"/>
		</g>
		<path fill="#FBF4DB" d="M52.263,45.015c0.633-0.558,0.968-1.945,0.633-2.245c-0.209-0.188-0.729-0.502-0.734-1.003
			c-0.001-0.091,0.016-0.17,0.045-0.239c-0.047-0.042-0.087-0.059-0.117-0.043c-0.22,0.121-0.118,1.256-0.191,1.416
			c-0.073,0.16-0.992,0.154-1.323,0.155c-0.331,0.001-1.444-0.625-1.701-0.385s0.332,1.623,0.332,1.623s1.146,1.331,1.476,1.25
			c0.277-0.068,1.107-0.105,1.501-0.046C52.185,45.339,52.135,45.128,52.263,45.015z"/>
		<path fill="#1A3360" d="M48.66,79.925c1.132,1.213,1.837-2.433,1.946-3.915c0.112,1.207,0.346,1.129,0.308,1.947
			c-0.047,1.002-1.727,5.617-2.361,5.173C48.298,82.952,48.341,80.747,48.66,79.925z"/>
		<path fill="#1A3360" d="M51.293,76.01c0,0,0.466,3.133,1.847,3.022c0.163,0.168,0.092,0.603,0.261,1.249
			c0.155,0.592,0.685,1.578,0.229,1.579c-1.405,0.005-2.702-3.883-2.55-4.705C51.223,76.378,51.293,76.01,51.293,76.01z"/>
		<path opacity="0.4" fill="#FFD54A" d="M56.376,51.061c0.895-4.437,0.24-5.325,0.24-5.325s-0.153-2.739,0-3.594
			c0,0-0.539,3.009-0.432,3.405c0.106,0.395-0.213,2.923-0.479,3.109c-0.266,0.186-2.47-2.054-2.47-2.054
			S54.738,50.082,56.376,51.061z"/>
		<path opacity="0.4" fill="#FFD54A" d="M45.091,45.737c0,0-0.027-2.614-0.165-3.518c-0.103-0.67,1.1,3.308,1.176,3.74
			c0.076,0.432,0.479,0.68,1.33,0c0.851-0.68,2.905-1.137,4.043-1.026c0.52,0.05,0.931,0.406,1.224,0.615
			c0.293,0.209-1.199,0.631-2.594,0.695c-0.878,0.04-1.689,1.357-2.195,2.234c-0.505,0.878-2.215,3.607-2.437,3.355
			c-0.275-1.426-0.331-1.789-0.386-2.542C44.975,47.749,45.091,45.737,45.091,45.737z"/>
		<path fill="#FBF4DB" d="M59.124,46.251c0,0-1.284,4.196-2.432,4.187c-0.628-0.005-4.111-4.775-4.332-4.894
			c-0.221-0.119-1.345-0.081-1.676,0c-0.331,0.081-1.476-1.25-1.476-1.25s-0.589-1.382-0.332-1.623
			c0.256-0.24,1.37,0.386,1.701,0.385c0.331-0.001,1.25,0.005,1.323-0.155c0.073-0.16-0.029-1.296,0.191-1.416
			s1.017,1.533,1.307,2.809c1.148,1.086,2.842,2.878,2.885,2.725c0.086-0.303,0.334-1.282,0.334-1.282S57.923,46.408,59.124,46.251z
			"/>
		<path fill="#FBF4DB" d="M42.583,46.251c0,0,1.284,4.196,2.432,4.187c0.628-0.005,4.111-4.775,4.332-4.894
			c0.221-0.119,1.345-0.081,1.676,0c0.331,0.081,1.476-1.25,1.476-1.25s0.589-1.382,0.332-1.623c-0.256-0.24-1.37,0.386-1.701,0.385
			c-0.331-0.001-1.25,0.005-1.323-0.155c-0.073-0.16,0.029-1.296-0.191-1.416s-1.017,1.533-1.307,2.809
			c-1.148,1.086-2.842,2.878-2.885,2.725c-0.086-0.303-0.334-1.282-0.334-1.282S43.784,46.408,42.583,46.251z"/>
	</g>
	<g>
		<path fill="#3B5799" d="M112.972,48.471c0,0,10.273-1.45,11.821-0.157c1.472,1.229,13.86,6.99,13.86,6.99s-0.494,1.301-1.3,1.347
			l-14.155-3.138c0,0-16.01,6.117-17.686,0.922C103.367,47.788,112.972,48.471,112.972,48.471z"/>
		<path opacity="0.5" fill="#3B5799" d="M112.972,48.471c0,0,10.273-1.45,11.821-0.157c1.472,1.229,13.86,6.99,13.86,6.99
			s-0.494,1.301-1.3,1.347l-14.155-3.138c0,0-16.01,6.117-17.686,0.922C103.367,47.788,112.972,48.471,112.972,48.471z"/>
		<path fill="#1B254B" d="M137.218,54.785l-0.209,1.766c0,0,0.75,0.155,1.577-0.004c0.827-0.159,3.931-3.851,3.836-5.018
			C142.324,50.341,141.186,52.43,137.218,54.785z"/>
		<path fill="#3B5799" d="M109.705,47.626c0,0,10.363-3.943,11.981-2.607c1.538,1.27,15.298,10.168,15.298,10.168
			s-0.568,1.286-1.432,1.309l-14.874-6.799c0,0-4.489,4.343-9.358,6.377c-4.214,1.761-8.694,0.576-9.782-2.7
			C99.33,46.727,109.705,47.626,109.705,47.626z"/>
		<path fill="#5BD9FE" d="M107.602,33.542c0,0,6.691,4.961,8.676,5.349c0.678,0.132,6.556-1.96,6.556-1.96l0.197,1.709l-7.5,3.267
			c0,0-6.155-2.384-7.954-3.267C107.331,38.519,107.312,34.4,107.602,33.542z"/>
		<path opacity="0.4" fill="#5BD9FE" d="M118.723,39.321c-2.456,0.4-3.983,1.277-5.23,0.683c-0.86-0.41-1.698-1.113-2.975-4.392
			c-1.62-1.109-2.917-2.07-2.917-2.07c-0.29,0.858-0.271,4.977-0.025,5.098c1.798,0.883,7.954,3.267,7.954,3.267l7.5-3.267
			l-0.072-0.622C121.484,38.665,120.316,39.062,118.723,39.321z"/>
		<path fill="#FBF4DB" d="M112.143,23.897c0.57,1.332,0.787,5.406,0.516,5.542c-0.272,0.136-0.815-0.091-1.041,0.272
			c-0.226,0.362-1.156,2.625-2.423,2.263c-1.267-0.362-2.011-0.778-2.011-0.778s0.109,0.615,0.257,1.689
			c1.32,1.117,1.737,3.714,1.737,3.714l-4.819,2.042l-1.003-6.26c0,0,0.147-3.201,0-4.255c-0.299-2.137,0.341-5.531,2.399-6.847
			C108.055,19.808,111.02,21.275,112.143,23.897z"/>
		<path fill="#356087" d="M110.28,19.976c0.853,0.559,2.891-1.511,3.848,1.144c0.588,1.631-0.361,3.437-1.499,4.036
			c-2.186,1.151-3.166-2.852-5.269-1.79c-0.535,0.27-0.275,1.576-0.592,2.328c-0.317,0.752-1.194,1.55-1.33,1.033
			s-0.905-1.814-1.494-0.456c-0.408,0.941,0.323,1.499,0.124,2.886c-0.102,0.713-0.64,1.295-0.651,1.099
			c-0.131-2.355-1.159-2.295-1.646-4.392c-0.588-2.535-0.354-5.07,2.546-5.325C105.326,18.175,107.911,18.425,110.28,19.976z"/>
		<path fill="#5BD9FE" d="M107.763,33.212c2.928,3.229,3.137,5.585,2.692,7.729c-0.634,3.05,2.624,5.241,1.901,5.746
			c-0.415,0.29-4.17,1.348-6.809,3.004c-2.639,1.656-2.761,2.936-4.027,3.088c-0.437,0.052-0.537-4.457-0.832-7.703
			c-0.692-7.59,0.701-9.703,2.706-14.04C104.07,33.423,108.334,35.284,107.763,33.212z"/>
		<path opacity="0.4" fill="#5BD9FE" d="M102.549,37.715c0.224,1.286,0.802,2.434,2.04,3.191c1.512,0.924,3.212,1.965,4.819,2.707
			c0.693,0.32,1.348,0.627,1.917,0.972c-0.441-0.707-0.861-1.56-0.939-2.528c-0.063-0.009-0.127-0.023-0.194-0.048
			c-1.449-0.528-2.791-1.248-4.175-1.92c-1.136-0.551-2.489-0.96-3.262-2.028C102.675,37.951,102.614,37.832,102.549,37.715z"/>
		<path opacity="0.4" fill="#5BD9FE" d="M106.402,48.45c1.16-0.368,2.468-1.148,2.586-1.704c0.079-0.374-2.865,1.508-3.192,1.313
			c-1.303-0.776-1.538,0.299-2.785,1.109c-0.416,0.27-0.33-1.42-0.708-1.055c-0.695,0.671-0.653-0.964,0.247-1.593
			c1.684-1.177-0.948-0.897-0.988-1.132c0.01,0.06,1.287-1.753,1.169-1.85c-1.054-0.869-1.801-2.282-2.161-3.737
			c-0.104,1.44-0.078,3.136,0.117,5.274c0.296,3.245,0.395,7.755,0.832,7.703c1.082-0.13,1.333-1.084,3.027-2.391
			C104.572,50.304,103.758,49.328,106.402,48.45z"/>
		<path fill="#FBF4DB" d="M122.834,36.932l0.197,1.709c0,0,0.776-0.135,1.036-0.192c0.26-0.057,0.791-2.549,0.791-2.549
			s-0.194-0.578-0.584-0.493C123.883,35.492,122.834,36.932,122.834,36.932z"/>
		<polygon fill="#5BD9FE" points="127.158,33.84 125.038,33.668 123.129,40.15 124.557,41.118 		"/>
		<polygon fill="#3B5799" points="127.158,33.84 127.672,34.353 125.116,41.192 124.557,41.118 		"/>
		<path fill="#FBF4DB" d="M127.476,36.394c0,0-1.111-0.808-1.995-0.61c-0.884,0.197-0.433,1.139-0.433,1.139
			s-0.224,1.161-0.149,1.508s1.182,0.946,1.351,0.887C126.42,39.258,127.788,37.302,127.476,36.394z"/>
		<path fill="#1B254B" d="M136.317,54.762l-1.253,1.555c0,0,0.621,0.595,1.502,0.937c0.881,0.342,6.037-1.317,6.642-2.484
			C143.825,53.582,141.496,54.889,136.317,54.762z"/>
		<path fill="#FBF4DB" d="M107.184,31.196c0,0-1.546-0.791-1.791-1.853c-0.245-1.062-0.197-1.186-0.197-1.186
			s-0.191,1.002,0.095,2.137c0.112,0.446,2.069,2.085,2.069,2.085L107.184,31.196z"/>
		<path fill="#5BD9FE" d="M104.077,39.321c0,0,9.234,5.056,10.521,4.62c1.654-0.56,6.333-2.824,6.333-2.824l-0.951-1.016
			l-5.537,0.839l-8.197-5.785C106.247,35.155,101.911,38.256,104.077,39.321z"/>
		<path fill="#FBF4DB" d="M119.98,40.101c0,0,0.616-0.573,0.794-0.708c0.156-0.119,0.739,0.033,0.739,0.033s0.855-0.632,1.493-0.522
			c0.302,0.052,1.221,0.335,1.571,0.814c0.165,0.226-0.412,0.489-0.623,0.463c-0.485-0.061-0.881,0.52-1.392,0.76
			c-0.17,0.079-1.63,0.177-1.63,0.177L119.98,40.101z"/>
	</g>
	<g>
		<path fill="#5BD9FE" d="M129.865,23.636c0-2.608-2.114-4.722-4.722-4.722c-2.608,0-4.722,2.114-4.722,4.722
			c0,2.162,1.455,3.981,3.438,4.54l0.865,1.731c0.172,0.345,0.664,0.345,0.836,0l0.865-1.731
			C128.41,27.617,129.865,25.798,129.865,23.636z"/>
		<g>
			<path fill="#EBFFFF" d="M127.751,24.381h-0.079c0.216,0.006,0.389,0.182,0.389,0.4c0,0.221-0.179,0.4-0.4,0.4l-0.102,0.001
				c0.228,0,0.411,0.19,0.4,0.42c-0.01,0.215-0.196,0.381-0.411,0.381h-0.404c0,0-0.137,0-0.385,0c-0.272,0-0.677,0-1.184,0
				c-0.592,0-0.936-0.124-1.114-0.221c-0.098-0.053-0.159-0.156-0.159-0.268v-2.325c0-0.114,0.064-0.217,0.165-0.271
				c0.302-0.161,0.667-0.698,0.721-1.17c0.077-0.67-0.061-0.992,0.174-0.993c0.43-0.003,0.67,0.273,0.752,0.604
				c0.119,0.478,0.017,0.827-0.041,1.025c-0.111,0.381,0.315,0.416,0.315,0.416h0.676h0.081h0.709c0.216,0,0.401,0.166,0.411,0.381
				c0.011,0.23-0.172,0.42-0.4,0.42h-0.102c0.228,0,0.411,0.19,0.4,0.42C128.152,24.216,127.967,24.381,127.751,24.381z
				 M124.16,23.054v2.703c0,0.102-0.083,0.185-0.185,0.185h-1.454c-0.102,0-0.185-0.083-0.185-0.185v-2.703
				c0-0.102,0.083-0.185,0.185-0.185h1.454C124.078,22.869,124.16,22.952,124.16,23.054z M123.047,25.482
				c0-0.103-0.084-0.187-0.187-0.187c-0.103,0-0.187,0.084-0.187,0.187c0,0.103,0.084,0.187,0.187,0.187
				C122.963,25.669,123.047,25.585,123.047,25.482z"/>
		</g>
	</g>
	<g>
		<path fill="#E49FF1" d="M108.262,85.232c0.699-2.512-0.771-5.115-3.283-5.814c-2.512-0.699-5.115,0.771-5.814,3.283
			c-0.579,2.083,0.335,4.225,2.095,5.296l0.37,1.899c0.074,0.378,0.547,0.51,0.806,0.224l1.298-1.435
			C105.794,88.677,107.683,87.315,108.262,85.232z"/>
		<g>
			<path fill="#EBFFFF" d="M106.026,85.383l-0.076-0.021c0.206,0.064,0.326,0.28,0.268,0.49c-0.059,0.213-0.28,0.338-0.493,0.278
				l-0.098-0.027c0.219,0.061,0.345,0.293,0.273,0.512c-0.067,0.205-0.291,0.315-0.498,0.257l-0.389-0.108
				c0,0-0.132-0.037-0.371-0.103c-0.262-0.073-0.653-0.182-1.141-0.317c-0.57-0.159-0.869-0.37-1.014-0.511
				c-0.081-0.078-0.112-0.194-0.082-0.301l0.623-2.24c0.031-0.11,0.12-0.192,0.231-0.217c0.334-0.074,0.83-0.493,1.008-0.934
				c0.254-0.625,0.207-0.972,0.434-0.91c0.415,0.112,0.572,0.442,0.563,0.783c-0.013,0.492-0.206,0.801-0.315,0.977
				c-0.209,0.337,0.191,0.485,0.191,0.485l0.652,0.181l0.078,0.022l0.683,0.19c0.208,0.058,0.342,0.267,0.294,0.477
				c-0.051,0.224-0.279,0.358-0.498,0.297l-0.098-0.027c0.219,0.061,0.345,0.293,0.273,0.512
				C106.457,85.331,106.234,85.441,106.026,85.383z M102.923,83.142l-0.725,2.605c-0.027,0.098-0.129,0.156-0.228,0.129l-1.401-0.39
				c-0.098-0.027-0.156-0.129-0.129-0.228l0.725-2.605c0.027-0.098,0.129-0.156,0.228-0.129l1.401,0.39
				C102.892,82.941,102.95,83.043,102.923,83.142z M101.199,85.183c0.028-0.1-0.031-0.203-0.13-0.23
				c-0.1-0.028-0.203,0.031-0.23,0.13c-0.028,0.1,0.031,0.203,0.13,0.23C101.068,85.341,101.171,85.282,101.199,85.183z"/>
		</g>
	</g>
	<g>
		<path fill="#FFD54A" d="M70.737,34.563c1.037-2.393-0.063-5.173-2.455-6.21c-2.393-1.037-5.173,0.063-6.21,2.455
			c-0.86,1.984-0.248,4.231,1.35,5.533l0.106,1.932c0.021,0.385,0.472,0.58,0.767,0.333l1.482-1.244
			C67.82,37.637,69.878,36.547,70.737,34.563z"/>
		<g>
			<path fill="#EBFFFF" d="M68.502,34.406l-0.073-0.031c0.196,0.091,0.285,0.322,0.198,0.522c-0.088,0.203-0.324,0.296-0.527,0.208
				l-0.093-0.04c0.209,0.09,0.301,0.337,0.2,0.544c-0.095,0.194-0.331,0.272-0.529,0.186l-0.371-0.161c0,0-0.126-0.054-0.353-0.153
				c-0.249-0.108-0.621-0.269-1.086-0.471c-0.543-0.235-0.81-0.486-0.935-0.645c-0.069-0.088-0.084-0.207-0.04-0.31l0.924-2.133
				c0.045-0.105,0.145-0.174,0.259-0.183c0.341-0.028,0.89-0.375,1.127-0.787c0.337-0.584,0.338-0.934,0.555-0.842
				c0.396,0.168,0.506,0.517,0.45,0.853c-0.08,0.486-0.313,0.765-0.445,0.924c-0.253,0.305,0.123,0.507,0.123,0.507l0.62,0.269
				l0.074,0.032l0.65,0.282c0.198,0.086,0.302,0.311,0.226,0.513c-0.081,0.215-0.325,0.317-0.534,0.226l-0.093-0.04
				c0.209,0.09,0.301,0.337,0.2,0.544C68.935,34.414,68.699,34.492,68.502,34.406z M65.735,31.761l-1.075,2.481
				c-0.041,0.094-0.15,0.137-0.243,0.096l-1.334-0.578c-0.094-0.041-0.137-0.15-0.096-0.243l1.075-2.481
				c0.041-0.094,0.15-0.137,0.243-0.096l1.334,0.578C65.732,31.558,65.775,31.667,65.735,31.761z M63.747,33.546
				c0.041-0.095-0.002-0.205-0.097-0.246c-0.095-0.041-0.205,0.002-0.246,0.097c-0.041,0.095,0.002,0.205,0.097,0.246
				C63.596,33.684,63.706,33.641,63.747,33.546z"/>
		</g>
	</g>
	<g>
		<path fill="#FF9650" d="M9.166,51.944c-0.883-2.454-3.587-3.727-6.041-2.845c-2.454,0.883-3.727,3.587-2.845,6.041
			c0.732,2.035,2.716,3.253,4.772,3.109l1.4,1.336c0.279,0.266,0.742,0.099,0.787-0.283l0.228-1.922
			C9.144,56.183,9.898,53.979,9.166,51.944z"/>
		<g>
			<path fill="#EBFFFF" d="M7.429,53.361l-0.075,0.027c0.205-0.068,0.428,0.04,0.502,0.244c0.075,0.208-0.033,0.437-0.241,0.512
				L7.52,54.179c0.214-0.077,0.451,0.04,0.518,0.26c0.063,0.206-0.055,0.425-0.258,0.498L7.4,55.073c0,0-0.129,0.046-0.362,0.13
				c-0.256,0.092-0.637,0.229-1.114,0.401c-0.557,0.2-0.923,0.2-1.123,0.17c-0.111-0.017-0.203-0.093-0.241-0.199l-0.787-2.188
				c-0.039-0.107-0.013-0.226,0.063-0.311c0.229-0.254,0.392-0.882,0.283-1.345c-0.154-0.656-0.393-0.912-0.172-0.994
				c0.403-0.148,0.722,0.03,0.912,0.313c0.274,0.409,0.295,0.772,0.308,0.979c0.024,0.396,0.437,0.285,0.437,0.285l0.636-0.229
				l0.076-0.027l0.667-0.24c0.203-0.073,0.433,0.02,0.516,0.219c0.088,0.213-0.02,0.453-0.234,0.53l-0.096,0.034
				c0.214-0.077,0.451,0.04,0.518,0.26C7.75,53.069,7.632,53.288,7.429,53.361z M3.601,53.327l0.915,2.544
				c0.035,0.096-0.015,0.202-0.111,0.237L3.036,56.6c-0.096,0.035-0.202-0.015-0.237-0.111l-0.915-2.544
				C1.85,53.848,1.9,53.742,1.996,53.708l1.368-0.492C3.46,53.181,3.566,53.231,3.601,53.327z M3.375,55.989
				c-0.035-0.097-0.142-0.148-0.239-0.113c-0.097,0.035-0.148,0.142-0.113,0.239c0.035,0.097,0.142,0.148,0.239,0.113
				C3.359,56.193,3.41,56.086,3.375,55.989z"/>
		</g>
	</g>
</g>
</svg>
