<?xml version="1.0" encoding="utf-8"?>
<!-- Generator: Adobe Illustrator 17.0.0, SVG Export Plug-In . SVG Version: 6.00 Build 0)  -->
<!DOCTYPE svg PUBLIC "-//W3C//DTD SVG 1.1//EN" "http://www.w3.org/Graphics/SVG/1.1/DTD/svg11.dtd">
<svg version="1.1" id="Layer_1" xmlns="http://www.w3.org/2000/svg" xmlns:xlink="http://www.w3.org/1999/xlink" x="0px" y="0px"
	 width="144px" height="144px" viewBox="0 0 144 144" enable-background="new 0 0 144 144" xml:space="preserve">
<g>
	<path fill="#D4EDF9" d="M122.288,48.938c-0.44,0-0.853,0.112-1.213,0.309c0.062-0.262,0.098-0.535,0.098-0.816
		c0-1.96-1.589-3.549-3.549-3.549c-1.069,0-2.025,0.475-2.676,1.222c-0.569-1.201-1.789-2.034-3.206-2.034
		c-1.96,0-3.549,1.589-3.549,3.549c0,0.621,0.16,1.205,0.441,1.713c-0.392-0.248-0.855-0.394-1.353-0.394
		c-1.4,0-2.535,1.135-2.535,2.535c0,1.4,1.135,2.535,2.535,2.535c1.4,0,13.608,0,15.008,0c1.4,0,2.535-1.135,2.535-2.535
		C124.824,50.073,123.688,48.938,122.288,48.938z"/>
	<path fill="#D4EDF9" d="M107.883,130.855c0,1.546-1.254,2.799-2.8,2.799H47.118c-1.546,0-2.799-1.254-2.799-2.799l0,0
		c0-1.546,1.253-2.8,2.799-2.8h57.965C106.629,128.056,107.883,129.309,107.883,130.855L107.883,130.855z"/>
	<g>
		<g>
			<path fill="none" stroke="#FFFFFF" stroke-width="1.3174" stroke-linecap="round" stroke-linejoin="round" d="M61.248,105.349
				c-0.634,0.394-1.26,0.775-1.88,1.143"/>
			
				<path fill="none" stroke="#FFFFFF" stroke-width="1.3174" stroke-linecap="round" stroke-linejoin="round" stroke-dasharray="2.9815,2.9815" d="
				M56.781,107.976c-1.366,0.754-2.692,1.439-3.977,2.055"/>
			<path fill="none" stroke="#FFFFFF" stroke-width="1.3174" stroke-linecap="round" stroke-linejoin="round" d="M51.456,110.658
				c-0.685,0.309-1.356,0.598-2.015,0.866"/>
		</g>
	</g>
	
		<line fill="none" stroke="#0004cad9" stroke-width="5.0502" stroke-miterlimit="10" x1="76.581" y1="116.368" x2="76.581" y2="125.444"/>
	<g>
		<path fill="#0004cad9" d="M76.95,118.694c-6.941,0-13.87-1.439-20.418-4.31c-12.448-5.458-22.025-15.436-26.968-28.097
			c-4.943-12.661-4.659-26.489,0.799-38.937C35.82,34.902,45.799,25.325,58.46,20.382l1.836,4.705
			c-23.543,9.19-35.219,35.821-26.028,59.364c9.191,23.542,35.822,35.219,59.364,26.028l1.836,4.705
			C89.468,117.525,83.203,118.694,76.95,118.694z"/>
	</g>
	<g opacity="0.4">
		<path fill="#7FA2AD" d="M53.021,22.878l1.864,4.737c1.725-0.947,3.53-1.794,5.412-2.529l-1.836-4.705
			C56.586,21.114,54.772,21.949,53.021,22.878z"/>
		<path fill="#7FA2AD" d="M95.468,115.183l-1.836-4.705c-1.804,0.704-3.627,1.285-5.458,1.748l1.864,4.736
			C91.866,116.473,93.679,115.881,95.468,115.183z"/>
	</g>
	
		<line fill="none" stroke="#0004cad9" stroke-width="3.2936" stroke-linecap="round" stroke-linejoin="round" stroke-miterlimit="10" x1="57.143" y1="17.451" x2="96.56" y2="118.421"/>
	<circle fill="#29BFED" cx="77.001" cy="67.775" r="40.061"/>
	<path fill="#8AD607" d="M68.024,37.798c2.827-3.392,10.891-1.296,15.04,3.89c4.148,5.186,4.667,13.744,0.259,15.299
		c-4.408,1.556-7.78-4.667-11.15-7.261C68.802,47.133,64.134,42.465,68.024,37.798z"/>
	<path fill="#8AD607" d="M64.653,68.656c6.483-2.852,5.186-11.928-7.001-16.077c-6.409-2.182-9.231-7.232-9.902-12.171
		C41.046,47.569,36.94,57.192,36.94,67.775c0,16.031,9.418,29.861,23.021,36.264c-0.479-3.756,1.464-7.262,3.655-9.453
		c3.89-3.89,5.446-9.335-1.037-13.484C56.096,76.953,58.17,71.508,64.653,68.656z"/>
	<path fill="#ACEF29" d="M55.15,101.354c1.631-4.367-0.626-9.662-2.883-12.07c-3.294-3.513-5.489-14.712-2.196-19.762
		c3.294-5.05,2.196-11.418-3.074-14.492c-3.348-1.953-4.036-5.764-4.093-8.286c-3.78,6.113-5.963,13.316-5.963,21.031
		C36.94,81.838,44.188,94.206,55.15,101.354z"/>
	<path fill="#8AD607" d="M87.37,29.072c-0.742,3.6,0.612,8.718,4.51,12.615c6.223,6.223,15.558,20.226,5.445,28.783
		c-10.113,8.557-16.596,18.671-6.483,24.894c3.701,2.277,7.436,3.478,10.686,4.085c9.45-7.328,15.533-18.79,15.533-31.674
		C117.063,49.236,104.469,33.641,87.37,29.072z"/>
	<path fill="#ACEF29" d="M73.566,40.977c-2.014,1.582,3.074,11.857,6.587,10.759C83.666,50.639,76.64,38.562,73.566,40.977z"/>
	<path fill="#12A0A0" d="M94.992,127.91c0,1.79-1.451,3.242-3.241,3.242h-30.08c-1.79,0-3.241-1.451-3.241-3.242l0,0
		c0-1.79,1.451-3.242,3.241-3.242h30.08C93.541,124.668,94.992,126.12,94.992,127.91L94.992,127.91z"/>
	<g>
		<path fill="#D32E22" d="M117.867,15.319c0.54-0.499,0.255-1.494-0.632-2.212l-1.024-0.828c-0.887-0.717-2.283-0.655-3.103,0.139
			l-1.945,1.884c-0.819,0.794-0.559,1.505,0.58,1.581l3.074,0.205C115.954,16.165,117.327,15.819,117.867,15.319z"/>
		<path fill="#D32E22" d="M117.867,15.319c0.54-0.499,0.255-1.494-0.632-2.212l-1.024-0.828c-0.887-0.717-2.283-0.655-3.103,0.139
			l-1.945,1.884c-0.819,0.794-0.559,1.505,0.58,1.581l3.074,0.205C115.954,16.165,117.327,15.819,117.867,15.319z"/>
	</g>
	<g>
		<path fill="#D32E22" d="M120.603,20.309c0.711-0.186,1.397,0.588,1.525,1.722l0.148,1.308c0.128,1.134-0.676,2.277-1.785,2.542
			l-2.634,0.627c-1.11,0.264-1.57-0.339-1.022-1.339l1.48-2.702C118.862,21.467,119.892,20.496,120.603,20.309z"/>
		<path fill="#D32E22" d="M120.603,20.309c0.711-0.186,1.397,0.588,1.525,1.722l0.148,1.308c0.128,1.134-0.676,2.277-1.785,2.542
			l-2.634,0.627c-1.11,0.264-1.57-0.339-1.022-1.339l1.48-2.702C118.862,21.467,119.892,20.496,120.603,20.309z"/>
	</g>
	<path fill="#EF4230" d="M121.519,21.441c-2.728,1.496-4.132,0.015-5.303-2.12c-1.171-2.135-1.665-4.114,1.064-5.611
		c6.153-3.375,12.09-4.38,13.26-2.245C131.711,13.601,127.673,18.067,121.519,21.441z"/>
	<g>
		<path fill="#FFFFFF" d="M123.893,17.173c-0.753,0-1.446-0.41-1.808-1.069c-0.265-0.482-0.326-1.039-0.172-1.567
			s0.505-0.965,0.987-1.229c0.303-0.166,0.645-0.254,0.989-0.254c0.752,0,1.444,0.41,1.807,1.069
			c0.546,0.997,0.18,2.251-0.815,2.797C124.578,17.085,124.236,17.173,123.893,17.173z"/>
		<path fill="#8C312A" d="M123.889,13.492c0.573,0,1.128,0.304,1.423,0.842c0.43,0.785,0.143,1.77-0.642,2.2
			c-0.247,0.136-0.514,0.2-0.778,0.2c-0.573,0-1.128-0.304-1.423-0.842c-0.431-0.785-0.143-1.77,0.642-2.2
			C123.358,13.557,123.625,13.492,123.889,13.492 M123.889,12.614L123.889,12.614c-0.418,0-0.832,0.107-1.2,0.308
			c-0.585,0.321-1.011,0.851-1.197,1.492c-0.187,0.641-0.113,1.316,0.208,1.901c0.439,0.8,1.279,1.297,2.193,1.297
			c0.418,0,0.833-0.107,1.2-0.308c1.208-0.662,1.652-2.184,0.99-3.392C125.642,13.111,124.802,12.614,123.889,12.614L123.889,12.614
			z"/>
	</g>
	<path fill="#D4EDF9" d="M139.462,90.788c-0.418,0-0.82,0.061-1.205,0.166c0.023-0.182,0.038-0.367,0.038-0.556
		c0-2.506-2.032-4.538-4.538-4.538s-4.538,2.032-4.538,4.538c0,0.189,0.015,0.373,0.037,0.556c-0.384-0.105-0.787-0.166-1.204-0.166
		c-2.506,0-4.538,2.031-4.538,4.538c0,2.506,2.032,4.538,4.538,4.538c2.506,0,8.903,0,11.409,0c2.506,0,4.538-2.032,4.538-4.538
		C144,92.819,141.968,90.788,139.462,90.788z"/>
	<path fill="#D4EDF9" d="M43.786,25.379c-0.562,0-1.091,0.143-1.551,0.395c0.079-0.336,0.125-0.684,0.125-1.043
		c0-2.506-2.032-4.538-4.538-4.538c-1.367,0-2.589,0.607-3.421,1.563c-0.727-1.536-2.286-2.6-4.099-2.6
		c-2.506,0-4.538,2.032-4.538,4.538c0,0.794,0.205,1.54,0.564,2.19c-0.501-0.318-1.093-0.504-1.73-0.504
		c-1.79,0-3.241,1.451-3.241,3.242c0,1.79,1.451,3.241,3.241,3.241c1.79,0,17.399,0,19.189,0c1.79,0,3.241-1.451,3.241-3.241
		C47.027,26.83,45.576,25.379,43.786,25.379z"/>
	<path opacity="0.3" fill="#29BFED" d="M84.906,97.627c-22.125,0-40.061-17.936-40.061-40.061c0-6.906,1.748-13.404,4.825-19.076
		C41.838,45.802,36.94,56.216,36.94,67.775c0,22.125,17.936,40.062,40.061,40.062c15.219,0,28.456-8.487,35.236-20.986
		C105.08,93.534,95.471,97.627,84.906,97.627z"/>
	<path fill="#0004cad9" d="M91.751,127.528h-30.08c-1.119,0-2.106-0.567-2.688-1.43c-0.349,0.517-0.553,1.141-0.553,1.811
		c0,1.79,1.451,3.242,3.241,3.242h30.08c1.79,0,3.241-1.451,3.241-3.242c0-0.671-0.204-1.294-0.553-1.811
		C93.856,126.961,92.87,127.528,91.751,127.528z"/>
	<path fill="#ACEF29" d="M96.556,32.807c-0.067,1.603,0.567,4.841,4.676,10.366c6.368,8.563,11.637,24.373,2.854,31.619
		c-8.783,7.246-8.124,17.347,1.757,16.907c1.302-0.058,2.615-0.354,3.911-0.857c4.603-6.522,7.309-14.477,7.309-23.067
		C117.063,52.752,108.792,39.663,96.556,32.807z"/>
	<path opacity="0.2" fill="#29BFED" d="M76.42,68.204c-4.355,3.538-6.587,9.661-3.733,12.296c2.854,2.635,12.735-2.196,12.735-9.222
		C85.423,64.252,79.933,65.35,76.42,68.204z"/>
	<g>
		<path fill="#D4EDF9" d="M45.405,29.434c-1.79,0-17.398,0-19.189,0c-1.79,0-3.242-1.451-3.242-3.241
			c0-0.132,0.01-0.262,0.026-0.391c-0.981,0.557-1.644,1.61-1.644,2.819c0,1.79,1.451,3.241,3.241,3.241c1.79,0,17.399,0,19.189,0
			c1.658,0,3.022-1.245,3.216-2.851C46.53,29.279,45.986,29.434,45.405,29.434z"/>
	</g>
	<g>
		<path fill="#D4EDF9" d="M140.811,97.705c-2.506,0-8.903,0-11.409,0c-2.506,0-4.538-2.032-4.538-4.538
			c0-0.425,0.063-0.834,0.172-1.225c-0.931,0.831-1.521,2.037-1.521,3.383c0,2.506,2.032,4.538,4.538,4.538
			c2.506,0,8.903,0,11.409,0c2.081,0,3.831-1.403,4.366-3.313C143.026,97.266,141.971,97.705,140.811,97.705z"/>
	</g>
	<g>
		<g>
			<path fill="none" stroke="#FFFFFF" stroke-width="1.3174" stroke-linecap="round" stroke-linejoin="round" d="M49.441,111.524
				c-0.699,0.284-1.384,0.545-2.052,0.783"/>
			
				<path fill="none" stroke="#FFFFFF" stroke-width="1.3174" stroke-linecap="round" stroke-linejoin="round" stroke-dasharray="4.2716,4.2716" d="
				M43.286,113.515c-5.173,1.174-9.098,0.585-11.415-1.819c-7.379-7.656,6.278-31.243,31.517-55.2
				c16.153-15.332,30.537-24.68,37.089-28.591"/>
			<path fill="none" stroke="#FFFFFF" stroke-width="1.3174" stroke-linecap="round" stroke-linejoin="round" d="M102.311,26.832
				c1.242-0.711,1.916-1.062,1.916-1.062"/>
		</g>
	</g>
	<path fill="#F7830F" d="M113.934,24.057c-1.444,0.792-5.53,1.51-6.322,0.066c-0.792-1.444,2.01-4.504,3.454-5.296
		c1.444-0.792,3.257-0.263,4.048,1.181C115.906,21.452,115.378,23.264,113.934,24.057z"/>
	<path fill="#FFD348" d="M113.616,22.456c-0.691,0.379-2.644,0.722-3.024,0.032c-0.379-0.691,0.961-2.154,1.652-2.533
		c0.69-0.379,1.557-0.126,1.936,0.565C114.559,21.211,114.306,22.078,113.616,22.456z"/>
	<path fill="#D4EDF9" d="M17.543,80.972c-0.44,0-0.853,0.112-1.213,0.309c0.062-0.263,0.098-0.535,0.098-0.816
		c0-1.96-1.589-3.549-3.549-3.549c-1.069,0-2.025,0.475-2.676,1.222c-0.569-1.201-1.789-2.033-3.206-2.033
		c-1.96,0-3.549,1.589-3.549,3.549c0,0.621,0.16,1.204,0.441,1.712c-0.392-0.248-0.855-0.394-1.353-0.394
		c-1.4,0-2.535,1.135-2.535,2.535c0,1.4,1.135,2.535,2.535,2.535s13.608,0,15.008,0c1.4,0,2.535-1.135,2.535-2.535
		C20.078,82.107,18.943,80.972,17.543,80.972z"/>
	<path fill="#EF4230" d="M123.048,18.692c-2.728,1.496-4.132,0.015-5.303-2.12c-0.492-0.897-0.863-1.765-0.927-2.583
		c-2.204,1.459-1.701,3.328-0.602,5.332c1.171,2.135,2.575,3.616,5.303,2.12c5.067-2.779,8.697-6.296,9.168-8.644
		C129.087,14.72,126.378,16.866,123.048,18.692z"/>
</g>
</svg>
