<?xml version="1.0" encoding="utf-8"?>
<!-- Generator: Adobe Illustrator 17.0.0, SVG Export Plug-In . SVG Version: 6.00 Build 0)  -->
<!DOCTYPE svg PUBLIC "-//W3C//DTD SVG 1.1//EN" "http://www.w3.org/Graphics/SVG/1.1/DTD/svg11.dtd">
<svg version="1.1" id="Layer_1" xmlns="http://www.w3.org/2000/svg" xmlns:xlink="http://www.w3.org/1999/xlink" x="0px" y="0px"
	 width="144px" height="144px" viewBox="0 0 144 144" enable-background="new 0 0 144 144" xml:space="preserve">
<g>
	<g>
		<g>
			<path fill="#0004cad9" d="M45.208,108.232c-3.624,2.143-3.488,5.565,0.304,7.643c3.792,2.078,9.803,2.026,13.427-0.117
				c3.624-2.143,3.488-5.565-0.304-7.643C54.843,106.037,48.832,106.089,45.208,108.232z"/>
		</g>
		<g>
			<path fill="#0011AA" d="M94.797,111.215c-3.624,2.143-3.488,5.565,0.304,7.643c3.792,2.078,9.803,2.026,13.427-0.117
				c3.624-2.143,3.488-5.565-0.304-7.643C104.433,109.02,98.421,109.072,94.797,111.215z"/>
		</g>
		<path fill="#0004cad9" d="M98.581,98.186c0.257,0.213,0.516,0.424,0.778,0.631l12.752-28.327l1.128,1.204l-0.228-3.875l-2.803,0.638
			l1.177,1.257L98.581,98.186z"/>
		<g>
			<g>
				<path fill="#0004cad9" d="M68.135,93.85c-6.975,4.125-6.713,10.712,0.586,14.712c7.299,4.001,18.87,3.9,25.845-0.224
					c6.975-4.125,6.713-10.712-0.585-14.713C86.681,89.625,75.11,89.725,68.135,93.85z M74.114,97.128
					c3.819-2.258,10.155-2.314,14.151-0.123c3.996,2.19,4.14,5.797,0.32,8.055c-3.819,2.258-10.155,2.313-14.151,0.123
					C70.439,102.993,70.295,99.386,74.114,97.128z"/>
			</g>
			<g>
				<g>
					<g>
						<path fill="#FFAE00" d="M94.148,90.117c-7.299-4.001-18.87-3.9-25.845,0.225c-2.244,1.327-3.734,2.909-4.487,4.577
							l0.118,1.425l-0.778,0.593c-0.009,0.263,0.207,3.337,0.234,3.599l0.002,0.046l0.002-0.005
							c0.269,2.527,2.145,5.012,5.613,6.912c7.299,4.001,18.87,3.9,25.845-0.225c3.348-1.98,5.024-4.528,5.059-7.084l0.004-0.003
							l-0.003-0.11c-0.001-0.112-0.003-0.223-0.01-0.335l-0.19-3.885l-0.349-0.45C98.605,93.454,96.865,91.606,94.148,90.117z
							 M88.433,93.496c3.996,2.191,4.14,5.797,0.321,8.055c-3.819,2.258-10.155,2.313-14.151,0.123
							c-3.996-2.19-4.14-5.797-0.321-8.055C78.101,91.361,84.437,91.306,88.433,93.496z"/>
					</g>
					<g>
						<path fill="#FFD600" d="M90.273,109.227l0.101-8.951c0.19-0.204,0.359-0.413,0.502-0.627l3.891,2.133l-0.063,5.565
							C93.369,108.119,91.873,108.746,90.273,109.227z"/>
						<path fill="#FFD600" d="M66.479,91.607l6.12,3.355c-1.753,1.95-1.381,4.356,1.073,6.126l-0.093,8.241
							c-1.638-0.465-3.183-1.077-4.573-1.839c-1.223-0.671-2.244-1.415-3.071-2.207l0.15-13.341
							C66.212,91.829,66.344,91.718,66.479,91.607z"/>
						<path fill="#FFD600" d="M75.348,102.045c1.265,0.57,2.71,0.942,4.208,1.118l0.188,0.103l-0.08,7.089
							c-1.495-0.098-2.975-0.3-4.403-0.608L75.348,102.045z"/>
						<path fill="#FFD600" d="M80.778,105.914l1.094,0.6l-0.074,3.91c-0.368,0-0.737-0.006-1.105-0.018L80.778,105.914z"/>
						<path fill="#FFD600" d="M87.855,104.089l1.094,0.6l-0.093,4.923c-0.366,0.088-0.737,0.166-1.11,0.24L87.855,104.089z"/>
					</g>
					<g>
						<path fill="#FFE300" d="M94.095,88.6c-7.277-4.04-18.87-3.9-25.845,0.224c-6.975,4.125-6.713,10.712,0.585,14.712
							c7.299,4.001,18.843,3.854,25.845-0.224C101.611,99.276,101.373,92.64,94.095,88.6z M88.38,91.979
							c3.996,2.19,4.14,5.797,0.321,8.056c-3.819,2.258-10.155,2.313-14.151,0.123c-3.996-2.19-4.14-5.797-0.321-8.055
							C78.048,89.844,84.384,89.789,88.38,91.979z"/>
					</g>
					<g>
						<path fill="#FF7C00" d="M68.135,88.761c-6.975,4.125-6.713,10.712,0.586,14.712c7.299,4.001,18.87,3.9,25.845-0.224
							c6.975-4.125,6.713-10.712-0.585-14.713C86.681,84.536,75.11,84.637,68.135,88.761z M74.114,92.039
							c3.819-2.258,10.155-2.314,14.151-0.123c3.996,2.19,4.14,5.797,0.32,8.056c-3.819,2.258-10.155,2.313-14.151,0.123
							C70.439,97.904,70.295,94.297,74.114,92.039z"/>
					</g>
					<g>
						<path fill="#FF5B00" d="M69.944,89.753c-6.081,3.596-5.852,9.338,0.51,12.826c6.363,3.488,16.45,3.4,22.531-0.196
							c6.081-3.596,5.852-9.338-0.51-12.826C86.112,86.07,76.025,86.158,69.944,89.753z"/>
					</g>
					<g>
						<path fill="#FFAE00" d="M70.778,90.211c-5.64,3.335-5.428,8.662,0.474,11.897s15.259,3.154,20.9-0.181
							c5.641-3.335,5.429-8.662-0.473-11.897C85.776,86.794,76.419,86.875,70.778,90.211z"/>
					</g>
					<path fill="#FFD900" d="M92.066,90.253l-25.118,7.331c0.555,1.665,1.99,3.256,4.304,4.524c0.732,0.401,1.518,0.751,2.342,1.051
						l22.63-6.605C96.422,94.296,95.029,91.999,92.066,90.253z M66.72,95.414l22.357-6.525c-1.152-0.399-2.375-0.703-3.636-0.908
						c-6.43,1.794-13.217,3.727-17.868,5.154C67.101,93.873,66.815,94.64,66.72,95.414z"/>
					<g>
						<path fill="#FFEE00" d="M88.308,94.232c1.019,0.565,1.515,1.188,1.487,1.869c-0.027,0.682-0.399,1.319-1.115,1.913
							l1.254,0.695c0.248,0.137,0.43,0.246,0.547,0.326c0.116,0.08,0.213,0.184,0.292,0.313c0.078,0.129,0.061,0.258-0.052,0.389
							c-0.113,0.131-0.319,0.276-0.618,0.435c-0.299,0.159-0.571,0.268-0.814,0.327c-0.244,0.059-0.483,0.062-0.717,0.009
							c-0.235-0.053-0.421-0.109-0.559-0.171c-0.139-0.061-0.338-0.164-0.599-0.309l-1.215-0.673
							c-0.702,0.246-1.425,0.418-2.169,0.516c-0.745,0.098-1.314,0.139-1.708,0.122l-0.611-0.037
							c-0.652-0.036-1.076-0.108-1.272-0.217c-0.326-0.181-0.463-0.52-0.409-1.016c0.037-0.289,0.205-0.513,0.504-0.673
							c0.342-0.182,0.991-0.279,1.947-0.291l0.205-0.003c0.938,0.04,1.685-0.088,2.241-0.384c1.054-0.561,1.183-1.062,0.386-1.504
							c-0.287-0.159-0.709-0.176-1.264-0.051c-0.556,0.126-1.18,0.306-1.875,0.54c-0.694,0.235-1.43,0.446-2.209,0.633
							c-0.779,0.188-1.623,0.246-2.531,0.176c-0.908-0.07-1.761-0.326-2.557-0.767c-0.771-0.427-1.199-0.958-1.284-1.594
							c-0.086-0.636,0.258-1.258,1.03-1.867l-1.097-0.608c-0.261-0.145-0.447-0.255-0.557-0.332
							c-0.11-0.076-0.208-0.177-0.293-0.302c-0.086-0.125-0.068-0.254,0.052-0.389c0.12-0.134,0.329-0.282,0.629-0.441
							c0.385-0.205,0.749-0.317,1.091-0.336c0.343-0.019,0.613,0.011,0.811,0.09c0.198,0.079,0.461,0.209,0.787,0.39l1.097,0.608
							c0.477-0.169,0.951-0.301,1.423-0.396c0.472-0.095,0.817-0.151,1.036-0.169l0.349-0.015l0.144-0.013
							c0.657-0.023,1.076,0.016,1.259,0.117c0.209,0.116,0.367,0.358,0.474,0.727c0.138,0.494,0.007,0.848-0.392,1.06
							c-0.257,0.137-0.653,0.234-1.19,0.293c-0.055,0.001-0.171,0.006-0.349,0.016c-0.178,0.01-0.336,0.023-0.474,0.039
							c-0.138,0.017-0.322,0.062-0.553,0.135c-0.231,0.073-0.475,0.178-0.731,0.315c-0.271,0.144-0.445,0.326-0.524,0.545
							c-0.079,0.22,0.012,0.401,0.274,0.546c0.313,0.174,0.704,0.232,1.173,0.174c0.468-0.058,0.946-0.184,1.432-0.379
							c0.486-0.195,1.054-0.391,1.705-0.588c0.65-0.197,1.28-0.359,1.891-0.485c0.61-0.126,1.293-0.138,2.049-0.037
							C86.891,93.606,87.616,93.849,88.308,94.232z"/>
					</g>
					<g>
						<path fill="#FF7C00" d="M88.105,94.11c1.019,0.565,1.515,1.188,1.487,1.869c-0.027,0.682-0.399,1.319-1.115,1.913l1.254,0.695
							c0.248,0.137,0.43,0.246,0.547,0.326c0.116,0.08,0.213,0.184,0.292,0.313c0.078,0.129,0.061,0.258-0.052,0.389
							c-0.113,0.131-0.319,0.276-0.618,0.435c-0.299,0.159-0.571,0.268-0.814,0.327c-0.244,0.059-0.483,0.062-0.717,0.009
							c-0.235-0.053-0.421-0.109-0.559-0.171c-0.139-0.061-0.338-0.164-0.599-0.309l-1.215-0.673
							c-0.702,0.246-1.425,0.418-2.169,0.516c-0.745,0.098-1.314,0.139-1.708,0.122l-0.611-0.037
							c-0.652-0.036-1.076-0.108-1.272-0.217c-0.326-0.181-0.463-0.52-0.409-1.016c0.037-0.289,0.205-0.513,0.504-0.673
							c0.342-0.182,0.991-0.279,1.947-0.291l0.205-0.003c0.938,0.04,1.685-0.088,2.241-0.384c1.054-0.561,1.183-1.062,0.386-1.504
							c-0.287-0.159-0.709-0.176-1.264-0.051c-0.556,0.126-1.18,0.306-1.875,0.54c-0.694,0.235-1.43,0.446-2.209,0.633
							c-0.779,0.188-1.623,0.246-2.531,0.176c-0.908-0.07-1.761-0.326-2.557-0.767c-0.771-0.427-1.199-0.958-1.284-1.594
							c-0.086-0.636,0.258-1.258,1.03-1.867l-1.097-0.608c-0.261-0.145-0.447-0.255-0.557-0.332
							c-0.11-0.076-0.208-0.177-0.293-0.302c-0.086-0.125-0.068-0.254,0.052-0.389c0.12-0.134,0.329-0.282,0.629-0.441
							c0.385-0.205,0.749-0.317,1.091-0.336c0.343-0.019,0.613,0.011,0.811,0.09c0.198,0.079,0.461,0.209,0.788,0.39l1.097,0.608
							c0.477-0.169,0.951-0.301,1.423-0.396c0.472-0.095,0.817-0.151,1.036-0.169l0.349-0.016l0.144-0.013
							c0.657-0.023,1.076,0.016,1.259,0.117c0.209,0.116,0.367,0.358,0.474,0.727c0.138,0.494,0.007,0.848-0.392,1.06
							c-0.257,0.137-0.653,0.234-1.19,0.293c-0.055,0.001-0.171,0.006-0.349,0.016c-0.178,0.01-0.336,0.023-0.474,0.039
							c-0.138,0.017-0.322,0.062-0.553,0.135c-0.231,0.073-0.475,0.178-0.731,0.315c-0.271,0.144-0.445,0.326-0.524,0.545
							c-0.079,0.22,0.012,0.401,0.274,0.546c0.313,0.174,0.704,0.232,1.173,0.174c0.468-0.058,0.946-0.184,1.432-0.379
							c0.486-0.195,1.054-0.391,1.704-0.588c0.65-0.197,1.28-0.359,1.891-0.485s1.293-0.138,2.049-0.037
							C86.688,93.484,87.413,93.726,88.105,94.11z"/>
					</g>
					<path fill="#FFD900" d="M91.949,101.815c5.608-3.316,5.428-8.6-0.374-11.84c0.034,0.018,0.07,0.036,0.104,0.054
						c5.902,3.235,6.114,8.562,0.473,11.897c-5.64,3.335-14.998,3.417-20.9,0.181c-0.034-0.019-0.065-0.038-0.099-0.057
						C77.06,105.229,86.341,105.131,91.949,101.815z"/>
				</g>
			</g>
		</g>
		<polygon fill="#0004cad9" points="60.532,58.549 63.186,52.788 64.695,54.4 64.39,49.214 60.638,50.068 62.214,51.75 58.957,58.873 
			61.857,62.018 58.649,68.905 60.589,71.009 54.716,83.78 56.642,82.751 62.151,70.791 60.211,68.687 63.432,61.693 		"/>
		<polygon fill="#0004cad9" points="103.317,60.994 105.971,55.233 107.48,56.845 107.175,51.659 103.423,52.513 104.999,54.195 
			101.742,61.318 104.642,64.463 101.434,71.35 103.374,73.454 97.501,86.225 99.427,85.196 104.936,73.236 102.996,71.132 
			106.217,64.138 		"/>
		<path fill="#0004cad9" d="M24.759,118.888c0.344,0.285,0.691,0.567,1.042,0.844l17.07-37.918l1.51,1.612l-0.305-5.186l-3.752,0.854
			l1.576,1.683L24.759,118.888z"/>
		<path fill="#0004cad9" d="M94.483,69.837l-5.227,11.22c1.503,0.102,3.005,0.22,4.506,0.347l5.811-12.616L90.2,58.623l8.576-18.62
			l4.879,5.21l-0.987-16.764l-12.128,2.76l5.093,5.439L85.109,59.673L94.483,69.837z"/>
		<g>
			<g>
				<path opacity="0.43" fill="#FF7C00" d="M68.135,88.073c-6.975,4.125-6.713,10.712,0.586,14.712s18.87,3.9,25.845-0.224
					c6.975-4.125,6.713-10.712-0.585-14.713C86.681,83.848,75.11,83.948,68.135,88.073z M74.114,91.351
					c3.819-2.258,10.155-2.314,14.151-0.123c3.996,2.19,4.14,5.797,0.32,8.055c-3.819,2.258-10.155,2.313-14.151,0.123
					C70.439,97.216,70.295,93.609,74.114,91.351z"/>
			</g>
			<g>
				<g>
					<g>
						<path fill="#FFAE00" d="M94.148,84.34c-7.299-4.001-18.87-3.9-25.845,0.225c-2.244,1.327-3.734,2.909-4.487,4.577l0.118,1.425
							l-0.778,0.593c-0.009,0.263,0.207,3.337,0.234,3.599l0.002,0.046l0.002-0.005c0.269,2.527,2.145,5.012,5.613,6.912
							c7.299,4.001,18.87,3.9,25.845-0.225c3.348-1.98,5.024-4.527,5.059-7.084l0.004-0.003l-0.003-0.11
							c-0.001-0.112-0.003-0.223-0.01-0.335l-0.19-3.885l-0.349-0.45C98.605,87.677,96.865,85.829,94.148,84.34z M88.433,87.719
							c3.996,2.191,4.14,5.797,0.321,8.055c-3.819,2.258-10.155,2.313-14.151,0.123c-3.996-2.19-4.14-5.797-0.321-8.055
							C78.101,85.584,84.437,85.529,88.433,87.719z"/>
					</g>
					<g>
						<path fill="#FFD600" d="M90.273,103.45l0.101-8.951c0.19-0.204,0.359-0.413,0.502-0.627l3.891,2.133l-0.063,5.565
							C93.369,102.342,91.873,102.969,90.273,103.45z"/>
						<path fill="#FFD600" d="M66.479,85.83l6.12,3.355c-1.753,1.95-1.381,4.356,1.073,6.126l-0.093,8.241
							c-1.638-0.465-3.183-1.077-4.573-1.839c-1.223-0.671-2.244-1.415-3.071-2.207l0.15-13.341
							C66.212,86.052,66.344,85.941,66.479,85.83z"/>
						<path fill="#FFD600" d="M75.348,96.267c1.265,0.57,2.71,0.942,4.208,1.118l0.188,0.103l-0.08,7.089
							c-1.495-0.098-2.975-0.3-4.403-0.608L75.348,96.267z"/>
						<path fill="#FFD600" d="M80.778,100.137l1.094,0.6l-0.074,3.91c-0.368,0-0.737-0.006-1.105-0.018L80.778,100.137z"/>
						<path fill="#FFD600" d="M87.855,98.312l1.094,0.6l-0.093,4.923c-0.366,0.088-0.737,0.166-1.11,0.24L87.855,98.312z"/>
					</g>
					<g>
						<path fill="#FFE300" d="M94.095,82.823c-7.277-4.04-18.87-3.9-25.845,0.225c-6.975,4.125-6.713,10.712,0.585,14.712
							c7.299,4.001,18.843,3.854,25.845-0.224C101.611,93.499,101.373,86.863,94.095,82.823z M88.38,86.202
							c3.996,2.19,4.14,5.797,0.321,8.056c-3.819,2.258-10.155,2.313-14.151,0.123c-3.996-2.19-4.14-5.797-0.321-8.055
							C78.048,84.067,84.384,84.012,88.38,86.202z"/>
					</g>
					<g>
						<path fill="#FF7C00" d="M68.135,82.984c-6.975,4.125-6.713,10.712,0.586,14.712c7.299,4.001,18.87,3.9,25.845-0.224
							c6.975-4.125,6.713-10.712-0.585-14.713C86.681,78.759,75.11,78.859,68.135,82.984z M74.114,86.262
							c3.819-2.258,10.155-2.314,14.151-0.123c3.996,2.19,4.14,5.797,0.32,8.055c-3.819,2.258-10.155,2.313-14.151,0.123
							C70.439,92.127,70.295,88.52,74.114,86.262z"/>
					</g>
					<g>
						<path fill="#FF5B00" d="M69.944,83.976c-6.081,3.596-5.852,9.338,0.51,12.826c6.363,3.488,16.45,3.4,22.531-0.196
							c6.081-3.596,5.852-9.338-0.51-12.826C86.112,80.293,76.025,80.381,69.944,83.976z"/>
					</g>
					<g>
						<path fill="#FFAE00" d="M70.778,84.433c-5.64,3.335-5.428,8.662,0.474,11.897s15.259,3.154,20.9-0.182
							c5.641-3.335,5.429-8.662-0.473-11.897C85.776,81.017,76.419,81.098,70.778,84.433z"/>
					</g>
					<path fill="#FFD900" d="M92.066,84.475l-25.118,7.331c0.555,1.665,1.99,3.256,4.304,4.524c0.732,0.401,1.518,0.751,2.342,1.051
						l22.63-6.605C96.422,88.518,95.029,86.222,92.066,84.475z M66.72,89.637l22.357-6.525c-1.152-0.399-2.375-0.703-3.636-0.908
						c-6.43,1.794-13.217,3.727-17.868,5.154C67.101,88.095,66.815,88.863,66.72,89.637z"/>
					<g>
						<path fill="#FFEE00" d="M88.308,88.455c1.019,0.565,1.515,1.188,1.487,1.869c-0.027,0.682-0.399,1.319-1.115,1.913
							l1.254,0.695c0.248,0.137,0.43,0.246,0.547,0.326c0.116,0.08,0.213,0.184,0.292,0.313c0.078,0.129,0.061,0.258-0.052,0.389
							c-0.113,0.131-0.319,0.276-0.618,0.435c-0.299,0.159-0.571,0.268-0.814,0.327c-0.244,0.059-0.483,0.062-0.717,0.009
							c-0.235-0.053-0.421-0.109-0.559-0.171c-0.139-0.061-0.338-0.164-0.599-0.309l-1.215-0.673
							c-0.702,0.246-1.425,0.418-2.169,0.516c-0.745,0.098-1.314,0.139-1.708,0.122l-0.611-0.037
							c-0.652-0.036-1.076-0.108-1.272-0.217c-0.326-0.181-0.463-0.52-0.409-1.016c0.037-0.289,0.205-0.513,0.504-0.673
							c0.342-0.182,0.991-0.279,1.947-0.291l0.205-0.003c0.938,0.04,1.685-0.088,2.241-0.384c1.054-0.561,1.183-1.063,0.386-1.504
							c-0.287-0.159-0.709-0.176-1.264-0.051c-0.556,0.126-1.18,0.306-1.875,0.54c-0.694,0.235-1.43,0.446-2.209,0.633
							c-0.779,0.188-1.623,0.246-2.531,0.176c-0.908-0.07-1.761-0.326-2.557-0.767c-0.771-0.427-1.199-0.958-1.284-1.594
							c-0.086-0.636,0.258-1.258,1.03-1.867l-1.097-0.608c-0.261-0.145-0.447-0.255-0.557-0.332
							c-0.11-0.076-0.208-0.177-0.293-0.302c-0.086-0.125-0.068-0.254,0.052-0.389c0.12-0.134,0.329-0.282,0.629-0.441
							c0.385-0.205,0.749-0.317,1.091-0.336c0.343-0.019,0.613,0.011,0.811,0.09c0.198,0.079,0.461,0.209,0.787,0.39l1.097,0.608
							c0.477-0.169,0.951-0.301,1.423-0.396c0.472-0.095,0.817-0.151,1.036-0.169l0.349-0.015l0.144-0.013
							c0.657-0.023,1.076,0.016,1.259,0.117c0.209,0.116,0.367,0.358,0.474,0.727c0.138,0.494,0.007,0.848-0.392,1.06
							c-0.257,0.137-0.653,0.234-1.19,0.293c-0.055,0.001-0.171,0.006-0.349,0.016c-0.178,0.01-0.336,0.023-0.474,0.039
							c-0.138,0.017-0.322,0.062-0.553,0.135c-0.231,0.073-0.475,0.178-0.731,0.315c-0.271,0.144-0.445,0.326-0.524,0.545
							c-0.079,0.22,0.012,0.401,0.274,0.546c0.313,0.174,0.704,0.232,1.173,0.174c0.468-0.058,0.946-0.184,1.432-0.379
							c0.486-0.195,1.054-0.391,1.705-0.588c0.65-0.197,1.28-0.359,1.891-0.485c0.61-0.126,1.293-0.138,2.049-0.037
							C86.891,87.829,87.616,88.072,88.308,88.455z"/>
					</g>
					<g>
						<path fill="#FF7C00" d="M88.105,88.333c1.019,0.565,1.515,1.188,1.487,1.869c-0.027,0.682-0.399,1.319-1.115,1.913
							l1.254,0.695c0.248,0.137,0.43,0.246,0.547,0.326c0.116,0.08,0.213,0.184,0.292,0.313c0.078,0.129,0.061,0.258-0.052,0.389
							c-0.113,0.131-0.319,0.276-0.618,0.435c-0.299,0.159-0.571,0.268-0.814,0.327c-0.244,0.059-0.483,0.062-0.717,0.009
							c-0.235-0.053-0.421-0.109-0.559-0.171c-0.139-0.061-0.338-0.164-0.599-0.309l-1.215-0.673
							c-0.702,0.246-1.425,0.418-2.169,0.516s-1.314,0.139-1.708,0.122l-0.611-0.037c-0.652-0.036-1.076-0.108-1.272-0.217
							c-0.326-0.181-0.463-0.52-0.409-1.016c0.037-0.289,0.205-0.513,0.504-0.673c0.342-0.182,0.991-0.279,1.947-0.291l0.205-0.003
							c0.938,0.04,1.685-0.088,2.241-0.384c1.054-0.561,1.183-1.062,0.386-1.504c-0.287-0.159-0.709-0.176-1.264-0.051
							c-0.556,0.126-1.18,0.306-1.875,0.54c-0.694,0.235-1.43,0.446-2.209,0.633c-0.779,0.188-1.623,0.246-2.531,0.176
							c-0.908-0.07-1.761-0.326-2.557-0.767c-0.771-0.427-1.199-0.958-1.284-1.594c-0.086-0.636,0.258-1.258,1.03-1.867
							l-1.097-0.608c-0.261-0.145-0.447-0.255-0.557-0.332c-0.11-0.076-0.208-0.177-0.293-0.302
							c-0.086-0.125-0.068-0.254,0.052-0.389c0.12-0.134,0.329-0.282,0.629-0.441c0.385-0.205,0.749-0.317,1.091-0.336
							c0.343-0.019,0.613,0.011,0.811,0.09c0.198,0.079,0.461,0.209,0.788,0.39l1.097,0.608c0.477-0.169,0.951-0.301,1.423-0.396
							c0.472-0.095,0.817-0.151,1.036-0.169l0.349-0.016l0.144-0.013c0.657-0.023,1.076,0.016,1.259,0.117
							c0.209,0.116,0.367,0.358,0.474,0.727c0.138,0.494,0.007,0.848-0.392,1.06c-0.257,0.137-0.653,0.234-1.19,0.293
							c-0.055,0.001-0.171,0.006-0.349,0.016c-0.178,0.01-0.336,0.023-0.474,0.039c-0.138,0.017-0.322,0.062-0.553,0.135
							c-0.231,0.073-0.475,0.178-0.731,0.315c-0.271,0.144-0.445,0.326-0.524,0.545c-0.079,0.22,0.012,0.401,0.274,0.546
							c0.313,0.174,0.704,0.232,1.173,0.174c0.468-0.058,0.946-0.184,1.432-0.379c0.486-0.195,1.054-0.391,1.704-0.588
							c0.65-0.197,1.28-0.359,1.891-0.485s1.293-0.138,2.049-0.037C86.688,87.707,87.413,87.949,88.105,88.333z"/>
					</g>
					<path fill="#FFD900" d="M91.949,96.038c5.608-3.316,5.428-8.6-0.374-11.84c0.034,0.018,0.07,0.036,0.104,0.054
						c5.902,3.235,6.114,8.562,0.473,11.897c-5.64,3.335-14.998,3.417-20.9,0.181c-0.034-0.019-0.065-0.038-0.099-0.057
						C77.06,99.452,86.341,99.354,91.949,96.038z"/>
				</g>
			</g>
		</g>
		<g>
			<g>
				<path opacity="0.43" fill="#FF7C00" d="M68.135,81.677c-6.975,4.125-6.713,10.712,0.586,14.712
					c7.299,4.001,18.87,3.9,25.845-0.224c6.975-4.125,6.713-10.712-0.585-14.713C86.681,77.452,75.11,77.552,68.135,81.677z
					 M74.114,84.955c3.819-2.258,10.155-2.314,14.151-0.123c3.996,2.19,4.14,5.797,0.32,8.055
					c-3.819,2.258-10.155,2.313-14.151,0.123C70.439,90.819,70.295,87.213,74.114,84.955z"/>
			</g>
			<g>
				<g>
					<g>
						<path fill="#FFAE00" d="M94.148,77.944c-7.299-4.001-18.87-3.9-25.845,0.224c-2.244,1.327-3.734,2.909-4.487,4.578
							l0.118,1.425l-0.778,0.593c-0.009,0.263,0.207,3.337,0.234,3.599l0.002,0.046l0.002-0.005
							c0.269,2.527,2.145,5.012,5.613,6.912c7.299,4.001,18.87,3.9,25.845-0.225c3.348-1.98,5.024-4.527,5.059-7.084l0.004-0.003
							l-0.003-0.11c-0.001-0.112-0.003-0.223-0.01-0.335l-0.19-3.885l-0.349-0.45C98.605,81.281,96.865,79.433,94.148,77.944z
							 M88.433,81.323c3.996,2.191,4.14,5.797,0.321,8.055c-3.819,2.258-10.155,2.313-14.151,0.123
							c-3.996-2.19-4.14-5.797-0.321-8.055C78.101,79.187,84.437,79.132,88.433,81.323z"/>
					</g>
					<g>
						<path fill="#FFD600" d="M90.273,97.054l0.101-8.951c0.19-0.204,0.359-0.413,0.502-0.627l3.891,2.133l-0.063,5.565
							C93.369,95.946,91.873,96.573,90.273,97.054z"/>
						<path fill="#FFD600" d="M66.479,79.434l6.12,3.355c-1.753,1.95-1.381,4.356,1.073,6.126l-0.093,8.241
							c-1.638-0.465-3.183-1.077-4.573-1.839c-1.223-0.671-2.244-1.415-3.071-2.207l0.15-13.341
							C66.212,79.656,66.344,79.544,66.479,79.434z"/>
						<path fill="#FFD600" d="M75.348,89.871c1.265,0.57,2.71,0.942,4.208,1.118l0.188,0.103l-0.08,7.089
							c-1.495-0.098-2.975-0.3-4.403-0.608L75.348,89.871z"/>
						<path fill="#FFD600" d="M80.778,93.741l1.094,0.6l-0.074,3.91c-0.368,0-0.737-0.006-1.105-0.018L80.778,93.741z"/>
						<path fill="#FFD600" d="M87.855,91.916l1.094,0.6l-0.093,4.923c-0.366,0.088-0.737,0.166-1.11,0.24L87.855,91.916z"/>
					</g>
					<g>
						<path fill="#FFE300" d="M94.095,76.427c-7.277-4.04-18.87-3.9-25.845,0.224c-6.975,4.125-6.713,10.712,0.585,14.712
							c7.299,4.001,18.843,3.854,25.845-0.224C101.611,87.103,101.373,80.467,94.095,76.427z M88.38,79.806
							c3.996,2.19,4.14,5.797,0.321,8.056c-3.819,2.258-10.155,2.313-14.151,0.123c-3.996-2.19-4.14-5.797-0.321-8.055
							C78.048,77.67,84.384,77.615,88.38,79.806z"/>
					</g>
					<g>
						<path fill="#FF7C00" d="M68.135,76.588C61.159,80.713,61.421,87.3,68.72,91.3s18.87,3.9,25.845-0.224
							c6.975-4.125,6.713-10.712-0.585-14.713C86.681,72.363,75.11,72.463,68.135,76.588z M74.114,79.866
							c3.819-2.258,10.155-2.314,14.151-0.123c3.996,2.19,4.14,5.797,0.32,8.055c-3.819,2.258-10.155,2.313-14.151,0.123
							C70.439,85.731,70.295,82.124,74.114,79.866z"/>
					</g>
					<g>
						<path fill="#FF5B00" d="M69.944,77.58c-6.081,3.596-5.852,9.338,0.51,12.826c6.363,3.488,16.45,3.4,22.531-0.196
							c6.081-3.596,5.852-9.338-0.51-12.826C86.112,73.897,76.025,73.984,69.944,77.58z"/>
					</g>
					<g>
						<path fill="#FFAE00" d="M70.778,78.037c-5.64,3.335-5.428,8.662,0.474,11.897c5.902,3.235,15.259,3.154,20.9-0.181
							c5.641-3.335,5.429-8.662-0.473-11.897C85.776,74.62,76.419,74.702,70.778,78.037z"/>
					</g>
					<path fill="#FFD900" d="M92.066,78.079L66.948,85.41c0.555,1.665,1.99,3.256,4.304,4.524c0.732,0.401,1.518,0.751,2.342,1.051
						l22.63-6.605C96.422,82.122,95.029,79.826,92.066,78.079z M66.72,83.241l22.357-6.525c-1.152-0.399-2.375-0.703-3.636-0.908
						c-6.43,1.794-13.217,3.727-17.868,5.154C67.101,81.699,66.815,82.466,66.72,83.241z"/>
					<g>
						<path fill="#FFEE00" d="M88.308,82.059c1.019,0.565,1.515,1.188,1.487,1.869c-0.027,0.682-0.399,1.319-1.115,1.913
							l1.254,0.695c0.248,0.137,0.43,0.246,0.547,0.326c0.116,0.08,0.213,0.184,0.292,0.313c0.078,0.129,0.061,0.258-0.052,0.389
							c-0.113,0.131-0.319,0.276-0.618,0.435c-0.299,0.159-0.571,0.268-0.814,0.327c-0.244,0.059-0.483,0.062-0.717,0.009
							c-0.235-0.053-0.421-0.109-0.559-0.171c-0.139-0.061-0.338-0.164-0.599-0.309l-1.215-0.673
							c-0.702,0.246-1.425,0.418-2.169,0.516c-0.745,0.098-1.314,0.139-1.708,0.122l-0.611-0.037
							c-0.652-0.036-1.076-0.108-1.272-0.217c-0.326-0.181-0.463-0.52-0.409-1.016c0.037-0.289,0.205-0.513,0.504-0.673
							c0.342-0.182,0.991-0.279,1.947-0.291l0.205-0.003c0.938,0.04,1.685-0.088,2.241-0.384c1.054-0.561,1.183-1.063,0.386-1.504
							c-0.287-0.159-0.709-0.176-1.264-0.051c-0.556,0.126-1.18,0.306-1.875,0.54c-0.694,0.235-1.43,0.446-2.209,0.633
							c-0.779,0.188-1.623,0.246-2.531,0.176c-0.908-0.07-1.761-0.326-2.557-0.767c-0.771-0.427-1.199-0.958-1.284-1.594
							c-0.086-0.636,0.258-1.258,1.03-1.867l-1.097-0.608c-0.261-0.145-0.447-0.255-0.557-0.332
							c-0.11-0.076-0.208-0.177-0.293-0.302c-0.086-0.125-0.068-0.254,0.052-0.389c0.12-0.134,0.329-0.282,0.629-0.441
							c0.385-0.205,0.749-0.317,1.091-0.336c0.343-0.019,0.613,0.011,0.811,0.09c0.198,0.079,0.461,0.209,0.787,0.39l1.097,0.608
							c0.477-0.169,0.951-0.301,1.423-0.396c0.472-0.095,0.817-0.151,1.036-0.169l0.349-0.016l0.144-0.013
							c0.657-0.023,1.076,0.016,1.259,0.117c0.209,0.116,0.367,0.358,0.474,0.727c0.138,0.494,0.007,0.848-0.392,1.06
							c-0.257,0.137-0.653,0.234-1.19,0.293c-0.055,0.001-0.171,0.006-0.349,0.016c-0.178,0.01-0.336,0.023-0.474,0.039
							c-0.138,0.017-0.322,0.062-0.553,0.135c-0.231,0.073-0.475,0.178-0.731,0.315c-0.271,0.144-0.445,0.326-0.524,0.545
							c-0.079,0.22,0.012,0.401,0.274,0.546c0.313,0.174,0.704,0.232,1.173,0.174c0.468-0.058,0.946-0.184,1.432-0.379
							c0.486-0.195,1.054-0.391,1.705-0.588c0.65-0.197,1.28-0.359,1.891-0.485c0.61-0.126,1.293-0.138,2.049-0.037
							C86.891,81.433,87.616,81.676,88.308,82.059z"/>
					</g>
					<g>
						<path fill="#FF7C00" d="M88.105,81.937c1.019,0.565,1.515,1.188,1.487,1.869c-0.027,0.682-0.399,1.319-1.115,1.913
							l1.254,0.695c0.248,0.137,0.43,0.246,0.547,0.326c0.116,0.08,0.213,0.184,0.292,0.313c0.078,0.129,0.061,0.258-0.052,0.389
							c-0.113,0.131-0.319,0.276-0.618,0.435c-0.299,0.159-0.571,0.268-0.814,0.327c-0.244,0.059-0.483,0.062-0.717,0.009
							c-0.235-0.053-0.421-0.109-0.559-0.171c-0.139-0.061-0.338-0.164-0.599-0.309l-1.215-0.673
							c-0.702,0.246-1.425,0.418-2.169,0.516c-0.745,0.098-1.314,0.139-1.708,0.122l-0.611-0.037
							c-0.652-0.036-1.076-0.108-1.272-0.217c-0.326-0.181-0.463-0.52-0.409-1.016c0.037-0.289,0.205-0.513,0.504-0.673
							c0.342-0.182,0.991-0.279,1.947-0.291l0.205-0.003c0.938,0.04,1.685-0.088,2.241-0.384c1.054-0.561,1.183-1.062,0.386-1.504
							c-0.287-0.159-0.709-0.176-1.264-0.051c-0.556,0.126-1.18,0.306-1.875,0.54c-0.694,0.235-1.43,0.446-2.209,0.633
							c-0.779,0.188-1.623,0.246-2.531,0.176c-0.908-0.07-1.761-0.326-2.557-0.767c-0.771-0.427-1.199-0.958-1.284-1.594
							c-0.086-0.636,0.258-1.258,1.03-1.867l-1.097-0.608c-0.261-0.145-0.447-0.255-0.557-0.332
							c-0.11-0.076-0.208-0.177-0.293-0.302c-0.086-0.125-0.068-0.254,0.052-0.389c0.12-0.134,0.329-0.282,0.629-0.441
							c0.385-0.205,0.749-0.317,1.091-0.336c0.343-0.019,0.613,0.011,0.811,0.09c0.198,0.079,0.461,0.209,0.788,0.39l1.097,0.608
							c0.477-0.169,0.951-0.301,1.423-0.396c0.472-0.095,0.817-0.151,1.036-0.169l0.349-0.016l0.144-0.013
							c0.657-0.023,1.076,0.016,1.259,0.117c0.209,0.116,0.367,0.358,0.474,0.727c0.138,0.494,0.007,0.848-0.392,1.06
							c-0.257,0.137-0.653,0.234-1.19,0.293c-0.055,0.001-0.171,0.006-0.349,0.016c-0.178,0.01-0.336,0.023-0.474,0.039
							c-0.138,0.017-0.322,0.062-0.553,0.135c-0.231,0.073-0.475,0.178-0.731,0.315c-0.271,0.144-0.445,0.326-0.524,0.545
							c-0.079,0.22,0.012,0.401,0.274,0.546c0.313,0.174,0.704,0.232,1.173,0.174c0.468-0.058,0.946-0.184,1.432-0.379
							c0.486-0.195,1.054-0.391,1.704-0.588c0.65-0.197,1.28-0.359,1.891-0.485c0.61-0.126,1.293-0.138,2.049-0.037
							C86.688,81.311,87.413,81.553,88.105,81.937z"/>
					</g>
					<path fill="#FFD900" d="M91.949,89.642c5.608-3.316,5.428-8.6-0.374-11.84c0.034,0.018,0.07,0.036,0.104,0.054
						c5.902,3.235,6.114,8.562,0.473,11.897c-5.64,3.335-14.998,3.417-20.9,0.181c-0.034-0.019-0.065-0.038-0.099-0.057
						C77.06,93.056,86.341,92.958,91.949,89.642z"/>
				</g>
			</g>
		</g>
		<g>
			<g>
				<path opacity="0.43" fill="#FF7C00" d="M72.466,73.162c-6.538,2.337-7.388,7.921-1.898,12.472
					c5.49,4.552,15.241,6.347,21.779,4.01c6.538-2.337,7.388-7.921,1.898-12.472C88.755,72.621,79.004,70.826,72.466,73.162z"/>
			</g>
			<g>
				<g>
					<g>
						<path fill="#FFAE00" d="M97.666,71.759c-4.935-6.703-15.472-11.485-23.536-10.682c-2.594,0.258-4.612,1.066-5.998,2.262
							l-0.493,1.342l-0.955,0.21c-0.118,0.235-1.217,3.114-1.304,3.363l-0.018,0.042l0.004-0.003
							c-0.82,2.405-0.165,5.449,2.179,8.633c4.935,6.703,15.472,11.485,23.536,10.682c3.871-0.386,6.464-1.99,7.572-4.294
							l0.004-0.001l0.043-0.101c0.047-0.102,0.091-0.204,0.132-0.308l1.464-3.603l-0.127-0.555
							C100.303,76.663,99.503,74.254,97.666,71.759z M91.06,72.417c2.702,3.67,1.313,7.001-3.102,7.441
							c-4.415,0.44-10.184-2.179-12.886-5.849c-2.702-3.67-1.313-7.001,3.102-7.441C82.589,66.129,88.358,68.748,91.06,72.417z"/>
					</g>
					<g>
						<path fill="#FFD600" d="M86.103,87.46l3.862-8.076c0.258-0.105,0.5-0.223,0.719-0.357l2.631,3.573l-2.401,5.021
							C89.378,87.759,87.757,87.697,86.103,87.46z"/>
						<path fill="#FFD600" d="M71.943,61.457l4.138,5.621c-2.411,1.03-3.087,3.369-1.607,6.007l-3.555,7.435
							c-1.29-1.112-2.434-2.318-3.373-3.594c-0.827-1.123-1.44-2.228-1.855-3.295l5.756-12.037
							C71.608,61.546,71.775,61.501,71.943,61.457z"/>
						<path fill="#FFD600" d="M75.591,74.659c0.907,1.05,2.061,1.995,3.346,2.786l0.127,0.172l-3.059,6.396
							c-1.315-0.719-2.572-1.525-3.738-2.406L75.591,74.659z"/>
						<path fill="#FFD600" d="M78.887,80.456l0.74,1.005l-1.714,3.515c-0.334-0.155-0.666-0.316-0.994-0.482L78.887,80.456z"/>
						<path fill="#FFD600" d="M86.074,81.782l0.74,1.005l-2.158,4.426c-0.369-0.074-0.738-0.159-1.108-0.25L86.074,81.782z"/>
					</g>
					<g>
						<path fill="#FFE300" d="M98.257,70.361c-4.899-6.729-15.472-11.485-23.536-10.682c-8.064,0.803-10.6,6.888-5.666,13.59
							c4.935,6.703,15.467,11.431,23.536,10.682C100.577,83.21,103.157,77.091,98.257,70.361z M91.651,71.019
							c2.702,3.67,1.313,7.001-3.102,7.441c-4.415,0.44-10.184-2.179-12.886-5.849c-2.702-3.67-1.313-7.001,3.102-7.441
							C83.18,64.731,88.949,67.349,91.651,71.019z"/>
					</g>
					<g>
						<path fill="#FF7C00" d="M74.644,59.574c-8.064,0.803-10.6,6.888-5.666,13.59c4.935,6.703,15.472,11.485,23.535,10.682
							c8.064-0.803,10.6-6.888,5.666-13.59C93.245,63.553,82.708,58.77,74.644,59.574z M78.687,65.065
							c4.415-0.44,10.184,2.179,12.886,5.849c2.702,3.67,1.313,7.001-3.102,7.441c-4.415,0.44-10.184-2.179-12.886-5.849
							C72.883,68.836,74.272,65.505,78.687,65.065z"/>
					</g>
					<g>
						<path fill="#FF5B00" d="M75.868,61.236c-7.03,0.7-9.241,6.004-4.939,11.847c4.302,5.843,13.488,10.012,20.517,9.312
							c7.03-0.7,9.241-6.004,4.939-11.848C92.083,64.705,82.897,60.536,75.868,61.236z"/>
					</g>
					<g>
						<path fill="#FFAE00" d="M76.431,62.001c-6.521,0.649-8.572,5.57-4.581,10.99c3.99,5.42,12.511,9.287,19.032,8.638
							c6.521-0.649,8.572-5.57,4.582-10.99C91.473,65.219,82.952,61.352,76.431,62.001z"/>
					</g>
					<path fill="#FFD900" d="M95.721,71.006l-25.869-3.93c-0.198,1.744,0.434,3.791,1.998,5.916c0.495,0.672,1.06,1.321,1.682,1.939
						l23.307,3.541C97.969,76.507,97.673,73.838,95.721,71.006z M70.559,65.012l23.025,3.498c-0.876-0.847-1.858-1.638-2.916-2.355
						c-6.587-1.081-13.557-2.187-18.376-2.851C71.554,63.774,70.972,64.35,70.559,65.012z"/>
					<g>
						<path fill="#FFEE00" d="M90.636,73.032c0.686,0.941,0.874,1.715,0.562,2.321c-0.312,0.607-0.918,1.029-1.817,1.266
							l0.845,1.158c0.167,0.229,0.286,0.405,0.359,0.526c0.072,0.121,0.116,0.257,0.133,0.407c0.017,0.15-0.054,0.26-0.211,0.331
							c-0.158,0.071-0.405,0.116-0.744,0.135c-0.338,0.018-0.63,0.003-0.876-0.046c-0.246-0.05-0.464-0.147-0.654-0.294
							c-0.191-0.147-0.336-0.277-0.436-0.39c-0.1-0.114-0.237-0.291-0.413-0.532l-0.818-1.122c-0.74-0.073-1.468-0.221-2.185-0.446
							s-1.25-0.427-1.6-0.609l-0.539-0.29c-0.576-0.307-0.93-0.552-1.062-0.733c-0.22-0.301-0.201-0.666,0.057-1.094
							c0.155-0.247,0.402-0.379,0.74-0.398c0.387-0.021,1.016,0.164,1.888,0.556l0.187,0.084c0.834,0.431,1.565,0.63,2.194,0.596
							c1.192-0.065,1.521-0.465,0.984-1.201c-0.193-0.265-0.569-0.458-1.125-0.578c-0.557-0.12-1.199-0.22-1.928-0.3
							c-0.728-0.079-1.485-0.198-2.27-0.356c-0.786-0.158-1.576-0.46-2.37-0.906c-0.794-0.446-1.46-1.037-1.996-1.773
							c-0.519-0.712-0.684-1.374-0.494-1.987c0.19-0.612,0.764-1.032,1.72-1.26l-0.739-1.014c-0.176-0.241-0.298-0.419-0.365-0.535
							c-0.068-0.115-0.114-0.248-0.139-0.397C77.499,64,77.57,63.89,77.735,63.818c0.165-0.071,0.417-0.117,0.756-0.135
							c0.435-0.024,0.812,0.028,1.131,0.155c0.319,0.127,0.551,0.268,0.698,0.423c0.147,0.155,0.33,0.384,0.55,0.685l0.739,1.013
							c0.504,0.048,0.99,0.128,1.457,0.241c0.468,0.113,0.805,0.207,1.011,0.283l0.323,0.133l0.136,0.049
							c0.605,0.256,0.969,0.468,1.092,0.637c0.141,0.193,0.182,0.479,0.124,0.859c-0.083,0.506-0.351,0.772-0.802,0.796
							c-0.29,0.016-0.691-0.063-1.202-0.236c-0.05-0.022-0.158-0.067-0.323-0.133c-0.166-0.066-0.314-0.121-0.446-0.164
							c-0.132-0.043-0.318-0.08-0.558-0.111c-0.24-0.031-0.506-0.038-0.796-0.023c-0.306,0.017-0.541,0.108-0.705,0.274
							c-0.164,0.166-0.158,0.369,0.018,0.611c0.211,0.289,0.541,0.507,0.99,0.652c0.449,0.145,0.935,0.231,1.458,0.259
							c0.523,0.028,1.121,0.09,1.794,0.185c0.673,0.095,1.312,0.214,1.919,0.357c0.607,0.143,1.231,0.419,1.874,0.829
							C89.615,71.868,90.17,72.393,90.636,73.032z"/>
					</g>
					<g>
						<path fill="#FF7C00" d="M90.504,72.836c0.686,0.941,0.874,1.715,0.562,2.321c-0.312,0.607-0.918,1.029-1.817,1.266
							l0.845,1.158c0.167,0.229,0.286,0.405,0.359,0.526c0.072,0.121,0.116,0.257,0.133,0.407c0.017,0.15-0.054,0.26-0.211,0.331
							c-0.158,0.071-0.405,0.116-0.744,0.135c-0.338,0.018-0.63,0.003-0.876-0.046c-0.246-0.05-0.464-0.147-0.654-0.294
							c-0.191-0.147-0.336-0.277-0.436-0.39c-0.1-0.114-0.237-0.291-0.413-0.532l-0.818-1.122c-0.74-0.073-1.468-0.221-2.185-0.446
							c-0.717-0.224-1.25-0.427-1.6-0.609l-0.539-0.29c-0.576-0.307-0.93-0.552-1.062-0.733c-0.22-0.301-0.201-0.666,0.057-1.094
							c0.155-0.247,0.402-0.379,0.74-0.398c0.387-0.021,1.016,0.164,1.888,0.556l0.187,0.084c0.834,0.431,1.565,0.63,2.194,0.596
							c1.193-0.065,1.521-0.465,0.984-1.201c-0.193-0.265-0.569-0.458-1.125-0.578c-0.557-0.12-1.199-0.22-1.928-0.3
							c-0.728-0.079-1.485-0.198-2.27-0.356c-0.786-0.158-1.576-0.46-2.37-0.906c-0.794-0.446-1.46-1.037-1.996-1.773
							c-0.519-0.712-0.684-1.374-0.494-1.987c0.19-0.612,0.764-1.032,1.72-1.26l-0.739-1.014c-0.176-0.241-0.298-0.419-0.365-0.535
							c-0.068-0.115-0.114-0.248-0.139-0.397c-0.025-0.149,0.045-0.259,0.211-0.331c0.165-0.071,0.417-0.117,0.756-0.135
							c0.435-0.024,0.812,0.028,1.131,0.155c0.319,0.127,0.551,0.268,0.698,0.423c0.147,0.155,0.33,0.384,0.55,0.685l0.739,1.013
							c0.504,0.048,0.99,0.128,1.457,0.241c0.468,0.113,0.805,0.207,1.011,0.283l0.323,0.133l0.136,0.049
							c0.605,0.256,0.969,0.468,1.092,0.637c0.141,0.193,0.182,0.479,0.124,0.859c-0.083,0.506-0.351,0.772-0.802,0.796
							c-0.29,0.016-0.691-0.063-1.202-0.236c-0.05-0.022-0.158-0.067-0.323-0.133c-0.166-0.066-0.314-0.121-0.446-0.164
							c-0.132-0.043-0.318-0.08-0.558-0.111c-0.24-0.031-0.506-0.038-0.796-0.023c-0.306,0.017-0.541,0.108-0.705,0.274
							c-0.164,0.166-0.158,0.369,0.018,0.611c0.211,0.289,0.541,0.507,0.99,0.652c0.449,0.145,0.935,0.231,1.458,0.259
							c0.523,0.028,1.121,0.09,1.794,0.185c0.673,0.095,1.312,0.214,1.919,0.357c0.607,0.143,1.231,0.419,1.874,0.829
							C89.483,71.672,90.038,72.197,90.504,72.836z"/>
					</g>
					<g opacity="0.5">
						<path fill="#FF7C00" d="M81.523,68.917c-1.925,0.192-2.531,1.645-1.353,3.245c1.178,1.601,3.695,2.743,5.62,2.551
							c1.926-0.192,2.531-1.645,1.353-3.245C85.965,69.868,83.449,68.726,81.523,68.917z"/>
					</g>
					<path fill="#FFD900" d="M90.745,81.443c6.483-0.646,8.546-5.514,4.647-10.897c0.023,0.031,0.048,0.062,0.071,0.093
						c3.99,5.42,1.939,10.34-4.582,10.99c-6.521,0.649-15.042-3.218-19.032-8.638c-0.023-0.031-0.043-0.062-0.066-0.093
						C75.803,78.269,84.262,82.089,90.745,81.443z"/>
				</g>
			</g>
		</g>
		<g>
			<g>
				<g>
					<path fill="#0004cad9" d="M61.277,117.621c-4.81,2.844-4.629,7.387,0.404,10.146c5.033,2.759,13.013,2.69,17.823-0.155
						c4.81-2.844,4.629-7.387-0.404-10.146C74.066,114.708,66.087,114.777,61.277,117.621z M65.4,119.882
						c2.634-1.557,7.003-1.595,9.758-0.085c2.756,1.511,2.855,3.998,0.221,5.555c-2.634,1.557-7.003,1.595-9.758,0.085
						C62.866,123.926,62.767,121.439,65.4,119.882z"/>
				</g>
				<g>
					<path fill="#FFAE00" d="M79.161,115.076c-5.033-2.759-13.013-2.69-17.823,0.155c-1.547,0.915-2.575,2.006-3.094,3.157
						l0.081,0.983l-0.536,0.409c-0.006,0.181,0.143,2.301,0.161,2.482l0.001,0.032l0.001-0.003c0.186,1.743,1.479,3.456,3.871,4.767
						c5.033,2.759,13.013,2.69,17.823-0.155c2.309-1.365,3.465-3.122,3.489-4.885l0.002-0.002l-0.002-0.076
						c0-0.077-0.002-0.154-0.007-0.231l-0.131-2.679l-0.241-0.31C82.235,117.378,81.035,116.103,79.161,115.076z M75.22,117.407
						c2.756,1.511,2.855,3.998,0.221,5.555c-2.634,1.557-7.003,1.595-9.758,0.085c-2.756-1.511-2.855-3.998-0.221-5.555
						C68.095,115.934,72.464,115.896,75.22,117.407z"/>
				</g>
				<g>
					<path fill="#FFD600" d="M76.489,128.255l0.07-6.173c0.131-0.141,0.248-0.285,0.346-0.432l2.683,1.471l-0.043,3.838
						C78.624,127.491,77.592,127.923,76.489,128.255z"/>
					<path fill="#FFD600" d="M60.08,116.104l4.221,2.313c-1.209,1.345-0.952,3.004,0.74,4.224l-0.064,5.683
						c-1.13-0.321-2.195-0.743-3.154-1.268c-0.844-0.462-1.548-0.976-2.118-1.522l0.104-9.2
						C59.896,116.257,59.987,116.18,60.08,116.104z"/>
					<path fill="#FFD600" d="M66.196,123.302c0.872,0.393,1.869,0.649,2.902,0.771l0.13,0.071l-0.055,4.889
						c-1.031-0.068-2.052-0.207-3.036-0.419L66.196,123.302z"/>
					<path fill="#FFD600" d="M69.941,125.97l0.754,0.414l-0.051,2.696c-0.254,0-0.508-0.004-0.762-0.013L69.941,125.97z"/>
					<path fill="#FFD600" d="M74.822,124.712l0.754,0.414l-0.064,3.395c-0.252,0.061-0.508,0.115-0.765,0.165L74.822,124.712z"/>
				</g>
				<g>
					<path fill="#FFE300" d="M79.125,114.03c-5.018-2.786-13.013-2.69-17.823,0.155c-4.81,2.844-4.629,7.387,0.404,10.146
						c5.033,2.759,12.994,2.657,17.823-0.155C84.307,121.393,84.144,116.817,79.125,114.03z M75.184,116.361
						c2.756,1.511,2.855,3.998,0.221,5.555c-2.634,1.557-7.003,1.595-9.758,0.085c-2.756-1.511-2.855-3.998-0.221-5.555
						C68.059,114.888,72.428,114.85,75.184,116.361z"/>
				</g>
				<g>
					<path fill="#FF7C00" d="M61.222,114.142c-4.81,2.844-4.629,7.387,0.404,10.146c5.033,2.759,13.013,2.69,17.823-0.155
						c4.81-2.844,4.629-7.387-0.404-10.146C74.012,111.228,66.032,111.297,61.222,114.142z M65.346,116.402
						c2.634-1.557,7.003-1.595,9.758-0.085c2.756,1.511,2.855,3.998,0.221,5.555c-2.634,1.557-7.003,1.595-9.758,0.085
						C62.811,120.446,62.712,117.959,65.346,116.402z"/>
				</g>
				<g>
					<path fill="#FF5B00" d="M62.47,114.826c-4.193,2.48-4.036,6.439,0.352,8.845c4.388,2.405,11.344,2.345,15.537-0.135
						c4.193-2.48,4.036-6.439-0.352-8.845C73.62,112.286,66.664,112.346,62.47,114.826z"/>
				</g>
				<g>
					<path fill="#FFAE00" d="M63.045,115.141c-3.89,2.3-3.743,5.973,0.327,8.204c4.07,2.231,10.523,2.175,14.412-0.125
						c3.89-2.3,3.744-5.973-0.326-8.204C73.388,112.785,66.935,112.841,63.045,115.141z"/>
				</g>
				<path fill="#FFD900" d="M77.725,115.17l-17.322,5.056c0.383,1.148,1.372,2.245,2.968,3.12c0.505,0.277,1.047,0.518,1.615,0.725
					l15.606-4.555C80.73,117.958,79.769,116.375,77.725,115.17z M60.247,118.729l15.417-4.5c-0.794-0.275-1.638-0.485-2.508-0.626
					c-4.434,1.237-9.114,2.57-12.322,3.554C60.51,117.666,60.313,118.195,60.247,118.729z"/>
				<g>
					<path fill="#FFEE00" d="M75.134,117.915c0.702,0.389,1.044,0.819,1.026,1.289c-0.019,0.47-0.275,0.91-0.769,1.319l0.865,0.479
						c0.171,0.095,0.297,0.17,0.377,0.225c0.08,0.055,0.147,0.127,0.201,0.216c0.054,0.089,0.042,0.178-0.036,0.269
						c-0.078,0.09-0.22,0.19-0.426,0.3c-0.206,0.11-0.394,0.185-0.561,0.225c-0.168,0.04-0.333,0.042-0.494,0.006
						c-0.162-0.036-0.29-0.075-0.386-0.118c-0.096-0.042-0.233-0.113-0.413-0.213l-0.838-0.464c-0.484,0.17-0.983,0.288-1.496,0.356
						c-0.513,0.068-0.906,0.096-1.178,0.084l-0.421-0.025c-0.45-0.025-0.742-0.075-0.877-0.15c-0.225-0.125-0.319-0.358-0.282-0.701
						c0.025-0.199,0.141-0.354,0.348-0.464c0.236-0.125,0.683-0.192,1.342-0.201l0.141-0.002c0.647,0.028,1.162-0.061,1.545-0.265
						c0.727-0.387,0.816-0.733,0.266-1.037c-0.198-0.11-0.489-0.121-0.872-0.035c-0.383,0.087-0.814,0.211-1.293,0.372
						c-0.478,0.162-0.986,0.307-1.523,0.437c-0.537,0.129-1.119,0.17-1.745,0.122c-0.626-0.048-1.214-0.225-1.764-0.529
						c-0.531-0.294-0.827-0.661-0.886-1.099c-0.059-0.438,0.178-0.868,0.71-1.288l-0.757-0.419c-0.18-0.1-0.308-0.176-0.384-0.229
						c-0.076-0.053-0.143-0.122-0.202-0.208c-0.059-0.086-0.047-0.175,0.036-0.269c0.083-0.093,0.227-0.194,0.433-0.304
						c0.265-0.141,0.516-0.218,0.752-0.232c0.236-0.013,0.423,0.008,0.559,0.062c0.137,0.054,0.318,0.144,0.543,0.269l0.757,0.419
						c0.329-0.116,0.656-0.207,0.981-0.273c0.325-0.065,0.563-0.104,0.715-0.116l0.241-0.011l0.1-0.009
						c0.453-0.016,0.742,0.011,0.868,0.081c0.144,0.08,0.253,0.247,0.327,0.501c0.095,0.341,0.005,0.585-0.27,0.731
						c-0.177,0.094-0.451,0.161-0.821,0.202c-0.038,0.001-0.118,0.004-0.241,0.011c-0.123,0.007-0.232,0.016-0.327,0.027
						c-0.095,0.012-0.222,0.043-0.381,0.093c-0.159,0.051-0.327,0.123-0.504,0.217c-0.187,0.099-0.307,0.225-0.362,0.376
						c-0.055,0.151,0.009,0.277,0.189,0.377c0.216,0.12,0.486,0.16,0.809,0.12c0.323-0.04,0.652-0.127,0.987-0.261
						c0.335-0.134,0.727-0.27,1.175-0.406c0.448-0.136,0.883-0.247,1.304-0.334c0.421-0.087,0.892-0.095,1.413-0.026
						C74.157,117.483,74.657,117.65,75.134,117.915z"/>
				</g>
				<g>
					<path fill="#FF7C00" d="M74.994,117.83c0.702,0.389,1.044,0.819,1.026,1.289c-0.019,0.47-0.275,0.91-0.769,1.319l0.865,0.479
						c0.171,0.095,0.296,0.17,0.377,0.225c0.08,0.055,0.147,0.127,0.201,0.216c0.054,0.089,0.042,0.178-0.036,0.269
						c-0.078,0.09-0.22,0.19-0.426,0.3c-0.206,0.11-0.394,0.185-0.561,0.225c-0.168,0.04-0.333,0.042-0.494,0.006
						c-0.162-0.036-0.291-0.075-0.386-0.118c-0.096-0.042-0.233-0.113-0.413-0.213l-0.838-0.464
						c-0.484,0.17-0.983,0.288-1.496,0.356c-0.513,0.068-0.906,0.096-1.178,0.084l-0.421-0.025c-0.45-0.025-0.742-0.075-0.877-0.15
						c-0.225-0.125-0.319-0.358-0.282-0.701c0.025-0.199,0.141-0.354,0.348-0.464c0.236-0.125,0.683-0.192,1.342-0.201l0.141-0.002
						c0.647,0.028,1.162-0.061,1.545-0.265c0.727-0.387,0.816-0.733,0.266-1.037c-0.198-0.11-0.489-0.121-0.872-0.035
						c-0.383,0.087-0.814,0.211-1.293,0.372c-0.478,0.162-0.986,0.307-1.523,0.437c-0.537,0.129-1.119,0.17-1.745,0.122
						c-0.626-0.048-1.214-0.225-1.764-0.529c-0.531-0.294-0.827-0.661-0.886-1.099c-0.059-0.438,0.178-0.868,0.71-1.288
						l-0.757-0.419c-0.18-0.1-0.308-0.176-0.384-0.229c-0.076-0.053-0.143-0.122-0.202-0.208c-0.059-0.086-0.047-0.175,0.036-0.269
						c0.083-0.093,0.227-0.194,0.433-0.304c0.265-0.141,0.516-0.218,0.752-0.232c0.236-0.013,0.423,0.008,0.559,0.062
						c0.137,0.054,0.318,0.144,0.543,0.269l0.757,0.419c0.329-0.116,0.656-0.207,0.981-0.273c0.325-0.065,0.563-0.104,0.715-0.116
						l0.241-0.011l0.1-0.009c0.453-0.016,0.742,0.011,0.868,0.081c0.144,0.08,0.253,0.247,0.327,0.501
						c0.095,0.341,0.005,0.585-0.27,0.731c-0.177,0.094-0.451,0.161-0.821,0.202c-0.038,0.001-0.118,0.004-0.241,0.011
						c-0.123,0.007-0.232,0.016-0.327,0.027c-0.095,0.012-0.222,0.043-0.381,0.093c-0.159,0.051-0.327,0.123-0.504,0.217
						c-0.187,0.099-0.307,0.225-0.362,0.376c-0.054,0.151,0.009,0.277,0.189,0.377c0.216,0.12,0.486,0.16,0.809,0.12
						c0.323-0.04,0.652-0.127,0.987-0.261s0.727-0.27,1.175-0.406c0.448-0.136,0.883-0.247,1.304-0.334
						c0.421-0.087,0.892-0.095,1.413-0.026C74.017,117.398,74.517,117.566,74.994,117.83z"/>
				</g>
				<path fill="#FFD900" d="M77.645,123.144c3.867-2.287,3.743-5.93-0.258-8.165c0.024,0.013,0.048,0.024,0.072,0.037
					c4.07,2.231,4.216,5.904,0.326,8.204c-3.89,2.3-10.342,2.356-14.412,0.125c-0.023-0.013-0.045-0.026-0.068-0.039
					C67.377,125.498,73.777,125.43,77.645,123.144z"/>
			</g>
		</g>
		<g>
			<g>
				<g>
					<path fill="#FFAE00" d="M65.224,81.122L64.998,80.6l-3.316-2.034c-0.095-0.06-0.191-0.116-0.289-0.17l-0.095-0.056
						l-0.004,0.002c-2.259-1.198-5.298-0.953-8.644,1.031c-6.97,4.134-12.62,14.232-12.62,22.556c0,3.954,1.277,6.794,3.363,8.245
						l-0.005-0.001l0.039,0.023c0.217,0.149,2.809,1.816,3.044,1.935l0.894-0.397l1.193,0.789c1.825,0.142,3.929-0.404,6.171-1.734
						c6.97-4.134,12.62-14.233,12.62-22.556C67.351,85.135,66.567,82.721,65.224,81.122z M54.731,103.97
						c-3.816,2.263-6.91,0.404-6.91-4.153s3.094-10.086,6.91-12.35c3.816-2.263,6.91-0.404,6.91,4.153
						C61.64,96.177,58.547,101.707,54.731,103.97z"/>
				</g>
				<g>
					<path fill="#FFD600" d="M48.73,82.446l7.898,4.214c0.27-0.068,0.535-0.116,0.791-0.139v-4.437l-4.91-2.62
						C51.19,80.263,49.921,81.274,48.73,82.446z"/>
					<path fill="#FFD600" d="M52.744,111.78V104.8c-2.553,0.6-4.483-0.883-4.856-3.885l-7.271-3.88
						c-0.38,1.66-0.586,3.309-0.586,4.894c0,1.395,0.162,2.648,0.459,3.753l11.771,6.281
						C52.421,111.907,52.582,111.845,52.744,111.78z"/>
					<path fill="#FFD600" d="M47.855,98.986c0.108-1.383,0.477-2.829,1.043-4.228v-0.214l-6.255-3.338
						c-0.633,1.358-1.167,2.753-1.583,4.153L47.855,98.986z"/>
					<path fill="#FFD600" d="M47.072,92.364v-1.248l-3.464-1.815c-0.177,0.323-0.349,0.649-0.515,0.978L47.072,92.364z"/>
					<path fill="#FFD600" d="M52.073,87.035v-1.248l-4.362-2.285c-0.253,0.278-0.5,0.566-0.744,0.858L52.073,87.035z"/>
				</g>
				<g>
					<path fill="#FFE300" d="M56.036,81.424c-6.942,4.18-12.62,14.232-12.62,22.556c0,8.323,5.65,11.719,12.62,7.585
						c6.97-4.134,12.665-14.233,12.62-22.556C68.611,80.685,62.906,77.286,56.036,81.424z M56.036,104.746
						c-3.816,2.263-6.91,0.404-6.91-4.153c0-4.557,3.094-10.086,6.91-12.35c3.816-2.263,6.91-0.404,6.91,4.153
						C62.945,96.953,59.852,102.482,56.036,104.746z"/>
				</g>
				<g>
					<path fill="#FF7C00" d="M68.656,89.14c0-8.323-5.65-11.719-12.62-7.585c-6.97,4.134-12.62,14.233-12.62,22.556
						c0,8.323,5.65,11.719,12.62,7.585C63.005,107.562,68.656,97.463,68.656,89.14z M49.126,100.724
						c0-4.557,3.094-10.086,6.91-12.35c3.816-2.264,6.91-0.404,6.91,4.153c0,4.557-3.094,10.086-6.91,12.35
						C52.22,107.14,49.126,105.281,49.126,100.724z"/>
				</g>
				<g>
					<path fill="#FF5B00" d="M67.037,89.969c0-7.256-4.926-10.216-11.002-6.613c-6.076,3.604-11.001,12.407-11.001,19.663
						c0,7.256,4.925,10.216,11.001,6.612C62.112,106.028,67.037,97.225,67.037,89.969z"/>
				</g>
				<g>
					<path fill="#FFAE00" d="M66.241,90.441c0-6.731-4.569-9.477-10.205-6.134c-5.636,3.343-10.205,11.509-10.205,18.24
						c0,6.731,4.569,9.477,10.205,6.134C61.672,105.338,66.241,97.172,66.241,90.441z"/>
				</g>
				<path fill="#FFD900" d="M62.705,83.318l-16.67,16.67c-0.134,0.867-0.205,1.724-0.205,2.559c0,2.639,0.705,4.662,1.898,5.949
					l18.502-18.502C66.124,86.556,64.78,84.23,62.705,83.318z M51.93,110.086c3.487-3.393,8.444-8.415,13.108-13.191
					c0.426-1.204,0.748-2.423,0.952-3.625l-16.468,16.468C50.247,110.027,51.057,110.145,51.93,110.086z"/>
				<path fill="#FFD900" d="M56.036,84.539c5.604-3.324,10.15-0.626,10.203,6.02c0-0.039,0.002-0.078,0.002-0.117
					c0-6.731-4.569-9.477-10.205-6.134c-5.636,3.343-10.205,11.509-10.205,18.24c0,0.039,0.002,0.076,0.002,0.114
					C45.885,95.953,50.432,87.862,56.036,84.539z"/>
			</g>
			<g>
				<path fill="#FFFF00" d="M61.117,95.623c0,1.279-0.319,2.537-0.958,3.775c-0.638,1.239-1.412,2.313-2.319,3.224v1.574
					c0,0.311-0.007,0.554-0.021,0.729c-0.014,0.174-0.06,0.389-0.138,0.642c-0.078,0.254-0.206,0.487-0.383,0.699
					c-0.177,0.212-0.415,0.427-0.713,0.645c-0.298,0.218-0.536,0.351-0.713,0.399c-0.177,0.048-0.301-0.005-0.372-0.158
					c-0.071-0.153-0.114-0.302-0.128-0.448c-0.014-0.146-0.021-0.382-0.021-0.71v-1.525c-0.582,0.279-1.107,0.417-1.575,0.416
					c-0.468-0.001-0.795-0.065-0.979-0.193l-0.277-0.215c-0.298-0.224-0.447-0.46-0.447-0.705c0-0.41,0.241-1.062,0.724-1.956
					c0.284-0.519,0.574-0.888,0.872-1.107c0.34-0.249,0.759-0.269,1.255-0.059l0.107,0.045c0.439,0.301,0.936,0.249,1.489-0.157
					c1.05-0.769,1.575-1.654,1.575-2.654c0-0.36-0.199-0.494-0.596-0.4c-0.397,0.094-0.88,0.272-1.447,0.531
					c-0.567,0.26-1.135,0.467-1.702,0.62c-0.567,0.154-1.05,0.056-1.447-0.292c-0.397-0.348-0.596-1.023-0.596-2.023
					c0-0.967,0.269-2.042,0.808-3.224c0.539-1.182,1.284-2.236,2.234-3.162V88.56c0-0.328,0.007-0.574,0.021-0.741
					c0.014-0.166,0.057-0.373,0.128-0.622c0.071-0.249,0.199-0.481,0.383-0.699c0.184-0.217,0.426-0.435,0.724-0.653
					c0.383-0.281,0.67-0.396,0.862-0.349c0.192,0.048,0.301,0.169,0.33,0.361c0.028,0.192,0.043,0.494,0.043,0.903v1.377
					c0.397-0.192,0.759-0.318,1.085-0.377c0.326-0.058,0.553-0.077,0.681-0.056l0.192,0.056l0.085,0.012
					c0.354,0.118,0.532,0.291,0.532,0.52c0,0.262-0.142,0.744-0.426,1.443c-0.383,0.937-0.773,1.55-1.17,1.841
					c-0.255,0.187-0.546,0.269-0.872,0.246c-0.029-0.012-0.093-0.031-0.192-0.056c-0.099-0.026-0.191-0.04-0.277-0.043
					c-0.085-0.003-0.22,0.035-0.404,0.112c-0.185,0.078-0.404,0.21-0.66,0.397c-0.27,0.198-0.525,0.487-0.766,0.869
					c-0.241,0.382-0.362,0.737-0.362,1.064c0,0.394,0.145,0.595,0.436,0.603c0.291,0.008,0.649-0.107,1.075-0.345
					c0.426-0.238,0.894-0.458,1.405-0.66c0.511-0.202,0.979-0.344,1.404-0.426c0.426-0.082,0.784,0.061,1.075,0.43
					C60.971,94.135,61.117,94.754,61.117,95.623z"/>
			</g>
			<g>
				<path fill="#FF7C00" d="M61.117,95.406c0,1.279-0.319,2.537-0.958,3.775c-0.638,1.239-1.412,2.313-2.319,3.224v1.574
					c0,0.311-0.007,0.554-0.021,0.729c-0.014,0.174-0.06,0.389-0.138,0.642c-0.078,0.254-0.206,0.487-0.383,0.699
					c-0.177,0.212-0.415,0.427-0.713,0.645c-0.298,0.218-0.536,0.351-0.713,0.399c-0.177,0.048-0.301-0.005-0.372-0.158
					c-0.071-0.153-0.114-0.302-0.128-0.448c-0.014-0.145-0.021-0.382-0.021-0.71v-1.525c-0.582,0.279-1.107,0.417-1.575,0.416
					c-0.468-0.001-0.795-0.065-0.979-0.193l-0.277-0.215c-0.298-0.224-0.447-0.46-0.447-0.705c0-0.41,0.241-1.062,0.724-1.956
					c0.284-0.519,0.574-0.888,0.872-1.107c0.34-0.249,0.759-0.269,1.255-0.059l0.107,0.045c0.439,0.301,0.936,0.249,1.489-0.157
					c1.05-0.769,1.575-1.654,1.575-2.654c0-0.36-0.199-0.494-0.596-0.4c-0.397,0.094-0.88,0.272-1.447,0.531
					c-0.567,0.26-1.135,0.467-1.702,0.62c-0.567,0.154-1.05,0.056-1.447-0.292c-0.397-0.348-0.596-1.023-0.596-2.023
					c0-0.967,0.269-2.042,0.808-3.224c0.539-1.182,1.284-2.236,2.234-3.162v-1.377c0-0.328,0.007-0.574,0.021-0.741
					c0.014-0.166,0.057-0.373,0.128-0.622c0.071-0.249,0.199-0.481,0.383-0.699c0.184-0.217,0.426-0.435,0.724-0.653
					c0.383-0.281,0.67-0.396,0.862-0.349c0.192,0.048,0.301,0.169,0.33,0.361c0.028,0.192,0.043,0.494,0.043,0.903v1.377
					c0.397-0.192,0.759-0.318,1.085-0.377c0.326-0.058,0.553-0.077,0.681-0.056l0.192,0.056l0.085,0.012
					c0.354,0.118,0.532,0.291,0.532,0.52c0,0.262-0.142,0.744-0.426,1.443c-0.383,0.937-0.773,1.55-1.17,1.841
					c-0.255,0.187-0.546,0.269-0.872,0.246c-0.029-0.012-0.093-0.031-0.192-0.056c-0.099-0.026-0.191-0.04-0.277-0.043
					c-0.085-0.003-0.22,0.035-0.404,0.112c-0.185,0.078-0.404,0.21-0.66,0.397c-0.27,0.198-0.525,0.487-0.766,0.869
					c-0.241,0.382-0.362,0.737-0.362,1.064c0,0.394,0.145,0.594,0.436,0.603c0.291,0.008,0.649-0.107,1.075-0.345
					c0.426-0.238,0.894-0.458,1.405-0.66c0.511-0.202,0.979-0.344,1.404-0.426c0.426-0.082,0.784,0.061,1.075,0.43
					C60.971,93.918,61.117,94.537,61.117,95.406z"/>
			</g>
		</g>
		<g>
			<path fill="#00081E" d="M98.669,118.938L98.669,118.938c-0.481,0-0.874-0.393-0.874-0.874v-4.403
				c0-0.481,0.393-0.874,0.874-0.874l0,0c0.481,0,0.874,0.393,0.874,0.874v4.403C99.543,118.544,99.15,118.938,98.669,118.938z"/>
			<path fill="#00081E" d="M107.605,113.971L107.605,113.971c-0.481,0-0.874-0.393-0.874-0.874v-4.403
				c0-0.481,0.393-0.874,0.874-0.874l0,0c0.481,0,0.874,0.393,0.874,0.874v4.403C108.479,113.577,108.086,113.971,107.605,113.971z"
				/>
		</g>
		<g>
			<g>
				<path fill="#0083FF" d="M111.256,91.509l-0.175-0.404l-3.905-2.295c-0.073-0.046-0.148-0.09-0.224-0.131l-0.073-0.043
					l-0.003,0.001c-1.747-0.927-4.099-0.737-6.688,0.798c-5.393,3.199-9.764,11.012-9.764,17.452c0,3.06,0.988,5.256,2.602,6.379
					l-0.004,0l0.03,0.018c0.168,0.115,3.513,2.127,3.694,2.219l0.691-0.307l0.923,0.61c1.412,0.11,3.04-0.313,4.775-1.342
					c5.393-3.199,9.764-11.012,9.764-17.452C112.902,94.614,112.295,92.746,111.256,91.509z M103.137,109.187
					c-2.953,1.751-5.346,0.313-5.346-3.213c0-3.526,2.394-7.804,5.346-9.555c2.953-1.751,5.346-0.313,5.346,3.213
					C108.483,103.157,106.09,107.435,103.137,109.187z"/>
			</g>
			<g>
				<path fill="#009EFF" d="M97.38,91.592l5.285,3.233l0.321-1.106l-4.731-2.909C97.959,91.057,97.667,91.319,97.38,91.592z"/>
				<path fill="#009EFF" d="M103.142,109.183c-0.002,0.001-0.003,0.002-0.005,0.003c-2.953,1.751-5.346,0.313-5.346-3.213
					c0-0.026,0.001-0.053,0.002-0.079l-6.586-4.049c-0.503,1.704-0.782,3.416-0.782,5.041c0,0.12,0.004,0.236,0.007,0.354
					l12.236,7.483c0.156-0.084,0.312-0.167,0.47-0.26c1.297-0.769,2.534-1.808,3.667-3.028L103.142,109.183z"/>
				<path fill="#009EFF" d="M98.522,100.163l0.321-1.106l-4.993-3.07c-0.197,0.318-0.389,0.641-0.573,0.969L98.522,100.163z"/>
				<path fill="#009EFF" d="M97.998,104.094c0.171-0.817,0.444-1.642,0.798-2.441l-6.038-3.712c-0.381,0.76-0.723,1.538-1.019,2.325
					L97.998,104.094z"/>
			</g>
			<g>
				<path fill="#00E2FF" d="M104.147,91.742c-5.371,3.235-9.764,11.012-9.764,17.452c0,6.44,4.372,9.068,9.764,5.869
					c5.393-3.199,9.799-11.012,9.764-17.452C113.877,91.17,109.462,88.541,104.147,91.742z M104.147,109.787
					c-2.953,1.751-5.346,0.313-5.346-3.213c0-3.526,2.394-7.804,5.346-9.555c2.953-1.751,5.346-0.313,5.346,3.213
					C109.493,103.757,107.099,108.035,104.147,109.787z"/>
			</g>
			<g>
				<path fill="#EAF5FF" d="M112.557,90.366L112.557,90.366c-0.323-0.295-0.347-0.801-0.052-1.124l3.677-4.031
					c0.295-0.323,0.801-0.347,1.124-0.052l0,0c0.323,0.295,0.347,0.801,0.052,1.124l-3.677,4.031
					C113.387,90.637,112.881,90.66,112.557,90.366z"/>
				<path fill="#EAF5FF" d="M113.595,91.922L113.595,91.922c-0.103-0.425,0.161-0.857,0.586-0.96l4.077-1.008
					c0.425-0.103,0.857,0.161,0.96,0.586l0,0c0.103,0.425-0.161,0.857-0.586,0.96l-4.077,1.008
					C114.13,92.611,113.698,92.347,113.595,91.922z"/>
				<path fill="#EAF5FF" d="M110.924,89.167L110.924,89.167c0.433,0.063,0.839-0.239,0.902-0.672l0.63-4.152
					c0.063-0.433-0.239-0.839-0.672-0.902l0,0c-0.433-0.063-0.839,0.239-0.902,0.672l-0.63,4.152
					C110.188,88.697,110.491,89.103,110.924,89.167z"/>
			</g>
			<g>
				<path fill="#0041DD" d="M113.911,97.712c0-6.44-4.372-9.067-9.764-5.869c-5.393,3.199-9.764,11.012-9.764,17.452
					c0,6.44,4.372,9.068,9.764,5.869C109.539,111.966,113.911,104.152,113.911,97.712z M98.801,106.675
					c0-3.526,2.394-7.804,5.346-9.555c2.953-1.751,5.346-0.313,5.346,3.213c0,3.526-2.394,7.804-5.346,9.555
					C101.194,111.639,98.801,110.201,98.801,106.675z"/>
			</g>
			<g>
				<g>
					<path fill="#C6D7FF" d="M112.043,98.719c0-5.208-3.535-7.332-7.896-4.746c-4.361,2.587-7.896,8.905-7.896,14.113
						c0,5.208,3.535,7.332,7.896,4.746C108.508,110.245,112.043,103.927,112.043,98.719z"/>
				</g>
				<g>
					<path fill="#EAF5FF" d="M111.471,99.058c0-4.831-3.279-6.802-7.324-4.402c-4.045,2.399-7.324,8.26-7.324,13.091
						c0,4.831,3.279,6.802,7.324,4.402C108.192,109.75,111.471,103.889,111.471,99.058z"/>
				</g>
				<path fill="#FFFFFF" d="M104.147,94.822c4.022-2.385,7.285-0.45,7.323,4.32c0-0.028,0.002-0.056,0.002-0.084
					c0-4.831-3.279-6.802-7.324-4.402c-4.045,2.399-7.324,8.26-7.324,13.091c0,0.028,0.002,0.054,0.002,0.082
					C96.862,103.014,100.125,97.207,104.147,94.822z"/>
			</g>
			<g>
				<path fill="#E1EBFF" d="M105.975,102.318c0-1.206-0.819-1.698-1.828-1.099c-1.01,0.599-1.828,2.062-1.828,3.268
					c0,1.206,0.819,1.698,1.828,1.099C105.156,104.987,105.975,103.524,105.975,102.318z"/>
			</g>
			<polygon fill="#FFB000" points="105.887,97.702 104.126,95.925 102.364,99.636 103.3,99.123 103.3,103.184 104.952,102.277 
				104.952,98.215 			"/>
			<polygon fill="#FFDC00" points="104.126,96.005 105.835,97.73 105.887,97.702 104.126,95.925 102.364,99.636 102.416,99.608 			
				"/>
			<polygon fill="#009EFF" points="107.65,106.915 108.64,106.849 108.349,105.9 108.163,106.169 104.462,103.619 104.134,104.095 
				107.835,106.645 			"/>
			<g>
				<path fill="#00081E" d="M105.582,102.597c0-0.946-0.642-1.333-1.435-0.863c-0.792,0.47-1.435,1.618-1.435,2.565
					c0,0.947,0.642,1.333,1.435,0.863C104.939,104.692,105.582,103.544,105.582,102.597z"/>
			</g>
			<g>
				<path fill="#FFB000" d="M104.919,102.991c0-0.509-0.346-0.717-0.772-0.464c-0.426,0.253-0.772,0.871-0.772,1.38
					c0,0.509,0.346,0.717,0.772,0.464C104.573,104.118,104.919,103.5,104.919,102.991z"/>
			</g>
			<g>
				<path fill="#FFE400" d="M104.632,103.161c0-0.32-0.217-0.45-0.485-0.291c-0.268,0.159-0.485,0.547-0.485,0.866
					c0,0.32,0.217,0.45,0.485,0.291C104.414,103.869,104.632,103.481,104.632,103.161z"/>
			</g>
			<path fill="#000855" d="M102.796,104.361c0-0.946,0.642-2.095,1.435-2.565c0.402-0.238,0.765-0.256,1.025-0.092
				c-0.263-0.226-0.662-0.234-1.109,0.031c-0.792,0.47-1.435,1.618-1.435,2.565c0,0.466,0.157,0.796,0.41,0.955
				C102.918,105.079,102.796,104.773,102.796,104.361z"/>
		</g>
		<g>
			<path fill="#001879" d="M105.895,87.008h-4.725v2.497h0.002c0.005,0.351,0.248,0.701,0.729,0.964
				c0.943,0.517,2.439,0.504,3.34-0.029c0.441-0.261,0.657-0.598,0.653-0.935h0.002V87.008z"/>
			<g>
				<g>
					<g>
						<path fill="#0011AA" d="M101.833,85.833c0.893-0.528,2.374-0.541,3.309-0.029c0.934,0.512,0.968,1.355,0.075,1.883
							c-0.893,0.528-2.374,0.541-3.309,0.029C100.973,87.204,100.94,86.361,101.833,85.833z"/>
					</g>
					<g>
						<path fill="#0065E3" d="M106.498,84.204c-1.706-0.935-4.412-0.912-6.043,0.053c-0.525,0.31-0.873,0.68-1.049,1.07l0.028,0.333
							l-0.182,0.139c-0.002,0.061,0.048,0.78,0.055,0.841l0,0.011l0-0.001c0.063,0.591,0.502,1.172,1.312,1.616
							c1.706,0.935,4.412,0.912,6.043-0.053c0.783-0.463,1.175-1.059,1.183-1.656l0.001-0.001l-0.001-0.026
							c0-0.026-0.001-0.052-0.002-0.078l-0.044-0.908l-0.082-0.105C107.54,84.984,107.133,84.552,106.498,84.204z M105.162,84.994
							c0.934,0.512,0.968,1.355,0.075,1.883c-0.893,0.528-2.374,0.541-3.309,0.029c-0.934-0.512-0.968-1.355-0.075-1.883
							C102.747,84.494,104.228,84.482,105.162,84.994z"/>
					</g>
					<path fill="#0043B2" d="M102.14,84.881c0.095-0.04,0.193-0.077,0.295-0.108v-0.371h-0.295V84.881z M102.14,88.805
						c0.097,0.02,0.196,0.039,0.295,0.055v-1.743c-0.102-0.032-0.2-0.067-0.295-0.108V88.805z M102.981,84.656
						c0.097-0.013,0.196-0.024,0.295-0.03v-0.224h-0.295V84.656z M102.981,88.925c0.098,0.008,0.196,0.015,0.295,0.019V87.27
						c-0.099-0.007-0.198-0.017-0.295-0.031V88.925z M101.299,85.568c0.065-0.126,0.163-0.248,0.295-0.361v-0.805h-0.295V85.568z
						 M101.299,86.313v2.257c0.096,0.035,0.195,0.067,0.295,0.097v-1.991C101.462,86.562,101.363,86.44,101.299,86.313z
						 M99.616,84.978v2.445c0.082,0.115,0.181,0.227,0.295,0.335v-3.103C99.798,84.759,99.7,84.867,99.616,84.978z M100.458,88.171
						c0.052,0.032,0.106,0.063,0.162,0.094c0.043,0.024,0.088,0.047,0.133,0.069v-3.933h-0.295V88.171z M103.822,84.63
						c0.099,0.007,0.198,0.017,0.295,0.032v-0.26h-0.295V84.63z M105.505,85.23c0.133,0.116,0.232,0.242,0.295,0.372v-1.2h-0.295
						V85.23z M106.346,88.382c0.102-0.049,0.2-0.102,0.295-0.157v-3.823h-0.295V88.382z M107.187,84.691v3.142
						c0.113-0.101,0.211-0.206,0.295-0.314v-2.501C107.399,84.906,107.301,84.797,107.187,84.691z M104.664,88.876
						c0.099-0.014,0.197-0.031,0.295-0.05v-1.811c-0.095,0.041-0.193,0.078-0.295,0.109V88.876z M103.822,88.948
						c0.099-0.003,0.197-0.008,0.295-0.014v-1.692c-0.097,0.014-0.196,0.025-0.295,0.031V88.948z M104.664,84.786
						c0.102,0.032,0.201,0.068,0.295,0.109v-0.493h-0.295V84.786z M105.505,86.686v2.012c0.1-0.028,0.198-0.059,0.295-0.092v-2.288
						C105.737,86.446,105.638,86.57,105.505,86.686z"/>
					<g>
						<path fill="#009BFF" d="M106.493,84.004c-1.701-0.945-4.419-1.067-6.05-0.103c-1.631,0.964-1.57,2.504,0.137,3.44
							c1.706,0.935,4.405,0.901,6.043-0.052C108.243,86.345,108.195,84.949,106.493,84.004z M105.15,84.639
							c0.934,0.512,0.968,1.355,0.075,1.883c-0.893,0.528-2.374,0.541-3.308,0.029c-0.934-0.512-0.968-1.355-0.075-1.883
							C102.734,84.14,104.215,84.127,105.15,84.639z"/>
					</g>
					<g>
						<path fill="#0023AD" d="M100.416,83.887c-1.631,0.964-1.57,2.504,0.137,3.44c1.706,0.935,4.412,0.912,6.043-0.052
							c1.631-0.964,1.57-2.504-0.137-3.44C104.753,82.899,102.047,82.922,100.416,83.887z M101.814,84.653
							c0.893-0.528,2.374-0.541,3.309-0.029c0.934,0.512,0.968,1.355,0.075,1.883c-0.893,0.528-2.374,0.541-3.308,0.029
							C100.955,86.024,100.921,85.181,101.814,84.653z"/>
					</g>
					<g>
						<path fill="#0018A3" d="M100.839,84.119c-1.422,0.841-1.368,2.183,0.119,2.999c1.488,0.815,3.846,0.795,5.268-0.046
							s1.368-2.183-0.119-2.999C104.62,83.257,102.261,83.278,100.839,84.119z"/>
					</g>
					<g>
						<path fill="#0083FF" d="M101.034,84.225c-1.319,0.78-1.269,2.025,0.111,2.782c1.38,0.756,3.568,0.737,4.886-0.042
							c1.319-0.78,1.269-2.025-0.111-2.782C104.541,83.427,102.353,83.446,101.034,84.225z"/>
					</g>
					<g>
						<path fill="#00B0FF" d="M102.502,85.03c-0.544,0.322-0.524,0.835,0.046,1.147c0.569,0.312,1.472,0.304,2.015-0.018
							c0.544-0.322,0.524-0.835-0.046-1.147C103.949,84.701,103.046,84.708,102.502,85.03z"/>
					</g>
					<path fill="#00BBFF" d="M105.984,86.939c1.311-0.775,1.269-2.011-0.088-2.768c0.008,0.004,0.016,0.008,0.024,0.013
						c1.38,0.756,1.429,2.002,0.111,2.782c-1.319,0.78-3.507,0.799-4.886,0.042c-0.008-0.004-0.015-0.009-0.023-0.013
						C102.503,87.737,104.673,87.714,105.984,86.939z"/>
				</g>
			</g>
		</g>
	</g>
	<g>
		<g>
			<path fill="#DB9A70" d="M87.166,26.291c0,0-0.313,0.454-1.417,0.142c-1.105-0.312-1.87-0.944-1.87-0.944l-0.009,0.684
				c0,0-0.019,0.968,0.463,1.704c0.482,0.737,1.277,0.907,1.277,0.907l1.309-0.199l0.375-0.559l0.184-0.715L87.166,26.291z"/>
			<path fill="#0E1422" d="M83.968,58.661c0,0-0.656,0.199-1.279,1.174l1.11,1.209l0.456,0.085c0,0,0.322,0.9,1.331,1.862
				c1.009,0.962,1.489,1.528,2.025,0.973c0.537-0.555-1.19-3.628-1.765-3.981C85.27,59.631,83.968,58.661,83.968,58.661z"/>
			<path fill="#021234" d="M85.409,43.27c0.096,0.219,3.598,6.433,3.598,6.433l-5.137,8.949c0,0,0.105,1.434,1.95,1.671l7.151-9.917
				c0,0-0.753-4.109-2.479-8.054c-1.726-3.945-2.301-5.26-2.301-5.26l-3.176,1.892L85.409,43.27z"/>
			<path fill="#0E1422" d="M73.502,47.541c0,0-0.682-0.327-1.917,0v1.811l0.307,0.409c0,0-0.409,0.972-0.307,2.507
				c0.102,1.535,0.07,2.354,0.921,2.303c0.851-0.051,1.74-3.838,1.535-4.554C73.837,49.301,73.502,47.541,73.502,47.541z"/>
			<path fill="#021252" d="M87.948,39.726c0,0-1.254,9.967-2.508,13.396l-1.166,0.319l-10.773-3.03c0,0-1.276-1.037,0-2.871
				l8.612,1.167l-0.568-5.314l3.406-0.877l2.526-2.791"/>
			<path fill="#BCE9FF" d="M83.798,27.574l-0.872,1.012l0.872,3.349l1.81,9.206c0,0,2.066,0.388,3.713-2.423
				c-0.339-3.973-0.727-6.453-0.727-6.453l-0.048-1.638l0.097-1.793l-0.826-0.807H86.75l-1.142,0.559L83.798,27.574z"/>
			<linearGradient id="SVGID_1_" gradientUnits="userSpaceOnUse" x1="85.8459" y1="28.763" x2="87.3549" y2="28.763">
				<stop  offset="0.0031" style="stop-color:#00139E;stop-opacity:0"/>
				<stop  offset="0.1898" style="stop-color:#0034BE;stop-opacity:0.1873"/>
				<stop  offset="0.3965" style="stop-color:#0051DA;stop-opacity:0.3946"/>
				<stop  offset="0.6023" style="stop-color:#0065EF;stop-opacity:0.6011"/>
				<stop  offset="0.8048" style="stop-color:#0072FB;stop-opacity:0.8042"/>
				<stop  offset="1" style="stop-color:#0076FF"/>
			</linearGradient>
			<polyline fill="url(#SVGID_1_)" points="85.846,29 87.004,29.528 87.355,28.43 87.155,27.998 86.469,28.162 			"/>
			<path fill="#E8AC81" d="M93.466,17.705c0,0-0.328-0.374-0.567-0.847c-0.269-0.532-0.376-1.163-0.266-1.566
				c0,0,0.379-0.197,0.387,0.592l0.192,0.379c0,0,0.095-0.475,0.126-0.966c0.041-0.653,0.037-0.895,0.037-0.895
				s-0.011-0.195,0.29-0.194c0.367,0,0.911,0.279,1.118,0.708c0.207,0.429,0.066,2.142,0.004,2.34
				c-0.062,0.198-0.211,0.538-0.515,0.6C93.966,17.919,93.466,17.705,93.466,17.705z"/>
			<path fill="#E2F4FF" d="M92.969,17.963l0.187-0.661c0,0,0.428,0.631,1.397,0.421l-0.103,0.872L92.969,17.963z"/>
			<path fill="#021252" d="M87.888,25.49c0,0,2.5-0.919,3.565-3.1c1.066-2.18,1.599-4.942,1.599-4.942s0.145,0.775,1.55,0.581
				c0.013,0.098-0.001,3.699-1.198,6.228c-0.928,1.961-4.232,4.866-4.232,4.866L87.888,25.49z"/>
			<path fill="#021234" d="M89.513,29.747c-0.077-2.941-1.626-4.257-1.626-4.257h-1.419v0.256c0.163,0.076,0.313,0.177,0.428,0.292
				c0.264,0.264,0.426,0.655,0.426,1.028v0.036c0,0.242-0.068,0.464-0.176,0.668c1.308,2.14,0.869,5.063,1.248,7.468
				c0.283,1.798,0.451,3.034,0.679,3.875c0.166,0.613,0.44,1.084,0.44,1.084S89.591,32.689,89.513,29.747z"/>
			<path fill="#021234" d="M83.476,26.883c0,0-0.103,0.647,0.929,2.554c1.268,2.345,3.406,8.825,0.929,15.095
				c0,0-1.78,1.548-5.031-1.548c0,0,3.096-5.264,1.006-9.057c0,0-0.851-2.787-0.077-5.341L83.476,26.883z"/>
			<path fill="#021E5D" d="M83.401,27.137c0,0-0.68,1.489,0.874,4.976h0.676l-0.481,0.75l1.999,5.942
				C86.469,38.805,87.14,31.265,83.401,27.137z"/>
			<path fill="#E8AC81" d="M71.913,31.515c0,0-0.114-0.484-0.361-0.953c-0.278-0.528-0.729-0.981-1.121-1.125
				c0,0-0.38,0.194,0.258,0.658l0.198,0.376c0,0-0.443-0.198-0.86-0.458c-0.555-0.346-0.751-0.489-0.751-0.489
				s-0.152-0.121-0.327,0.124c-0.213,0.299-0.301,0.904-0.071,1.321c0.23,0.417,1.707,1.296,1.904,1.36
				c0.198,0.064,0.561,0.141,0.788-0.072C71.797,32.046,71.913,31.515,71.913,31.515z"/>
			<path fill="#E2F4FF" d="M71.78,31.084l0.718,0.381l0.19,1.112l-1.124,0.31l-0.54-0.488C71.024,32.398,72.013,32.024,71.78,31.084
				z"/>
			<path fill="#021252" d="M81.231,28.586c0,0-3.019,7.122-9.289,2.477c0,0,0.635,1.201-0.774,1.573c0,0,2.709,2.917,5.883,3.265
				c3.174,0.348,4.877-1.587,4.877-1.587S83.398,30.676,81.231,28.586z"/>
			<path fill="#021E5D" d="M87.355,26.525c0,0,1.319,1.263,1.562,4.559l-0.383,0.235l0.383,0.417l-0.522,3.501
				c0,0-0.108-3.231-0.447-4.615C87.609,29.24,87.355,26.525,87.355,26.525z"/>
			<path fill="#E2F4FF" d="M83.869,26.174c0,0-0.798,0.58-0.313,1.639s2.469,2.067,2.469,2.067l0.443-1.718l1.14,1.078
				c0,0,0.741-1.988-0.573-3.066c0,0,0.392,1.768-0.567,1.988C85.252,28.44,84.038,27.488,83.869,26.174z"/>
			<path fill="#E8AC81" d="M83.878,25.49c0,0,0.935,1.115,2.918,1.17c0,0,0.53-0.037,1.02-0.368c0,0,0.51-1.502-0.482-3.372
				l-0.227-0.312l-0.057-0.397l-0.425-0.765c0,0-0.302,1.105-2.758,1.247l-0.189,0.592l0.482,0.541l0.113,1.077l-0.406-0.68
				c0,0-0.216-0.319-0.687-0.12C82.587,24.356,83.151,25.49,83.878,25.49z"/>
			<path fill="#0E1F3B" d="M84.275,24.903l-0.113-1.077l-0.482-0.541l0.098-0.307c0,0,2.298-0.101,2.849-1.532
				c0,0,0.442-0.595,0.369-1.358l-0.527,0.291c0,0,0.273-0.908-0.345-1.381l-0.684,0.836c0,0-2.006-0.872-3.314,1.09l-0.581-0.109
				l0.4,0.4l-0.4,0.232h0.4c0,0-0.775,1.196-0.121,2.54c0.654,1.344,2.055,1.503,2.055,1.503s-0.985-0.298-0.843-1.083
				c0.077-0.424,0.569-0.353,0.894,0.078C84.039,24.63,84.1,24.718,84.275,24.903z"/>
			<path fill="#0E1F3B" d="M83.778,22.979c0,0,0.784,0.431,2.346-0.233l-0.684-0.343l-1.077,0.17"/>
		</g>
		<linearGradient id="SVGID_2_" gradientUnits="userSpaceOnUse" x1="84.1195" y1="29.7241" x2="92.6844" y2="35.1364">
			<stop  offset="0.0031" style="stop-color:#00139E;stop-opacity:0"/>
			<stop  offset="0.1898" style="stop-color:#0034BE;stop-opacity:0.1873"/>
			<stop  offset="0.3965" style="stop-color:#0051DA;stop-opacity:0.3946"/>
			<stop  offset="0.6023" style="stop-color:#0065EF;stop-opacity:0.6011"/>
			<stop  offset="0.8048" style="stop-color:#0072FB;stop-opacity:0.8042"/>
			<stop  offset="1" style="stop-color:#0076FF"/>
		</linearGradient>
		<path fill="url(#SVGID_2_)" d="M87.004,29.528c0,0,0.38,5.362,4.498,6.671l1.211-0.297L92.228,34.6
			C92.228,34.6,88.805,34.001,87.004,29.528z"/>
	</g>
</g>
</svg>
