<?xml version="1.0" encoding="utf-8"?>
<!-- Generator: Adobe Illustrator 17.0.0, SVG Export Plug-In . SVG Version: 6.00 Build 0)  -->
<!DOCTYPE svg PUBLIC "-//W3C//DTD SVG 1.1//EN" "http://www.w3.org/Graphics/SVG/1.1/DTD/svg11.dtd">
<svg version="1.1" id="Layer_1" xmlns="http://www.w3.org/2000/svg" xmlns:xlink="http://www.w3.org/1999/xlink" x="0px" y="0px"
	 width="144px" height="144px" viewBox="0 0 144 144" enable-background="new 0 0 144 144" xml:space="preserve">
<g>
	<path fill="#ffffff" d="M80.358,131.374c0,3.458,0.006,6.687-0.002,9.915c-0.005,2.058-0.637,2.705-2.664,2.706
		c-7.971,0.006-15.942,0.005-23.912,0c-2.114-0.001-2.718-0.623-2.724-2.788c-0.008-2.719-0.002-5.439-0.002-8.158
		c0-0.504,0-1.007,0-1.68c-0.898,0-1.633,0-2.368,0c-13.785,0-27.569,0.006-41.354-0.004c-4.693-0.003-7.322-2.612-7.324-7.316
		c-0.011-32.446-0.007-64.891-0.007-97.337c0-6.423-0.003-12.847,0.005-19.27C0.012,2.616,2.655,0.001,7.511,0
		C46.334,0,85.156,0,123.978,0.001c4.759,0,7.425,2.62,7.426,7.38c0.008,38.916,0.007,77.832,0,116.748
		c-0.001,4.583-2.68,7.238-7.258,7.24c-14.019,0.005-28.038,0.005-42.057,0.006C81.582,131.374,81.075,131.374,80.358,131.374z
		 M4.443,30.564c0,3.479,0,6.706,0,9.933c0.001,27.751,0.001,55.502,0.006,83.253c0,2.647,0.516,3.162,3.084,3.163
		c13.782,0.003,27.564,0.005,41.346,0.003c0.491,0,0.982-0.053,1.572-0.086c0-0.948,0-1.738,0-2.528
		c0-4.36-0.028-8.719,0.031-13.078c0.009-0.692,0.321-1.427,0.654-2.057c0.422-0.8,1.141-1.455,1.501-2.274
		c1.509-3.426,2.944-6.886,4.385-10.342c2.053-4.925,4.096-9.853,6.122-14.789c0.432-1.053,1.119-1.777,2.28-1.772
		c1.166,0.005,1.869,0.744,2.257,1.804c0.08,0.219,0.18,0.432,0.27,0.648c3.478,8.336,6.952,16.674,10.447,25.004
		c0.209,0.497,0.636,0.899,0.88,1.386c0.396,0.79,1.015,1.607,1.032,2.424c0.099,4.686,0.046,9.374,0.052,14.062
		c0.001,0.498,0.041,0.997,0.068,1.604c0.611,0,1.074,0,1.537,0c14.016,0,28.033,0.002,42.049-0.001
		c2.355,0,2.956-0.616,2.956-3.032c0.002-30.564,0.001-61.128,0.001-91.691c0-0.498,0-0.996,0-1.607c-0.677,0-1.14,0-1.604,0
		c-18.423,0.001-36.846,0.007-55.268-0.002c-3.976-0.002-4.187,0.499-5.236-3.891c-0.337-1.413-1.087-2.068-2.534-2.07
		c-6.467-0.011-12.934-0.073-19.401-0.03c-0.485,0.003-1.177,0.59-1.402,1.077c-0.446,0.964-0.619,2.052-0.93,3.081
		c-0.327,1.083-0.976,1.863-2.196,1.805c-1.227-0.059-1.946-0.771-2.201-1.989c-0.172-0.822-0.401-1.635-0.65-2.439
		c-0.343-1.107-1.028-1.623-2.283-1.622c-5.39,0.007-10.781-0.106-16.172-0.125c-4.302-0.016-4.361-0.003-5.688,3.985
		c-0.516,1.55-1.456,2.195-2.989,2.197C7.161,30.565,5.901,30.564,4.443,30.564z M38.387,22.187c1.636-2.028,3.825-2.153,5.986-2.16
		c6-0.021,12,0.033,17.999,0.08c3.692,0.029,5.226,1.1,6.448,4.631c0.359,1.038,0.8,1.429,1.963,1.426
		c18.234-0.047,36.469-0.035,54.703-0.041c0.45,0,0.9-0.047,1.411-0.075c0.027-0.533,0.066-0.947,0.067-1.36
		c0.004-5.719,0.006-11.438,0.001-17.156c-0.002-2.501-0.568-3.064-3.053-3.064C85.192,4.464,46.472,4.477,7.753,4.423
		C5.475,4.42,4.179,5.064,4.15,8.056C4.096,13.587,4.133,19.119,4.138,24.65c0,0.453,0.048,0.906,0.072,1.331
		c2.744,0.409,2.785,0.425,3.698-1.898c0.915-2.329,2.565-3.628,5.043-3.869c1.118-0.109,2.24-0.243,3.36-0.239
		c5.672,0.022,11.343,0.103,17.015,0.123C35.236,20.104,36.953,20.505,38.387,22.187z M55.306,113.155c0,8.833,0,17.557,0,26.275
		c6.916,0,13.724,0,20.527,0c0-8.803,0-17.498,0-26.275C68.987,113.155,62.218,113.155,55.306,113.155z M73.895,108.545
		c0.014-0.164,0.056-0.269,0.025-0.345c-1.437-3.558-2.858-7.122-4.358-10.653c-0.142-0.334-0.776-0.627-1.194-0.645
		c-1.731-0.072-3.47,0.018-5.201-0.052c-0.863-0.035-1.237,0.328-1.546,1.07c-0.935,2.247-1.942,4.463-2.913,6.695
		c-0.554,1.273-1.092,2.552-1.68,3.929C62.784,108.545,68.342,108.545,73.895,108.545z M67.524,92.363
		c-0.632-1.435-1.16-2.634-1.834-4.164c-0.675,1.575-1.202,2.804-1.785,4.164C65.208,92.363,66.247,92.363,67.524,92.363z"/>
	<path fill="#ffffff" d="M94.058,75.598c-6.611-0.002-13.222,0.007-19.833-0.005c-3.991-0.007-6.065-2.08-6.07-6.073
		c-0.011-8.064-0.011-16.129,0.001-24.193c0.005-3.71,1.045-5.104,4.8-5.355c5.557-0.372,11.138-0.5,16.71-0.524
		c8.204-0.034,16.409,0.114,24.614,0.188c3.525,0.032,5.701,2.194,5.706,5.707c0.012,8.205,0.013,16.41,0.005,24.615
		c-0.003,3.347-2.285,5.626-5.677,5.635C107.562,75.613,100.81,75.6,94.058,75.598z M94.053,70.553
		c6.513,0,13.027,0.005,19.54-0.003c1.791-0.002,1.935-0.152,1.936-1.92c0.005-7.779,0.004-15.557,0.001-23.336
		c-0.001-1.695-0.111-1.798-1.863-1.803c-7.076-0.02-14.152-0.089-21.227-0.038c-6.088,0.044-12.175,0.245-18.262,0.331
		c-1.282,0.018-1.635,0.53-1.626,1.784c0.053,7.684,0.022,15.37,0.025,23.054c0.001,1.749,0.189,1.927,1.937,1.927
		C81.026,70.55,87.54,70.55,94.053,70.553z"/>
	<path fill="#ffffff" d="M37.319,39.341c6.701,0.001,13.401-0.007,20.102,0.004c3.745,0.006,5.825,2.073,5.833,5.833
		c0.018,8.106,0.019,16.213-0.001,24.319c-0.009,3.609-2.181,5.789-5.776,5.793c-13.402,0.014-26.803,0.014-40.205,0
		c-3.676-0.004-5.845-2.206-5.848-5.876c-0.008-8.153-0.01-16.307-0.002-24.46c0.003-3.386,2.242-5.608,5.653-5.612
		C23.823,39.333,30.571,39.34,37.319,39.341z M37.365,44.09c-6.559,0-13.118,0.024-19.676-0.02c-1.298-0.009-1.839,0.345-1.83,1.748
		c0.052,7.87,0.043,15.741,0.004,23.611c-0.006,1.276,0.441,1.734,1.722,1.731c13.117-0.029,26.235-0.015,39.353-0.021
		c1.7-0.001,1.889-0.175,1.891-1.827c0.012-7.824-0.01-15.647,0.028-23.471c0.006-1.335-0.46-1.789-1.815-1.778
		C50.482,44.121,43.923,44.09,37.365,44.09z"/>
	<path fill="#ffffff" d="M24.769,90.566c-3.608,0-7.216,0.008-10.823-0.004c-1.612-0.005-2.488-0.721-2.517-2
		c-0.031-1.345,0.875-2.151,2.538-2.153c7.309-0.012,14.619-0.01,21.928,0.004c1.687,0.003,2.542,0.715,2.501,1.983
		c-0.046,1.421-0.884,2.161-2.521,2.167C32.172,90.574,28.471,90.566,24.769,90.566z"/>
	<path fill="#ffffff" d="M106.435,90.567c-3.607-0.002-7.215,0.004-10.822-0.004c-1.663-0.004-2.602-0.78-2.578-2.093
		c0.023-1.27,0.931-2.053,2.505-2.056c7.309-0.014,14.617-0.014,21.926-0.001c1.715,0.003,2.553,0.676,2.536,1.935
		c-0.02,1.493-0.837,2.21-2.603,2.217C113.743,90.579,110.089,90.569,106.435,90.567z"/>
	<path fill="#ffffff" d="M24.928,112.49c-3.649,0-7.299,0.008-10.948-0.003c-1.672-0.005-2.575-0.773-2.551-2.115
		c0.024-1.284,0.903-2.042,2.488-2.044c7.345-0.013,14.691-0.013,22.036,0.001c1.525,0.003,2.447,0.848,2.423,2.119
		c-0.024,1.264-0.94,2.033-2.502,2.039C32.226,112.499,28.577,112.49,24.928,112.49z"/>
	<path fill="#ffffff" d="M106.359,112.492c-3.556-0.002-7.112,0.001-10.668-0.003c-1.68-0.002-2.62-0.727-2.655-2.026
		c-0.037-1.358,0.922-2.138,2.686-2.139c7.205-0.006,14.411,0.004,21.616-0.011c1.112-0.002,2.065,0.22,2.518,1.358
		c0.581,1.456-0.485,2.804-2.269,2.816C113.845,112.511,110.102,112.494,106.359,112.492z"/>
	<path fill="#ffffff" d="M24.927,97.26c3.749,0.001,7.5-0.052,11.246,0.05c0.664,0.018,1.556,0.533,1.891,1.091
		c0.302,0.504,0.206,1.515-0.124,2.05c-0.298,0.482-1.148,0.871-1.758,0.876c-7.498,0.059-14.996,0.053-22.494,0.028
		c-1.482-0.005-2.298-0.844-2.258-2.113c0.039-1.213,0.825-1.96,2.25-1.972C17.429,97.239,21.178,97.26,24.927,97.26z"/>
	<path fill="#ffffff" d="M106.486,97.258c3.656,0,7.311-0.011,10.967,0.005c1.65,0.007,2.5,0.698,2.533,1.978
		c0.035,1.343-0.853,2.129-2.542,2.132c-7.311,0.014-14.622,0.011-21.933-0.004c-1.576-0.003-2.474-0.792-2.474-2.066
		c0.001-1.269,0.895-2.032,2.483-2.039C99.175,97.246,102.83,97.258,106.486,97.258z"/>
	<path fill="#ffffff" d="M91.725,9.002c9.09,0,18.179-0.005,27.269,0.012c0.544,0.001,1.158,0.045,1.618,0.294
		c1.035,0.559,1.329,1.559,1.066,2.655c-0.271,1.133-1.141,1.504-2.237,1.503c-5.248-0.004-10.495,0.002-15.743,0.002
		c-12.978,0.001-25.957,0-38.935,0c-0.187,0-0.375,0.006-0.562-0.002c-1.403-0.06-2.407-1.078-2.382-2.411
		c0.023-1.231,0.917-2.042,2.356-2.049c3.608-0.019,7.215-0.008,10.823-0.008c5.576,0,11.151,0,16.727,0
		C91.725,8.999,91.725,9.001,91.725,9.002z"/>
	<path fill="#ffffff" d="M33.927,7.833c3.66,0,3.869,0.211,3.873,3.894c0.003,2.689-0.513,3.213-3.162,3.209
		c-0.795-0.001-1.591,0.014-2.385-0.014c-1.495-0.052-2.177-0.753-2.242-2.275c-0.012-0.28-0.003-0.561-0.003-0.842
		C30.004,7.996,30.165,7.833,33.927,7.833z"/>
	<path fill="#ffffff" d="M48.933,7.827c3.716,0.022,3.834,0.142,3.832,3.914c-0.002,2.775-0.406,3.185-3.14,3.188
		c-0.047,0-0.094,0-0.14,0c-4.288,0.002-4.585-0.297-4.474-4.51c0.051-1.957,0.676-2.567,2.659-2.591
		C48.09,7.823,48.512,7.827,48.933,7.827z"/>
	<path fill="#ffffff" d="M18.457,14.914c-0.607,0-1.216,0.036-1.82-0.008c-1.147-0.083-1.811-0.734-1.869-1.875
		c-0.056-1.117-0.057-2.243,0.013-3.359c0.073-1.147,0.775-1.78,1.917-1.819c1.259-0.043,2.522-0.048,3.781-0.003
		c1.218,0.044,1.88,0.747,1.945,1.952c0.047,0.885,0.031,1.774,0.015,2.66c-0.033,1.819-0.646,2.431-2.441,2.463
		c-0.513,0.009-1.027,0.001-1.541,0.001C18.457,14.923,18.457,14.919,18.457,14.914z"/>
</g>
</svg>
