<?xml version="1.0" encoding="utf-8"?>
<!-- Generator: Adobe Illustrator 17.0.0, SVG Export Plug-In . SVG Version: 6.00 Build 0)  -->
<!DOCTYPE svg PUBLIC "-//W3C//DTD SVG 1.1//EN" "http://www.w3.org/Graphics/SVG/1.1/DTD/svg11.dtd">
<svg version="1.1" id="Layer_1" xmlns="http://www.w3.org/2000/svg" xmlns:xlink="http://www.w3.org/1999/xlink" x="0px" y="0px"
	 width="144px" height="144px" viewBox="0 0 144 144" enable-background="new 0 0 144 144" xml:space="preserve">
<g>
	<path fill="#0004cad9" d="M0.029,63.864c0.001-16.933,0.017-33.867-0.013-50.8C0.01,9.768,0.715,6.725,2.727,4.079
		C4.746,1.424,7.373-0.005,10.806,0c22.691,0.03,45.382,0.022,68.073,0.009c3.115-0.002,5.65,1.145,7.543,3.613
		c1.271,1.656,1.166,4.466-0.134,6.104c-0.83,1.046-1.926,1.312-3.212,1.31c-14.176-0.021-28.351-0.013-42.527-0.013
		c-8.128,0-16.256,0.015-24.384-0.012c-1.941-0.007-3.552,0.457-4.363,2.413c-0.825,1.988-0.441,4.895,1.132,6.035
		c0.932,0.675,2.295,1.049,3.466,1.054c16.546,0.066,33.093,0.05,49.639,0.04c4.16-0.003,8.32-0.104,12.478-0.055
		c1.187,0.014,2.409,0.267,3.547,0.624c17.645,5.536,35.28,11.106,52.916,16.671c5.902,1.862,8.673,7.137,6.82,13.011
		c-9.021,28.596-18.047,57.19-27.074,85.784c-1.88,5.955-7.031,8.699-12.976,6.834c-16.125-5.057-32.237-10.159-48.363-15.213
		c-0.948-0.297-1.981-0.45-2.974-0.452c-12.821-0.029-25.642-0.019-38.463-0.017c-6.885,0.001-11.66-4.409-11.837-11.336
		c-0.193-7.543-0.077-15.093-0.083-22.641C0.022,83.797,0.027,73.831,0.029,63.864z M105.094,139.847
		c2.648-0.119,4.671-1.672,5.541-4.427c9.033-28.592,18.061-57.186,27.077-85.783c1.191-3.777-0.309-6.612-4.069-7.8
		c-17.45-5.51-34.902-11.016-52.354-16.521c-4.43-1.397-7.035-0.046-8.428,4.368c-8.922,28.273-17.843,56.546-26.764,84.819
		c-1.349,4.274,0.015,6.92,4.262,8.259c17.407,5.49,34.814,10.979,52.224,16.459C103.405,139.48,104.256,139.641,105.094,139.847z
		 M82.92,6.772c-0.887-2.137-2.424-2.515-4.228-2.515C56.098,4.268,33.504,4.279,10.909,4.242C8.501,4.238,6.863,5.316,5.653,7.24
		C4.449,9.156,4.21,11.302,4.21,13.51c0.005,33.577,0,67.154,0.008,100.731c0,0.916,0.055,1.841,0.183,2.747
		c0.604,4.266,3.161,6.495,7.412,6.496c9.967,0.003,19.933,0.002,29.9-0.002c0.505,0,1.01-0.043,1.771-0.078
		c-2.369-3.224-2.662-6.513-1.534-10.062c5.979-18.822,11.911-37.659,17.861-56.49c3.368-10.659,6.742-21.317,10.126-32.015
		c-12.911,0-25.941,0-39.132,0c2.629,24.184,5.246,48.256,7.863,72.327c-0.094,0.027-0.188,0.053-0.282,0.08
		c-5.202-10.328-10.403-20.657-15.678-31.13c-3.886,3.554-7.614,6.965-11.343,10.376c-0.097-0.047-0.194-0.094-0.291-0.141
		c2.372-17.135,4.744-34.269,7.125-51.465c-1.749-0.135-3.329-0.053-4.803-0.409c-5.138-1.241-7.857-8.01-5.292-12.969
		c1.675-3.239,4.356-4.746,7.999-4.743c21.627,0.019,43.254,0.009,64.88,0.008C81.559,6.772,82.134,6.772,82.92,6.772z"/>
	<path fill="#0004cad9" d="M85.865,17.63c-23.381,0-46.634,0-69.957,0c0-1.232,0-2.366,0-3.583c23.333,0,46.587,0,69.957,0
		C85.865,15.243,85.865,16.447,85.865,17.63z"/>
	<path fill="#0004cad9" d="M115.187,73.331c2.98,3.745,5.837,7.334,8.754,10.999c-0.364,0.316-0.67,0.603-0.997,0.863
		c-12.304,9.779-24.608,19.558-36.926,29.318c-0.471,0.373-1.065,0.675-1.648,0.811c-4.466,1.045-8.942,2.045-13.418,3.044
		c-0.355,0.079-0.734,0.049-1.265,0.079c0.233-0.54,0.386-0.935,0.571-1.316c0.8-1.652,1.761-3.245,2.386-4.96
		c2.105-5.781,5.978-9.955,10.85-13.659c10.16-7.724,20.002-15.868,29.975-23.838C113.992,74.254,114.525,73.847,115.187,73.331z
		 M114.163,86.74c-1.226-1.542-2.35-2.956-3.507-4.412c-9.809,7.856-19.445,15.573-29.124,23.325
		c1.217,1.531,2.292,2.882,3.429,4.313C94.753,102.177,104.423,94.486,114.163,86.74z M78.818,109.053
		c-0.882,1.508-1.625,2.779-2.368,4.05c0.089,0.083,0.179,0.165,0.268,0.248c1.371-0.462,2.743-0.925,4.32-1.457
		C80.25,110.886,79.612,110.07,78.818,109.053z"/>
	<path fill="#0004cad9" d="M126.768,68.576c-12.001-3.827-23.898-7.62-35.962-11.466c0.42-1.353,0.813-2.615,1.257-4.047
		c12.042,3.839,23.976,7.644,36.004,11.478C127.621,65.926,127.213,67.192,126.768,68.576z"/>
	<path fill="#0004cad9" d="M93.727,47.884c0.437-1.395,0.822-2.622,1.268-4.045c12.031,3.837,23.987,7.65,36.013,11.486
		c-0.445,1.375-0.843,2.603-1.305,4.028C117.736,55.538,105.854,51.75,93.727,47.884z"/>
	<path fill="#0004cad9" d="M59.196,101.906c2.997-0.026,5.333,2.287,5.348,5.296c0.015,3.012-2.284,5.384-5.255,5.42
		c-3.022,0.037-5.479-2.385-5.468-5.389C53.833,104.289,56.212,101.931,59.196,101.906z"/>
	<path fill="#0004cad9" d="M80.362,47.381c-3.022,0.008-5.358-2.281-5.385-5.278c-0.027-3,2.414-5.461,5.411-5.458
		c2.909,0.003,5.307,2.444,5.312,5.407C85.706,45.035,83.364,47.373,80.362,47.381z"/>
	<path fill="#0004cad9" d="M66.315,80.158c2.944,0.009,5.337,2.431,5.313,5.376c-0.024,2.959-2.405,5.323-5.369,5.331
		c-2.996,0.008-5.464-2.478-5.415-5.453C60.892,82.516,63.357,80.149,66.315,80.158z"/>
	<path fill="#0004cad9" d="M73.316,69.115c-3.004,0.012-5.341-2.287-5.371-5.283c-0.03-3.007,2.396-5.44,5.415-5.428
		c2.906,0.011,5.34,2.473,5.331,5.392C78.682,66.738,76.292,69.102,73.316,69.115z"/>
	<path fill="#0004cad9" d="M87.84,66.323c0.438-1.377,0.829-2.604,1.283-4.032c5.984,1.906,11.877,3.783,17.931,5.711
		c-0.449,1.407-0.85,2.663-1.288,4.034C99.766,70.124,93.905,68.256,87.84,66.323z"/>
</g>
</svg>
