<?xml version="1.0" encoding="utf-8"?>
<!-- Generator: Adobe Illustrator 17.0.0, SVG Export Plug-In . SVG Version: 6.00 Build 0)  -->
<!DOCTYPE svg PUBLIC "-//W3C//DTD SVG 1.1//EN" "http://www.w3.org/Graphics/SVG/1.1/DTD/svg11.dtd">
<svg version="1.1" id="Layer_1" xmlns="http://www.w3.org/2000/svg" xmlns:xlink="http://www.w3.org/1999/xlink" x="0px" y="0px"
	 width="144px" height="144px" viewBox="0 0 144 144" enable-background="new 0 0 144 144" xml:space="preserve">
<g>
	<path fill="#ffffff" d="M17.51,120.243c0-8.053-0.001-15.744,0-23.435c0.003-27.345,0.006-54.69,0.008-82.036
		c0-3.362,1.498-4.869,4.87-4.87c35.104-0.005,70.207-0.008,105.311-0.007c3.847,0,5.287,1.45,5.287,5.277
		c0.003,34.277,0.005,68.554,0.007,102.831c0,0.633,0,1.266,0,2.073c-1.956,0-3.816,0-5.891,0c0-28.868,0-57.7,0-86.684
		c-34.627,0-69.044,0-103.61,0c-0.033,0.746-0.09,1.426-0.09,2.106c-0.005,27.345-0.004,54.691-0.005,82.036
		c0,2.706-0.001,2.706-2.651,2.707C19.745,120.243,18.743,120.243,17.51,120.243z M23.422,27.227c34.622,0,69.034,0,103.501,0
		c0-3.844,0-7.553,0-11.445c-1.012,0-1.889,0-2.767,0c-27.529,0-55.057,0-82.586,0c-5.468,0-10.936-0.027-16.402,0.04
		c-0.585,0.007-1.659,0.542-1.67,0.861C23.376,20.157,23.422,23.637,23.422,27.227z"/>
	<path fill="#ffffff" d="M76.968,123.523c20.725,0,41.451-0.001,62.176,0.001c3.22,0,4.802,1.537,4.831,4.759
		c0.032,3.623,0.033,7.248,0.004,10.871c-0.025,3.185-1.664,4.842-4.791,4.842c-41.514,0.007-83.028,0.009-124.543-0.026
		c-0.89-0.001-1.885-0.288-2.651-0.744c-3.273-1.951-6.485-4.004-9.705-6.043c-3.036-1.922-3.056-4.901-0.033-6.828
		c3.267-2.083,6.54-4.159,9.863-6.149c0.71-0.425,1.648-0.66,2.481-0.661c20.789-0.035,41.578-0.028,62.367-0.028
		C76.968,123.518,76.968,123.521,76.968,123.523z M123.893,129.41c-0.797,0-1.478,0-2.16,0c-23.576-0.003-47.153-0.006-70.729-0.008
		c-9.914-0.001-19.827,0.029-29.74-0.029c-1.487-0.009-2.067,0.405-1.949,1.927c0.113,1.453,0.132,2.932-0.005,4.38
		c-0.175,1.849,0.335,2.485,2.368,2.481c33.426-0.071,66.853-0.049,100.279-0.053c0.616,0,1.232-0.059,1.936-0.095
		C123.893,135.126,123.893,132.37,123.893,129.41z M130.023,138.102c2.423,0,4.637,0.053,6.843-0.047
		c0.42-0.019,1.144-0.631,1.162-0.998c0.111-2.212,0.095-4.434,0.019-6.648c-0.011-0.334-0.547-0.92-0.856-0.931
		c-2.373-0.078-4.749-0.043-7.169-0.043C130.023,132.437,130.023,135.138,130.023,138.102z M13.433,130.273
		c-1.987,1.248-3.633,2.282-5.548,3.485c2.029,1.266,3.65,2.277,5.548,3.462C13.433,134.812,13.433,132.784,13.433,130.273z"/>
	<path fill="#ffffff" d="M74.262,120.461c-13.67,0-27.34,0.001-41.009-0.001c-3.307,0-4.724-1.432-4.721-4.751
		c0.005-6.676,0.002-13.352,0.013-20.028c0.005-3.024,1.539-4.565,4.56-4.566c27.34-0.007,54.68-0.009,82.02-0.007
		c3.125,0,4.641,1.532,4.647,4.691c0.015,6.803,0.014,13.606,0.016,20.409c0.001,2.954-1.37,4.258-4.517,4.259
		c-13.67,0.005-27.34,0.002-41.009,0.002C74.262,120.467,74.262,120.464,74.262,120.461z M113.882,97.177
		c-26.539,0-52.945,0-79.482,0c-0.038,0.819-0.096,1.506-0.098,2.194c-0.008,4.324,0.069,8.65-0.037,12.972
		c-0.044,1.798,0.469,2.411,2.351,2.396c11-0.083,22.002-0.04,33.003-0.04c14.053,0.001,28.107-0.026,42.16,0.037
		c1.763,0.008,2.318-0.529,2.275-2.284c-0.108-4.512-0.038-9.029-0.051-13.544C114.001,98.355,113.927,97.802,113.882,97.177z"/>
	<path fill="#ffffff" d="M116.494,79.694c0,1.608,0.021,3.114-0.006,4.62c-0.025,1.33-1.072,1.022-1.828,1.025
		c-5.723,0.027-11.447,0.026-17.17,0.025c-21.304-0.003-42.607-0.005-63.911-0.017c-3.304-0.002-2.988,0.317-2.992-2.937
		c-0.001-0.871,0-1.741,0-2.717C59.318,79.694,87.777,79.694,116.494,79.694z"/>
	<path fill="#ffffff" d="M47.267,69.475c-2.105,0-3.865,0-5.919,0c0-7.125,0-14.253,0-21.309c-4.286-0.962-4.679-0.688-4.998,3.569
		c-1.634,0-3.315,0.05-4.987-0.05c-0.276-0.017-0.723-0.688-0.733-1.066c-0.067-2.476-0.085-4.957,0.012-7.431
		c0.017-0.42,0.663-1.169,1.024-1.171c8.503-0.067,17.006-0.052,25.806-0.052c0,3.104,0.012,6.058-0.023,9.012
		c-0.003,0.235-0.319,0.662-0.502,0.669c-1.518,0.059-3.042,0.094-4.555-0.009c-0.238-0.016-0.567-0.743-0.615-1.168
		c-0.304-2.674-0.282-2.681-2.995-2.628c-0.437,0.008-0.873,0.065-1.514,0.115C47.267,55.081,47.267,62.165,47.267,69.475z"/>
	<path fill="#ffffff" d="M116.377,54.632c0,1.876,0,3.743,0,5.684c-17.464,0-34.793,0-52.28,0c0-1.901,0-3.711,0-5.684
		C81.488,54.632,98.863,54.632,116.377,54.632z"/>
	<path fill="#ffffff" d="M116.514,47.734c-17.577,0-34.901,0-52.538,0c0-1.677-0.104-3.312,0.082-4.912
		c0.041-0.351,1.112-0.828,1.712-0.832c7.246-0.059,14.494-0.043,21.74-0.042c8.963,0.001,17.927,0.047,26.89-0.028
		c1.671-0.014,2.326,0.433,2.139,2.139C116.41,45.236,116.514,46.438,116.514,47.734z"/>
	<path fill="#ffffff" d="M63.954,67.109c17.649,0,34.927,0,52.534,0c0,1.655,0.106,3.288-0.08,4.887
		c-0.043,0.369-1.083,0.883-1.669,0.889c-6.737,0.066-13.476,0.049-20.214,0.049c-9.408,0-18.817-0.074-28.223,0.046
		c-2.036,0.026-2.581-0.63-2.37-2.484C64.052,69.444,63.954,68.367,63.954,67.109z"/>
	<path fill="#ffffff" d="M34.821,24.496c-2.247,0-4.316,0-6.5,0c0-1.844,0-3.586,0-5.492c2.163,0,4.27,0,6.5,0
		C34.821,20.826,34.821,22.568,34.821,24.496z"/>
	<path fill="#ffffff" d="M47.408,24.483c-2.282,0-4.353,0-6.646,0c0-1.627-0.054-3.137,0.041-4.637
		c0.022-0.344,0.54-0.923,0.852-0.938c1.88-0.088,3.766-0.044,5.754-0.044C47.408,20.854,47.408,22.598,47.408,24.483z"/>
	<path fill="#ffffff" d="M59.904,18.866c0,2.078,0,3.811,0,5.642c-2.131,0-4.127,0-6.4,0c0-1.621-0.054-3.179,0.044-4.728
		c0.02-0.323,0.589-0.856,0.925-0.873C56.224,18.819,57.983,18.866,59.904,18.866z"/>
</g>
</svg>
