<?xml version="1.0" encoding="utf-8"?>
<!-- Generator: Adobe Illustrator 17.0.0, SVG Export Plug-In . SVG Version: 6.00 Build 0)  -->
<!DOCTYPE svg PUBLIC "-//W3C//DTD SVG 1.1//EN" "http://www.w3.org/Graphics/SVG/1.1/DTD/svg11.dtd">
<svg version="1.1" id="Layer_1" xmlns="http://www.w3.org/2000/svg" xmlns:xlink="http://www.w3.org/1999/xlink" x="0px" y="0px"
	 width="144px" height="144px" viewBox="0 0 144 144" enable-background="new 0 0 144 144" xml:space="preserve">
<g>
	<path fill="#0004cad9" d="M19.859,99.252c-2.375,0-4.567,0.004-6.759-0.001c-2.273-0.006-3.042-0.746-3.046-2.956
		c-0.008-4.634-0.01-9.268-0.004-13.903c0.002-1.94,0.85-2.796,2.778-2.798c6.354-0.006,12.709-0.032,19.062,0.029
		c1.157,0.011,1.64-0.353,2.025-1.444C39.354,62.78,46.259,48.09,55.413,34.525c5.506-8.16,11.945-15.514,19.584-21.762
		C82.838,6.35,91.704,2.088,101.755,0.574c5.208-0.784,10.421-1.1,15.451,1.274c7.742,3.655,12.448,11.667,11.695,20.247
		c-0.697,7.938-6.738,15.362-14.428,17.275c-2.49,0.619-5.178,0.444-7.777,0.614c-0.421,0.027-0.849-0.045-1.41-0.079
		c-0.152,0.516-0.301,1-0.438,1.489c-2.063,7.387-8.444,11.507-16.047,10.329c-0.865-0.134-1.241,0.042-1.49,0.971
		c-3.005,11.214-15.267,14.735-23.863,6.884c-0.241-0.221-0.508-0.414-0.746-0.607c-4.984,3.182-14.839,15.546-16.359,20.624
		c0.56,0,1.06,0,1.561,0c2.962,0,5.924-0.013,8.886,0.004c1.647,0.009,2.655,0.87,2.674,2.515c0.058,4.872,0.057,9.746,0,14.619
		c-0.019,1.651-1.008,2.494-2.671,2.514c-2.006,0.023-4.014,0.038-6.019-0.006c-0.891-0.019-1.305,0.227-1.279,1.202
		c0.055,2.053-0.01,4.109,0.025,6.162c0.03,1.797,1.058,2.751,2.901,2.813c2.334,0.078,4.699-0.042,6.994,0.302
		c5.472,0.82,9.815,5.845,9.886,11.377c0.087,6.783,0.041,13.568,0.027,20.352c-0.004,1.819-0.843,2.541-2.846,2.541
		c-18.919,0.005-37.838,0.005-56.757,0.006c-2.341,0-4.682,0.014-7.023-0.012c-1.66-0.018-2.626-0.896-2.633-2.538
		c-0.029-6.736-0.162-13.477,0.043-20.207c0.206-6.765,5.711-11.805,12.491-11.821c1.577-0.004,3.154,0.02,4.73-0.017
		c1.363-0.032,2.413-0.725,2.486-2.087C19.957,104.705,19.859,102.084,19.859,99.252z M38.548,79.406
		c1.326,0.404,2.218,0.254,2.783-1.047c0.472-1.089,1.13-2.099,1.731-3.129c4.661-7.981,10.142-15.271,17.63-20.863
		c2.422-1.809,3.263-1.695,5.064,0.652c2.678,3.49,6.972,4.903,10.804,3.556c3.844-1.351,6.473-5.3,6.39-9.596
		c-0.054-2.801,1.406-3.744,4.026-2.685c3.5,1.415,6.887,1.414,9.986-1.058c2.481-1.979,3.525-4.654,3.737-7.741
		c0.171-2.498,1.262-3.269,3.695-2.695c2.722,0.642,5.455,0.893,8.217,0.207c7.502-1.865,11.104-8.364,11.522-13.324
		c0.604-7.168-3.177-13.194-9.594-15.849c-4.189-1.732-8.469-1.146-12.698-0.453c-9.166,1.5-17.192,5.542-24.302,11.447
		c-6.545,5.435-12.167,11.734-17.027,18.697c-9.097,13.031-15.898,27.24-21.372,42.117C38.931,78.211,38.753,78.791,38.548,79.406z
		 M4.813,139.151c20.014,0,39.814,0,59.69,0c0.035-0.347,0.087-0.622,0.087-0.898c0.004-5.542,0.048-11.084-0.015-16.626
		c-0.048-4.208-3.269-7.352-7.502-7.448c-1.624-0.037-3.249-0.002-4.873-0.01c-3.64-0.02-6.603-2.292-7.214-5.896
		c-0.347-2.047-0.172-4.183-0.219-6.28c-0.02-0.88-0.003-1.761-0.003-2.739c-2.66,0-5.045,0.035-7.429-0.011
		c-1.789-0.035-2.876-1.499-2.342-3.094c0.428-1.28,1.424-1.662,2.695-1.657c5.16,0.021,10.32-0.031,15.479,0.042
		c1.294,0.018,1.646-0.407,1.603-1.638c-0.082-2.29-0.086-4.588,0.003-6.878c0.05-1.288-0.314-1.706-1.671-1.701
		c-12.23,0.052-24.461,0.026-36.691,0.028c-0.504,0-1.008,0.047-1.61,0.078c0,1.782,0,3.401,0,5.02c0,1.651,0,3.302,0,5.063
		c0.808,0,1.374,0,1.94,0c3.488,0.001,6.975-0.022,10.463,0.013c1.382,0.014,2.436,1.048,2.481,2.285
		c0.047,1.295-1.028,2.37-2.462,2.447c-0.381,0.021-0.772,0.055-1.145-0.002c-1.2-0.183-1.459,0.408-1.431,1.48
		c0.056,2.148,0.073,4.302-0.012,6.448c-0.157,3.974-3.284,6.949-7.265,6.99c-1.672,0.017-3.345-0.031-5.016,0.011
		c-3.739,0.093-6.74,2.516-7.313,6.211c-0.327,2.103-0.204,4.281-0.219,6.425C4.794,130.869,4.813,134.924,4.813,139.151z"/>
</g>
</svg>
