<?xml version="1.0" encoding="utf-8"?>
<!-- Generator: Adobe Illustrator 17.0.0, SVG Export Plug-In . SVG Version: 6.00 Build 0)  -->
<!DOCTYPE svg PUBLIC "-//W3C//DTD SVG 1.1//EN" "http://www.w3.org/Graphics/SVG/1.1/DTD/svg11.dtd">
<svg version="1.1" id="Layer_1" xmlns="http://www.w3.org/2000/svg" xmlns:xlink="http://www.w3.org/1999/xlink" x="0px" y="0px"
	 width="144px" height="144px" viewBox="0 0 144 144" enable-background="new 0 0 144 144" xml:space="preserve">
<g>
	<path fill="#0004cad9" d="M84.257,86.027c2.606,3.19,2.798,6.481,0.26,9.912c1.371,1.853,2.163,3.894,1.629,6.267
		c-0.477,2.12-1.632,3.791-3.559,4.758c-0.945,0.474-1.112,1.045-1.101,1.971c0.042,3.449,0.096,6.902-0.035,10.347
		c-0.036,0.944-0.463,2.099-1.114,2.76c-6.87,6.987-13.817,13.899-20.753,20.82c-1.537,1.534-2.665,1.518-4.236-0.051
		c-6.935-6.923-13.88-13.836-20.752-20.821c-0.62-0.63-1.025-1.734-1.055-2.633c-0.119-3.546-0.018-7.098-0.083-10.647
		c-0.01-0.517-0.342-1.259-0.757-1.503c-4.206-2.481-5.217-6.767-2.486-10.859c0.08-0.12,0.139-0.255,0.23-0.425
		c-2.454-3.337-2.374-6.635,0.319-9.921c-9.857-9.109-14.847-20.301-13.943-33.779c0.732-10.906,5.284-20.136,13.446-27.41
		C46.663,10.201,70.99,10.948,86.438,26.39C102.434,42.382,102.801,69.831,84.257,86.027z M47.892,83.942
		c0-5.176,0.018-10.167-0.034-15.158c-0.004-0.393-0.423-0.863-0.769-1.157c-2.36-2.008-4.739-3.996-7.138-5.959
		c-3.517-2.879-5.72-6.512-6.313-11.039c-0.648-4.946,0.874-9.13,4.836-12.207c3.773-2.93,7.925-3.238,12.283-1.27
		c0.454,0.205,1.163,0.158,1.636-0.046c3.405-1.468,6.768-1.482,10.178-0.009c0.506,0.218,1.272,0.225,1.773,0.003
		C71.6,33.894,79.74,38.018,81.18,45.83c1.152,6.246-1.063,11.396-5.782,15.508c-2.449,2.134-5.011,4.14-7.455,6.279
		c-0.445,0.39-0.788,1.138-0.806,1.733c-0.084,2.798-0.038,5.599-0.039,8.399c0,2.032,0,4.063,0,6.191
		c3.926,0,7.667,0.02,11.408-0.026c0.442-0.005,0.952-0.288,1.309-0.587c10.473-8.772,15.21-19.98,13.241-33.511
		c-2.932-20.145-21.67-33.689-41.713-30.048c-15.026,2.73-24.914,11.886-28.652,26.653C18.972,61.106,23.644,73.492,35.142,83.3
		c0.386,0.329,0.96,0.608,1.451,0.614C40.286,83.965,43.982,83.942,47.892,83.942z M47.579,41.158
		c-3.776-1.287-7.959,1.096-8.953,5.212c-1.064,4.405,0.5,8.098,3.786,11.03c2.908,2.594,5.953,5.037,8.971,7.505
		c0.93,0.76,1.342,1.633,1.331,2.841c-0.041,4.85-0.018,9.7-0.018,14.55c0,0.527,0,1.053,0,1.577c3.299,0,6.379,0,9.598,0
		c0-0.556,0-1.044,0-1.532c0.001-4.85,0.032-9.7-0.015-14.55c-0.012-1.27,0.432-2.165,1.405-2.957
		c2.947-2.397,5.847-4.853,8.762-7.289c1.897-1.586,3.169-3.582,3.834-5.956c1.072-3.83,0.048-7.365-2.77-9.436
		c-1.819-1.337-3.81-1.848-6.112-1.027c0.238,0.432,0.429,0.777,0.618,1.124c2.349,4.31,1.883,9.376-1.216,13.204
		c-2.517,3.11-4.217,3.168-6.609-0.076c-1.174-1.592-1.923-3.497-2.876-5.282c-0.537,2.625-1.809,4.946-3.889,6.781
		c-1.384,1.221-2.557,1.302-3.821-0.002c-1.098-1.133-2.174-2.389-2.874-3.785C44.705,49.047,45.188,45.063,47.579,41.158z
		 M76.632,108.061c-12.832,0-25.549,0-38.205,0c0,2.458,0,4.806,0,7.314c1.084-0.722,2.021-1.295,2.902-1.945
		c1.22-0.901,2.359-0.84,3.576,0.027c1.464,1.043,3.013,1.968,4.469,3.022c0.687,0.497,1.181,0.46,1.852-0.018
		c1.547-1.1,3.16-2.105,4.732-3.17c1.032-0.7,2.032-0.705,3.065-0.007c1.532,1.035,3.111,2.003,4.605,3.089
		c0.759,0.551,1.319,0.613,2.102,0.032c1.403-1.04,2.924-1.92,4.343-2.94c1.278-0.919,2.452-0.905,3.703,0.039
		c0.859,0.649,1.795,1.195,2.855,1.892C76.632,112.821,76.632,110.494,76.632,108.061z M39.627,120.372
		c3.043,3.017,5.969,5.941,8.937,8.822c0.271,0.263,0.809,0.346,1.225,0.347c5.149,0.023,10.297,0.025,15.446,0.001
		c0.412-0.002,0.942-0.107,1.214-0.373c2.959-2.88,5.877-5.802,8.913-8.818c-0.922-0.613-1.708-1.055-2.397-1.615
		c-0.733-0.596-1.316-0.613-2.1-0.036c-1.446,1.066-2.998,1.986-4.472,3.015c-1.183,0.826-2.278,0.798-3.451-0.031
		c-1.509-1.066-3.035-2.119-4.627-3.05c-0.422-0.247-1.239-0.236-1.663,0.014c-1.633,0.962-3.19,2.055-4.755,3.129
		c-1.08,0.741-2.113,0.743-3.195,0.004c-1.567-1.071-3.137-2.142-4.754-3.134c-0.381-0.234-1.061-0.356-1.421-0.173
		C41.563,118.967,40.697,119.653,39.627,120.372z M57.326,93.55c7.043,0,14.086,0.003,21.128-0.002
		c1.896-0.001,3.004-0.868,3.042-2.346c0.04-1.533-1.085-2.442-3.081-2.445c-6.144-0.009-12.287-0.007-18.431-0.007
		c-7.892,0-15.784-0.004-23.676,0.007c-1.904,0.003-3.141,1.273-2.756,2.852c0.349,1.43,1.366,1.955,2.795,1.95
		C43.34,93.538,50.333,93.55,57.326,93.55z M57.659,98.35c-1.499,0-2.997,0-4.496,0c-5.645,0-11.29-0.054-16.932,0.061
		c-0.832,0.017-1.933,0.649-2.382,1.34c-0.36,0.555-0.214,1.884,0.241,2.406c0.522,0.599,1.629,0.949,2.486,0.955
		c9.141,0.065,18.282,0.041,27.423,0.041c4.895,0,9.791,0.01,14.686-0.006c1.894-0.006,3.148-1.297,2.757-2.862
		c-0.355-1.421-1.372-1.948-2.803-1.944C71.646,98.363,64.652,98.351,57.659,98.35z M60.834,134.471c-2.217,0-4.501,0-6.611,0
		c1.076,1.153,2.18,2.336,3.224,3.455C58.6,136.75,59.724,135.604,60.834,134.471z M51.525,44.291
		c-1.658,2.248-1.615,5.386,0.017,7.193C53.062,49.394,53.083,46.652,51.525,44.291z M63.505,44.289
		c-1.642,2.327-1.583,5.474,0.059,7.193C65.073,49.324,65.08,46.579,63.505,44.289z M55.482,40.924
		c0.743,1.84,1.378,3.413,2.011,4.98c0.647-1.595,1.297-3.197,2.02-4.98C58.151,40.924,56.853,40.924,55.482,40.924z"/>
	<path fill="#0004cad9" d="M17.42,27.79c-2.338-2.33-4.662-4.645-7.046-7.02c1.067-0.974,2.192-2,3.291-3.002
		c2.196,2.232,4.527,4.602,6.904,7.018C19.582,25.727,18.507,26.753,17.42,27.79z"/>
	<path fill="#0004cad9" d="M104.469,20.785c-2.279,2.28-4.631,4.632-7.026,7.026c-0.942-0.975-1.975-2.046-2.873-2.976
		c2.312-2.315,4.655-4.66,7.053-7.061C102.469,18.67,103.514,19.776,104.469,20.785z"/>
	<path fill="#0004cad9" d="M17.622,82.6c0.907,0.888,1.971,1.928,2.934,2.871c-2.39,2.396-4.737,4.749-7.137,7.155
		c-0.935-0.978-1.962-2.053-2.876-3.009C12.85,87.33,15.202,84.999,17.622,82.6z"/>
	<path fill="#0004cad9" d="M104.604,89.587c-1.002,0.997-2.058,2.047-3.017,3.001c-2.371-2.367-4.72-4.713-7.129-7.118
		c0.98-0.908,2.096-1.944,3.167-2.937C99.868,84.801,102.176,87.133,104.604,89.587z"/>
	<path fill="#0004cad9" d="M59.79,9.471c-1.569,0-3.047,0-4.611,0c0-3.174,0-6.286,0-9.471c1.54,0,3.019,0,4.611,0
		C59.79,3.104,59.79,6.216,59.79,9.471z"/>
	<path fill="#0004cad9" d="M9.395,57.517c-3.194,0-6.233,0-9.395,0c0-1.536,0-3.051,0-4.674c3.077,0,6.187,0,9.395,0
		C9.395,54.357,9.395,55.87,9.395,57.517z"/>
	<path fill="#0004cad9" d="M115.045,52.844c0,1.581,0,3.059,0,4.62c-3.14,0-6.217,0-9.417,0c0-1.479,0-2.993,0-4.62
		C108.697,52.844,111.809,52.844,115.045,52.844z"/>
	<path fill="#0004cad9" d="M9.376,112.696c-1.569,0-3.046,0-4.609,0c0-1.574,0-3.085,0-4.673c1.541,0,3.018,0,4.609,0
		C9.376,109.53,9.376,111.043,9.376,112.696z"/>
	<path fill="#0004cad9" d="M105.586,108.018c1.556,0,3.033,0,4.619,0c0,1.522,0,3.033,0,4.645c-1.513,0-3.024,0-4.619,0
		C105.586,111.149,105.586,109.672,105.586,108.018z"/>
	<path fill="#0004cad9" d="M14.412,112.785c1.567,0,3.008,0,4.563,0c0,1.539,0,3.053,0,4.669c-1.488,0-3,0-4.563,0
		C14.412,115.891,14.412,114.343,14.412,112.785z"/>
	<path fill="#0004cad9" d="M100.646,112.861c0,1.578,0,3.054,0,4.615c-1.54,0-3.018,0-4.62,0c0-1.474,0-2.987,0-4.615
		C97.492,112.861,99.004,112.861,100.646,112.861z"/>
	<path fill="#0004cad9" d="M9.42,117.658c0,1.592,0,3.07,0,4.624c-1.543,0-3.021,0-4.62,0c0-1.488,0-3.001,0-4.624
		C6.277,117.658,7.79,117.658,9.42,117.658z"/>
	<path fill="#0004cad9" d="M23.948,122.282c0-1.569,0-3.045,0-4.627c1.538,0,3.049,0,4.655,0c0,1.524,0,3.035,0,4.627
		C27.074,122.282,25.598,122.282,23.948,122.282z"/>
	<path fill="#0004cad9" d="M86.329,122.266c0-1.591,0-3.033,0-4.594c1.533,0,3.047,0,4.672,0c0,1.472,0,2.985,0,4.594
		C89.487,122.266,87.975,122.266,86.329,122.266z"/>
	<path fill="#0004cad9" d="M105.616,117.619c1.579,0,3.056,0,4.613,0c0,1.538,0,3.016,0,4.616c-1.475,0-2.989,0-4.613,0
		C105.616,120.772,105.616,119.26,105.616,117.619z"/>
	<path fill="#0004cad9" d="M19.025,122.434c0,1.559,0,3.035,0,4.62c-1.528,0-3.039,0-4.648,0c0-1.514,0-3.025,0-4.62
		C15.896,122.434,17.373,122.434,19.025,122.434z"/>
	<path fill="#0004cad9" d="M96.029,122.386c1.569,0,3.01,0,4.566,0c0,1.543,0,3.057,0,4.673c-1.486,0-2.999,0-4.566,0
		C96.029,125.493,96.029,123.945,96.029,122.386z"/>
	<path fill="#0004cad9" d="M4.745,131.885c0-1.57,0-3.047,0-4.627c1.533,0,3.046,0,4.653,0c0,1.524,0,3.036,0,4.627
		C7.871,131.885,6.393,131.885,4.745,131.885z"/>
	<path fill="#0004cad9" d="M105.534,131.869c0-1.589,0-3.03,0-4.594c1.537,0,3.05,0,4.673,0c0,1.473,0,2.985,0,4.594
		C108.692,131.869,107.18,131.869,105.534,131.869z"/>
</g>
</svg>
