<?xml version="1.0" encoding="utf-8"?>
<!-- Generator: Adobe Illustrator 17.0.0, SVG Export Plug-In . SVG Version: 6.00 Build 0)  -->
<!DOCTYPE svg PUBLIC "-//W3C//DTD SVG 1.1//EN" "http://www.w3.org/Graphics/SVG/1.1/DTD/svg11.dtd">
<svg version="1.1" id="Layer_1" xmlns="http://www.w3.org/2000/svg" xmlns:xlink="http://www.w3.org/1999/xlink" x="0px" y="0px"
	 width="144px" height="144px" viewBox="0 0 144 144" enable-background="new 0 0 144 144" xml:space="preserve">
<g>
	<path fill="#ffffff" d="M112.794,115.201c0,5.493,0,10.785,0,16.076c0,7.609-5.086,12.722-12.658,12.722
		c-20.344,0-40.689,0.002-61.033-0.001c-7.608-0.001-12.693-5.077-12.703-12.676c-0.007-5.198-0.006-10.397-0.011-15.595
		c0-0.098-0.03-0.195-0.085-0.526c-0.485,0-1.009,0-1.533,0c-7.198,0-14.396,0.003-21.594-0.001
		c-2.38-0.001-3.173-0.778-3.174-3.111C0,86.946-0.001,61.803,0.001,36.66c0-2.238,0.825-3.047,3.083-3.054
		c2.096-0.006,4.192-0.001,6.514-0.001c0-2.186-0.003-4.312,0.001-6.439c0.005-2.359,0.792-3.157,3.129-3.159
		c4.491-0.005,8.983-0.001,13.671-0.001c0-1.318-0.02-2.548,0.004-3.778c0.067-3.493-0.191-7.035,0.307-10.466
		c0.827-5.698,5.844-9.735,11.599-9.742c20.844-0.025,41.688-0.027,62.532,0c6.618,0.009,11.883,5.299,11.946,11.918
		c0.037,3.946,0.007,7.892,0.007,12.068c0.533,0,1.007,0,1.481,0c4.099,0,8.198-0.006,12.297,0.003
		c2.168,0.005,3.009,0.835,3.019,2.966c0.01,2.143,0.002,4.286,0.002,6.632c2.212,0,4.34-0.005,6.469,0.001
		c2.346,0.008,3.128,0.793,3.129,3.156c0.003,25.093,0.003,50.186,0.002,75.278c0,2.358-0.793,3.158-3.129,3.159
		c-7.148,0.003-14.296,0-21.444,0C114.077,115.201,113.534,115.201,112.794,115.201z M67.195,103.255c0-0.77,0-1.21,0-1.649
		c0-21.641,0.003-43.282,0-64.923c-0.001-4.972-2.933-7.872-7.952-7.874c-14.394-0.004-28.788-0.001-43.182-0.002
		c-0.527,0-1.054,0-1.544,0c0,24.119,0,48.027,0,71.995c0.713,0,1.31,0,1.908,0c13.894,0,27.789,0.031,41.683-0.024
		C61.275,100.766,64.279,101.121,67.195,103.255z M124.729,28.86c-0.359-0.022-0.601-0.05-0.843-0.05
		c-14.894-0.002-29.788-0.019-44.682,0.011c-4.152,0.008-7.197,3.168-7.2,7.408c-0.014,21.941-0.007,43.882-0.002,65.823
		c0,0.312,0.066,0.624,0.122,1.124c2.784-2.067,5.792-2.409,8.959-2.397c13.994,0.053,27.988,0.023,41.983,0.023
		c0.534,0,1.067,0,1.662,0C124.729,76.766,124.729,52.893,124.729,28.86z M107.972,124.894c-25.665,0-51.165,0-76.772,0
		c0,2.232-0.002,4.371,0,6.51c0.004,4.793,2.966,7.789,7.728,7.793c8.143,0.007,16.287,0.002,24.43,0.002
		c12.39,0,24.78,0.008,37.17-0.007c4.005-0.005,7.204-2.78,7.417-6.554C108.088,130.104,107.972,127.555,107.972,124.894z
		 M31.242,16.7c25.676,0,51.175,0,76.75,0c0-1.401,0.002-2.695,0-3.989c-0.01-4.989-2.923-7.9-7.919-7.902
		c-10.841-0.003-21.682,0-32.522,0c-9.642,0-19.284-0.011-28.925,0.004c-3.863,0.006-6.979,2.621-7.351,6.299
		C31.09,12.933,31.242,14.787,31.242,16.7z M31.267,119.895c25.633,0,51.139,0,76.656,0c0-1.586,0-3.066,0-4.616
		c-25.577,0-51.083,0-76.656,0C31.267,116.837,31.267,118.317,31.267,119.895z M4.908,38.473c0,24.039,0,47.944,0,71.855
		c1.587,0,3.067,0,4.611,0c0-23.978,0-47.883,0-71.855C7.959,38.473,6.479,38.473,4.908,38.473z M129.692,38.481
		c0,24.014,0,47.919,0,71.803c1.618,0,3.134,0,4.628,0c0-23.988,0-47.858,0-71.803C132.77,38.481,131.291,38.481,129.692,38.481z
		 M14.436,110.301c17.449,0,34.781,0,52.144,0c-0.862-2.865-3.509-4.692-6.793-4.694c-14.73-0.011-29.461-0.006-44.191,0
		c-0.378,0-0.757,0.07-1.159,0.109C14.436,107.267,14.436,108.71,14.436,110.301z M124.721,105.602c-0.454,0-0.795,0-1.135,0
		c-14.73,0.001-29.461,0.001-44.191,0.003c-0.299,0-0.6-0.003-0.898,0.025c-2.843,0.268-5.531,2.46-5.775,4.695
		c17.309,0,34.618,0,52,0C124.721,108.772,124.721,107.293,124.721,105.602z M69.598,28.816c3.012-3.726,6.85-4.92,11.374-4.848
		c8.445,0.135,16.893,0.039,25.34,0.039c0.532,0,1.063,0,1.567,0c0-0.908,0-1.624,0-2.327c-25.589,0-51.062,0-76.589,0
		c0,0.789,0,1.503,0,2.327c0.629,0,1.17,0,1.711,0c8.497,0,16.995,0.085,25.49-0.035C62.921,23.91,66.634,25.186,69.598,28.816z"/>
	<path fill="#ffffff" d="M57.531,40.911c0,1.578,0,3.057,0,4.616c-11.139,0-22.211,0-33.409,0c0-1.475,0-2.991,0-4.616
		C35.187,40.911,46.295,40.911,57.531,40.911z"/>
	<path fill="#ffffff" d="M57.526,55.305c0,1.595,0,3.074,0,4.627c-11.145,0-22.217,0-33.408,0c0-1.492,0-3.008,0-4.627
		C35.198,55.305,46.306,55.305,57.526,55.305z"/>
	<path fill="#ffffff" d="M24.069,74.303c0-1.589,0-3.069,0-4.623c11.143,0,22.216,0,33.409,0c0,1.486,0,3.002,0,4.623
		C46.404,74.303,35.296,74.303,24.069,74.303z"/>
	<path fill="#ffffff" d="M24.124,84.03c11.163,0,22.199,0,33.356,0c0,1.538,0,3.054,0,4.673c-11.081,0-22.19,0-33.356,0
		C24.124,87.143,24.124,85.593,24.124,84.03z"/>
	<path fill="#ffffff" d="M115.068,45.579c-11.162,0-22.199,0-33.355,0c0-1.538,0-3.053,0-4.673c11.081,0,22.189,0,33.355,0
		C115.068,42.466,115.068,44.015,115.068,45.579z"/>
	<path fill="#ffffff" d="M115.123,55.306c0,1.59,0,3.07,0,4.624c-11.144,0-22.216,0-33.409,0c0-1.487,0-3.003,0-4.624
		C92.791,55.306,103.899,55.306,115.123,55.306z"/>
	<path fill="#ffffff" d="M115.123,69.704c0,1.593,0,3.073,0,4.626c-11.144,0-22.217,0-33.408,0c0-1.49,0-3.006,0-4.626
		C92.793,69.704,103.901,69.704,115.123,69.704z"/>
	<path fill="#ffffff" d="M81.663,88.7c0-1.585,0-3.064,0-4.621c11.142,0,22.215,0,33.409,0c0,1.481,0,2.997,0,4.621
		C104.003,88.7,92.895,88.7,81.663,88.7z"/>
	<path fill="#ffffff" d="M74.319,134.339c-3.166,0-6.241,0-9.42,0c0-1.535,0-3.047,0-4.651c3.122,0,6.232,0,9.42,0
		C74.319,131.213,74.319,132.691,74.319,134.339z"/>
	<path fill="#ffffff" d="M50.499,9.678c4.798,0,9.473,0,14.223,0c0,1.547,0,3.026,0,4.619c-4.7,0-9.41,0-14.223,0
		C50.499,12.808,50.499,11.295,50.499,9.678z"/>
	<path fill="#ffffff" d="M45.515,14.338c-1.541,0-3.018,0-4.606,0c0-1.508,0-3.02,0-4.633c1.497,0,3.009,0,4.606,0
		C45.515,11.205,45.515,12.682,45.515,14.338z"/>
</g>
</svg>
