<?xml version="1.0" encoding="utf-8"?>
<!-- Generator: Adobe Illustrator 17.0.0, SVG Export Plug-In . SVG Version: 6.00 Build 0)  -->
<!DOCTYPE svg PUBLIC "-//W3C//DTD SVG 1.1//EN" "http://www.w3.org/Graphics/SVG/1.1/DTD/svg11.dtd">
<svg version="1.1" id="Layer_1" xmlns="http://www.w3.org/2000/svg" xmlns:xlink="http://www.w3.org/1999/xlink" x="0px" y="0px"
	 width="144px" height="144px" viewBox="0 0 144 144" enable-background="new 0 0 144 144" xml:space="preserve">
<g>
	<path fill="#0004cad9" d="M4.434,122.788c3.327-1.238,6.413-2.339,9.465-3.53c12.101-4.724,24.612-6.175,37.441-4.39
		c4.641,0.646,9.24,1.761,13.766,2.998c2.058,0.562,3.885,1.953,5.834,2.935c0.379,0.191,0.959,0.45,1.238,0.297
		c2.155-1.179,4.258-2.452,6.465-3.747c-0.205-0.338-0.479-0.772-0.736-1.215c-2.524-4.352,0.081-10.388,5.01-11.411
		c2.935-0.609,5.579,0.175,7.753,2.289c0.912,0.887,1.751,1.849,2.624,2.777c0.157-0.067,0.315-0.134,0.472-0.202
		c0-0.533,0-1.067,0-1.6c0.001-11.627-0.013-23.255,0.011-34.882c0.008-3.906,2.577-7.098,6.204-7.854
		c4.594-0.957,9.224,2.491,9.46,7.176c0.139,2.751,0.025,5.514,0.025,8.506c2.221-0.733,4.242-1.018,6.283-0.199
		c1.998,0.802,3.343,2.293,4.418,4.047c6.543-1.68,8.534-0.998,11.841,4.116c2.224-1.05,4.574-1.355,7.246-0.45
		c0-0.784,0-1.421,0-2.057c0-14.296,0-28.592,0.001-42.888c0-0.381-0.02-0.764,0.007-1.143c0.088-1.244,0.933-2.051,2.122-2.048
		c1.2,0.003,2.084,0.784,2.113,2.041c0.056,2.429,0.03,4.86,0.03,7.29c0,14.249-0.423,28.513,0.128,42.741
		c0.456,11.764,0.178,23.511,0.344,35.264c0.133,9.38-6.959,16.358-16.313,16.334c-4.479-0.012-8.96-0.078-13.438,0.015
		c-5.088,0.106-9.428-1.598-13.074-5.084c-5.853-5.597-11.703-11.2-17.471-16.883c-1.014-0.999-1.883-1.313-3.074-0.631
		c-2.339,1.339-4.715,2.624-6.967,4.097c-1.107,0.724-2.051,1.026-3.087,0.13c-6.214-5.377-13.96-6.189-21.604-7.101
		c-14.004-1.67-27.247,1.355-40.024,6.943c-1.698,0.743-3.45,1.363-5.175,2.044c-2.487,0.982-3.76,0.14-3.761-2.517
		c-0.005-9.531-0.002-19.062-0.002-28.593c0-17.584,0-35.169,0-52.753c0-0.429-0.025-0.861,0.016-1.286
		c0.12-1.246,0.963-2.031,2.155-2.041c1.204-0.01,2.076,0.726,2.113,2.035c0.079,2.857,0.062,5.717,0.062,8.576
		c0,23.349-0.006,46.698-0.006,70.047C4.348,121.488,4.395,121.998,4.434,122.788z M97.799,94.101c0,6.813-0.011,13.626,0.01,20.44
		c0.004,1.173-0.15,2.21-1.386,2.698c-1.17,0.461-1.983-0.142-2.764-0.936c-2.105-2.139-4.207-4.284-6.374-6.359
		c-1.554-1.488-3.708-1.418-5.121,0.042c-1.381,1.427-1.398,3.327,0.15,4.839c7.498,7.321,15.019,14.618,22.574,21.88
		c1.793,1.723,4.028,2.93,6.498,2.996c6.138,0.164,12.294,0.296,18.421-0.008c5.209-0.258,9.874-5.693,9.82-10.772
		c-0.029-2.664-0.124-5.327-0.129-7.99c-0.017-8.052-0.009-16.104,0.001-24.156c0.002-1.667-0.438-3.115-1.903-4.072
		c-1.045-0.683-2.145-0.69-3.252-0.118c-1.078,0.558-1.729,1.258-1.644,2.657c0.14,2.278,0.06,4.572,0.022,6.858
		c-0.029,1.714-0.688,2.424-2.121,2.43c-1.482,0.006-2.176-0.775-2.186-2.527c-0.016-2.859,0.077-5.721-0.04-8.575
		c-0.075-1.824-0.557-3.593-2.214-4.727c-1.148-0.786-2.285-0.613-3.501-0.034c-1.163,0.554-1.504,1.341-1.466,2.595
		c0.092,3.047,0.048,6.098,0.03,9.147c-0.01,1.733-0.748,2.606-2.126,2.614c-1.369,0.008-2.136-0.905-2.141-2.605
		c-0.011-3.478,0.085-6.96-0.05-10.432c-0.05-1.281-0.481-2.607-1.004-3.796c-0.62-1.412-2.138-1.927-3.619-1.513
		c-2.356,0.66-2.934,1.281-2.933,3.127c0.002,3.621,0.024,7.242-0.014,10.863c-0.02,1.885-1.006,2.75-2.666,2.438
		c-1.428-0.269-1.71-1.32-1.709-2.565c0.006-6.861,0.005-13.722,0.005-20.583c0-1.668,0.053-3.338-0.028-5.002
		c-0.088-1.813-1.529-3.312-3.207-3.497c-1.702-0.188-3.291,0.909-3.735,2.651c-0.151,0.591-0.186,1.224-0.187,1.838
		C97.796,80.665,97.801,87.383,97.799,94.101z"/>
	<path fill="#0004cad9" d="M9.227,71.924c0-13.107-0.001-26.213,0.001-39.32c0-2.55,0.304-2.942,2.736-3.81
		c11.742-4.191,23.839-5.777,36.251-4.788c7.427,0.592,14.689,2.104,21.703,4.663c1.281,0.467,2.405,0.487,3.696,0.023
		c10.764-3.87,21.894-5.32,33.284-4.71c8.7,0.466,17.146,2.272,25.349,5.233c1.482,0.535,2.093,1.371,2.089,2.946
		c-0.035,12.725-0.018,25.451-0.017,38.176c0,2.669,0.005,5.338-0.006,8.007c-0.007,1.708-0.755,2.587-2.161,2.584
		c-1.389-0.004-2.113-0.866-2.114-2.612c-0.008-14.346,0.004-28.691-0.015-43.037c-0.004-2.82,0.31-2.198-2.179-3.022
		c-11.517-3.815-23.307-5.011-35.368-3.621c-5.791,0.668-11.421,1.981-16.958,3.78c-1.188,0.386-1.584,0.934-1.582,2.205
		c0.041,25.546,0.031,51.092,0.031,76.638c0,0.286,0.014,0.573,0,0.858c-0.107,2.071-1.377,2.865-3.374,2.293
		c-4.747-1.361-9.456-2.956-14.29-3.896c-14.587-2.837-28.898-1.455-42.884,3.499c-0.134,0.048-0.263,0.112-0.397,0.16
		c-2.705,0.951-3.786,0.204-3.79-2.641c-0.009-6.577-0.009-13.154-0.01-19.731c-0.001-6.625,0-13.25,0-19.874
		C9.221,71.924,9.224,71.924,9.227,71.924z M69.637,109.506c0-0.922,0-1.581,0-2.239c-0.003-4.478-0.008-8.956-0.007-13.434
		c0.002-19.77-0.004-39.54,0.031-59.311c0.002-1.121-0.297-1.676-1.411-2.042c-5.574-1.833-11.247-3.158-17.082-3.838
		c-12.353-1.438-24.398-0.118-36.179,3.825c-0.99,0.331-1.405,0.76-1.403,1.89c0.037,24.534,0.028,49.069,0.031,73.603
		c0,0.454,0.045,0.907,0.077,1.506C32.337,103.393,50.855,103.46,69.637,109.506z"/>
	<path fill="#0004cad9" d="M102.067,42.923c6.75,0.045,13.393,0.85,19.945,2.441c1.67,0.406,2.425,1.224,2.194,2.434
		c-0.252,1.321-1.511,2.009-3.122,1.725c-3.274-0.577-6.534-1.271-9.828-1.692c-9.4-1.199-18.711-0.527-27.926,1.621
		c-1.155,0.269-2.283,0.495-3.067-0.717c-0.874-1.352-0.242-2.941,1.455-3.269c3.918-0.757,7.846-1.504,11.8-2.023
		C96.342,43.075,99.216,43.083,102.067,42.923z"/>
	<path fill="#0004cad9" d="M101.735,54.237c7.052,0.015,13.603,0.807,20.07,2.322c1.898,0.445,2.681,1.279,2.387,2.569
		c-0.306,1.343-1.511,1.874-3.326,1.608c-4.934-0.722-9.857-1.605-14.818-2.04c-7.843-0.687-15.579,0.372-23.228,2.117
		c-1.521,0.347-2.484-0.17-2.841-1.534c-0.318-1.215,0.319-2.178,1.811-2.553C88.469,55.047,95.259,54.258,101.735,54.237z"/>
	<path fill="#0004cad9" d="M134.969,120.523c0,1.665,0.012,3.331-0.002,4.996c-0.043,5.089-3.752,9.085-8.794,9.485
		c-1.542,0.122-2.542-0.6-2.656-1.918c-0.131-1.504,0.616-2.313,2.268-2.46c2.977-0.264,4.871-2.28,4.888-5.251
		c0.02-3.521,0.004-7.042,0.013-10.563c0.005-1.79,0.668-2.582,2.116-2.569c1.433,0.013,2.152,0.845,2.168,2.569
		c0.018,1.903,0.004,3.806,0.004,5.71C134.973,120.523,134.971,120.523,134.969,120.523z"/>
	<path fill="#0004cad9" d="M43.731,49.798c-0.001,3.574,0.011,7.149-0.006,10.723c-0.01,1.997-0.546,2.534-2.55,2.579
		c-6.248,0.142-12.446,0.668-18.545,2.137c-2.317,0.558-3.205-0.222-3.207-2.565c-0.005-7.006-0.009-14.011-0.007-21.017
		c0.001-1.997,0.498-2.646,2.429-3.077c6.29-1.403,12.653-2.221,19.102-2.315c2.09-0.03,2.766,0.604,2.779,2.669
		C43.748,42.554,43.732,46.176,43.731,49.798z M23.789,60.136c5.256-0.594,10.416-1.177,15.552-1.757c0-5.998,0-11.925,0-17.967
		c-5.132-0.018-10.073,0.593-14.943,1.749c-0.328,0.078-0.668,0.929-0.673,1.423c-0.051,5.098-0.036,10.196-0.032,15.295
		C23.693,59.298,23.755,59.716,23.789,60.136z"/>
	<path fill="#0004cad9" d="M43.231,81.108c6.306-0.065,12.532,0.666,18.663,2.155c1.401,0.34,2.13,1.335,1.939,2.543
		c-0.192,1.215-1.192,1.918-2.638,1.825c-0.377-0.024-0.748-0.129-1.122-0.193c-2.531-0.428-5.047-1.023-7.595-1.247
		c-4.833-0.426-9.682-0.664-14.528-0.93c-1.797-0.098-2.548-0.661-2.541-2.146c0.006-1.332,0.803-1.981,2.535-2.003
		C39.706,81.091,41.469,81.108,43.231,81.108z"/>
	<path fill="#0004cad9" d="M42.107,74.254c-6.299,0.045-12.53,0.694-18.678,2.087c-0.51,0.116-1.02,0.253-1.538,0.306
		c-1.241,0.128-2.26-0.587-2.455-1.676c-0.227-1.266,0.359-2.398,1.61-2.623c4.159-0.745,8.315-1.63,12.512-2.001
		c3.82-0.338,7.694-0.097,11.544-0.073c1.542,0.01,2.511,0.888,2.51,2.14c-0.001,1.165-1.107,2.015-2.654,1.989
		C44.007,74.389,43.058,74.306,42.107,74.254z"/>
	<path fill="#0004cad9" d="M45.349,92.114c5.347,0.836,10.694,1.668,16.039,2.512c1.194,0.188,2.204,0.611,2.428,2.009
		c0.231,1.441-1.007,2.727-2.372,2.376c-6.164-1.582-12.435-2.258-18.787-2.273c-0.38-0.001-0.771,0.021-1.139-0.055
		c-1.17-0.24-1.83-0.909-1.811-2.18c0.019-1.272,0.695-1.995,1.878-2.107c1.225-0.115,2.47-0.026,3.706-0.026
		C45.31,92.285,45.329,92.2,45.349,92.114z"/>
	<path fill="#0004cad9" d="M32.399,92.679c1.329,0.151,2.101,0.82,2.351,2.044c0.226,1.108-0.607,2.378-1.762,2.58
		c-3.648,0.64-7.303,1.247-10.967,1.79c-1.463,0.217-2.386-0.45-2.586-1.617c-0.237-1.38,0.39-2.334,1.918-2.647
		C25.028,94.077,28.716,93.392,32.399,92.679z"/>
	<path fill="#0004cad9" d="M55.612,70.915c1.989,0.414,4.363,0.87,6.715,1.416c1.092,0.254,1.72,1.479,1.468,2.577
		c-0.263,1.146-1.378,1.932-2.582,1.71c-2.236-0.413-4.467-0.859-6.686-1.353c-1.197-0.266-1.814-1.365-1.583-2.643
		C53.171,71.36,54.049,70.952,55.612,70.915z"/>
	<path fill="#0004cad9" d="M26.83,82.543c1.356,0.062,2.359,0.79,2.518,1.927c0.16,1.142-0.573,2.026-1.971,2.329
		c-1.666,0.36-3.334,0.709-5.006,1.037c-1.494,0.293-2.672-0.341-2.923-1.534c-0.294-1.394,0.39-2.449,1.939-2.777
		C23.189,83.142,25.015,82.865,26.83,82.543z"/>
</g>
</svg>
