<?xml version="1.0" encoding="utf-8"?>
<!-- Generator: Adobe Illustrator 17.0.0, SVG Export Plug-In . SVG Version: 6.00 Build 0)  -->
<!DOCTYPE svg PUBLIC "-//W3C//DTD SVG 1.1//EN" "http://www.w3.org/Graphics/SVG/1.1/DTD/svg11.dtd">
<svg version="1.1" id="Layer_1" xmlns="http://www.w3.org/2000/svg" xmlns:xlink="http://www.w3.org/1999/xlink" x="0px" y="0px"
	 width="144px" height="144px" viewBox="0 0 144 144" enable-background="new 0 0 144 144" xml:space="preserve">
<g>
	<path fill="#FFFFFF" d="M136.796,62.406c0,16.447,0.007,32.893-0.003,49.34c-0.004,6.617-2.793,10.467-9.078,12.697
		c-0.372,0.132-0.781,0.572-0.896,0.952c-1.335,4.418-4.187,7.272-8.601,8.622c-0.41,0.125-0.869,0.605-1.008,1.02
		c-1.978,5.91-6.097,8.95-12.341,8.953c-28.394,0.012-56.788,0.015-85.183,0.001c-7.322-0.004-12.475-5.166-12.476-12.452
		c-0.008-33.293-0.009-66.587-0.006-99.88c0-5.854,3.245-10.222,8.788-12.023c0.523-0.17,1.1-0.787,1.273-1.32
		c1.355-4.16,4.051-6.939,8.247-8.182c0.825-0.244,1.18-0.639,1.423-1.442c1.607-5.323,6.057-8.676,11.6-8.679
		c28.744-0.016,57.488-0.017,86.232,0.005c6.769,0.005,12.009,5.318,12.018,12.149c0.021,16.747,0.007,33.493,0.007,50.24
		C136.793,62.406,136.794,62.406,136.796,62.406z M95.997,24.054c-0.467-0.024-0.713-0.047-0.959-0.047
		C69.795,24.007,44.552,24,19.31,24.016c-4.289,0.003-7.297,3.182-7.298,7.624c-0.005,33.24-0.006,66.481-0.005,99.721
		c0,4.877,2.945,7.822,7.854,7.824c28.442,0.008,56.884,0.01,85.325,0.005c4.623-0.001,7.606-3.064,7.607-7.777
		c0.003-29.641,0.001-59.283,0.001-88.924c0-0.53,0-1.059,0-1.679c-4.635,0-9.076,0.003-13.517-0.001
		c-2.539-0.002-3.281-0.757-3.281-3.31C95.998,33.059,95.997,28.62,95.997,24.054z M22.164,19.206c0.635,0,1.126,0,1.617,0
		c24.497-0.002,48.993,0.006,73.49-0.029c1.456-0.002,2.547,0.396,3.581,1.446c5.05,5.13,10.144,10.217,15.273,15.269
		c1.038,1.023,1.496,2.09,1.494,3.562c-0.034,29.246-0.025,58.492-0.025,87.739c0,0.575,0,1.15,0,1.774
		c3.067-0.917,4.798-3.542,4.798-7.098c0.002-33.196,0.003-66.391,0-99.587c0-4.962-2.971-7.878-7.961-7.876
		c-14.548,0.006-29.096,0-43.644,0c-13.898,0-27.796-0.001-41.694,0.004C25.796,14.413,23.298,16.088,22.164,19.206z M31.825,9.608
		c0.728,0,1.326,0,1.924,0c26.839,0,53.679-0.005,80.518,0.002c7.939,0.002,12.925,4.991,12.926,12.9
		c0.001,31.687,0.001,63.375,0,95.062c0,0.579,0,1.159,0,1.778c3.011-0.823,4.798-3.504,4.798-7.053
		c0.003-33.237,0.004-66.473,0-99.71c-0.001-4.839-3.016-7.78-7.904-7.779c-16.593,0.005-33.187,0-49.78,0
		c-11.895,0-23.791-0.003-35.686,0.005C35.343,4.815,32.708,6.638,31.825,9.608z M100.893,27.904c0,2.603,0,5.303,0,7.962
		c2.783,0,5.467,0,7.951,0C106.207,33.225,103.544,30.558,100.893,27.904z"/>
	<path fill="#FFFFFF" d="M28.325,53.837c-2.836-1.227-5.464-2.364-8.364-3.618c1.174-1.579,2.08-2.798,3.048-4.1
		c2.646,1.755,5.443,2.818,8.598,2.797c2.994-0.021,5.701-0.89,8.154-2.578c3.622-2.492,7.215-5.028,10.861-7.484
		c1.319-0.888,2.776-1.567,4.129-2.409c0.47-0.292,0.933-0.72,1.196-1.197c1.395-2.531,3.471-3.997,6.379-4.023
		c2.973-0.026,5.111,1.442,6.518,4.034c0.204,0.375,0.452,0.793,0.793,1.017c4.75,3.121,9.604,6.093,14.262,9.345
		c4.545,3.173,9.282,4.296,14.555,2.287c1.109-0.423,2.133-1.07,3.387-1.711c0.86,1.15,1.769,2.365,2.752,3.679
		c-2.426,1.954-5.149,2.953-8.218,3.622c0.771,2.317,1.52,4.566,2.266,6.816c1.163,3.505,2.336,7.006,3.478,10.518
		c0.231,0.712,0.465,1.149,1.379,1.232c1.485,0.135,2.139,1.205,2.085,2.931c-0.176,5.667-4.703,10.539-10.529,11.33
		c-5.544,0.752-11.091-2.747-12.828-8.178c-0.36-1.126-0.537-2.34-0.6-3.524c-0.082-1.537,0.687-2.271,2.273-2.648
		c0.384-0.091,0.88-0.454,1-0.804c1.923-5.618,3.794-11.254,5.67-16.889c0.059-0.178,0.046-0.381,0.079-0.686
		c-7.379-1.123-12.327-6.531-18.271-10.175c-1.06-0.65-2.064-1.39-2.836-1.914c-1.597,1.28-3.055,2.418-4.466,3.613
		c-0.208,0.176-0.263,0.62-0.263,0.94c-0.007,14.897,0,29.794,0.009,44.69c0,0.09,0.058,0.181,0.149,0.447
		c1.471,0,3.004-0.009,4.536,0.002c6.209,0.044,11.233,4.473,12.022,10.593c0.357,2.768-0.542,3.801-3.32,3.802
		c-10.548,0.003-21.096,0.005-31.644,0.006c-2.725,0-3.62-0.995-3.316-3.676c0.69-6.094,5.74-10.65,11.905-10.728
		c1.544-0.019,3.089-0.003,4.773-0.003c0.026-0.547,0.068-1.026,0.068-1.505c0.003-14.347-0.006-28.694,0.022-43.042
		c0.002-1-0.292-1.511-1.187-2.079c-1.224-0.778-2.18-1.976-3.327-3.066c-7.132,3.722-12.704,10.593-21.47,12.163
		c0.924,2.789,1.811,5.475,2.704,8.159c1.009,3.03,2.002,6.065,3.06,9.078c0.149,0.425,0.567,0.957,0.961,1.06
		c1.994,0.524,2.544,1.197,2.421,3.274c-0.345,5.822-5.207,10.72-11.054,11.137c-5.937,0.424-11.393-3.594-12.612-9.313
		c-0.166-0.777-0.276-1.579-0.294-2.373c-0.036-1.574,0.688-2.356,2.217-2.706c0.395-0.09,0.932-0.408,1.047-0.743
		C24.486,65.385,26.431,59.514,28.325,53.837z M48.635,100.671c9.237,0,18.383,0,27.571,0c-0.964-2.744-3.431-4.618-6.282-4.652
		c-5.042-0.059-10.087-0.064-15.129,0.005C51.94,96.064,49.38,98.07,48.635,100.671z M24.608,76.848
		c0.877,2.946,3.78,4.879,6.944,4.743c2.925-0.126,5.706-2.247,6.165-4.743C33.379,76.848,29.049,76.848,24.608,76.848z
		 M87.055,76.876c0.647,2.694,3.504,4.728,6.54,4.721c3.055-0.007,5.886-2.024,6.538-4.721
		C95.768,76.876,91.421,76.876,87.055,76.876z M35.057,71.966c-1.266-3.787-2.479-7.414-3.692-11.04
		c-0.118,0.013-0.237,0.027-0.355,0.04c-1.204,3.631-2.407,7.263-3.646,11C30.004,71.966,32.388,71.966,35.057,71.966z
		 M93.785,60.959c-0.124-0.005-0.248-0.011-0.371-0.016c-1.209,3.638-2.418,7.276-3.652,10.993c2.65,0,5.078,0,7.671,0
		C96.192,68.205,94.988,64.582,93.785,60.959z M62.41,36.017c-1.301-0.004-2.368,1.038-2.397,2.34
		c-0.028,1.292,1.01,2.393,2.3,2.439c1.329,0.047,2.493-1.089,2.479-2.422C64.779,37.086,63.702,36.021,62.41,36.017z"/>
	<path fill="#FFFFFF" d="M21.717,112.849c11.961,0,23.834,0,35.795,0c0,1.573,0,3.088,0,4.677c-11.935,0-23.807,0-35.795,0
		C21.717,116.021,21.717,114.505,21.717,112.849z"/>
	<path fill="#FFFFFF" d="M67.269,117.497c0-1.596,0-3.075,0-4.63c11.946,0,23.817,0,35.81,0c0,1.493,0,3.009,0,4.63
		C91.198,117.497,79.291,117.497,67.269,117.497z"/>
	<path fill="#FFFFFF" d="M57.537,122.498c0,1.577,0,3.056,0,4.618c-11.975,0-23.882,0-35.864,0c0-1.549,0-3.028,0-4.618
		C33.59,122.498,45.497,122.498,57.537,122.498z"/>
	<path fill="#FFFFFF" d="M67.266,127.092c0-1.58,0-3.06,0-4.621c11.939,0,23.812,0,35.808,0c0,1.478,0,2.995,0,4.621
		C91.21,127.092,79.302,127.092,67.266,127.092z"/>
</g>
</svg>
