<?xml version="1.0" encoding="utf-8"?>
<!-- Generator: Adobe Illustrator 17.0.0, SVG Export Plug-In . SVG Version: 6.00 Build 0)  -->
<!DOCTYPE svg PUBLIC "-//W3C//DTD SVG 1.1//EN" "http://www.w3.org/Graphics/SVG/1.1/DTD/svg11.dtd">
<svg version="1.1" id="Layer_1" xmlns="http://www.w3.org/2000/svg" xmlns:xlink="http://www.w3.org/1999/xlink" x="0px" y="0px"
	 width="144px" height="144px" viewBox="0 0 144 144" enable-background="new 0 0 144 144" xml:space="preserve">
<g>
	<path fill="#ffffff" d="M0,132.188c0-1.688,0-3.375,0-5.063c0.098-0.187,0.216-0.366,0.29-0.562
		c1.328-3.521,3.658-5.912,7.507-6.459c1.467-0.208,2.967-0.18,4.516-0.263c0.901-2.697,3.509-4.711,6.458-4.806
		c3.245-0.105,5.649,1.335,7.229,4.281c0-31.532,0-62.883,0-94.598c-1.82,3.026-4.18,4.492-7.359,4.228
		c-3.189-0.265-5.368-2.001-6.375-4.789c-1.733-0.089-3.337-0.032-4.891-0.283c-2.537-0.41-4.504-1.847-5.892-3.987
		C0.878,18.955,0.488,17.883,0,16.875c0-1.688,0-3.375,0-5.063c2.168-5.558,6.23-7.868,12.041-6.93
		c1.656-3.1,2.119-3.536,5.115-4.882c1.406,0,2.813,0,4.219,0c1.863,0.864,3.574,1.961,4.412,3.909
		c0.311,0.724,0.646,0.882,1.317,0.879c3.926-0.016,7.853,0.003,11.78-0.012c4.346-0.017,8.691-0.073,13.037-0.086
		c5.421-0.016,10.842-0.006,16.263-0.003c2.244,0.001,4.488,0.011,6.732,0.02c4.955,0.02,9.91,0.06,14.865,0.059
		c4.346-0.001,8.691-0.07,13.037-0.068c4.721,0.003,9.441,0.063,14.162,0.06c0.33,0,0.814-0.235,0.964-0.506
		c1.082-1.96,2.611-3.397,4.682-4.252c1.406,0,2.813,0,4.219,0c2.303,0.892,4.151,2.261,4.904,4.774
		c1.024,0,2.003,0.041,2.978-0.008c2.439-0.123,4.405,0.837,6.22,2.402c1.562,1.346,2.37,3.078,3.054,4.925c0,1.594,0,3.188,0,4.781
		c-0.158,0.309-0.365,0.603-0.468,0.929c-0.934,2.963-2.929,4.957-5.858,5.763c-1.861,0.512-3.866,0.5-5.942,0.738
		c-1.288,4.866-9.531,7.386-13.779,0.511c0,31.371,0,62.789,0,94.502c1.736-3.284,4.375-4.543,7.625-4.24
		c3.037,0.284,5.213,1.968,6.091,4.633c1.988,0.191,3.853,0.149,5.598,0.585c3.558,0.889,5.522,3.531,6.732,6.829
		c0,1.594,0,3.188,0,4.781c-1.857,5.21-5.419,8.116-12.206,7.234c-0.777,2.479-2.656,3.884-4.95,4.859c-1.406,0-2.813,0-4.219,0
		c-2.255-0.94-3.917-2.501-4.926-4.769c-2.823,0-5.628-0.009-8.432,0.002c-4.345,0.016-8.69,0.058-13.035,0.066
		c-5.14,0.01-10.28-0.007-15.42-0.008c-4.253-0.001-8.506,0.015-12.76,0.005c-5.001-0.012-10.003-0.061-15.004-0.061
		c-4.345,0-8.69,0.065-13.035,0.063c-4.346-0.002-8.691-0.062-13.036-0.059c-0.356,0-0.935,0.203-1.032,0.457
		c-0.839,2.186-2.611,3.334-4.57,4.304c-1.406,0-2.813,0-4.219,0c-2.269-0.947-4.208-2.246-4.945-4.781
		c-0.788,0-1.491-0.049-2.186,0.008c-3.195,0.264-5.851-0.808-7.812-3.325C1.334,134.774,0.729,133.432,0,132.188z M112.68,119.777
		c0-31.929,0-63.722,0-95.555c-27.155,0-54.215,0-81.364,0c0,31.884,0,63.674,0,95.555
		C58.448,119.777,85.511,119.777,112.68,119.777z M26.504,19.007c30.41,0,60.689,0,90.947,0c0-3.148,0-6.175,0-9.228
		c-30.359,0-60.635,0-90.947,0C26.504,12.89,26.504,15.883,26.504,19.007z M26.534,134.242c30.386,0,60.626,0,90.894,0
		c0-3.145,0-6.205,0-9.275c-30.346,0-60.586,0-90.894,0C26.534,128.086,26.534,131.111,26.534,134.242z M21.399,14.349
		c-0.005,0-0.01,0-0.015,0c0-2.389,0.027-4.779-0.011-7.168c-0.02-1.251-0.732-2-1.972-2.144c-1.207-0.14-1.975,0.499-2.29,1.614
		c-0.16,0.567-0.164,1.19-0.161,1.787c0.003,0.698,0.139,1.397,0.13,2.094c-0.046,3.501-0.133,7.002-0.18,10.504
		c-0.022,1.595,1.053,2.875,2.315,2.834c1.234-0.04,2.174-1.217,2.183-2.775C21.408,18.846,21.399,16.597,21.399,14.349z
		 M122.604,14.294c0,2.386-0.023,4.772,0.009,7.157c0.017,1.289,0.734,2.165,1.983,2.33c1.211,0.16,2.021-0.553,2.329-1.731
		c0.127-0.488,0.175-1.012,0.165-1.518c-0.031-1.634-0.158-3.268-0.151-4.902c0.012-2.564,0.094-5.128,0.163-7.691
		c0.043-1.595-0.898-2.877-2.171-2.908c-1.483-0.036-2.31,0.892-2.323,2.668C122.591,9.897,122.604,12.096,122.604,14.294z
		 M122.602,129.705c0.003,0,0.007,0,0.01,0c0,2.339-0.026,4.678,0.009,7.016c0.024,1.566,1.316,2.572,2.709,2.183
		c1.182-0.33,1.899-1.645,1.774-3.151c-0.096-1.161-0.191-2.327-0.179-3.49c0.03-3.075,0.131-6.148,0.177-9.223
		c0.024-1.63-0.979-2.892-2.249-2.91c-1.261-0.018-2.244,1.212-2.25,2.84C122.596,125.215,122.602,127.46,122.602,129.705z
		 M21.386,129.616c0.004,0,0.008,0,0.011,0c0-2.294,0.015-4.588-0.005-6.881c-0.013-1.421-1.023-2.579-2.211-2.604
		c-1.131-0.024-2.209,1.188-2.284,2.578c-0.013,0.233,0,0.468,0.004,0.702c0.061,3.549,0.135,7.098,0.174,10.647
		c0.01,0.929-0.217,1.874-0.114,2.787c0.157,1.384,1.278,2.248,2.486,2.119c1.227-0.131,1.928-1,1.937-2.466
		C21.397,134.203,21.386,131.91,21.386,129.616z M132.19,129.599c0,0.937,0.094,1.885-0.023,2.807
		c-0.165,1.297,0.573,1.619,1.599,1.755c2.477,0.33,4.907-1.577,5.204-3.999c0.347-2.834-1.917-4.987-4.488-5.243
		c-1.49-0.148-2.283,0.662-2.293,2.151C132.183,127.913,132.187,128.756,132.19,129.599z M11.81,14.345c0.002,0,0.003,0,0.005,0
		c0-0.889-0.084-1.788,0.02-2.664c0.157-1.318-0.536-1.726-1.661-1.855c-2.596-0.297-4.969,1.62-5.148,4.186
		c-0.179,2.572,2.001,5.02,4.523,5.076c1.568,0.035,2.265-0.65,2.262-2.217C11.808,16.029,11.81,15.187,11.81,14.345z
		 M132.181,14.297c0,0.983,0.048,1.97-0.014,2.949c-0.056,0.891,0.254,1.372,1.139,1.625c1.613,0.461,3.534-0.212,4.8-1.789
		c1.121-1.396,1.18-3.482,0.143-5.105c-1.088-1.703-2.942-2.5-4.8-2.095c-0.883,0.193-1.403,0.566-1.289,1.608
		C132.261,12.415,132.181,13.36,132.181,14.297z M11.817,129.727c0-0.983-0.062-1.971,0.017-2.947
		c0.08-0.986-0.342-1.43-1.253-1.676c-1.602-0.433-3.561,0.309-4.764,1.899c-1.09,1.442-1.073,3.584,0.043,5.23
		c1.018,1.502,3.071,2.268,4.802,1.859c0.871-0.206,1.252-0.63,1.173-1.559C11.756,131.605,11.817,130.663,11.817,129.727z"/>
	<path fill="#ffffff" d="M61.173,81.612c-5.811,0-11.623,0.004-17.434-0.003c-1.917-0.002-2.959-0.859-2.969-2.399
		c-0.009-1.544,1.053-2.441,2.943-2.442c11.669-0.005,23.338-0.005,35.007,0c1.905,0.001,2.906,0.88,2.88,2.479
		c-0.025,1.526-1.003,2.357-2.853,2.36C72.889,81.618,67.031,81.612,61.173,81.612z"/>
	<path fill="#ffffff" d="M83.993,52.85c-5.483,0-10.967-0.004-16.45,0.003c-1.118,0.001-2.2-0.302-2.481-1.419
		c-0.2-0.798-0.106-1.946,0.36-2.554c0.439-0.573,1.531-0.889,2.34-0.897c6.654-0.073,13.308-0.05,19.963-0.05
		c4.218,0,8.435-0.006,12.653,0.02c1.635,0.01,2.604,0.734,2.814,1.987c0.276,1.644-0.873,2.898-2.749,2.904
		C94.959,52.864,89.476,52.851,83.993,52.85z"/>
	<path fill="#ffffff" d="M56.26,72.014c-4.213,0-8.426,0.006-12.639-0.003c-1.811-0.004-2.826-0.863-2.85-2.374
		c-0.024-1.504,1.013-2.448,2.774-2.45c8.52-0.01,17.039-0.011,25.559-0.001c1.925,0.002,2.934,0.877,2.91,2.438
		c-0.023,1.548-1.039,2.39-2.974,2.396c-4.26,0.014-8.52,0.004-12.779,0.004C56.26,72.022,56.26,72.018,56.26,72.014z"/>
	<path fill="#ffffff" d="M87.761,86.355c4.167-0.001,8.333-0.009,12.5,0.003c1.891,0.005,2.959,0.9,2.956,2.424
		c-0.003,1.555-1.021,2.457-2.931,2.459c-8.52,0.011-17.04,0.005-25.559-0.021c-1.802-0.005-2.769-0.933-2.74-2.476
		c0.029-1.49,1.072-2.38,2.852-2.385C79.146,86.348,83.454,86.355,87.761,86.355z"/>
	<path fill="#ffffff" d="M55.258,95.933c3.793,0,7.586-0.003,11.378,0.001c1.834,0.002,2.969,0.915,3.024,2.417
		c0.054,1.472-1.11,2.501-2.919,2.503c-7.632,0.011-15.264,0.033-22.895-0.036c-0.851-0.008-1.945-0.351-2.472-0.943
		c-0.464-0.522-0.533-1.669-0.344-2.433c0.273-1.106,1.299-1.507,2.429-1.506c3.933,0.002,7.866,0.001,11.8,0.001
		C55.258,95.936,55.258,95.935,55.258,95.933z"/>
	<path fill="#ffffff" d="M88.73,95.936c3.839-0.001,7.679-0.005,11.518,0c1.848,0.002,2.942,0.905,2.97,2.432
		c0.029,1.562-1.003,2.481-2.899,2.485c-7.678,0.014-15.357,0.019-23.035-0.004c-2.166-0.006-3.358-1.404-2.793-3.171
		c0.423-1.321,1.43-1.746,2.721-1.744C81.051,95.943,84.891,95.938,88.73,95.936z"/>
	<path fill="#ffffff" d="M90.147,72.029c-3.462,0-6.924,0.003-10.386-0.001c-1.897-0.002-2.956-0.859-2.982-2.395
		c-0.027-1.591,1.063-2.463,3.042-2.461c6.784,0.008,13.568,0.007,20.351,0.012c1.992,0.001,3.074,0.87,3.058,2.445
		c-0.016,1.584-1.056,2.384-3.117,2.385c-3.322,0.003-6.643,0.001-9.965,0.001C90.147,72.02,90.147,72.024,90.147,72.029z"/>
	<path fill="#ffffff" d="M53.97,62.435c-3.414,0-6.828,0.009-10.242-0.003c-1.889-0.007-2.954-0.9-2.948-2.427
		c0.006-1.555,1.039-2.439,2.935-2.44c6.874-0.004,13.749,0.002,20.623,0.02c1.892,0.005,2.913,0.907,2.878,2.473
		c-0.033,1.483-1.079,2.364-2.863,2.369c-3.461,0.01-6.922,0.003-10.382,0.003C53.97,62.432,53.97,62.433,53.97,62.435z"/>
	<path fill="#ffffff" d="M69.456,110.47c-2.945,0-5.891,0.01-8.836-0.003c-1.98-0.009-3.047-0.909-3.026-2.507
		c0.02-1.536,1.077-2.427,2.965-2.43c6.031-0.011,12.062-0.01,18.094-0.001c1.874,0.003,2.93,0.896,2.947,2.44
		c0.018,1.566-1.012,2.483-2.887,2.496C75.628,110.485,72.542,110.47,69.456,110.47z"/>
	<path fill="#ffffff" d="M71.923,38.471c-2.202-0.001-4.404,0.014-6.606-0.006c-1.892-0.017-2.927-0.913-2.924-2.475
		c0.004-1.544,1.063-2.454,2.942-2.461c4.451-0.017,8.902-0.019,13.352-0.011c1.832,0.003,2.921,0.951,2.929,2.495
		c0.008,1.529-1.082,2.448-2.946,2.457C76.421,38.481,74.172,38.473,71.923,38.471z"/>
	<path fill="#ffffff" d="M50.436,52.851c-2.295,0.001-4.59,0.013-6.886-0.003c-1.712-0.012-2.773-0.982-2.768-2.484
		c0.005-1.474,0.962-2.395,2.677-2.406c4.637-0.032,9.274-0.033,13.911,0.002c1.644,0.012,2.661,1.026,2.647,2.462
		c-0.014,1.442-1.047,2.402-2.696,2.422C55.027,52.871,52.732,52.85,50.436,52.851z"/>
	<path fill="#ffffff" d="M94.782,105.526c1.873,0,3.747-0.021,5.62,0.006c1.773,0.025,2.804,0.946,2.814,2.447
		c0.01,1.494-1.035,2.469-2.786,2.482c-3.746,0.028-7.493,0.026-11.24,0.001c-1.768-0.012-2.817-0.961-2.828-2.447
		c-0.011-1.467,1.073-2.455,2.799-2.482C91.035,105.503,92.908,105.526,94.782,105.526z"/>
	<path fill="#ffffff" d="M94.729,81.61c-1.919,0-3.838,0.022-5.756-0.007c-1.629-0.025-2.651-1.022-2.61-2.473
		c0.038-1.37,1.073-2.346,2.607-2.355c3.884-0.022,7.768-0.024,11.652,0c1.644,0.01,2.627,0.996,2.592,2.485
		c-0.033,1.411-0.999,2.317-2.589,2.342C98.66,81.633,96.695,81.61,94.729,81.61z"/>
	<path fill="#ffffff" d="M94.788,62.436c-1.919,0-3.838,0.02-5.757-0.006c-1.604-0.022-2.674-1.026-2.675-2.443
		c-0.001-1.422,1.064-2.41,2.692-2.418c3.744-0.019,7.488-0.022,11.232-0.002c1.917,0.01,2.947,0.895,2.941,2.438
		c-0.006,1.527-1.093,2.424-2.957,2.43C98.439,62.44,96.614,62.436,94.788,62.436z"/>
	<path fill="#ffffff" d="M46.767,105.53c1.169-0.001,2.34-0.04,3.507,0.008c1.525,0.063,2.548,1.061,2.572,2.421
		c0.023,1.353-0.994,2.448-2.504,2.488c-2.383,0.063-4.771,0.067-7.154-0.006c-1.469-0.045-2.387-1.059-2.404-2.407
		c-0.018-1.394,0.952-2.413,2.476-2.49C44.426,105.484,45.598,105.531,46.767,105.53z"/>
	<path fill="#ffffff" d="M46.832,86.357c1.169,0,2.338-0.032,3.505,0.008c1.429,0.049,2.457,1.029,2.508,2.318
		c0.055,1.377-0.917,2.47-2.436,2.518c-2.381,0.075-4.767,0.08-7.149,0.022c-1.556-0.038-2.496-1.052-2.483-2.463
		c0.014-1.427,1.069-2.381,2.689-2.406c1.122-0.017,2.244-0.003,3.365-0.003C46.832,86.352,46.832,86.355,46.832,86.357z"/>
	<path fill="#ffffff" d="M76.754,62.424c-0.839-0.002-1.682,0.045-2.517-0.013c-1.35-0.093-2.234-1.064-2.25-2.383
		c-0.017-1.321,0.845-2.349,2.194-2.408c1.721-0.076,3.451-0.074,5.173-0.006c1.383,0.054,2.245,1.033,2.248,2.354
		c0.003,1.377-0.91,2.365-2.33,2.45C78.435,62.467,77.594,62.426,76.754,62.424z"/>
	<path fill="#ffffff" d="M62.539,86.357c0.747,0,1.495-0.026,2.241,0.006c1.415,0.06,2.399,1.033,2.435,2.366
		c0.038,1.391-0.834,2.396-2.292,2.464c-1.63,0.076-3.269,0.088-4.899,0.022c-1.535-0.062-2.487-1.1-2.451-2.492
		c0.036-1.382,1.054-2.326,2.586-2.369c0.793-0.022,1.587-0.004,2.381-0.004C62.539,86.353,62.539,86.355,62.539,86.357z"/>
</g>
</svg>
