<?xml version="1.0" encoding="utf-8"?>
<!-- Generator: Adobe Illustrator 17.0.0, SVG Export Plug-In . SVG Version: 6.00 Build 0)  -->
<!DOCTYPE svg PUBLIC "-//W3C//DTD SVG 1.1//EN" "http://www.w3.org/Graphics/SVG/1.1/DTD/svg11.dtd">
<svg version="1.1" id="Layer_1" xmlns="http://www.w3.org/2000/svg" xmlns:xlink="http://www.w3.org/1999/xlink" x="0px" y="0px"
	 width="144px" height="144px" viewBox="0 0 144 144" enable-background="new 0 0 144 144" xml:space="preserve">
<g>
	<path fill="#ffffff" d="M118.544,8.301c2.362-2.367,4.644-4.659,6.933-6.945c1.841-1.84,2.877-1.777,4.721,0.115
		c2.601,2.669,5.237,5.306,7.899,7.915c0.85,0.833,1.261,1.723,1.261,2.94c-0.021,38.293-0.006,76.586-0.023,114.879
		c-0.004,9.714-7.081,16.783-16.779,16.786c-36.115,0.014-72.229,0.01-108.344-0.001c-8.032-0.002-14.199-6.147-14.202-14.153
		C-0.003,90.141,0,50.444,0.001,10.747c0-0.425,0.036-0.851,0.06-1.359c5.368,0,10.663,0,16.04,0c0,1.481,0,2.903,0,4.452
		c-3.827,0-7.583,0-11.442,0c-0.039,0.534-0.097,0.951-0.097,1.368c-0.004,38.293-0.007,76.586,0,114.879
		c0.001,4.771,3.698,8.925,8.235,9.325c5.063,0.446,9.358-2.689,10.307-7.572c0.155-0.798,0.133-1.637,0.133-2.457
		c0.006-38.777,0.015-77.554-0.028-116.331c-0.002-1.749,0.506-3.007,1.768-4.197c2.642-2.489,5.153-5.116,7.727-7.676
		c1.581-1.572,2.765-1.521,4.326,0.045c2.317,2.326,4.679,4.607,7.255,7.137c1.354-1.409,2.709-2.834,4.082-4.243
		c0.98-1.005,1.977-1.994,2.978-2.979c1.565-1.54,2.773-1.474,4.326,0.128c2.088,2.155,4.216,4.271,6.333,6.398
		c0.196,0.197,0.432,0.355,0.782,0.639c2.255-2.262,4.465-4.482,6.68-6.699c2.161-2.164,3.025-2.132,5.117,0.043
		c2.143,2.228,4.336,4.407,6.622,6.724c0.803-0.772,1.497-1.42,2.169-2.089c1.751-1.741,3.482-3.501,5.242-5.233
		c1.449-1.427,2.669-1.368,4.116,0.103c2.24,2.277,4.5,4.535,6.756,6.796c0.095,0.095,0.241,0.14,0.556,0.315
		c1.87-1.888,3.766-3.804,5.664-5.719c0.477-0.481,0.953-0.964,1.438-1.437c1.525-1.489,2.711-1.436,4.221,0.086
		C113.682,3.527,116.035,5.821,118.544,8.301z M24.238,139.353c0.68,0.042,1.051,0.086,1.421,0.086
		c32.525,0.003,65.05,0.007,97.574-0.017c1.096-0.001,2.23-0.163,3.281-0.471c4.939-1.446,8.263-5.966,8.266-11.196
		c0.01-16.359,0-32.718,0-49.078c0-21.635,0.005-43.27-0.007-64.905c0-0.506-0.002-1.179-0.3-1.492
		c-2.157-2.266-4.39-4.46-6.662-6.739c-0.478,0.442-0.838,0.752-1.173,1.087c-2.057,2.05-4.1,4.114-6.166,6.155
		c-1.471,1.453-2.524,1.463-3.978,0.029c-1.999-1.97-3.971-3.969-5.961-5.949c-0.431-0.429-0.887-0.833-1.438-1.348
		c-2.501,2.527-4.867,4.945-7.266,7.33c-1.384,1.376-2.472,1.358-3.883,0.015c-0.421-0.4-0.826-0.817-1.234-1.23
		c-1.996-2.021-3.99-4.043-6.044-6.125c-0.52,0.481-0.879,0.791-1.214,1.125c-2.057,2.05-4.1,4.114-6.166,6.155
		c-1.458,1.44-2.538,1.45-3.986,0.026c-1.829-1.799-3.625-3.63-5.444-5.44c-0.603-0.6-1.231-1.174-1.961-1.866
		c-2.286,2.316-4.453,4.522-6.633,6.715c-2.199,2.212-2.95,2.221-5.112,0.026c-2.197-2.23-4.371-4.484-6.613-6.787
		c-0.569,0.524-0.928,0.834-1.263,1.167c-2.023,2.015-4.035,4.041-6.063,6.053c-1.601,1.588-2.61,1.595-4.186,0.033
		c-1.822-1.806-3.627-3.628-5.447-5.436c-0.57-0.566-1.163-1.108-1.823-1.736c-2.023,2.027-3.893,3.984-5.862,5.836
		c-0.854,0.803-1.127,1.644-1.126,2.793c0.03,37.8,0.005,75.601,0.059,113.401C27.838,131.809,27.257,135.762,24.238,139.353z"/>
	<path fill="#ffffff" d="M16.106,129.982c-1.557,0-2.946,0-4.41,0c0-35.575,0-71.074,0-106.652c1.488,0,2.911,0,4.41,0
		C16.106,58.894,16.106,94.393,16.106,129.982z"/>
	<path fill="#ffffff" d="M34.928,37.023c0-4.642,0-9.128,0-13.695c30.923,0,61.774,0,92.711,0c0,4.572,0,9.092,0,13.695
		C96.731,37.023,65.88,37.023,34.928,37.023z M39.486,32.441c27.971,0,55.768,0,83.681,0c0-0.822,0-1.539,0-2.257
		c0-0.755,0-1.51,0-2.251c-28.027,0-55.859,0-83.681,0C39.486,29.501,39.486,30.939,39.486,32.441z"/>
	<path fill="#ffffff" d="M127.65,51.209c0,10.853,0,21.534,0,32.293c-20.084,0-40.093,0-60.182,0c0-10.784,0-21.5,0-32.293
		C87.55,51.209,107.559,51.209,127.65,51.209z M72.048,55.774c0,7.804,0,15.47,0,23.162c17.055,0,34.01,0,51.038,0
		c0-7.75,0-15.414,0-23.162C106.051,55.774,89.096,55.774,72.048,55.774z"/>
	<path fill="#ffffff" d="M127.604,46.335c-30.871,0-61.688,0-92.626,0c0-1.414,0-2.838,0-4.382c30.801,0,61.653,0,92.626,0
		C127.604,43.317,127.604,44.741,127.604,46.335z"/>
	<path fill="#ffffff" d="M62.581,106.979c0,7.692,0,15.308,0,23.001c-9.241,0-18.406,0-27.648,0c0-7.692,0-15.308,0-23.001
		C44.175,106.979,53.339,106.979,62.581,106.979z M39.529,111.536c0,4.746,0,9.313,0,13.862c6.23,0,12.345,0,18.482,0
		c0-4.668,0-9.235,0-13.862C51.808,111.536,45.693,111.536,39.529,111.536z"/>
	<path fill="#ffffff" d="M34.937,55.619c0-1.494,0-2.916,0-4.414c9.235,0,18.399,0,27.642,0c0,1.494,0,2.916,0,4.414
		C53.34,55.619,44.177,55.619,34.937,55.619z"/>
	<path fill="#ffffff" d="M34.935,64.916c0-1.496,0-2.918,0-4.414c9.241,0,18.403,0,27.645,0c0,1.496,0,2.918,0,4.414
		C53.339,64.916,44.177,64.916,34.935,64.916z"/>
	<path fill="#ffffff" d="M34.935,74.16c0-1.409,0-2.796,0-4.312c9.176,0,18.373,0,27.644,0c0,1.408,0,2.796,0,4.312
		C53.403,74.16,44.206,74.16,34.935,74.16z"/>
	<path fill="#ffffff" d="M34.935,83.506c0-1.497,0-2.918,0-4.414c9.241,0,18.404,0,27.645,0c0,1.497,0,2.918,0,4.414
		C53.338,83.506,44.175,83.506,34.935,83.506z"/>
	<path fill="#ffffff" d="M62.581,88.436c0,1.418,0,2.806,0,4.318c-9.178,0-18.376,0-27.65,0c0-1.418,0-2.805,0-4.318
		C44.113,88.436,53.311,88.436,62.581,88.436z"/>
	<path fill="#ffffff" d="M67.467,92.8c0-1.563,0-2.951,0-4.412c9.237,0,18.401,0,27.645,0c0,1.492,0,2.914,0,4.412
		C85.875,92.8,76.711,92.8,67.467,92.8z"/>
	<path fill="#ffffff" d="M127.649,88.436c0,1.416,0,2.803,0,4.316c-9.179,0-18.376,0-27.65,0c0-1.415,0-2.803,0-4.316
		C109.179,88.436,118.375,88.436,127.649,88.436z"/>
	<path fill="#ffffff" d="M62.531,102.1c-9.256,0-18.385,0-27.592,0c0-1.494,0-2.916,0-4.416c9.228,0,18.392,0,27.592,0
		C62.531,99.207,62.531,100.663,62.531,102.1z"/>
	<path fill="#ffffff" d="M95.116,97.685c0,1.558,0,2.946,0,4.409c-9.238,0-18.401,0-27.645,0c0-1.488,0-2.909,0-4.409
		C76.704,97.685,85.866,97.685,95.116,97.685z"/>
	<path fill="#ffffff" d="M100.002,102.095c0-1.561,0-2.949,0-4.411c9.238,0,18.401,0,27.641,0c0,1.49,0,2.912,0,4.411
		C118.408,102.095,109.244,102.095,100.002,102.095z"/>
	<path fill="#ffffff" d="M95.114,111.391c-9.248,0-18.411,0-27.647,0c0-1.462,0-2.85,0-4.364c9.179,0,18.377,0,27.647,0
		C95.114,108.441,95.114,109.829,95.114,111.391z"/>
	<path fill="#ffffff" d="M100,111.391c0-1.565,0-2.952,0-4.413c9.24,0,18.403,0,27.645,0c0,1.494,0,2.915,0,4.413
		C118.407,111.391,109.244,111.391,100,111.391z"/>
	<path fill="#ffffff" d="M67.469,120.687c0-1.494,0-2.916,0-4.413c9.239,0,18.401,0,27.644,0c0,1.494,0,2.916,0,4.413
		C85.873,120.687,76.711,120.687,67.469,120.687z"/>
	<path fill="#ffffff" d="M127.648,116.275c0,1.563,0,2.951,0,4.412c-9.237,0-18.401,0-27.645,0c0-1.492,0-2.914,0-4.412
		C109.24,116.275,118.403,116.275,127.648,116.275z"/>
	<path fill="#ffffff" d="M67.466,129.982c0-1.563,0-2.95,0-4.412c9.24,0,18.404,0,27.644,0c0,1.492,0,2.914,0,4.412
		C85.877,129.982,76.713,129.982,67.466,129.982z"/>
	<path fill="#ffffff" d="M99.999,129.935c0-1.422,0-2.81,0-4.32c4.496,0,9.013,0,13.657,0c0,1.351,0,2.773,0,4.32
		C109.208,129.935,104.691,129.935,99.999,129.935z"/>
	<path fill="#ffffff" d="M86.051,69.55c0-1.535,0-2.921,0-4.388c1.484,0,2.904,0,4.407,0c0,1.465,0,2.885,0,4.388
		C88.989,69.55,87.569,69.55,86.051,69.55z"/>
	<path fill="#ffffff" d="M99.787,65.178c0,1.482,0,2.867,0,4.357c-1.463,0-2.883,0-4.408,0c0-1.412,0-2.832,0-4.357
		C96.79,65.178,98.209,65.178,99.787,65.178z"/>
	<path fill="#ffffff" d="M109.053,69.563c-1.553,0-2.939,0-4.403,0c0-1.49,0-2.909,0-4.409c1.486,0,2.905,0,4.403,0
		C109.053,66.64,109.053,68.06,109.053,69.563z"/>
	<path fill="#ffffff" d="M50.962,116.326c0,1.509,0,2.895,0,4.355c-1.492,0-2.911,0-4.407,0c0-1.485,0-2.905,0-4.355
		C48.081,116.326,49.534,116.326,50.962,116.326z"/>
</g>
</svg>
