<?xml version="1.0" encoding="utf-8"?>
<!-- Generator: Adobe Illustrator 17.0.0, SVG Export Plug-In . SVG Version: 6.00 Build 0)  -->
<!DOCTYPE svg PUBLIC "-//W3C//DTD SVG 1.1//EN" "http://www.w3.org/Graphics/SVG/1.1/DTD/svg11.dtd">
<svg version="1.1" id="Layer_1" xmlns="http://www.w3.org/2000/svg" xmlns:xlink="http://www.w3.org/1999/xlink" x="0px" y="0px"
	 width="144px" height="144px" viewBox="0 0 144 144" enable-background="new 0 0 144 144" xml:space="preserve">
<g>
	<path fill="#0004cad9" d="M0,10.589C0.768,9.561,1.79,9.423,3.032,9.43c6.78,0.039,13.56-0.05,20.34-0.055
		c4.957-0.003,9.913,0.084,14.87,0.082c6.311-0.003,12.623-0.075,18.934-0.084c7.387-0.01,14.775-0.01,22.162,0.066
		c0.693,0.007,1.541,0.421,2.046,0.92c6.973,6.893,13.899,13.835,20.836,20.765c0.066,0.066,0.105,0.166,0.18,0.215
		c3.201,2.079,3.53,5.179,3.451,8.669c-0.17,7.474-0.056,14.954-0.056,22.431c0,9.393,0.004,18.787,0.004,28.18
		c0,9.347-0.004,18.694-0.007,28.04c-0.002,7.478,0.009,14.956-0.013,22.433c-0.006,2.098-0.757,2.865-2.874,2.871
		c-4.721,0.014-9.443-0.063-14.165-0.057c-8.555,0.01-17.11,0.075-25.665,0.078c-6.732,0.002-13.465-0.079-20.197-0.077
		c-8.274,0.003-16.548,0.062-24.821,0.081c-5.376,0.012-10.753,0.036-16.128-0.062c-0.649-0.012-1.285-0.749-1.927-1.15
		C0,98.714,0,54.651,0,10.589z M4.918,138.903c31.951,0,63.823,0,95.678,0c0-33.542,0-66.976,0-100.501c-0.612,0-1.122,0-1.632,0
		c-6.42,0-12.84,0.006-19.26-0.001c-2.023-0.002-2.942-0.908-2.944-2.892c-0.004-3.983,0.009-7.965,0.012-11.948
		c0.002-3.027,0-6.055,0-9.121c-24.063,0-47.93,0-71.855,0C4.918,55.973,4.918,97.412,4.918,138.903z M81.766,18.322
		c0,5.023,0,9.998,0,14.975c5.078,0,10.051,0,15.025,0C91.77,28.293,86.792,23.331,81.766,18.322z"/>
	<path fill="#0004cad9" d="M144,65.995c-1.858,1.496-3.296,1.634-4.322,0.274c-0.413-0.547-0.705-1.335-0.709-2.015
		c-0.037-6.077,0.006-12.155,0.018-18.232c0.008-4.058,0.001-8.116,0.001-12.272c-1.517,0-2.9,0-4.455,0
		c-0.032,0.49-0.092,0.984-0.091,1.477c0.012,12.411,0.042,24.823,0.043,37.234c0,11.896-0.035,23.792-0.044,35.688
		c-0.004,4.731,0.051,9.462-0.001,14.192c-0.01,0.898-0.336,1.812-0.622,2.684c-1.272,3.875-2.588,7.736-3.879,11.604
		c-0.422,1.265-0.883,2.479-2.457,2.544c-0.262,4.094-0.636,4.725-2.609,4.791c-1.255,0.042-2.188-0.494-2.466-1.632
		c-0.236-0.967-0.049-2.038-0.049-3.136c-1.582-0.023-2.16-0.966-2.579-2.282c-1.384-4.341-2.9-8.639-4.299-12.975
		c-0.306-0.95-0.474-1.988-0.475-2.985c-0.026-15.357-0.015-30.714-0.011-46.07c0.004-13.063,0.009-26.126,0.016-39.189
		c0.002-3.044,0.096-6.09,0.003-9.131c-0.124-4.023,3.253-7.955,7.618-7.562c1.626,0.146,3.277,0.045,4.915,0.009
		c3.895-0.086,7.155,3.561,6.902,7.026c-0.057,0.784-0.008,1.575-0.008,2.551c2.294,0,4.432,0.066,6.563-0.026
		c1.219-0.053,2.162,0.342,2.999,1.151C144,41.808,144,53.901,144,65.995z M129.343,119.684c0-20.787,0-41.412,0-62.016
		c-3.143,0-6.16,0-9.142,0c0,20.74,0,41.371,0,62.016C123.297,119.684,126.281,119.684,129.343,119.684z M129.302,52.485
		c0.079-0.244,0.131-0.331,0.131-0.418c0.008-8.61,0.024-17.22,0.001-25.829c-0.004-1.309-0.916-2.144-2.246-2.192
		c-1.309-0.047-2.62-0.031-3.931-0.028c-2.409,0.005-3.163,0.769-3.165,3.22c-0.004,7.956-0.001,15.912-0.001,23.868
		c0,0.447,0,0.894,0,1.379C123.284,52.485,126.265,52.485,129.302,52.485z M128.48,124.838c-2.522,0-4.848,0-7.367,0
		c0.997,2.99,1.94,5.872,2.94,8.733c0.089,0.254,0.559,0.537,0.829,0.517c0.259-0.02,0.614-0.375,0.711-0.657
		C126.558,130.647,127.477,127.848,128.48,124.838z"/>
	<path fill="#0004cad9" d="M58.967,124.291c1.704-1.787,3.417-3.565,5.109-5.363c1.76-1.871,3.222-1.789,4.721,0.368
		c0.98-0.777,1.928-1.59,2.937-2.319c2.766-1.998,4.562-1.494,5.991,1.781c0.869-0.719,1.707-1.414,2.548-2.106
		c2.657-2.186,4.299-1.945,6.254,0.976c0.275-0.041,0.584-0.112,0.895-0.13c1.148-0.068,2.053,0.387,2.477,1.46
		c0.433,1.098,0.2,2.11-0.743,2.912c-1.483,1.26-3.865,1.296-5.467,0.055c-0.326-0.253-0.62-0.548-1.008-0.895
		c-1.123,0.957-2.208,1.908-3.322,2.825c-3.111,2.563-4.786,2.165-6.378-1.578c-1.203,1-2.382,1.987-3.567,2.965
		c-1.699,1.401-2.649,1.387-4.293-0.05c-1.084,0.96-2.113,1.991-3.262,2.865c-3.723,2.832-7.178,1.505-8.043-3.094
		c-0.283-1.502-0.366-3.042-0.55-4.65c-1.927,0.655-3.796,1.368-5.712,1.919c-1.705,0.491-3.129-0.493-3.266-2.091
		c-0.105-1.235,0.643-2.143,2.055-2.643c1.935-0.686,3.833-1.483,5.779-2.134c1.229-0.411,1.555-1.273,1.89-2.424
		c0.74-2.54,1.422-5.177,2.688-7.466c2.423-4.381,6.861-5.873,11.564-4.338c2.928,0.956,4.155,3.475,2.49,6.048
		c-1.37,2.117-3.216,4.008-5.144,5.658c-1.94,1.66-4.268,2.859-6.361,4.353c-0.476,0.34-0.943,1.052-0.96,1.606
		c-0.054,1.756,0.108,3.519,0.186,5.279C58.639,124.15,58.803,124.221,58.967,124.291z M66.389,105.836
		c-3.354-0.968-6.601,1.796-6.634,5.451C61.995,109.446,64.066,107.745,66.389,105.836z"/>
	<path fill="#0004cad9" d="M52.724,57.533c-10.025,0-20.05,0-30.075-0.001c-0.468,0-0.943,0.03-1.403-0.038
		c-1.214-0.178-2.144-1.249-2.08-2.445c0.068-1.267,0.726-2.165,2.016-2.325c1.156-0.143,2.336-0.111,3.505-0.111
		c19.533,0,39.067,0.005,58.6,0.015c1.819,0.001,2.798,0.616,3.063,1.852c0.37,1.728-0.757,3.032-2.708,3.044
		c-4.216,0.026-8.432,0.014-12.648,0.015c-6.09,0.001-12.18,0-18.27,0C52.724,57.539,52.724,57.536,52.724,57.533z"/>
	<path fill="#0004cad9" d="M52.715,67.119c-10.213,0-20.426-0.007-30.639,0.011c-1.12,0.002-2.169-0.241-2.566-1.308
		c-0.261-0.702-0.326-1.811,0.063-2.334c0.472-0.634,1.514-1.181,2.312-1.185c16.911-0.065,33.822-0.048,50.733-0.049
		c3.654,0,7.308-0.022,10.962-0.001c1.642,0.01,2.596,0.723,2.808,1.981c0.279,1.657-0.862,2.877-2.752,2.881
		c-5.762,0.012-11.525,0.004-17.287,0.004C61.803,67.119,57.259,67.119,52.715,67.119z"/>
	<path fill="#0004cad9" d="M52.734,86.295c-9.978,0-19.956,0-29.933,0c-0.422,0-0.844,0.014-1.265-0.013
		c-1.422-0.09-2.4-1.093-2.384-2.428c0.015-1.309,1.026-2.366,2.44-2.387c2.904-0.044,5.808-0.016,8.713-0.016
		c17.753-0.001,35.506,0.003,53.259-0.01c1.302-0.001,2.325,0.376,2.744,1.696c0.534,1.683-0.61,3.133-2.516,3.148
		c-4.403,0.033-8.807,0.022-13.21,0.024c-5.949,0.003-11.898,0.001-17.848,0.001C52.734,86.305,52.734,86.3,52.734,86.295z"/>
	<path fill="#0004cad9" d="M52.724,76.697c-10.26,0-20.52-0.008-30.779,0.011c-1.142,0.002-2.156-0.319-2.502-1.396
		c-0.227-0.707-0.208-1.82,0.213-2.326c0.508-0.61,1.554-1.069,2.373-1.077c7.87-0.082,15.74-0.059,23.611-0.058
		c12.649,0.001,25.298,0.008,37.947,0.016c1.569,0.001,2.501,0.629,2.765,1.831c0.373,1.697-0.706,2.99-2.566,2.994
		c-7.215,0.016-14.429,0.011-21.644,0.013c-3.139,0.001-6.278,0-9.417,0C52.724,76.702,52.724,76.7,52.724,76.697z"/>
	<path fill="#0004cad9" d="M33.602,23.831c3.933,0,7.868-0.069,11.796,0.058c0.794,0.026,1.854,0.61,2.259,1.266
		c0.365,0.591,0.263,1.792-0.122,2.428c-0.355,0.585-1.358,1.085-2.08,1.092c-7.911,0.078-15.823,0.066-23.734,0.042
		c-1.529-0.005-2.548-1.041-2.565-2.415c-0.018-1.423,1.038-2.452,2.649-2.463C25.736,23.813,29.669,23.831,33.602,23.831z"/>
	<path fill="#0004cad9" d="M31.193,91.038c3.04,0,6.081-0.007,9.121,0.003c1.836,0.006,2.961,0.964,2.939,2.465
		c-0.021,1.44-1.115,2.393-2.869,2.399c-6.174,0.02-12.348,0.023-18.522,0.01c-1.625-0.003-2.683-0.984-2.711-2.41
		c-0.028-1.461,1.071-2.455,2.779-2.463C25.019,91.028,28.106,91.038,31.193,91.038z"/>
	<path fill="#0004cad9" d="M26.437,38.357c-1.498,0-2.996,0.035-4.492-0.009c-1.739-0.051-2.825-1.057-2.797-2.499
		c0.029-1.449,1.141-2.427,2.856-2.438c2.948-0.018,5.897-0.019,8.845,0.01c1.723,0.017,2.817,1.021,2.801,2.482
		c-0.015,1.387-1.094,2.387-2.721,2.433c-1.496,0.043-2.995,0.009-4.492,0.009C26.437,38.349,26.437,38.353,26.437,38.357z"/>
</g>
</svg>
