<?xml version="1.0" encoding="utf-8"?>
<!-- Generator: Adobe Illustrator 17.0.0, SVG Export Plug-In . SVG Version: 6.00 Build 0)  -->
<!DOCTYPE svg PUBLIC "-//W3C//DTD SVG 1.1//EN" "http://www.w3.org/Graphics/SVG/1.1/DTD/svg11.dtd">
<svg version="1.1" id="Layer_1" xmlns="http://www.w3.org/2000/svg" xmlns:xlink="http://www.w3.org/1999/xlink" x="0px" y="0px"
	 width="144px" height="144px" viewBox="0 0 144 144" enable-background="new 0 0 144 144" xml:space="preserve">
<g>
	<path fill="#ffffff" d="M28.836,91.061c0-3.766,0-7.556,0-11.345c0-2.348-0.055-4.699,0.025-7.045
		c0.035-1.039-0.275-1.395-1.313-1.682C13.292,67.057,4.175,57.947,0.875,43.51C-3.82,22.974,10.94,2.426,31.866,0.387
		c6.142-0.598,12.376-0.323,18.568-0.33c24.584-0.028,49.168-0.013,73.751-0.005c7.165,0.002,12.609,5.447,12.609,12.604
		c0.004,39.624,0.004,79.248-0.001,118.872c-0.001,6.949-5.509,12.465-12.451,12.466c-25.734,0.006-51.467,0.003-77.201,0.003
		c-5.964,0-11.929,0.008-17.893-0.003c-4.654-0.009-7.613-2.955-7.613-7.562c-0.001-12.242-0.001-24.484,0.005-36.726
		C21.643,94.319,23.47,92.101,28.836,91.061z M50.432,139.161c0.125,0.006,0.42,0.035,0.714,0.035
		c24.538,0.002,49.076,0.011,73.615-0.007c4.496-0.003,7.232-2.897,7.233-7.559C132,91.9,132,52.169,131.994,12.438
		c-0.001-4.867-2.772-7.591-7.651-7.591c-22.74,0.001-45.479,0.001-68.219,0.001c-0.514,0-1.027,0-1.541,0
		c3.518,2.48,6.691,5.123,9.283,8.399c0.683,0.863,1.355,1.224,2.486,1.222c17.941-0.041,35.883-0.029,53.824-0.029
		c0.725,0,1.45,0,2.142,0c0,1.721,0,3.201,0,4.853c-18.127,0-36.168,0-54.334,0c0.738,1.692,1.39,3.191,2.097,4.811
		c17.4,0,34.817,0,52.199,0c0,1.657,0,3.174,0,4.825c-17.028,0-33.935,0-50.908,0c0.218,1.628,0.417,3.107,0.637,4.752
		c16.8,0,33.559,0,50.318,0c0,1.655,0,3.135,0,4.742c-16.8,0-33.522,0-50.323,0c-0.217,1.631-0.419,3.145-0.648,4.862
		c6.687,0,13.249,0,19.769,0c0,1.671,0,3.151,0,4.747c-0.622,0-1.163,0-1.703,0c-6.047,0-12.094-0.01-18.141,0.018
		c-0.481,0.002-1.235,0.12-1.395,0.427c-0.707,1.354-1.244,2.797-1.924,4.401c18.233,0,36.293,0,54.319,0c0,1.675,0,3.191,0,4.754
		c-1.521,0-2.919,0-4.317,0c-17.242-0.001-34.483-0.007-51.725,0.011c-0.559,0.001-1.306,0.046-1.642,0.388
		c-1.31,1.334-2.489,2.796-3.892,4.412c20.678,0,41.129,0,61.59,0c0,1.676,0,3.191,0,4.784c-0.756,0-1.4,0-2.045,0
		c-21.64,0.001-43.279-0.001-64.919,0.015c-0.627,0-1.289,0.097-1.875,0.312c-3.174,1.165-6.331,2.377-9.487,3.59
		c-0.29,0.112-0.532,0.351-0.796,0.531c0.049,0.117,0.098,0.235,0.146,0.352c19.914,0,39.827,0,59.8,0c0,1.655,0,3.169,0,4.846
		c-19.999,0-39.906,0-59.825,0c0,4.848,0,9.532,0,14.203c5.274,1.008,7.131,3.279,7.132,8.659
		c0.002,10.695,0.003,21.39,0.005,32.085C50.433,134.21,50.432,136.6,50.432,139.161z M67.221,36.198
		C67.339,19.052,53.504,4.989,36.382,4.852C19.072,4.714,4.986,18.47,4.849,35.645C4.71,53.031,18.486,67.106,35.754,67.222
		C53.09,67.339,67.101,53.525,67.221,36.198z M26.436,117.527c0,6.193-0.004,12.387,0.002,18.58c0.002,2.393,0.713,3.088,3.147,3.09
		c4.295,0.005,8.591,0.008,12.886-0.001c2.485-0.006,3.155-0.692,3.156-3.237c0.005-12.287,0.004-24.574,0-36.861
		c-0.001-2.386-0.715-3.079-3.155-3.082c-4.295-0.005-8.591-0.004-12.886,0c-2.485,0.002-3.148,0.683-3.149,3.231
		C26.435,105.34,26.436,111.434,26.436,117.527z M38.363,72.108c-1.654,0-3.132,0-4.639,0c0,6.389,0,12.694,0,18.999
		c1.606,0,3.12,0,4.639,0C38.363,84.727,38.363,78.459,38.363,72.108z"/>
	<path fill="#ffffff" d="M124.701,124.736c-7.194,0-14.269,0-21.421,0c0-14.343,0-28.612,0-43.001c7.095,0,14.205,0,21.421,0
		C124.701,96.01,124.701,110.315,124.701,124.736z M119.882,119.952c0-11.265,0-22.367,0-33.448c-3.996,0-7.871,0-11.784,0
		c0,11.19,0,22.292,0,33.448C112.067,119.952,115.943,119.952,119.882,119.952z"/>
	<path fill="#ffffff" d="M79.321,91.278c7.175,0,14.25,0,21.409,0c0,11.137,0,22.209,0,33.405c-7.079,0-14.189,0-21.409,0
		C79.321,113.618,79.321,102.511,79.321,91.278z M95.905,119.94c0-8.032,0-15.939,0-23.804c-4.02,0-7.931,0-11.811,0
		c0,7.994,0,15.866,0,23.804C88.05,119.94,91.926,119.94,95.905,119.94z"/>
	<path fill="#ffffff" d="M76.715,124.739c-7.186,0-14.26,0-21.414,0c0-7.943,0-15.815,0-23.81c7.087,0,14.196,0,21.414,0
		C76.715,108.8,76.715,116.708,76.715,124.739z M71.954,105.717c-4.031,0-7.941,0-11.811,0c0,4.817,0,9.527,0,14.21
		c3.995,0,7.87,0,11.811,0C71.954,115.173,71.954,110.499,71.954,105.717z"/>
	<path fill="#ffffff" d="M124.735,129.707c0,1.575,0,3.054,0,4.616c-23.165,0-46.266,0-69.44,0c0-1.547,0-3.026,0-4.616
		C78.404,129.707,101.504,129.707,124.735,129.707z"/>
</g>
</svg>
