<?xml version="1.0" encoding="utf-8"?>
<!-- Generator: Adobe Illustrator 17.0.0, SVG Export Plug-In . SVG Version: 6.00 Build 0)  -->
<!DOCTYPE svg PUBLIC "-//W3C//DTD SVG 1.1//EN" "http://www.w3.org/Graphics/SVG/1.1/DTD/svg11.dtd">
<svg version="1.1" id="Layer_1" xmlns="http://www.w3.org/2000/svg" xmlns:xlink="http://www.w3.org/1999/xlink" x="0px" y="0px"
	 width="144px" height="144px" viewBox="0 0 144 144" enable-background="new 0 0 144 144" xml:space="preserve">
<g>
	<path fill="#ffffff" d="M141.133,111.536c-4.504,0-8.832,0-13.319,0c0,10.858,0,21.612,0,32.464c-37.229,0-74.296,0-111.52,0
		c0-10.755,0-21.509,0-32.415c-4.517,0-8.881,0-13.461,0c0.361-0.609,0.591-1.016,0.838-1.412c4.298-6.888,8.61-13.767,12.884-20.67
		c0.505-0.816,1.031-1.171,2.048-1.17c35.501,0.032,71.002,0.034,106.504-0.003c1.226-0.001,1.867,0.385,2.5,1.415
		c4.15,6.752,8.379,13.455,12.579,20.176C140.484,110.399,140.757,110.893,141.133,111.536z M122.99,139.414
		c0-9.347,0-18.553,0-27.826c-0.584,0-1.063,0-1.543,0c-15.673-0.001-31.346-0.014-47.019,0.022
		c-1.058,0.002-1.639-0.32-2.168-1.223c-1.391-2.377-2.892-4.689-4.356-7.023c-0.857-1.368-1.726-2.729-2.747-4.342
		c0,13.683,0,27.031,0,40.392C84.479,139.414,103.678,139.414,122.99,139.414z M60.268,139.416c0-12.846,0-25.553,0-38.645
		c-1.734,3.467-3.322,6.559-4.821,9.694c-0.417,0.872-0.914,1.146-1.875,1.142c-10.352-0.037-20.704-0.021-31.057-0.019
		c-0.51,0-1.02,0-1.486,0c0,9.407,0,18.614,0,27.828C34.158,139.416,47.166,139.416,60.268,139.416z M132.83,106.939
		c-2.788-4.468-5.42-8.629-7.98-12.834c-0.521-0.856-1.1-1.119-2.075-1.118c-18.13,0.027-36.261,0.018-54.391,0.016
		c-0.408,0-0.816,0-1.405,0c0.305,0.545,0.475,0.879,0.673,1.195c2.406,3.851,4.849,7.68,7.201,11.564
		c0.547,0.903,1.132,1.203,2.176,1.2c16.196-0.036,32.393-0.024,48.589-0.024C127.924,106.94,130.23,106.939,132.83,106.939z
		 M58.907,93.081c-0.508-0.034-0.828-0.073-1.148-0.074c-12.281-0.003-24.563,0.009-36.844-0.028
		c-0.88-0.003-1.283,0.376-1.687,1.031c-2.437,3.946-4.9,7.876-7.348,11.815c-0.192,0.308-0.339,0.644-0.584,1.114
		c0.596,0,1.021,0,1.446,0c12.475,0,24.95-0.028,37.424,0.04c1.438,0.008,2.129-0.45,2.7-1.722c1.167-2.596,2.516-5.111,3.789-7.659
		C57.382,96.14,58.108,94.682,58.907,93.081z"/>
	<path fill="#ffffff" d="M95.262,85.939c0-5.456,0-10.703,0-16.089c-0.564-0.025-1.027-0.062-1.489-0.063
		c-4.063-0.005-8.125,0.015-12.188-0.01c-4.337-0.026-7.254-2.97-7.256-7.33c-0.01-15.235-0.009-30.47,0-45.705
		c0.002-4.428,2.935-7.339,7.387-7.341c18.33-0.008,36.661-0.007,54.991-0.004c4.303,0.001,7.283,2.976,7.286,7.304
		c0.01,15.284,0.011,30.567-0.001,45.851c-0.003,4.241-2.977,7.212-7.213,7.224c-6.142,0.017-12.285-0.031-18.427,0.043
		c-0.88,0.011-1.899,0.357-2.608,0.88c-6.381,4.706-12.707,9.487-19.051,14.242C96.283,85.248,95.853,85.528,95.262,85.939z
		 M99.831,76.714c0.699-0.495,1.131-0.785,1.547-1.096c4.332-3.246,8.645-6.519,13.012-9.717c0.605-0.443,1.475-0.732,2.225-0.738
		c6.527-0.055,13.055-0.028,19.582-0.029c2.399,0,3.154-0.734,3.154-3.073c0.003-14.989,0.003-29.978,0-44.967
		c0-2.271-0.771-3.049-3.035-3.049c-18.132-0.003-36.264-0.004-54.397,0c-2.148,0-2.947,0.815-2.948,2.994
		c-0.003,15.086-0.003,30.172,0.001,45.258c0.001,1.989,0.819,2.821,2.809,2.829c3.675,0.015,7.35,0.005,11.024,0.005
		c2.308,0,4.615,0,7.025,0C99.831,68.978,99.831,72.686,99.831,76.714z"/>
	<path fill="#ffffff" d="M41.831,51.201c0,7.02,0,13.872,0,21.044c-0.611-0.461-1.015-0.75-1.403-1.061
		C32.419,64.782,24.421,58.365,16.381,52c-0.579-0.458-1.449-0.729-2.197-0.759c-2.367-0.096-4.74-0.013-7.11-0.044
		c-4.075-0.054-7.05-3.018-7.057-7.092C-0.005,31.816-0.005,19.527,0.014,7.238C0.02,3.104,3.032,0.116,7.187,0.113
		c16.885-0.013,33.77-0.012,50.655,0.002c4.221,0.004,7.183,3,7.188,7.252c0.012,12.192,0.013,24.384,0,36.576
		c-0.004,4.321-2.972,7.245-7.331,7.255C52.478,51.211,47.256,51.201,41.831,51.201z M37.174,46.557c0.701,0,1.225,0,1.749,0
		c6.143,0,12.286,0.003,18.429-0.001c2.26-0.001,3.037-0.782,3.037-3.052c0.003-11.899,0.003-23.798,0-35.696
		c-0.001-2.28-0.766-3.052-3.034-3.052C40.765,4.754,24.174,4.756,7.584,4.76C5.476,4.761,4.662,5.554,4.661,7.619
		C4.655,19.663,4.653,31.707,4.657,43.751c0.001,1.964,0.837,2.785,2.843,2.797c2.805,0.016,5.612-0.041,8.415,0.042
		c0.705,0.021,1.527,0.291,2.076,0.724c5.957,4.706,11.87,9.468,17.798,14.211c0.388,0.31,0.795,0.597,1.386,1.038
		C37.174,57.088,37.174,51.922,37.174,46.557z"/>
	<path fill="#ffffff" d="M118.421,130.251c0,1.527,0,2.924,0,4.441c-7.671,0-15.324,0-23.089,0c0-1.413,0-2.879,0-4.441
		C102.978,130.251,110.631,130.251,118.421,130.251z"/>
	<path fill="#ffffff" d="M99.935,125.417c0-1.53,0-2.96,0-4.47c6.138,0,12.209,0,18.398,0c0,1.429,0,2.896,0,4.47
		C112.269,125.417,106.164,125.417,99.935,125.417z"/>
	<path fill="#ffffff" d="M130.066,39.583c-0.015,11.526-9.435,20.919-20.972,20.912c-11.418-0.007-20.847-9.465-20.833-20.899
		C88.275,28,97.711,18.655,109.372,18.69C120.681,18.723,130.081,28.213,130.066,39.583z M96.176,30.118
		c-4.229,4.943-5.073,14.743,1.813,21.259c7.008,6.63,16.818,5.107,21.497,0.579c-2.517-3.449-5.858-5.316-10.167-5.401
		c-4.945-0.098-9.151-3.703-9.341-8.509C99.845,34.707,97.635,32.708,96.176,30.118z M122.598,48.341
		c0.158-0.089,0.273-0.114,0.319-0.184c4.581-7.103,2.618-16.389-3.772-21.296c-0.248-0.191-0.82-0.186-1.128-0.038
		c-2.335,1.13-3.963,2.99-4.096,5.569c-0.184,3.556-1.044,6.739-3.734,9.515C115.385,42.37,119.45,44.543,122.598,48.341z
		 M99.458,26.571c1.393,2.163,3.001,4.101,3.968,6.318c0.95,2.179,1.251,4.641,1.871,7.117c2.563-2.003,4.051-4.239,3.887-7.34
		c-0.023-0.426,0.084-0.863,0.156-1.29c0.486-2.924,1.998-5.276,4.321-7.382C108.385,22.59,103.791,23.526,99.458,26.571z"/>
	<path fill="#ffffff" d="M32.355,12.534c2.006-0.966,3.924-2.261,6.037-2.827c4.299-1.153,8.742,0.879,11.119,4.664
		c2.326,3.704,2.374,8.733-0.648,11.906c-5.323,5.588-11.026,10.814-16.723,16.339c-2.369-2.403-4.968-5.052-7.581-7.687
		c-2.349-2.369-4.715-4.72-7.069-7.083c-4.489-4.505-4.751-10.883-0.627-15.174c4.166-4.334,10.432-4.369,15.178-0.087
		c0.137,0.124,0.293,0.227,0.44,0.34C32.439,12.796,32.397,12.665,32.355,12.534z M32.537,19.832
		c-1.37-1.428-2.538-2.706-3.771-3.919c-2.498-2.459-6.069-2.503-8.436-0.143c-2.368,2.36-2.341,5.94,0.113,8.438
		c2.509,2.553,5.061,5.064,7.59,7.597c1.462,1.465,2.914,2.939,4.363,4.4c0.25-0.144,0.392-0.191,0.487-0.285
		c4.006-3.998,8.051-7.959,11.995-12.017c2.232-2.296,2.089-5.895-0.142-8.119c-2.332-2.326-5.909-2.345-8.335,0.013
		C35.125,17.036,33.935,18.365,32.537,19.832z"/>
</g>
</svg>
