<?xml version="1.0" encoding="utf-8"?>
<!-- Generator: Adobe Illustrator 17.0.0, SVG Export Plug-In . SVG Version: 6.00 Build 0)  -->
<!DOCTYPE svg PUBLIC "-//W3C//DTD SVG 1.1//EN" "http://www.w3.org/Graphics/SVG/1.1/DTD/svg11.dtd">
<svg version="1.1" id="Layer_1" xmlns="http://www.w3.org/2000/svg" xmlns:xlink="http://www.w3.org/1999/xlink" x="0px" y="0px"
	 width="144px" height="144px" viewBox="0 0 144 144" enable-background="new 0 0 144 144" xml:space="preserve">
<g>
	<path fill="#0004cad9" d="M55.561,30.304c1.741-3.954,3.052-7.87,5.078-11.371C68.733,4.948,84.651-2.199,100.664,0.689
		c15.579,2.81,28.039,15.52,30.73,31.349c1.393,8.195,0.185,16.013-3.515,23.432c-0.497,0.997-0.369,1.538,0.388,2.286
		c4.836,4.774,9.618,9.603,14.432,14.4c0.896,0.893,1.623,1.811,1.041,3.159c-0.568,1.318-1.692,1.512-2.977,1.507
		c-6.546-0.026-13.092-0.014-19.638-0.015c-0.528,0-1.055,0-1.357,0c1.298,3.886,2.846,7.629,3.789,11.519
		c2.281,9.41,1.396,18.642-2.373,27.566c-0.432,1.022-0.344,1.633,0.469,2.438c7.068,6.994,14.084,14.041,21.112,21.076
		c1.298,1.299,1.66,2.609,0.665,3.511c-0.683,0.62-1.83,1.017-2.771,1.021c-14.441,0.061-28.882,0.043-43.323,0.04
		c-6.346-0.001-12.693,0.064-19.038-0.026c-23.009-0.326-42.376-18.291-44.456-41.207c-0.198-2.178-0.225-4.371-0.34-6.742
		c-0.48,0-1.012,0-1.544,0c-9.594-0.002-19.188-0.014-28.782,0.007c-1.288,0.003-2.411-0.189-2.971-1.511
		c-0.569-1.342,0.143-2.265,1.044-3.161c4.359-4.334,8.679-8.706,13.06-13.017c0.814-0.801,1.025-1.381,0.523-2.538
		c-8.781-20.214,3.881-43.175,25.653-46.581c4.805-0.752,9.561-0.416,14.249,0.882C55.111,30.189,55.492,30.286,55.561,30.304z
		 M135.78,139.181c-6.519-6.508-12.703-12.684-18.891-18.858c-1.832-1.828-1.922-2.285-0.85-4.58
		c3.731-7.983,4.908-16.332,3.183-24.97C114.595,67.6,92.454,53.438,69.466,58.846c-20.111,4.731-33.739,24.812-30.692,45.224
		c3.036,20.335,20.023,35.053,40.587,35.097c17.634,0.038,35.268,0.012,52.903,0.014
		C133.294,139.181,134.325,139.181,135.78,139.181z M135.655,72.009c-0.583-0.624-0.934-1.022-1.307-1.396
		c-3.709-3.711-7.423-7.419-11.134-11.128c-1.658-1.657-1.741-2.277-0.577-4.326c3.83-6.747,5.267-13.968,4.163-21.651
		C123.21,8.533,93.883-3.634,73.621,11.457c-7.024,5.232-11.323,12.206-13.033,20.758c10.874,7.314,11.386,7.924,17.268,20.565
		c0.225,0.012,0.471,0.034,0.718,0.036c15.345,0.111,27.701,6.264,37.165,18.324c0.358,0.456,1.127,0.821,1.71,0.83
		c4.447,0.069,8.895,0.038,13.342,0.039C132.317,72.009,133.843,72.009,135.655,72.009z M72.712,53.116
		c-0.06-0.241-0.108-0.532-0.206-0.806c-4.591-12.816-18.721-20.854-32.014-18.214C21.05,37.956,11.173,58.338,20.198,75.969
		c0.886,1.73,0.782,2.445-0.619,3.85c-3.386,3.396-6.783,6.782-10.17,10.177c-0.322,0.323-0.609,0.681-1.026,1.151
		c8.737,0,17.219,0,25.623,0C38.692,70.13,51.538,57.549,72.712,53.116z"/>
	<path fill="#0004cad9" d="M100.732,76.928c0,1.571,0,3.014,0,4.57c-14.338,0-28.642,0-43.049,0c0-1.495,0-3.01,0-4.57
		C72.042,76.928,86.381,76.928,100.732,76.928z"/>
	<path fill="#0004cad9" d="M57.687,86.466c14.385,0,28.652,0,43,0c0,1.545,0,3.024,0,4.622c-14.286,0-28.589,0-43,0
		C57.687,89.609,57.687,88.095,57.687,86.466z"/>
	<path fill="#0004cad9" d="M57.688,96.062c14.383,0,28.649,0,42.998,0c0,1.545,0,3.024,0,4.622c-14.289,0-28.591,0-42.998,0
		C57.688,99.205,57.688,97.692,57.688,96.062z"/>
	<path fill="#0004cad9" d="M57.655,110.295c0-1.597,0-3.076,0-4.63c14.343,0,28.61,0,42.993,0c0,1.494,0,3.01,0,4.63
		C86.37,110.295,72.068,110.295,57.655,110.295z"/>
	<path fill="#0004cad9" d="M100.696,115.29c0,1.591,0,3.07,0,4.625c-14.34,0-28.607,0-42.996,0c0-1.488,0-3.003,0-4.625
		C71.972,115.29,86.274,115.29,100.696,115.29z"/>
	<path fill="#0004cad9" d="M107.895,21.731c0,1.589,0,3.068,0,4.624c-9.539,0-19.009,0-28.603,0c0-1.486,0-3,0-4.624
		C88.763,21.731,98.269,21.731,107.895,21.731z"/>
	<path fill="#0004cad9" d="M107.892,31.323c0,1.597,0,3.076,0,4.629c-9.543,0-19.014,0-28.602,0c0-1.494,0-3.01,0-4.629
		C88.766,31.323,98.272,31.323,107.892,31.323z"/>
	<path fill="#0004cad9" d="M107.934,40.911c0,1.585,0,3.028,0,4.592c-9.533,0-19.037,0-28.653,0c0-1.468,0-2.982,0-4.592
		C88.786,40.911,98.29,40.911,107.934,40.911z"/>
	<path fill="#0004cad9" d="M35.923,45.703c0,1.542,0,3.018,0,4.607c-1.504,0-3.017,0-4.632,0c0-1.496,0-3.007,0-4.607
		C32.79,45.703,34.266,45.703,35.923,45.703z"/>
	<path fill="#0004cad9" d="M40.86,45.676c1.579,0,3.055,0,4.632,0c0,1.549,0,3.06,0,4.66c-1.537,0-3.049,0-4.632,0
		C40.86,48.795,40.86,47.318,40.86,45.676z"/>
	<path fill="#0004cad9" d="M55.115,45.701c0,1.542,0,3.017,0,4.608c-1.511,0-3.023,0-4.635,0c0-1.498,0-3.009,0-4.608
		C51.983,45.701,53.459,45.701,55.115,45.701z"/>
	<path fill="#0004cad9" d="M31.309,55.27c1.551,0,3.028,0,4.596,0c0,1.567,0,3.078,0,4.669c-1.525,0-3.002,0-4.596,0
		C31.309,58.448,31.309,56.934,31.309,55.27z"/>
	<path fill="#0004cad9" d="M40.895,55.277c1.579,0,3.054,0,4.613,0c0,1.539,0,3.015,0,4.617c-1.476,0-2.988,0-4.613,0
		C40.895,58.43,40.895,56.919,40.895,55.277z"/>
</g>
</svg>
