<?xml version="1.0" encoding="utf-8"?>
<!-- Generator: Adobe Illustrator 17.0.0, SVG Export Plug-In . SVG Version: 6.00 Build 0)  -->
<!DOCTYPE svg PUBLIC "-//W3C//DTD SVG 1.1//EN" "http://www.w3.org/Graphics/SVG/1.1/DTD/svg11.dtd">
<svg version="1.1" id="Layer_1" xmlns="http://www.w3.org/2000/svg" xmlns:xlink="http://www.w3.org/1999/xlink" x="0px" y="0px"
	 width="144px" height="144px" viewBox="0 0 144 144" enable-background="new 0 0 144 144" xml:space="preserve">
<g>
	<path fill="#0004cad9" d="M138.094,0c1.201,0.885,1.172,2.11,1.156,3.461c-0.071,5.98-0.075,11.961-0.004,17.941
		c0.022,1.811-0.581,2.759-2.869,2.769c-10.224,0.046-20.449,0.031-30.673,0.045c-9.755,0.013-19.511,0.041-29.266,0.053
		c-7.516,0.009-15.031,0.012-22.547,0.001c-9.01-0.013-18.021-0.061-27.031-0.063c-7.889-0.002-15.778,0.046-23.666,0.055
		C1.92,24.263,0.73,23.994,0,22.781C0,15.194,0,7.607,0,0C46.031,0,92.063,0,138.094,0z M4.913,19.036c43.157,0,86.241,0,129.311,0
		c0-4.755,0-9.416,0-14.069c-43.174,0-86.244,0-129.311,0C4.913,9.718,4.913,14.343,4.913,19.036z"/>
	<path fill="#0004cad9" d="M0,29.813c0.996-1.124,2.296-1.146,3.676-1.143c12.316,0.03,24.631,0.013,36.947,0.023
		c1.881,0.002,2.687,0.844,2.687,2.739c0.004,11.473,0.002,22.947,0.002,34.42c0,5.854,0.001,11.708,0,17.562
		c0,2.398-0.822,3.208-3.279,3.21c-8.24,0.009-16.481,0.012-24.721,0.019c-4.166,0.004-8.336,0.1-12.497-0.047
		C1.862,86.562,0.938,85.7,0,85.219C0,66.75,0,48.281,0,29.813z M4.934,33.739c0,11.25,0,22.32,0,33.366c11.163,0,22.205,0,33.297,0
		c0-11.157,0-22.23,0-33.366C27.094,33.739,16.055,33.739,4.934,33.739z M4.852,81.488c11.199,0,22.272,0,33.362,0
		c0-3.183,0-6.284,0-9.367c-11.185,0-22.254,0-33.362,0C4.852,75.264,4.852,78.299,4.852,81.488z"/>
	<path fill="#0004cad9" d="M49.219,144c-1.038-0.708-1.423-1.683-1.421-2.941c0.023-14.787,0.015-29.575,0.014-44.363
		c0-2.575-0.009-5.149,0.003-7.723c0.008-1.683,0.993-2.629,2.662-2.631c12.498-0.014,24.996-0.028,37.494-0.052
		c2.617-0.005,3.437,0.835,3.438,3.524c0.008,16.193,0.025,32.385,0.036,48.578c0.001,0.889-0.068,1.78-0.03,2.666
		c0.054,1.251-0.442,2.203-1.416,2.941C76.406,144,62.813,144,49.219,144z M86.25,124.694c0-11.194,0-22.272,0-33.387
		c-11.151,0-22.194,0-33.316,0c0,11.154,0,22.233,0,33.387C64.056,124.694,75.099,124.694,86.25,124.694z M86.31,129.749
		c-11.217,0-22.292,0-33.364,0c0,3.177,0,6.246,0,9.326c11.168,0,22.243,0,33.364,0C86.31,135.928,86.31,132.892,86.31,129.749z"/>
	<path fill="#0004cad9" d="M0,92.25c0.91-0.892,1.968-1.165,3.265-1.157c8.426,0.058,16.852,0.03,25.278,0.03
		c4.073,0,8.146-0.005,12.219,0.004c1.745,0.004,2.547,0.805,2.548,2.548c0.005,9.504,0.004,19.007,0.001,28.511
		c-0.001,1.922-0.766,2.687-2.69,2.687c-11.236,0.003-22.471,0.001-33.707,0.002c-1.264,0-2.534-0.079-3.789,0.029
		c-1.264,0.108-2.247-0.328-3.126-1.154C0,113.25,0,102.75,0,92.25z M4.99,117.271c4.175-3.134,8.171-6.134,12.356-9.276
		c-4.209-3.156-8.203-6.15-12.356-9.264C4.99,105.017,4.99,111.019,4.99,117.271z M38.161,117.235c0-6.262,0-12.247,0-18.475
		c-4.194,3.154-8.195,6.163-12.299,9.25C29.997,111.111,33.98,114.099,38.161,117.235z M32.532,119.82
		c0.06-0.094,0.121-0.188,0.181-0.282c-3.68-2.772-7.361-5.544-11.109-8.367c-3.77,2.834-7.496,5.634-11.507,8.648
		C17.857,119.82,25.195,119.82,32.532,119.82z M33,96.256c-7.776,0-15.113,0-22.809,0c4.003,3.001,7.715,5.784,11.427,8.567
		C25.379,101.992,29.025,99.247,33,96.256z"/>
	<path fill="#0004cad9" d="M0,140.344c0.867-1.126,2.038-1.429,3.415-1.421c8.728,0.049,17.455,0.065,26.183,0.074
		c3.266,0.004,6.533-0.085,9.799-0.031c0.988,0.016,2.126,0.122,2.924,0.621c1.516,0.949,1.376,2.666-0.133,4.413
		c-14.062,0-28.125,0-42.187,0C0,142.781,0,141.563,0,140.344z"/>
	<path fill="#0004cad9" d="M97.031,144c-0.371-0.572-0.908-1.099-1.083-1.726c-0.512-1.833,0.779-3.316,2.872-3.329
		c4.578-0.028,9.155-0.008,13.733-0.008c5.369,0,10.738-0.003,16.107,0.001c2.382,0.002,4.764,0.018,7.146,0.028
		c1.355,0.006,2.741,0.203,3.323,1.562c0.558,1.303,0.047,2.532-1.036,3.471C124.406,144,110.719,144,97.031,144z"/>
	<path fill="#0004cad9" d="M139.219,57.805c0,8.663-0.002,17.326,0.002,25.989c0.001,1.967-0.862,2.828-2.896,2.83
		c-8.474,0.008-16.948,0.014-25.423,0.015c-3.979,0-7.959-0.019-11.938-0.015c-2.061,0.002-3.114-1.111-3.107-3.148
		c0.025-7.024,0.001-14.048,0.007-21.072c0.005-6.275,0.028-12.549,0.038-18.824c0.006-4.074,0-8.148,0.006-12.223
		c0.003-1.854,0.782-2.667,2.58-2.667c12.69-0.005,25.38-0.005,38.069,0c1.95,0.001,2.661,0.737,2.661,2.704
		C139.219,40.197,139.219,49.001,139.219,57.805z M100.95,33.743c0,11.202,0,22.235,0,33.356c11.152,0,22.22,0,33.332,0
		c0-11.15,0-22.221,0-33.356C123.148,33.743,112.115,33.743,100.95,33.743z M100.912,81.482c11.204,0,22.271,0,33.36,0
		c0-3.192,0-6.295,0-9.354c-11.179,0-22.247,0-33.36,0C100.912,75.278,100.912,78.316,100.912,81.482z"/>
	<path fill="#0004cad9" d="M69.462,62.486c-6.365,0-12.729-0.003-19.094,0.003c-1.601,0.001-2.594-1-2.594-2.751
		c-0.002-6.176,0.027-12.351,0.03-18.527c0.002-3.182-0.016-6.365-0.042-9.547c-0.016-1.949,1.08-3.032,3-3.03
		c9.032,0.013,18.064,0.004,27.096,0.004c3.697,0,7.395-0.008,11.092,0.011c1.425,0.007,2.496,1.291,2.495,2.961
		c-0.005,4.398-0.035,8.796-0.035,13.194c0,4.914,0.014,9.827,0.036,14.741c0.008,1.784-1.01,2.945-2.609,2.943
		C82.379,62.484,75.921,62.486,69.462,62.486z M86.224,54.875c0-6.243,0-12.278,0-18.554c-4.2,3.152-8.213,6.163-12.37,9.282
		C78.059,48.755,82.077,51.767,86.224,54.875z M52.935,54.912c4.262-3.199,8.268-6.206,12.412-9.316
		c-4.201-3.142-8.211-6.143-12.412-9.286C52.935,42.608,52.935,48.583,52.935,54.912z M81.039,33.835c-7.76,0-15.141,0-22.874,0
		c3.842,2.897,7.399,5.593,10.987,8.248c0.198,0.147,0.738,0.066,0.973-0.107C73.684,39.352,77.218,36.695,81.039,33.835z
		 M69.603,48.794c-3.767,2.825-7.472,5.604-11.365,8.524c7.701,0,15.082,0,22.73,0C77.062,54.388,73.402,51.643,69.603,48.794z"/>
	<path fill="#0004cad9" d="M117.642,91.125c6.272,0,12.543-0.002,18.815,0.001c2.108,0.001,2.761,0.644,2.761,2.71
		c0.001,9.501,0.002,19.003-0.001,28.504c-0.001,1.699-0.768,2.528-2.406,2.529c-12.778,0.009-25.555,0.013-38.333-0.002
		c-1.867-0.002-2.579-0.807-2.578-2.646c0.009-9.502,0-19.003,0.01-28.505c0.002-1.841,0.76-2.585,2.636-2.588
		C104.912,91.117,111.277,91.125,117.642,91.125z M113.367,108.002c-4.167-3.121-8.174-6.122-12.327-9.232
		c0,6.251,0,12.234,0,18.448C105.209,114.101,109.196,111.12,113.367,108.002z M134.175,98.74c-4.159,3.135-8.116,6.118-12.3,9.271
		c4.185,3.142,8.149,6.118,12.3,9.234C134.175,110.99,134.175,105.006,134.175,98.74z M117.592,111.174
		c-3.769,2.835-7.439,5.594-11.39,8.565c7.793,0,15.171,0,22.805,0C125.085,116.796,121.388,114.022,117.592,111.174z
		 M106.654,96.202c-0.041,0.104-0.082,0.207-0.123,0.311c3.68,2.76,7.36,5.521,11.085,8.316c3.75-2.831,7.437-5.613,11.429-8.626
		C121.29,96.202,113.972,96.202,106.654,96.202z"/>
	<path fill="#0004cad9" d="M69.571,76.781c6.318,0,12.635-0.002,18.952,0.001c1.853,0.001,2.911,0.892,2.882,2.408
		c-0.029,1.525-1.23,2.635-2.962,2.646c-3.836,0.023-7.673,0.008-11.51,0.008c-8.654,0-17.309,0.009-25.963-0.006
		c-2.697-0.005-3.974-1.997-2.565-4.098c0.348-0.519,1.27-0.909,1.934-0.918c5.334-0.073,10.669-0.041,16.003-0.041
		C67.418,76.781,68.494,76.781,69.571,76.781z"/>
	<path fill="#0004cad9" d="M21.666,134.478c-3.087,0-6.174-0.025-9.26,0.009c-1.903,0.021-2.8-0.684-2.877-2.396
		c-0.07-1.547,1.016-2.732,2.67-2.737c6.265-0.019,12.53-0.009,18.795,0.033c1.736,0.012,2.77,1.07,2.755,2.62
		c-0.016,1.686-0.875,2.427-2.826,2.429c-3.086,0.002-6.172,0.001-9.258,0.001C21.666,134.451,21.666,134.465,21.666,134.478z"/>
	<path fill="#0004cad9" d="M117.631,134.464c-3.132,0-6.264-0.021-9.395,0.008c-1.772,0.016-2.7-0.734-2.771-2.355
		c-0.068-1.554,1.026-2.739,2.659-2.744c6.309-0.019,12.618-0.031,18.927,0.018c2.161,0.017,3.404,2.145,2.283,3.904
		c-0.341,0.534-1.142,1.072-1.748,1.091c-3.315,0.106-6.636,0.05-9.955,0.05C117.631,134.446,117.631,134.455,117.631,134.464z"/>
	<path fill="#0004cad9" d="M69.43,72c-3.231,0-6.461-0.024-9.692,0.011c-1.41,0.015-1.968-0.904-2.323-2.001
		c-0.287-0.888,0.537-2.512,1.477-2.676c1.537-0.269,3.116-0.383,4.68-0.398c4.629-0.043,9.259-0.015,13.888,0.011
		c0.79,0.005,1.591,0.083,2.368,0.231c1.114,0.212,2.1,1.477,2.011,2.462c-0.127,1.417-1.194,2.41-2.577,2.409
		c-3.277-0.003-6.555-0.001-9.832-0.001C69.431,72.032,69.43,72.016,69.43,72z"/>
	<path fill="#0004cad9" d="M21.501,14.421c-3.039,0-6.077,0.02-9.116-0.008c-1.807-0.016-2.82-0.92-2.812-2.407
		c0.009-1.491,1.057-2.431,2.803-2.435C18.547,9.559,24.719,9.56,30.89,9.574c1.635,0.004,2.738,0.97,2.773,2.345
		c0.037,1.44-1.068,2.49-2.766,2.508c-3.132,0.033-6.264,0.009-9.397,0.009C21.501,14.432,21.501,14.426,21.501,14.421z"/>
	<path fill="#0004cad9" d="M95.821,14.403c-0.793,0-1.589,0.042-2.38-0.009c-1.321-0.085-2.272-1.098-2.288-2.363
		c-0.016-1.255,0.931-2.379,2.227-2.433c1.77-0.073,3.549-0.079,5.319,0.007c1.225,0.06,2.155,1.179,2.163,2.358
		c0.008,1.194-0.88,2.285-2.105,2.405c-0.97,0.095-1.957,0.019-2.936,0.019C95.821,14.393,95.821,14.398,95.821,14.403z"/>
	<path fill="#0004cad9" d="M67.198,9.569c0.84,0,1.684-0.044,2.521,0.01c1.382,0.09,2.333,1.152,2.308,2.496
		c-0.024,1.286-0.944,2.282-2.305,2.332c-1.679,0.062-3.363,0.06-5.041,0c-1.409-0.05-2.308-1.089-2.285-2.485
		c0.022-1.32,0.913-2.262,2.282-2.339c0.838-0.047,1.68-0.009,2.521-0.009C67.198,9.572,67.198,9.571,67.198,9.569z"/>
	<path fill="#0004cad9" d="M110.363,14.389c-0.886,0-1.778,0.062-2.658-0.015c-1.228-0.107-2.166-1.175-2.17-2.342
		c-0.005-1.19,0.895-2.353,2.103-2.415c1.862-0.096,3.736-0.09,5.597,0.006c1.124,0.058,2.002,1.205,2.023,2.337
		c0.022,1.186-0.888,2.255-2.097,2.414c-0.46,0.061-0.932,0.039-1.398,0.046c-0.467,0.007-0.934,0.001-1.4,0.001
		C110.363,14.41,110.363,14.399,110.363,14.389z"/>
	<path fill="#0004cad9" d="M124.688,14.394c-0.839,0-1.683,0.051-2.517-0.012c-1.281-0.097-2.147-1.04-2.193-2.288
		c-0.048-1.294,0.839-2.428,2.139-2.491c1.768-0.086,3.546-0.076,5.316-0.004c1.242,0.051,2.165,1.102,2.204,2.299
		c0.042,1.296-0.832,2.323-2.152,2.485c-0.461,0.057-0.931,0.046-1.397,0.054c-0.466,0.008-0.933,0.002-1.399,0.002
		C124.688,14.425,124.688,14.41,124.688,14.394z"/>
	<path fill="#0004cad9" d="M81.666,9.579c0.839,0,1.682-0.049,2.517,0.011c1.356,0.098,2.221,1.07,2.225,2.402
		c0.003,1.319-0.866,2.332-2.222,2.389c-1.722,0.072-3.452,0.075-5.173,0.001c-1.362-0.058-2.245-1.076-2.242-2.378
		c0.003-1.277,0.93-2.319,2.238-2.414C79.89,9.527,80.78,9.579,81.666,9.579z"/>
	<path fill="#0004cad9" d="M24.046,76.835c-0.013,1.307-1.139,2.437-2.422,2.429c-1.358-0.009-2.513-1.189-2.477-2.532
		c0.034-1.294,1.169-2.43,2.438-2.44C22.922,74.28,24.059,75.456,24.046,76.835z"/>
	<path fill="#0004cad9" d="M31.16,79.255c-1.288-0.015-2.408-1.135-2.417-2.416c-0.009-1.356,1.129-2.486,2.492-2.474
		c1.304,0.012,2.388,1.091,2.414,2.406C33.677,78.1,32.504,79.271,31.16,79.255z"/>
	<path fill="#0004cad9" d="M14.403,76.73c0.026,1.406-1.075,2.547-2.439,2.527c-1.307-0.019-2.383-1.124-2.39-2.453
		c-0.007-1.338,1.049-2.419,2.387-2.443C13.296,74.337,14.378,75.387,14.403,76.73z"/>
	<path fill="#0004cad9" d="M59.916,131.944c1.366-0.026,2.501,1.08,2.516,2.448c0.014,1.305-1.033,2.403-2.351,2.465
		c-1.338,0.063-2.473-1.055-2.494-2.456C57.567,133.058,58.6,131.969,59.916,131.944z"/>
	<path fill="#0004cad9" d="M72.012,134.469c-0.032,1.361-1.093,2.392-2.442,2.373c-1.331-0.019-2.384-1.1-2.377-2.44
		c0.007-1.402,1.139-2.508,2.514-2.455C71.008,131.997,72.043,133.13,72.012,134.469z"/>
	<path fill="#0004cad9" d="M81.603,134.365c0.018,1.356-1.006,2.439-2.34,2.475c-1.356,0.036-2.431-0.977-2.478-2.338
		c-0.048-1.401,1.042-2.551,2.421-2.555C80.55,131.944,81.584,132.987,81.603,134.365z"/>
	<path fill="#0004cad9" d="M108.081,74.301c1.294,0.038,2.376,1.166,2.377,2.477c0.001,1.349-1.199,2.525-2.526,2.477
		c-1.304-0.047-2.403-1.182-2.388-2.467C105.56,75.452,106.773,74.263,108.081,74.301z"/>
	<path fill="#0004cad9" d="M117.567,74.358c1.365,0.002,2.513,1.148,2.494,2.489c-0.018,1.263-1.167,2.408-2.431,2.421
		c-1.323,0.014-2.488-1.167-2.478-2.512C115.16,75.447,116.26,74.355,117.567,74.358z"/>
	<path fill="#0004cad9" d="M127.214,79.257c-1.339-0.003-2.413-1.069-2.425-2.408c-0.013-1.411,1.091-2.517,2.484-2.491
		c1.316,0.025,2.376,1.136,2.363,2.476C129.624,78.165,128.529,79.26,127.214,79.257z"/>
</g>
</svg>
