<?xml version="1.0" encoding="utf-8"?>
<!-- Generator: Adobe Illustrator 17.0.0, SVG Export Plug-In . SVG Version: 6.00 Build 0)  -->
<!DOCTYPE svg PUBLIC "-//W3C//DTD SVG 1.1//EN" "http://www.w3.org/Graphics/SVG/1.1/DTD/svg11.dtd">
<svg version="1.1" id="Layer_1" xmlns="http://www.w3.org/2000/svg" xmlns:xlink="http://www.w3.org/1999/xlink" x="0px" y="0px"
	 width="144px" height="144px" viewBox="0 0 144 144" enable-background="new 0 0 144 144" xml:space="preserve">
<g>
	<path fill="#0004cad9" d="M112.837,39.044c3.659,1.278,4.798,4.013,4.685,7.671c-0.129,4.174-0.088,8.357-0.001,12.533
		c0.034,1.623-0.607,2.073-2.12,2.009c-1.413-0.059-2.588,0.017-2.536-2.007c0.11-4.295,0.061-8.595,0.04-12.892
		c-0.012-2.579-0.159-2.728-2.775-2.729c-18.146-0.01-36.292-0.004-54.438-0.004c-15.639,0-31.278-0.003-46.916-0.003
		c-0.716,0-1.434,0.049-2.148,0.015c-1.435-0.068-2.113,0.571-2.036,2.02c0.028,0.535-0.014,1.074-0.014,1.611
		c-0.001,29.487-0.002,58.974,0,88.461c0,3.684,0.005,3.692,3.62,3.693c33.725,0.002,67.45,0.001,101.175,0.001
		c0.298,0,0.597-0.001,0.895-0.007c2.501-0.054,2.631-0.146,2.636-2.687c0.02-9.133,0.009-18.265,0.014-27.398
		c0.001-2.202,2.005-3.372,3.977-2.257c0.342,0.193,0.582,0.866,0.583,1.319c0.027,9.849,0.038,19.698-0.008,29.546
		c-0.014,3.127-1.833,5-4.634,6.061c-35.94,0-71.881,0-107.821,0c-2.53-0.627-4.148-2.238-5.015-4.657c0-31.881,0-63.761,0-95.642
		c0.804-2.3,2.378-3.831,4.657-4.657C40.717,39.044,76.777,39.044,112.837,39.044z"/>
	<path fill="#0004cad9" d="M144.001,71.999c-2.196,2.605-4.393,5.209-6.683,7.926c-0.863-0.756-1.372-1.154-1.827-1.606
		c-4.989-4.964-9.938-9.969-14.977-14.882c-1.251-1.22-1.251-2.055,0.039-3.187c1.386-1.217,2.579-2.651,3.938-3.901
		c2.215-2.037,5.271-2.118,7.434-0.041c3.613,3.469,7.119,7.05,10.624,10.629c0.603,0.616,0.974,1.459,1.453,2.197
		C144.001,70.089,144.001,71.044,144.001,71.999z M125.582,61.735c3.901,3.865,7.777,7.705,11.721,11.613
		c0.114-0.13,0.303-0.344,0.49-0.558c2.018-2.301,2.012-2.296-0.1-4.403c-2.361-2.354-4.718-4.711-7.061-7.083
		c-2.43-2.461-2.688-2.458-4.941,0.226C125.622,61.613,125.587,61.725,125.582,61.735z"/>
	<path fill="#0004cad9" d="M11.961,68.695c0,21.191,0,42.181,0,63.307c31.166,0,62.339,0,93.713,0c0-3.841,0-7.642,0-11.444
		c0-0.836-0.001-1.671,0-2.507c0.003-2.645,0.566-3.143,3.231-2.589c0.472,0.098,1.167,0.789,1.173,1.213
		c0.08,6.207,0.087,12.416,0.007,18.622c-0.006,0.454-0.746,1.035-1.273,1.302c-0.429,0.218-1.052,0.057-1.59,0.057
		c-32.294,0.001-64.589,0.001-96.883,0c-2.994,0-2.996-0.001-2.996-2.905c-0.001-22.326-0.001-44.651,0-66.977
		c0-2.644,0.005-2.646,2.708-2.646c31.697,0,63.395,0,95.092,0c0.358,0,0.717-0.006,1.074,0.004c2.01,0.055,2.595,0.549,2.544,2.143
		c-0.069,2.142-0.353,2.417-2.559,2.417c-30.623,0.002-61.246,0.001-91.869,0.001C13.575,68.695,12.816,68.695,11.961,68.695z"/>
	<path fill="#0004cad9" d="M97.613,116.753c-2.408-0.111-3.786-1.607-5.245-3.314c-2.104-2.462-4.325-4.949-6.928-6.828
		c-3.747-2.705-4.514-6.715-1.249-9.995c10.95-11.002,21.932-21.972,32.916-32.939c0.675-0.674,1.332-1.706,2.498-0.549
		c1.764,1.75,1.935,2.502,0.595,3.845c-10.247,10.27-20.507,20.526-30.763,30.786c-0.38,0.38-0.803,0.726-1.131,1.146
		c-0.649,0.831-2.089,1.372-1.393,2.771c0.751,1.51,2,0.764,3.139,0.487c1.825-0.445,2.313,0.078,1.867,1.925
		c-0.098,0.406-0.249,0.801-0.319,1.21c-0.249,1.464,0.591,2.266,2.069,1.966c0.524-0.107,1.025-0.328,1.55-0.436
		c1.445-0.296,1.834,0.145,1.573,1.586c-0.217,1.198-1.311,2.644,0.374,3.501c1.524,0.775,2.218-0.779,3.038-1.595
		c10.536-10.487,21.038-21.008,31.553-31.516c1.272-1.271,3.868-0.687,4.376,1.007c0.099,0.33-0.079,0.823-0.282,1.144
		c-0.282,0.446-0.697,0.813-1.076,1.192c-10.591,10.602-21.19,21.195-31.772,31.806C101.481,115.477,99.828,116.665,97.613,116.753z
		"/>
	<path fill="#0004cad9" d="M82.202,52.603c1.18-3.699,3.552-5.649,6.828-5.714c3.398-0.067,5.788,1.751,6.982,5.05
		c1.149-1.288,2.247-2.921,3.723-4.066c1.618-1.255,3.671-1.28,5.653-0.657c3.076,0.967,5.115,3.947,4.885,7.119
		c-0.233,3.219-2.572,5.868-5.726,6.485c-3.544,0.693-6.411-1.137-8.325-5.446c-1.313,3.697-3.746,5.833-7.678,5.479
		c-3.32-0.299-5.377-2.311-6.17-5.122c-1.027,1.236-2.035,2.822-3.4,3.993c-1.51,1.295-3.475,1.471-5.433,0.983
		c-3.312-0.826-5.592-3.802-5.432-7.072c0.163-3.337,2.672-6.159,5.937-6.677C77.746,46.37,80.608,48.301,82.202,52.603z
		 M91.704,53.937c0.024-1.338-1.112-2.476-2.504-2.44c-1.46,0.038-2.319,0.84-2.467,2.274c-0.135,1.317,1.048,2.516,2.397,2.552
		C90.498,56.361,91.681,55.264,91.704,53.937z M75.203,51.494c-1.458-0.008-2.53,1.049-2.492,2.46
		c0.034,1.304,1.106,2.348,2.431,2.37c1.36,0.022,2.529-1.14,2.503-2.489C77.619,52.527,76.55,51.502,75.203,51.494z
		 M105.678,53.917c0.015-1.38-0.928-2.367-2.317-2.425c-1.411-0.059-2.564,1.012-2.564,2.381c0,1.313,1.037,2.392,2.344,2.442
		C104.574,56.37,105.662,55.341,105.678,53.917z"/>
	<path fill="#0004cad9" d="M17.495,85.602c0-3.102,0.038-6.205-0.018-9.307c-0.023-1.288,0.408-1.817,1.753-1.808
		c6.264,0.045,12.529,0.043,18.793,0.001c1.285-0.009,1.825,0.399,1.816,1.744c-0.043,6.324-0.042,12.648,0,18.972
		c0.008,1.291-0.427,1.83-1.754,1.823c-6.264-0.035-12.529-0.042-18.793,0.004c-1.441,0.011-1.846-0.597-1.818-1.945
		C17.54,91.927,17.495,88.765,17.495,85.602z M22.091,92.323c4.466,0,8.794,0,13.196,0c0-4.41,0-8.724,0-13.091
		c-4.444,0-8.77,0-13.196,0C22.091,83.597,22.091,87.868,22.091,92.323z"/>
	<path fill="#0004cad9" d="M44.424,113.252c-8.176,0-16.352-0.034-24.528,0.03c-1.566,0.012-2.27-0.342-2.251-2.063
		c0.019-1.638,0.431-2.337,2.226-2.331c16.352,0.055,32.704,0.054,49.056,0c1.73-0.006,2.097,0.663,2.105,2.23
		c0.008,1.568-0.355,2.191-2.081,2.173C60.776,113.204,52.6,113.252,44.424,113.252z"/>
	<path fill="#0004cad9" d="M66.408,77.121c6.319,0,12.639,0.03,18.957-0.022c1.521-0.012,2.349,0.344,2.285,2.079
		c-0.079,2.136-0.216,2.441-2.297,2.445c-12.638,0.023-25.277,0.028-37.915,0.008c-2.202-0.004-3.315-1.913-2.18-3.811
		c0.264-0.441,1.203-0.665,1.834-0.669C53.531,77.102,59.97,77.121,66.408,77.121z"/>
	<path fill="#0004cad9" d="M37.62,126.458c-6.026,0-12.053-0.053-18.078,0.035c-1.629,0.024-1.89-0.703-1.873-2.051
		c0.016-1.307,0.029-2.323,1.832-2.316c12.052,0.047,24.104,0.051,36.156-0.003c1.962-0.009,1.626,1.221,1.678,2.394
		c0.053,1.185,0.012,2.006-1.638,1.979C49.673,126.399,43.646,126.458,37.62,126.458z"/>
	<path fill="#0004cad9" d="M92.841,118.106c-3.892,1.138-7.651,2.24-11.411,3.336c-1.258,0.367-2.511,0.752-3.781,1.068
		c-1.142,0.284-1.614-0.227-1.293-1.345c1.364-4.75,2.759-9.491,4.128-14.24c0.269-0.934,0.828-1.265,1.53-0.553
		c3.554,3.606,7.057,7.262,10.569,10.91C92.688,117.392,92.688,117.603,92.841,118.106z"/>
	<path fill="#0004cad9" d="M57.996,90.731c-3.695,0-7.393-0.085-11.085,0.036c-1.822,0.06-1.818-0.906-1.829-2.228
		c-0.012-1.388,0.171-2.234,1.909-2.217c7.33,0.073,14.662,0.079,21.992-0.004c1.811-0.02,2.018,0.814,2.023,2.298
		c0.005,1.433-0.216,2.2-1.926,2.148C65.389,90.653,61.691,90.731,57.996,90.731z"/>
	<path fill="#0004cad9" d="M122.172,80.409c-0.69-0.952-1.519-1.84-1.999-2.887c-0.186-0.404,0.328-1.234,0.688-1.756
		c0.396-0.576,0.981-1.023,1.485-1.526c1.822-1.818,1.779-1.774,3.601-0.005c0.969,0.942,1.147,1.676,0.045,2.618
		c-0.808,0.691-1.493,1.523-2.253,2.272c-0.289,0.285-0.633,0.514-0.951,0.768C122.582,80.065,122.377,80.237,122.172,80.409z"/>
	<path fill="#0004cad9" d="M100.468,101.233c-1.205,1.357-2.285,2.689-3.51,3.871c-0.291,0.281-1.151,0.24-1.596,0.027
		c-0.557-0.266-1.147-0.786-1.37-1.339c-0.228-0.562-0.265-1.45,0.038-1.923c0.53-0.827,1.463-1.383,2.086-2.166
		c1.127-1.417,2.097-1.22,3.104,0.092C99.573,100.257,99.981,100.676,100.468,101.233z"/>
	<path fill="#0004cad9" d="M111.072,85.603c0.732,0.714,1.624,1.409,2.246,2.295c0.188,0.268-0.289,1.112-0.604,1.599
		c-0.382,0.59-0.901,1.096-1.387,1.613c-1.844,1.962-3.006,1.843-4.354-0.507c-0.194-0.337-0.239-1.046-0.023-1.283
		c1.075-1.181,2.256-2.265,3.411-3.372C110.481,85.832,110.673,85.792,111.072,85.603z"/>
	<path fill="#0004cad9" d="M48.649,115.449c0.358,0,0.719-0.03,1.073,0.006c0.926,0.093,2.141-0.381,2.237,1.277
		c0.127,2.185-0.213,2.797-1.965,3.034c-0.706,0.095-1.427,0.162-2.137,0.133c-2.077-0.085-3.129-1.44-2.582-3.446
		c0.112-0.412,0.761-0.84,1.236-0.954c0.677-0.162,1.422-0.041,2.137-0.041C48.649,115.454,48.649,115.451,48.649,115.449z"/>
	<path fill="#0004cad9" d="M39.47,119.893c-0.298,0-0.596,0.002-0.894,0c-2.152-0.013-3.204-1.739-2.217-3.693
		c0.14-0.276,0.502-0.611,0.773-0.621c1.544-0.058,3.15-0.256,4.606,0.107c0.486,0.121,0.764,1.752,0.803,2.707
		c0.019,0.478-0.619,1.19-1.13,1.425c-0.541,0.248-1.285,0.056-1.941,0.056C39.47,119.88,39.47,119.886,39.47,119.893z"/>
	<path fill="#0004cad9" d="M67.138,105.311c-0.178,0-0.355,0-0.533,0c-2.663-0.002-3.325-0.585-2.627-3.131
		c0.67-2.442,2.898-0.788,4.38-1.149c0.864-0.21,1.908-0.278,2.08,1.184C70.761,104.975,70.449,105.311,67.138,105.311z"/>
	<path fill="#0004cad9" d="M118.044,78.658c0.706,0.932,1.548,1.798,2.048,2.83c0.184,0.38-0.332,1.235-0.718,1.723
		c-0.585,0.738-1.382,1.305-2.004,2.018c-0.877,1.006-1.599,0.879-2.526,0.008c-1.771-1.665-1.81-1.663-0.112-3.486
		c0.606-0.651,1.172-1.34,1.792-1.977c0.274-0.281,0.637-0.475,0.96-0.709C117.671,78.93,117.857,78.794,118.044,78.658z"/>
	<path fill="#0004cad9" d="M102.618,99.035c-0.749-0.731-1.645-1.373-2.174-2.238c-0.206-0.338,0.319-1.242,0.678-1.776
		c0.459-0.685,1.023-1.332,1.658-1.855c0.543-0.447,1.618-1.13,1.82-0.958c0.868,0.737,1.524,1.735,2.192,2.684
		c0.094,0.133-0.105,0.591-0.289,0.781c-0.952,0.982-1.934,1.935-2.93,2.873C103.373,98.733,103.069,98.809,102.618,99.035z"/>
	<path fill="#0004cad9" d="M57.858,119.919c-0.296,0-0.592,0.002-0.889,0c-2.16-0.014-3.189-1.688-2.213-3.656
		c0.132-0.266,0.494-0.581,0.759-0.591c1.537-0.058,3.103-0.186,4.599,0.067c0.425,0.072,0.802,1.315,0.921,2.065
		c0.132,0.83,0.233,1.899-1.049,2.062c-0.699,0.089-1.419,0.016-2.129,0.016C57.858,119.894,57.858,119.906,57.858,119.919z"/>
	<path fill="#0004cad9" d="M66.585,119.974c-1.08-0.108-2.794,0.54-2.742-1.884c0.05-2.337,0.13-2.518,2.485-2.528
		c0.535-0.002,1.072-0.015,1.606,0.003c1.196,0.04,2.632-0.365,2.616,1.676c-0.015,1.909-0.685,2.668-2.663,2.732
		C67.531,119.984,67.174,119.974,66.585,119.974z"/>
	<path fill="#0004cad9" d="M29.98,105.324c-0.179,0-0.357,0-0.536,0c-2.74-0.001-3.013-0.283-2.536-3.108
		c0.076-0.452,0.719-1.049,1.187-1.142c0.917-0.182,1.895-0.059,2.847-0.058c2.395,0.003,2.395,0.004,2.371,2.363
		C33.293,105.324,33.293,105.324,29.98,105.324z"/>
	<path fill="#0004cad9" d="M39.532,101.015c0.178,0,0.357,0,0.535,0c2.56,0.002,3.375,0.774,2.507,3.192
		c-0.815,2.273-3.101,0.683-4.682,1.061c-0.87,0.208-1.594-0.075-1.713-1.242C35.892,101.216,36.078,101.015,39.532,101.015z"/>
	<path fill="#0004cad9" d="M21.038,100.989c0.178,0,0.357,0,0.535,0c2.454,0.001,3.507,1.162,2.439,3.351
		c-1.001,2.052-3.291,0.681-4.986,0.887c-0.381,0.046-1.209-0.873-1.277-1.417C17.412,101.114,17.616,100.989,21.038,100.989z"/>
	<path fill="#0004cad9" d="M48.485,105.3c-0.356,0-0.73,0.07-1.065-0.015c-0.643-0.163-1.743-0.322-1.805-0.645
		c-0.204-1.068-0.073-2.214,0.049-3.316c0.017-0.15,0.712-0.298,1.101-0.319c0.888-0.048,1.781-0.018,2.672-0.017
		c2.36,0.003,2.505,0.154,2.423,2.518C51.798,105.277,51.755,105.301,48.485,105.3z"/>
	<path fill="#0004cad9" d="M57.938,101.004c0.358-0.001,0.722,0.04,1.073-0.008c1.621-0.223,2.198,0.411,2.217,2.088
		c0.019,1.75-0.582,2.43-2.287,2.237c-0.53-0.06-1.073-0.009-1.61-0.009c-2.655-0.002-3.135-0.536-2.597-3.2
		c0.087-0.434,0.756-0.911,1.25-1.062C56.583,100.865,57.282,101.005,57.938,101.004z"/>
	<path fill="#0004cad9" d="M30.16,115.561c0.237,0,0.475,0,0.712,0c2.36,0.006,3.441,1.296,2.344,3.44
		c-1.001,1.956-3.212,0.602-4.861,0.808c-0.424,0.053-1.307-0.785-1.398-1.315C26.505,115.882,26.916,115.561,30.16,115.561z"/>
	<path fill="#0004cad9" d="M20.922,115.561c0.238,0,0.477-0.001,0.715,0c2.402,0.007,3.414,1.129,2.396,3.274
		c-0.979,2.064-3.193,0.563-4.815,0.913c-0.853,0.184-1.443-0.232-1.585-1.228C17.272,115.986,17.719,115.561,20.922,115.561z"/>
</g>
</svg>
