<?xml version="1.0" encoding="utf-8"?>
<!-- Generator: Adobe Illustrator 17.0.0, SVG Export Plug-In . SVG Version: 6.00 Build 0)  -->
<!DOCTYPE svg PUBLIC "-//W3C//DTD SVG 1.1//EN" "http://www.w3.org/Graphics/SVG/1.1/DTD/svg11.dtd">
<svg version="1.1" id="Layer_1" xmlns="http://www.w3.org/2000/svg" xmlns:xlink="http://www.w3.org/1999/xlink" x="0px" y="0px"
	 width="144px" height="144px" viewBox="0 0 144 144" enable-background="new 0 0 144 144" xml:space="preserve">
<g>
	<path fill="#ffffff" d="M0,144c0.036-0.512,0.104-1.023,0.104-1.535c0.004-39.09,0.002-78.18,0-117.27c0-0.88,0-1.761,0-2.776
		c4.048,0,7.921,0,11.952,0c0-3.774,0-7.413,0-11.219c3.643,0,7.133,0,10.75,0c0-3.805,0-7.445,0-11.201c29.285,0,58.442,0,87.775,0
		c0,25.046,0,50.117,0,75.317c9.069,0,17.964,0,26.838,0c1.674,10.577-5.193,18.081-14.14,18.153
		c-7.179,0.058-14.359,0.009-21.539,0.007c-0.648,0-1.295,0-2.138,0c0,13.106,0,26.073,0,39.18c-4.066,0-7.939,0-12.022,0
		c0,3.874,0,7.609,0,11.343C58.386,144,29.193,144,0,144z M27.32,4.317c-0.027,0.51-0.067,0.921-0.067,1.331
		c-0.001,23.512-0.006,47.024,0.008,70.536c0.003,5.524,3.53,10.366,8.743,12.227c6.551,2.338,15.57-1.283,15.038-10.565
		c-0.05-0.869-0.007-1.743-0.007-2.752c18.479,0,36.758,0,55.095,0c0-23.671,0-47.195,0-70.778
		C79.854,4.317,53.678,4.317,27.32,4.317z M16.507,15.6c0,37.717,0,75.276,0,112.836c26.286,0,52.442,0,78.611,0
		c0-11.686,0-23.249,0-34.959c-0.85,0-1.593,0-2.336,0c-17.317,0-34.633,0.008-51.95-0.016c-1.399-0.002-2.828-0.089-4.191-0.378
		c-8.535-1.813-14.011-8.797-14.009-17.763c0.003-19.334,0.005-38.669,0.007-58.003c0-0.547,0-1.095,0-1.716
		C20.513,15.6,18.561,15.6,16.507,15.6z M12.088,132.901c0-35.457,0-70.711,0-105.995c-2.629,0-5.079,0-7.53,0
		c0,37.583,0,75.046,0,112.557c26.25,0,52.401,0,78.747,0c0-1.584,0.003-3.075-0.001-4.565c-0.005-1.995-0.008-1.997-1.976-1.997
		c-22.474,0-44.947,0-67.421,0C13.359,132.901,12.811,132.901,12.088,132.901z M51.346,89.049c0.764,0.04,1.171,0.08,1.579,0.08
		c23.553,0.003,47.107,0.006,70.66-0.009c0.835-0.001,1.69-0.102,2.502-0.294c4.164-0.985,7.575-5.305,7.282-9.257
		c-25.951,0-51.908,0-77.939,0C55.094,83.101,53.92,86.21,51.346,89.049z"/>
	<path fill="#ffffff" d="M42.627,26.721c0-1.409,0-2.749,0-4.203c16.297,0,32.588,0,48.964,0c0,1.4,0,2.777,0,4.203
		C75.232,26.721,58.974,26.721,42.627,26.721z"/>
	<path fill="#ffffff" d="M91.599,31.527c0,1.374,0,2.714,0,4.165c-16.315,0-32.6,0-48.979,0c0-1.375,0-2.715,0-4.165
		C58.927,31.527,75.215,31.527,91.599,31.527z"/>
	<path fill="#ffffff" d="M42.582,44.744c0-1.476,0-2.783,0-4.202c16.341,0,32.632,0,49.006,0c0,1.398,0,2.776,0,4.202
		C75.231,44.744,58.974,44.744,42.582,44.744z"/>
	<path fill="#ffffff" d="M91.601,49.515c0,1.489,0,2.828,0,4.239c-16.349,0-32.604,0-48.965,0c0-1.421,0-2.793,0-4.239
		C58.965,49.515,75.223,49.515,91.601,49.515z"/>
	<path fill="#ffffff" d="M42.641,58.511c11.172,0,22.182,0,33.319,0c0,1.425,0,2.793,0,4.244c-11.115,0-22.16,0-33.319,0
		C42.641,61.357,42.641,59.987,42.641,58.511z"/>
	<path fill="#ffffff" d="M29.706,107.812c0-1.406,0-2.748,0-4.197c16.305,0,32.599,0,48.995,0c0,1.367,0,2.74,0,4.197
		C62.365,107.812,46.072,107.812,29.706,107.812z"/>
	<path fill="#ffffff" d="M67.469,112.595c0,1.429,0,2.769,0,4.211c-12.575,0-25.113,0-37.746,0c0-1.387,0-2.761,0-4.211
		C42.284,112.595,54.788,112.595,67.469,112.595z"/>
</g>
</svg>
