<?xml version="1.0" encoding="utf-8"?>
<!-- Generator: Adobe Illustrator 17.0.0, SVG Export Plug-In . SVG Version: 6.00 Build 0)  -->
<!DOCTYPE svg PUBLIC "-//W3C//DTD SVG 1.1//EN" "http://www.w3.org/Graphics/SVG/1.1/DTD/svg11.dtd">
<svg version="1.1" id="Layer_1" xmlns="http://www.w3.org/2000/svg" xmlns:xlink="http://www.w3.org/1999/xlink" x="0px" y="0px"
	 width="42px" height="42px" viewBox="0 0 42 42" enable-background="new 0 0 42 42" xml:space="preserve">
<g>
	<path fill="#707070" d="M18.782,42c-1.998-0.489-3.992-0.997-5.996-1.463c-2.046-0.476-4.101-0.913-6.154-1.361
		c-1.063-0.232-2.124-0.079-3.178,0.07c-0.701,0.099-1.395,0.25-2.088,0.393c-0.853,0.176-1.363-0.22-1.363-1.08
		c-0.001-2.706,0-5.412,0-8.118c0-0.122,0-0.244,0-0.358c0.041-0.021,0.07-0.047,0.084-0.041c1.172,0.515,2.254-0.025,3.337-0.327
		c1.194-0.332,2.336-0.868,3.54-1.146c3.385-0.782,6.556-0.217,9.457,1.738c0.815,0.549,1.628,1.104,2.463,1.621
		c1.137,0.703,2.342,0.914,3.686,0.626c1.433-0.308,2.901-0.366,4.351-0.012c0.85,0.207,1.579,0.59,2.047,1.379
		c0.051,0.086,0.304,0.111,0.443,0.079c1.7-0.399,3.389-0.847,5.095-1.215c1.549-0.334,3.118-0.579,4.712-0.523
		c0.42,0.015,0.842,0.089,1.253,0.179c0.755,0.164,1.231,0.663,1.525,1.357c0,0.164,0,0.328,0,0.492
		c-0.244,0.645-0.744,1.029-1.348,1.293c-0.374,0.163-0.758,0.31-1.147,0.431C33.061,38.011,26.619,40.005,20.177,42
		C19.712,42,19.247,42,18.782,42z M14.472,36.288c-0.002-0.046-0.004-0.093-0.006-0.139c0.327,0,0.656,0.023,0.981-0.004
		c1.645-0.138,3.289-0.126,4.89,0.285c1.434,0.368,2.813,0.368,4.225-0.092c1.01-0.329,2.056-0.547,3.09-0.799
		c0.298-0.073,0.342-0.233,0.301-0.504c-0.104-0.69-0.584-0.987-1.179-1.156c-1.323-0.377-2.673-0.31-3.981-0.021
		c-1.638,0.362-3.122,0.08-4.522-0.758c-0.855-0.511-1.675-1.081-2.501-1.639c-2.838-1.917-5.902-2.391-9.179-1.422
		c-1.334,0.394-2.647,0.856-3.975,1.272c-0.397,0.125-0.81,0.2-1.2,0.294c0,2.222,0,4.406,0,6.61
		c0.415-0.068,0.803-0.129,1.19-0.196c1.876-0.327,3.74-0.373,5.609,0.094c3.217,0.804,6.443,1.577,9.667,2.353
		c1.222,0.294,2.428,0.312,3.609-0.227c0.482-0.22,0.997-0.372,1.505-0.529c5.49-1.696,10.982-3.384,16.47-5.085
		c0.404-0.125,0.78-0.338,1.169-0.511c-0.002-0.051-0.004-0.102-0.006-0.154c-0.161-0.082-0.314-0.212-0.483-0.238
		c-0.47-0.073-0.95-0.161-1.421-0.139c-3.814,0.174-7.442,1.268-11.076,2.309c-1.388,0.398-2.745,0.904-4.122,1.342
		c-0.745,0.237-1.494,0.19-2.265,0.04c-1.592-0.31-3.195-0.57-4.799-0.817C15.805,36.357,15.135,36.342,14.472,36.288z"/>
	<path fill="#707070" d="M41.997,11.977c-1.407-0.568-2.673,0.116-3.964,0.474c-1.116,0.31-2.183,0.825-3.311,1.052
		c-3.277,0.659-6.346,0.087-9.142-1.803c-0.927-0.626-1.857-1.254-2.825-1.812c-0.92-0.53-1.909-0.712-2.996-0.489
		c-1.476,0.303-2.979,0.42-4.478,0.108c-0.922-0.192-1.737-0.561-2.251-1.421c-0.053-0.089-0.302-0.122-0.438-0.089
		c-1.433,0.343-2.848,0.774-4.294,1.043C6.636,9.351,4.954,9.554,3.273,9.737C2.501,9.821,1.717,9.718,0.997,9.356
		C-0.248,8.73-0.347,7.444,0.832,6.713c0.503-0.312,1.075-0.54,1.643-0.716C7.973,4.289,13.478,2.601,18.98,0.904
		C19.929,0.611,20.872,0.302,21.818,0c0.465,0,0.93,0,1.395,0c0.478,0.1,0.959,0.186,1.433,0.302
		c2.887,0.705,5.766,1.449,8.663,2.111c1.15,0.263,2.341,0.487,3.511,0.477c1.227-0.01,2.456-0.298,3.676-0.511
		c0.739-0.129,1.083-0.036,1.502,0.573C41.997,5.961,41.997,8.969,41.997,11.977z M27.534,5.713
		c-0.002,0.043-0.004,0.085-0.006,0.128c-0.294,0-0.59-0.023-0.882,0.004c-1.825,0.17-3.625,0.043-5.419-0.336
		c-0.699-0.148-1.455-0.321-2.137-0.202C17.575,5.571,16.087,6,14.595,6.388c-0.625,0.163-0.742,0.505-0.382,1.058
		c0.128,0.197,0.331,0.372,0.54,0.481c0.261,0.138,0.557,0.226,0.848,0.286c1.197,0.249,2.414,0.206,3.583-0.068
		c1.654-0.388,3.147-0.073,4.56,0.765c0.821,0.487,1.606,1.037,2.398,1.572c3.034,2.053,6.279,2.521,9.748,1.308
		c1.557-0.545,3.094-1.158,4.801-1.295c0-0.453,0-0.888,0-1.323c0-1.641,0.001-3.281-0.001-4.922c0-0.357-0.161-0.517-0.444-0.455
		c-0.279,0.06-0.555,0.134-0.837,0.176c-1.584,0.236-3.167,0.454-4.763,0.074c-3.213-0.765-6.43-1.511-9.64-2.29
		c-1.079-0.262-2.153-0.579-3.268-0.355c-0.61,0.122-1.19,0.386-1.788,0.57c-4.342,1.34-8.687,2.672-13.028,4.017
		C5.293,6.494,3.67,7.022,2.05,7.555C1.806,7.635,1.589,7.8,1.36,7.925c0.004,0.044,0.007,0.088,0.011,0.132
		C1.55,8.138,1.724,8.267,1.91,8.29c0.526,0.065,1.068,0.171,1.586,0.109c1.57-0.187,3.15-0.364,4.693-0.697
		c2.039-0.44,4.055-0.992,6.063-1.56c1.363-0.386,2.694-0.885,4.041-1.327c0.825-0.271,1.646-0.247,2.502-0.078
		c1.618,0.32,3.251,0.567,4.882,0.817C26.29,5.647,26.915,5.662,27.534,5.713z"/>
	<path fill="#707070" d="M28.211,21.021c-0.015,3.975-3.277,7.209-7.256,7.193c-3.983-0.016-7.194-3.292-7.171-7.317
		c0.023-3.888,3.306-7.124,7.213-7.11C24.986,13.802,28.225,17.051,28.211,21.021z M15.088,20.948
		c-0.029,3.26,2.593,5.925,5.867,5.962c3.226,0.037,5.926-2.611,5.952-5.837c0.026-3.256-2.585-5.946-5.807-5.981
		C17.8,15.056,15.117,17.669,15.088,20.948z"/>
	<path fill="#707070" d="M19.022,23.247c0.119-0.362,0.215-0.656,0.304-0.93c0.458,0.13,0.881,0.265,1.313,0.365
		c0.165,0.038,0.372,0.044,0.52-0.023c0.18-0.082,0.414-0.236,0.447-0.396c0.033-0.158-0.114-0.408-0.256-0.535
		c-0.188-0.167-0.447-0.253-0.677-0.373c-0.217-0.113-0.446-0.21-0.652-0.341c-0.494-0.316-0.801-0.754-0.726-1.365
		c0.079-0.646,0.465-1.059,1.074-1.268c0.14-0.048,0.286-0.082,0.45-0.129c0.033-0.249,0.067-0.501,0.103-0.77
		c0.259,0,0.501,0,0.743,0c0.024,0.05,0.06,0.09,0.054,0.12c-0.102,0.493,0.079,0.705,0.596,0.787
		c0.652,0.104,0.647,0.161,0.439,0.773c-0.039,0.115-0.084,0.227-0.129,0.349c-0.338-0.1-0.655-0.214-0.982-0.283
		c-0.196-0.042-0.421-0.062-0.605-0.003c-0.158,0.051-0.356,0.21-0.387,0.353c-0.029,0.136,0.094,0.378,0.223,0.461
		c0.353,0.228,0.747,0.392,1.119,0.591c0.859,0.459,1.171,1.158,0.877,1.96c-0.194,0.53-0.587,0.876-1.124,0.976
		c-0.376,0.07-0.464,0.244-0.443,0.572c0.008,0.119-0.026,0.24-0.042,0.371c-0.276,0-0.529,0-0.77,0
		c-0.025-0.049-0.047-0.072-0.048-0.095c-0.008-0.684-0.009-0.678-0.67-0.879C19.53,23.462,19.296,23.354,19.022,23.247z"/>
</g>
</svg>
