<?xml version="1.0" encoding="utf-8"?>
<!-- Generator: Adobe Illustrator 17.0.0, SVG Export Plug-In . SVG Version: 6.00 Build 0)  -->
<!DOCTYPE svg PUBLIC "-//W3C//DTD SVG 1.1//EN" "http://www.w3.org/Graphics/SVG/1.1/DTD/svg11.dtd">
<svg version="1.1" id="Layer_1" xmlns="http://www.w3.org/2000/svg" xmlns:xlink="http://www.w3.org/1999/xlink" x="0px" y="0px"
	 width="42px" height="42px" viewBox="0 0 42 42" enable-background="new 0 0 42 42" xml:space="preserve">
<g>
	<path fill="#707070" d="M3,36.75c0-0.184,0-0.32,0-0.456c0-2.765-0.006-5.531,0.009-8.296c0.002-0.36-0.105-0.608-0.363-0.851
		c-0.558-0.523-1.089-1.076-1.627-1.62c-0.458-0.464-0.462-0.828-0.009-1.287c0.559-0.567,1.116-1.138,1.694-1.686
		c0.223-0.211,0.304-0.43,0.303-0.735C2.999,15.646,3.001,9.475,3.001,3.304C3.001,1.314,4.32,0,6.32,0c7.421,0,14.842,0,22.264,0
		c0.459,0,0.919,0.003,1.378,0c1.59-0.011,3.026,1.408,3.035,3.023C33.008,4.99,33,6.958,33,9c0.18,0,0.344,0,0.508,0
		c1.812,0,3.625-0.001,5.437,0c1.633,0.001,3.052,1.41,3.055,3.049c0.005,3.422,0.002,6.843,0,10.265
		c0,0.673-0.262,0.933-0.935,0.934c-1.169,0.003-2.338,0.001-3.541,0.001c-0.008,0.183-0.021,0.333-0.021,0.484
		c-0.002,2.047,0.004,4.093-0.004,6.14c-0.006,1.747-1.382,3.121-3.119,3.125c-1.936,0.004-3.872,0.001-5.879,0.001
		c0,0.187,0,0.352,0,0.516c0,1.797,0.006,3.593-0.002,5.39c-0.008,1.711-1.396,3.092-3.103,3.093
		c-7.421,0.002-14.842,0.002-22.264,0C1.368,41.998-0.003,40.606,0,38.835c0.001-0.422-0.006-0.844,0.003-1.265
		c0.011-0.529,0.286-0.81,0.812-0.818C1.518,36.742,2.221,36.75,3,36.75z M4.501,20.762c1.146-1.151,2.182-2.209,3.242-3.243
		c0.238-0.233,0.238-0.393,0.086-0.673c-0.919-1.699-1.246-3.505-0.99-5.43c0.58-4.359,4.804-7.924,9.202-7.735
		c6.021,0.259,10.422,6.514,8.059,12.301c-1.342,3.287-4.68,5.638-8.225,5.695c-1.67,0.027-3.201-0.433-4.644-1.257
		c-0.072,0.059-0.136,0.102-0.19,0.155c-2.111,2.109-4.224,4.216-6.322,6.337c-0.132,0.133-0.209,0.38-0.209,0.574
		c-0.012,2.953-0.008,5.905-0.007,8.858c0,0.121,0,0.241,0,0.406c0.18,0,0.317,0,0.453,0c2.171,0,4.343-0.001,6.514-0.001
		c3.859,0,7.717-0.001,11.576,0c0.701,0,0.954,0.26,0.955,0.963c0.001,0.422-0.006,0.844,0.002,1.265
		c0.017,0.977,0.567,1.527,1.512,1.521c0.938-0.005,1.473-0.562,1.485-1.548c0.002-0.141,0-0.281,0-0.422
		c0-11.42,0-22.84,0.003-34.259c0-0.928-0.126-1.876,0.439-2.769c-0.236,0-0.391,0-0.546,0c-6.889,0-13.779,0-20.668,0
		c-1.241,0-1.725,0.487-1.726,1.733c0,3.718,0,7.436,0,11.154C4.501,16.463,4.501,18.538,4.501,20.762z M31.787,31.485
		c-0.101-0.592-0.257-1.134-0.275-1.681c-0.041-1.232-0.013-2.467-0.013-3.701c0-7.652,0.001-15.305,0-22.957
		c0-1.122-0.574-1.697-1.623-1.641c-0.892,0.048-1.373,0.6-1.373,1.607c-0.002,9.339-0.001,18.678,0,28.017
		c0,0.118,0.021,0.236,0.032,0.356C29.662,31.485,30.752,31.485,31.787,31.485z M15.711,20.174c4.229,0.019,7.52-3.222,7.539-7.427
		c0.019-4.252-3.225-7.546-7.457-7.571c-4.206-0.025-7.508,3.248-7.546,7.44C8.208,16.834,11.574,20.204,15.711,20.174z M33,10.522
		c0,0.189,0,0.356,0,0.524c0,4.108,0,8.217,0,12.325c0,2.187-0.003,4.374,0.002,6.561c0.002,0.791,0.305,1.266,0.915,1.474
		c1.152,0.394,2.081-0.27,2.082-1.502c0.003-5.483-0.002-10.966,0.005-16.449c0.001-0.987-0.16-2,0.423-2.933
		C35.254,10.522,34.15,10.522,33,10.522z M22.403,38.282c-6.933,0-13.905,0-20.874,0c-0.147,1.333,0.098,2.249,1.99,2.235
		C9.798,40.471,16.078,40.5,22.357,40.5c0.165,0,0.33,0,0.43,0C22.657,39.748,22.534,39.038,22.403,38.282z M40.498,21.728
		c0-0.861,0-1.699,0-2.538c0-2.374,0.004-4.748,0-7.122c-0.001-0.813-0.314-1.282-0.96-1.486c-1.126-0.355-2.034,0.29-2.036,1.467
		c-0.006,3.124-0.003,6.247-0.001,9.371c0,0.103,0.023,0.206,0.035,0.309C38.529,21.728,39.491,21.728,40.498,21.728z M3.527,25.882
		c1.43-1.427,2.819-2.815,4.189-4.182c-0.316-0.335-0.646-0.684-0.918-0.971c-1.415,1.415-2.812,2.811-4.194,4.193
		C2.887,25.216,3.208,25.551,3.527,25.882z M9.867,19.587c-0.35-0.364-0.671-0.699-0.98-1.021c-0.361,0.347-0.702,0.676-1.047,1.007
		c0.345,0.351,0.68,0.69,0.998,1.013C9.186,20.248,9.519,19.925,9.867,19.587z"/>
	<path fill="#707070" d="M6.773,28.469c0-0.499,0-0.962,0-1.447c5.983,0,11.943,0,17.941,0c0,0.467,0,0.941,0,1.447
		C18.75,28.469,12.779,28.469,6.773,28.469z"/>
	<path fill="#707070" d="M24.728,30.03c0,0.5,0,0.962,0,1.447c-5.984,0-11.944,0-17.941,0c0-0.467,0-0.941,0-1.447
		C12.751,30.03,18.722,30.03,24.728,30.03z"/>
	<path fill="#707070" d="M21.73,33.032c0,0.494,0,0.956,0,1.444c-4.982,0-9.942,0-14.941,0c0-0.462,0-0.936,0-1.444
		C11.747,33.032,16.718,33.032,21.73,33.032z"/>
	<path fill="#707070" d="M24.729,24.031c0,0.499,0,0.961,0,1.447c-3.983,0-7.943,0-11.942,0c0-0.466,0-0.94,0-1.447
		C16.751,24.031,20.722,24.031,24.729,24.031z"/>
	<path fill="#707070" d="M9.772,25.467c0-0.496,0-0.958,0-1.443c0.482,0,0.944,0,1.442,0c0,0.464,0,0.937,0,1.443
		C10.753,25.467,10.28,25.467,9.772,25.467z"/>
	<path fill="#707070" d="M9.75,12.752C9.739,9.59,12.532,6.762,15.678,6.75c3.237-0.013,6.055,2.749,6.072,5.952
		c0.017,3.22-2.769,6.041-5.975,6.048C12.558,18.758,9.762,15.974,9.75,12.752z M15.733,17.25c2.595,0.002,4.506-1.895,4.517-4.482
		c0.012-2.583-1.908-4.517-4.482-4.516c-2.616,0.001-4.517,1.907-4.516,4.528C11.254,15.332,13.175,17.248,15.733,17.25z"/>
</g>
</svg>
