<svg id="Layer_1" data-name="Layer 1" xmlns="http://www.w3.org/2000/svg" viewBox="0 0 42 42"><defs><style>.cls-1{fill:#707070;}</style></defs><title>keyword-research</title><path class="cls-1" d="M41.84.16H8.23V20A10,10,0,0,0,8,29.55L1.54,35A3.89,3.89,0,1,0,7,40.46L12.45,34A10,10,0,0,0,23.8,32.43h18ZM40.49,1.51v4H9.57v-4ZM6,39.59a2.5,2.5,0,0,1-1.94.9A2.54,2.54,0,0,1,1.51,38,2.5,2.5,0,0,1,2.41,36l6.24-5.28a10.52,10.52,0,0,0,2.62,2.62Zm11-5.82A8.74,8.74,0,0,1,12.72,17.4a6.2,6.2,0,0,0,.62,1.2,7.4,7.4,0,1,0,9.44,1.88,7.1,7.1,0,0,0,1-.87A8.72,8.72,0,0,1,17,33.77ZM32.43,15v1.34H31.08V15h-4v1.34H24.21l-.16.45A5.39,5.39,0,0,1,19,20.33a5.38,5.38,0,0,1-5.37-5.54,5.43,5.43,0,0,1,5.2-5.21H19a5.38,5.38,0,0,1,5.07,3.59l.16.45H37.13a.67.67,0,0,1,.67.67v1.34a.67.67,0,0,1-.67.67h-.67V15ZM14.2,19.67a6.65,6.65,0,0,0,7.38,1.46A6,6,0,0,1,23,25a6.05,6.05,0,1,1-8.82-5.36ZM25,31.08a10,10,0,0,0-.35-12.54,7,7,0,0,0,.48-.9h3.25V16.29h1.35v1.35h4V16.29h1.35v1.35h2a2,2,0,0,0,2-2V14.28a2,2,0,0,0-2-2h-12a6.73,6.73,0,0,0-6.37-4,6.82,6.82,0,0,0-6.51,6.52,6.52,6.52,0,0,0,.1,1.33A10.05,10.05,0,0,0,9.57,18.2V6.88H40.49v24.2Z"/><path class="cls-1" d="M10.92,2.85h1.34V4.2H10.92Z"/><path class="cls-1" d="M13.61,2.85H15V4.2H13.61Z"/><path class="cls-1" d="M16.29,2.85h1.35V4.2H16.29Z"/><path class="cls-1" d="M17.64,12.26A2.69,2.69,0,1,0,20.33,15,2.7,2.7,0,0,0,17.64,12.26Zm0,4A1.34,1.34,0,1,1,19,15,1.35,1.35,0,0,1,17.64,16.29Z"/><path class="cls-1" d="M32.43,28.39h1.34v1.35H32.43Z"/><path class="cls-1" d="M37.8,28.39h1.35v1.35H37.8Z"/><path class="cls-1" d="M35.12,28.39h1.34v1.35H35.12Z"/><path class="cls-1" d="M29.74,25.71h9.41v1.34H29.74Z"/><path class="cls-1" d="M29.74,23h9.41v1.34H29.74Z"/><path class="cls-1" d="M29.74,20.33h9.41v1.34H29.74Z"/><path class="cls-1" d="M17,29.74V28.39A3.35,3.35,0,0,1,13.61,25H12.26A4.71,4.71,0,0,0,17,29.74Z"/><path class="cls-1" d="M3.72,37.33l.9-.91,1,.95-.9.91Z"/><path class="cls-1" d="M5.57,35.47l.95-.95,1,.95-1,1Z"/><path class="cls-1" d="M7.47,33.57l1-1,.95,1-.95,1Z"/></svg>