<svg id="Layer_1" data-name="Layer 1" xmlns="http://www.w3.org/2000/svg" viewBox="0 0 42 42"><defs><style>.cls-1{fill:#707070;}</style></defs><title>link-building</title><path class="cls-1" d="M38.79,33.06H24.05a.61.61,0,1,0,0,1.22H38.79a.61.61,0,1,0,0-1.22Zm0,3.66H24.05a.62.62,0,0,0-.61.61.61.61,0,0,0,.61.61H38.79a.61.61,0,0,0,.61-.61A.62.62,0,0,0,38.79,36.72ZM24.46,22.83h-2A1.83,1.83,0,0,1,20.59,21a.61.61,0,0,0-.61-.61.61.61,0,0,0-.61.61,3.06,3.06,0,0,0,3.05,3.05h2a3.05,3.05,0,0,0,0-6.1h-.81a.61.61,0,1,0,0,1.22h.81a1.83,1.83,0,0,1,0,3.66ZM38.79,29.4H26.49a.61.61,0,0,0-.61.61.62.62,0,0,0,.61.61h12.3A.62.62,0,0,0,39.4,30,.61.61,0,0,0,38.79,29.4ZM19.58,18h-2a3,3,0,0,0,0,6.1h.81a.61.61,0,1,0,0-1.22h-.81a1.83,1.83,0,0,1,0-3.66h2A1.83,1.83,0,0,1,21.41,21a.61.61,0,0,0,.61.61.61.61,0,0,0,.61-.61A3.06,3.06,0,0,0,19.58,18Zm-1-14.41a.94.94,0,0,0-.94-.94H3.54a.94.94,0,0,0-.94.94V6.41a.94.94,0,0,0,.94.94H17.62a.94.94,0,0,0,.94-.94ZM17.34,6.13H3.83V3.83H17.34Zm1.22,4.5A.62.62,0,0,0,18,10H3.21a.62.62,0,0,0-.61.61.61.61,0,0,0,.61.61H18A.61.61,0,0,0,18.56,10.63ZM13.67,14.3a.61.61,0,0,0-.61-.61H3.21a.61.61,0,0,0-.61.61.62.62,0,0,0,.61.61h9.85A.61.61,0,0,0,13.67,14.3ZM39.6,19.53h-10A8.75,8.75,0,0,0,12.25,21v.24H2.4a1,1,0,0,1-1-1V2.4a1,1,0,0,1,1-1H18.76a1,1,0,0,1,1,1V10A.61.61,0,1,0,21,10V2.4A2.24,2.24,0,0,0,18.76.16H2.4A2.25,2.25,0,0,0,.16,2.4V20.23A2.25,2.25,0,0,0,2.4,22.47h10A8.71,8.71,0,0,0,14,26.21a.62.62,0,0,0,.86.13.61.61,0,0,0,.12-.85,7.58,7.58,0,1,1,1.84,1.75.62.62,0,0,0-.85.17.61.61,0,0,0,.17.85A8.75,8.75,0,0,0,21,29.75V39.6a2.24,2.24,0,0,0,2.24,2.24H39.6a2.25,2.25,0,0,0,2.24-2.24V21.77A2.25,2.25,0,0,0,39.6,19.53ZM29.47,23.2h8.7v2.3H28.5A8.51,8.51,0,0,0,29.47,23.2ZM40.62,39.6a1,1,0,0,1-1,1H23.24a1,1,0,0,1-1-1V29.66a8.74,8.74,0,0,0,5.39-2.94H38.46a.94.94,0,0,0,.94-.93V22.91a.94.94,0,0,0-.94-.93H29.7c0-.32.05-.65.05-1v-.24H39.6a1,1,0,0,1,1,1ZM3.21,17.35a.61.61,0,0,0,0,1.22h7.41a.61.61,0,0,0,0-1.22Z"/></svg>