<svg id="Layer_1" data-name="Layer 1" xmlns="http://www.w3.org/2000/svg" viewBox="0 0 42 42"><defs><style>.cls-1{fill:#707070;}</style></defs><title>pay-per-click</title><path class="cls-1" d="M21,24.56a1.47,1.47,0,0,1-1.57-1.35.81.81,0,0,0-.81-.81.82.82,0,0,0-.82.81,3,3,0,0,0,2.39,2.88v.26a.81.81,0,1,0,1.62,0v-.26a3,3,0,0,0,2.39-2.88,3.1,3.1,0,0,0-3.2-3,1.47,1.47,0,0,1-1.57-1.35A1.47,1.47,0,0,1,21,17.54a1.47,1.47,0,0,1,1.57,1.34.82.82,0,0,0,.81.82.82.82,0,0,0,.82-.82A3,3,0,0,0,21.81,16v-.46a.81.81,0,1,0-1.62,0V16a3,3,0,0,0-2.39,2.87,3.1,3.1,0,0,0,3.2,3,1.47,1.47,0,0,1,1.57,1.35A1.47,1.47,0,0,1,21,24.56Z"/><path class="cls-1" d="M20.19,6.24V7.33a.81.81,0,1,0,1.62,0V6.24a3.09,3.09,0,1,0-1.62,0ZM21,1.79a1.47,1.47,0,1,1-1.47,1.47A1.47,1.47,0,0,1,21,1.79Z"/><path class="cls-1" d="M34.67,21.81h1.09a3.09,3.09,0,1,0,0-1.62H34.67a.81.81,0,1,0,0,1.62Zm4.07-2.28A1.47,1.47,0,1,1,37.28,21,1.47,1.47,0,0,1,38.74,19.53Z"/><path class="cls-1" d="M7.33,20.19H6.24a3.09,3.09,0,1,0,0,1.62H7.33a.81.81,0,0,0,0-1.62ZM3.26,22.47A1.47,1.47,0,1,1,4.72,21,1.47,1.47,0,0,1,3.26,22.47Z"/><path class="cls-1" d="M41.6,36.41,37,31.77l2.75-1.62a.8.8,0,0,0-.2-1.48l-8.64-2.32A11.24,11.24,0,0,0,16.26,10.81a.83.83,0,0,0-.39,1.09.82.82,0,0,0,1.08.39,9.61,9.61,0,0,1,12.3,13.63l-3.19-.86a.81.81,0,0,0-1,1l.86,3.19A9.61,9.61,0,0,1,12.26,17a.81.81,0,1,0-1.48-.68A11.23,11.23,0,0,0,26.35,30.87l2.32,8.64a.8.8,0,0,0,1.48.2L31.77,37l4.64,4.64a.81.81,0,0,0,1.15,0l4-4a.81.81,0,0,0,0-1.15ZM37,39.87l-4.81-4.81a.83.83,0,0,0-.58-.23h-.1a.81.81,0,0,0-.6.4l-1.16,2L27,27l10.21,2.74-2,1.16a.81.81,0,0,0-.4.6.85.85,0,0,0,.23.68L39.87,37Z"/><path class="cls-1" d="M13.61,14.47a.78.78,0,0,0,.58-.24.82.82,0,1,0-1.15,0A.78.78,0,0,0,13.61,14.47Z"/></svg>