<?xml version="1.0" encoding="utf-8"?>
<!-- Generator: Adobe Illustrator 17.0.0, SVG Export Plug-In . SVG Version: 6.00 Build 0)  -->
<!DOCTYPE svg PUBLIC "-//W3C//DTD SVG 1.1//EN" "http://www.w3.org/Graphics/SVG/1.1/DTD/svg11.dtd">
<svg version="1.1" id="Layer_1" xmlns="http://www.w3.org/2000/svg" xmlns:xlink="http://www.w3.org/1999/xlink" x="0px" y="0px"
	 width="42px" height="42px" viewBox="0 0 42 42" enable-background="new 0 0 42 42" xml:space="preserve">
<g>
	<path fill="#707070" d="M-0.012,4.095c0.322-0.841,1.07-0.691,1.789-0.707c0-0.66,0-1.285,0-1.91c0-0.206-0.005-0.412,0.005-0.617
		C1.808,0.368,2.187-0.003,2.653,0c0.469,0.003,0.856,0.371,0.868,0.865C3.537,1.55,3.527,2.236,3.527,2.921
		c0,11.691-0.001,23.383-0.001,35.074c0,0.147,0,0.295,0,0.486c0.196,0,0.356,0,0.516,0c12.294,0,24.589,0,36.883,0.001
		c0.082,0,0.165-0.004,0.247,0.003c0.491,0.043,0.852,0.431,0.839,0.898c-0.012,0.454-0.363,0.829-0.842,0.843
		c-0.685,0.021-1.37,0.008-2.056,0.009c-0.147,0-0.294,0-0.48,0c0,0.284,0.003,0.515-0.001,0.745
		c-0.01,0.615-0.369,1.023-0.891,1.018c-0.523-0.005-0.866-0.408-0.876-1.033c-0.004-0.229-0.001-0.457-0.001-0.704
		c-1.775,0-3.494,0-5.266,0c0,0.296,0.009,0.566-0.002,0.836c-0.02,0.525-0.392,0.904-0.872,0.901
		c-0.483-0.003-0.854-0.382-0.873-0.906c-0.01-0.27-0.002-0.541-0.002-0.835c-1.762,0-3.484,0-5.264,0
		c0,0.276,0.005,0.544-0.001,0.811c-0.013,0.545-0.393,0.938-0.89,0.929c-0.483-0.009-0.843-0.391-0.855-0.918
		c-0.006-0.259-0.001-0.518-0.001-0.812c-1.759,0-3.49,0-5.264,0c0,0.272,0.008,0.53-0.002,0.787C17.551,41.615,17.186,42,16.689,42
		c-0.495,0-0.86-0.386-0.882-0.944c-0.01-0.257-0.002-0.514-0.002-0.82c-0.359,0-0.672,0-0.984,0c-1.302,0-2.604,0.007-3.906-0.005
		c-0.279-0.002-0.406,0.076-0.378,0.37c0.018,0.19,0.011,0.384-0.004,0.575c-0.035,0.47-0.411,0.823-0.863,0.824
		c-0.452,0-0.839-0.35-0.873-0.819c-0.021-0.297-0.004-0.597-0.004-0.92c-1.762,0-3.483,0-5.268,0c0,0.271,0.005,0.539-0.001,0.806
		C3.511,41.615,3.137,42.006,2.639,42c-0.482-0.007-0.841-0.385-0.859-0.915c-0.009-0.259-0.001-0.519-0.001-0.821
		c-0.677-0.065-1.466,0.148-1.79-0.716c0-0.11,0-0.219,0-0.329c0.294-0.913,1.1-0.706,1.759-0.757c0-1.769,0-3.488,0-5.232
		c-0.704-0.023-1.485,0.171-1.759-0.757c0-0.082,0-0.165,0-0.247c0.278-0.939,1.092-0.711,1.766-0.766c0-1.762,0-3.482,0-5.237
		c-0.698-0.016-1.466,0.146-1.766-0.742c0-0.11,0-0.219,0-0.329c0.322-0.866,1.109-0.659,1.759-0.721c0-1.763,0-3.481,0-5.233
		c-0.694-0.014-1.44,0.135-1.759-0.709c0-0.11,0-0.219,0-0.329c0.304-0.881,1.07-0.725,1.759-0.738c0-1.768,0-3.497,0-5.253
		c-0.705-0.019-1.484,0.171-1.759-0.754c0-0.082,0-0.165,0-0.247c0.276-0.942,1.092-0.712,1.767-0.768c0-1.762,0-3.482,0-5.236
		C1.057,5.149,0.291,5.308-0.012,4.424C-0.012,4.314-0.012,4.204-0.012,4.095z"/>
	<path fill="#707070" d="M37.291,10.427c-0.907,0-1.778,0-2.65,0c-0.151,0-0.302,0.007-0.452-0.002
		c-0.493-0.029-0.86-0.403-0.864-0.874c-0.004-0.465,0.366-0.86,0.86-0.868c1.042-0.017,2.084-0.01,3.126-0.017
		c0.699-0.005,1.398-0.017,2.096-0.029c0.574-0.01,0.975,0.359,0.968,0.927c-0.018,1.659-0.043,3.317-0.073,4.976
		c-0.01,0.525-0.388,0.902-0.871,0.901c-0.486-0.001-0.865-0.381-0.868-0.902c-0.005-0.781,0.009-1.563,0.015-2.344
		c0.001-0.13,0-0.259,0-0.472c-0.174,0.162-0.283,0.258-0.386,0.361c-1.631,1.626-3.261,3.254-4.891,4.881
		c-0.577,0.576-0.805,0.612-1.521,0.254c-2.044-1.023-4.089-2.044-6.162-3.081c-0.105,0.099-0.214,0.196-0.317,0.3
		c-1.998,1.996-3.994,3.994-5.991,5.99c-0.648,0.648-0.821,0.675-1.653,0.259c-0.855-0.428-1.71-0.856-2.582-1.292
		c-0.71,0.712-1.406,1.41-2.103,2.108c-1.464,1.464-2.929,2.926-4.391,4.392C8.308,26.167,8,26.302,7.616,26.175
		C7.29,26.066,7.04,25.838,7.041,25.5c0.001-0.263,0.077-0.6,0.25-0.776c2.309-2.344,4.64-4.666,6.97-6.989
		c0.342-0.341,0.72-0.372,1.166-0.145c0.83,0.422,1.668,0.828,2.488,1.267c0.256,0.137,0.398,0.097,0.594-0.101
		c2.038-2.053,4.086-4.096,6.132-6.141c0.518-0.518,0.801-0.545,1.458-0.212c1.967,0.994,3.938,1.981,5.915,2.954
		c0.117,0.058,0.364,0.032,0.452-0.055c1.593-1.567,3.171-3.149,4.751-4.729C37.241,10.547,37.251,10.507,37.291,10.427z"/>
	<path fill="#707070" d="M24.563,27.131c0-2.904-0.003-5.809,0.002-8.713c0.001-0.721,0.586-1.158,1.198-0.902
		c0.42,0.176,0.553,0.522,0.552,0.962c-0.007,2.562-0.002,5.124-0.002,7.686c0,3.192,0,6.384-0.002,9.576
		c0,0.511-0.202,0.829-0.603,0.966c-0.583,0.199-1.138-0.229-1.142-0.903c-0.009-1.521-0.004-3.041-0.005-4.562
		c0-1.37,0-2.74,0-4.11C24.562,27.131,24.563,27.131,24.563,27.131z"/>
	<path fill="#707070" d="M35.094,27.132c0-2.904-0.003-5.808,0.002-8.712c0.001-0.734,0.622-1.177,1.235-0.889
		c0.376,0.177,0.513,0.497,0.512,0.906c-0.005,2.288-0.002,4.575-0.002,6.863c0,3.425,0,6.849,0,10.274
		c0,0.123,0.006,0.247-0.005,0.37c-0.043,0.464-0.423,0.81-0.88,0.807c-0.461-0.004-0.843-0.347-0.853-0.824
		c-0.019-0.876-0.008-1.753-0.008-2.63C35.093,31.241,35.094,29.186,35.094,27.132z"/>
	<path fill="#707070" d="M29.829,27.52c0,2.712,0,5.424,0,8.137c0,0.055,0.002,0.11-0.001,0.164c-0.027,0.556-0.39,0.934-0.893,0.93
		c-0.5-0.004-0.87-0.385-0.874-0.945c-0.01-1.575-0.005-3.151-0.005-4.726c0-3.822-0.001-7.643,0-11.465
		c0-0.178-0.009-0.358,0.015-0.533c0.063-0.468,0.409-0.775,0.859-0.781c0.453-0.006,0.802,0.289,0.88,0.756
		c0.022,0.134,0.019,0.273,0.019,0.409C29.83,22.15,29.83,24.835,29.829,27.52z"/>
	<path fill="#707070" d="M33.326,27.99c0,2.536,0.001,5.071-0.003,7.607c0,0.203-0.003,0.418-0.066,0.607
		c-0.128,0.382-0.566,0.608-0.961,0.535c-0.41-0.076-0.714-0.428-0.718-0.88c-0.01-1.028-0.003-2.056-0.003-3.084
		c0-4.167,0-8.334,0-12.5c0-0.041-0.001-0.082,0-0.123c0.014-0.565,0.358-0.936,0.87-0.94c0.524-0.004,0.872,0.349,0.875,0.925
		c0.009,1.343,0.004,2.686,0.005,4.03C33.326,25.441,33.326,26.716,33.326,27.99z"/>
	<path fill="#707070" d="M22.794,28.863c0,2.261,0.002,4.522-0.003,6.783c0,0.189-0.005,0.39-0.066,0.565
		c-0.134,0.383-0.568,0.604-0.964,0.526c-0.414-0.081-0.709-0.427-0.712-0.883c-0.008-1.37-0.004-2.741-0.004-4.111
		c0-3.275-0.001-6.55,0.002-9.825c0-0.496,0.265-0.848,0.69-0.944c0.377-0.085,0.802,0.101,0.957,0.467
		c0.077,0.181,0.094,0.397,0.095,0.598C22.796,24.314,22.794,26.589,22.794,28.863z"/>
	<path fill="#707070" d="M19.299,29.715c0,1.972,0,3.945,0,5.917c0,0.082,0.003,0.165-0.003,0.246
		c-0.043,0.511-0.393,0.863-0.864,0.872c-0.492,0.009-0.877-0.346-0.893-0.879c-0.022-0.739-0.008-1.479-0.008-2.219
		c0-3.301-0.002-6.602,0.001-9.903c0.001-0.769,0.599-1.241,1.226-0.964c0.416,0.184,0.546,0.537,0.545,0.972
		C19.296,25.743,19.299,27.729,19.299,29.715z"/>
	<path fill="#707070" d="M15.782,29.753c0,2.013,0.004,4.026-0.003,6.039c-0.002,0.726-0.644,1.167-1.251,0.87
		c-0.378-0.185-0.498-0.507-0.497-0.913c0.006-1.808,0.001-3.615,0.001-5.423c0-2.205-0.003-4.41,0.002-6.614
		c0.001-0.718,0.524-1.151,1.133-0.954c0.405,0.13,0.614,0.451,0.614,0.956C15.783,25.727,15.783,27.74,15.782,29.753z"/>
	<path fill="#707070" d="M10.516,31.484c0-1.438,0.002-2.877-0.001-4.315c-0.001-0.393,0.158-0.69,0.515-0.862
		c0.312-0.151,0.66-0.146,0.876,0.107c0.186,0.217,0.341,0.543,0.344,0.822c0.027,2.205,0.015,4.41,0.015,6.616
		c0,0.589,0.001,1.178-0.001,1.767c-0.003,0.74-0.317,1.14-0.884,1.131c-0.559-0.009-0.864-0.415-0.865-1.157
		C10.515,34.223,10.516,32.854,10.516,31.484z"/>
	<path fill="#707070" d="M6.999,32.33c0-1.123-0.009-2.245,0.004-3.367c0.008-0.736,0.629-1.188,1.234-0.91
		c0.414,0.19,0.537,0.546,0.536,0.978c-0.005,1.916-0.003,3.833-0.004,5.749c0,0.301,0.004,0.602,0,0.903
		c-0.007,0.664-0.335,1.061-0.877,1.066C7.336,36.755,7,36.346,6.999,35.657C6.997,34.548,6.999,33.439,6.999,32.33z"/>
</g>
</svg>
