<svg id="Layer_1" data-name="Layer 1" xmlns="http://www.w3.org/2000/svg" viewBox="0 0 42 42"><defs><style>.cls-1{fill:#707070;}</style></defs><title>professionalism-guaranteed</title><path class="cls-1" d="M31.75,6.41H38.6a.61.61,0,0,0,0-1.22H31.75a.61.61,0,1,0,0,1.22Z"/><path class="cls-1" d="M38.6,7.68H31.75a.61.61,0,1,0,0,1.22H38.6a.61.61,0,1,0,0-1.22Z"/><path class="cls-1" d="M38.6,14.56H31.75a.62.62,0,1,0,0,1.23H38.6a.62.62,0,0,0,0-1.23Z"/><path class="cls-1" d="M38.6,17.06H31.75a.61.61,0,1,0,0,1.22H38.6a.61.61,0,1,0,0-1.22Z"/><path class="cls-1" d="M38.6,23.94H31.75a.61.61,0,1,0,0,1.22H38.6a.61.61,0,0,0,0-1.22Z"/><path class="cls-1" d="M38.6,26.43H31.75a.62.62,0,0,0-.62.61.61.61,0,0,0,.62.61H38.6a.61.61,0,0,0,.61-.61A.62.62,0,0,0,38.6,26.43Z"/><path class="cls-1" d="M29,3.51l-.88.9a1.38,1.38,0,0,0-1.28-.87H22.61a1.38,1.38,0,0,0-1.39,1.38V9.17a1.38,1.38,0,0,0,1.39,1.38h.18a.61.61,0,0,0,.62-.61.62.62,0,0,0-.62-.61h-.18a.16.16,0,0,1-.16-.16V4.92a.16.16,0,0,1,.16-.16h4.25a.16.16,0,0,1,.16.16v.66L25.55,7.1,24.49,6a.61.61,0,0,0-.87.86l1.16,1.17a1.1,1.1,0,0,0,.77.32h0a1.07,1.07,0,0,0,.78-.33L27,7.34V9.17a.16.16,0,0,1-.16.16H25.59a.62.62,0,0,0-.61.61.61.61,0,0,0,.61.61h1.27a1.38,1.38,0,0,0,1.38-1.38V6.07L29.9,4.36A.61.61,0,1,0,29,3.51Z"/><path class="cls-1" d="M29,12.88l-.88.91a1.38,1.38,0,0,0-1.28-.88H22.61a1.38,1.38,0,0,0-1.39,1.38v4.26a1.38,1.38,0,0,0,1.39,1.38h4.25a1.38,1.38,0,0,0,1.38-1.38v-3.1l1.66-1.72a.6.6,0,0,0,0-.86.62.62,0,0,0-.87,0ZM27,15l-1.47,1.52-1.06-1.06a.61.61,0,1,0-.87.86l1.16,1.16a1.06,1.06,0,0,0,.77.32h0a1.07,1.07,0,0,0,.78-.33l.69-.71v1.84a.16.16,0,0,1-.16.16H22.61a.16.16,0,0,1-.16-.16V14.29a.16.16,0,0,1,.16-.15h4.25a.16.16,0,0,1,.16.15Z"/><path class="cls-1" d="M29,22.26l-.88.9a1.38,1.38,0,0,0-1.28-.87H22.61a1.38,1.38,0,0,0-1.39,1.38v4.25a1.39,1.39,0,0,0,1.39,1.39h4.25a1.38,1.38,0,0,0,1.38-1.39v-3.1l1.66-1.71a.61.61,0,1,0-.88-.85Zm-2,2.07-1.47,1.52-1.06-1.07a.61.61,0,0,0-.87.86l1.16,1.17a1.06,1.06,0,0,0,.77.32h0a1.07,1.07,0,0,0,.78-.33l.69-.71v1.83a.16.16,0,0,1-.16.16H22.61a.16.16,0,0,1-.16-.16V23.67a.16.16,0,0,1,.16-.16h4.25a.16.16,0,0,1,.16.16v.66Z"/><path class="cls-1" d="M29,31.63l-.88.91a1.38,1.38,0,0,0-1.28-.88H22.61a1.39,1.39,0,0,0-1.39,1.39V37.3a1.38,1.38,0,0,0,1.39,1.38h4.25a1.38,1.38,0,0,0,1.38-1.38V34.2l1.66-1.72a.6.6,0,0,0,0-.86.62.62,0,0,0-.87,0ZM27,33.7l-1.47,1.52-1.06-1.06a.61.61,0,0,0-.87.86l1.16,1.16a1.07,1.07,0,0,0,.77.33h0a1.08,1.08,0,0,0,.78-.34l.69-.71V37.3a.16.16,0,0,1-.16.16H22.61a.16.16,0,0,1-.16-.16V33.05a.16.16,0,0,1,.16-.16h4.25a.16.16,0,0,1,.16.16Z"/><path class="cls-1" d="M38.6,33.31H31.75a.62.62,0,1,0,0,1.23H38.6a.62.62,0,0,0,0-1.23Z"/><path class="cls-1" d="M38.6,35.81H31.75a.61.61,0,1,0,0,1.22H38.6a.61.61,0,1,0,0-1.22Z"/><path class="cls-1" d="M13.5,12.24a.22.22,0,0,1-.14-.2v-.51a5.95,5.95,0,1,0-4.5.1V12a.22.22,0,0,1-.14.2,8.33,8.33,0,0,0-4.25,3,8.22,8.22,0,0,0-1.68,5v1.85a.62.62,0,0,0,1.23,0V20.21a7,7,0,0,1,1.43-4.28,7.11,7.11,0,0,1,3.62-2.52,1.45,1.45,0,0,0,1-1.37V12A6.58,6.58,0,0,0,11,12a5.47,5.47,0,0,0,1.15-.11V12a1.44,1.44,0,0,0,1,1.37,7.18,7.18,0,0,1,3.63,2.52,7.09,7.09,0,0,1,1.43,4.28v6.15a1.11,1.11,0,0,1-1.11,1.11A1.12,1.12,0,0,1,16,26.36v-7a.62.62,0,0,0-.61-.61.61.61,0,0,0-.61.61V39.14a1.51,1.51,0,0,1-3,0V27.65a.61.61,0,0,0-1.22,0V39.14a1.51,1.51,0,0,1-3,0V19.29a.62.62,0,0,0-1.23,0v7.07a1.13,1.13,0,0,1-1.13,1.11A1.1,1.1,0,0,1,4,26.36V24.83a.62.62,0,0,0-1.23,0v1.53A2.34,2.34,0,0,0,5.13,28.7a2.37,2.37,0,0,0,1.13-.29V39.14a2.73,2.73,0,0,0,4.85,1.71A2.73,2.73,0,0,0,16,39.14V28.41a2.41,2.41,0,0,0,1.14.29,2.34,2.34,0,0,0,2.33-2.34V20.21a8.22,8.22,0,0,0-1.68-5,8.33,8.33,0,0,0-4.25-3ZM11,10.8a4.72,4.72,0,1,1,4.72-4.72A4.73,4.73,0,0,1,11,10.8Z"/><path class="cls-1" d="M12.56,7.56a.61.61,0,0,0-.86.11.74.74,0,0,1-.61.31.77.77,0,0,1-.61-.31.61.61,0,0,0-1,.74,2,2,0,0,0,3.18,0,.61.61,0,0,0-.12-.85Z"/></svg>