<?xml version="1.0" encoding="utf-8"?>
<!-- Generator: Adobe Illustrator 17.0.0, SVG Export Plug-In . SVG Version: 6.00 Build 0)  -->
<!DOCTYPE svg PUBLIC "-//W3C//DTD SVG 1.1//EN" "http://www.w3.org/Graphics/SVG/1.1/DTD/svg11.dtd">
<svg version="1.1" id="Layer_1" xmlns="http://www.w3.org/2000/svg" xmlns:xlink="http://www.w3.org/1999/xlink" x="0px" y="0px"
	 width="42px" height="42px" viewBox="0 0 42 42" enable-background="new 0 0 42 42" xml:space="preserve">
<g>
	<path fill="#707070" d="M15.868,29.991c0,3.452,0,6.85,0,10.319c0.181,0,0.359,0,0.538,0c5.703,0,11.407,0,17.11,0
		c0.787,0,1.198,0.291,1.198,0.845c0,0.552-0.414,0.844-1.199,0.844c-10.349,0-20.698,0-31.047,0c-0.1,0-0.2,0.004-0.3-0.002
		c-0.499-0.03-0.861-0.376-0.869-0.829C1.29,40.7,1.663,40.323,2.184,40.314c0.827-0.014,1.654-0.004,2.511-0.004
		c0-3.439,0-6.847,0-10.319c-0.303,0-0.612,0.004-0.92-0.001c-1.414-0.021-2.475-1.062-2.477-2.473
		c-0.009-4.388-0.016-8.777,0.003-13.165c0.01-2.276,1.789-4.043,4.069-4.056c3.273-0.019,6.547-0.019,9.82-0.001
		c2.304,0.013,4.075,1.779,4.085,4.085c0.018,4.374,0.01,8.748,0.002,13.122c-0.003,1.436-1.062,2.471-2.505,2.488
		C16.486,29.994,16.201,29.991,15.868,29.991z M15.849,28.302c0.275,0,0.5,0,0.725,0c0.79-0.001,1.016-0.227,1.016-1.019
		c0-4.258,0.001-8.516-0.001-12.774c-0.001-1.529-0.993-2.527-2.514-2.528c-3.172-0.002-6.344-0.002-9.517-0.001
		c-1.608,0.001-2.575,0.976-2.575,2.597c-0.001,4.215,0,8.431,0,12.646c0,0.143-0.011,0.288,0.009,0.428
		c0.051,0.349,0.26,0.591,0.605,0.631c0.361,0.042,0.73,0.009,1.127,0.009c0-0.202,0-0.357,0-0.511c0-2.858,0-5.716,0-8.573
		c0-0.143-0.009-0.287,0.009-0.428c0.057-0.443,0.42-0.768,0.841-0.765c0.422,0.003,0.777,0.331,0.831,0.775
		c0.015,0.127,0.008,0.257,0.008,0.385c0,2.872,0,5.744,0,8.616c0,0.164,0,0.328,0,0.478c2.621,0,5.171,0,7.746,0
		c0-0.203,0-0.374,0-0.544c0-2.815,0-5.63,0-8.445c0-0.1-0.002-0.2,0.001-0.3c0.013-0.584,0.365-0.978,0.861-0.966
		c0.484,0.012,0.823,0.392,0.825,0.958c0.006,1.843,0.002,3.687,0.003,5.53C15.849,25.745,15.849,26.987,15.849,28.302z
		 M14.13,40.293c0-3.454,0-6.862,0-10.274c-2.58,0-5.13,0-7.689,0c0,3.436,0,6.844,0,10.265c1.004,0,1.982,0,3.002,0
		c0-0.178,0-0.332,0-0.485c0-2.544,0-5.088,0-7.632c0-0.1-0.001-0.2,0-0.3c0.01-0.594,0.342-0.985,0.839-0.988
		c0.497-0.003,0.846,0.39,0.847,0.979c0.004,2.658,0.002,5.317,0.002,7.975c0,0.15,0,0.301,0,0.46
		C12.165,40.293,13.133,40.293,14.13,40.293z"/>
	<path fill="#707070" d="M38.818,3.198c0.214-0.162,0.389-0.309,0.578-0.435c0.394-0.26,0.832-0.199,1.11,0.143
		c0.281,0.346,0.295,0.859-0.101,1.098c-0.724,0.437-0.664,0.999-0.597,1.726c0.175,1.929-1.08,3.936-3.372,4.418
		c-2.231,0.469-4.396-0.917-4.955-3.112c-0.465-1.827,0.31-3.716,1.923-4.687c1.594-0.959,3.618-0.768,5.01,0.474
		C38.541,2.938,38.664,3.055,38.818,3.198z M38.141,5.878c-0.172,0.128-0.298,0.216-0.418,0.312
		c-0.514,0.409-1.021,0.827-1.541,1.228c-0.551,0.424-1.047,0.311-1.371-0.309c-0.271-0.518-0.535-1.04-0.784-1.569
		c-0.219-0.465-0.071-0.923,0.34-1.133c0.422-0.216,0.85-0.064,1.113,0.401c0.131,0.232,0.252,0.47,0.402,0.752
		c0.567-0.453,1.094-0.874,1.623-1.296c-0.843-0.972-2.243-1.156-3.311-0.479c-1.093,0.693-1.517,2.097-0.987,3.269
		c0.535,1.184,1.847,1.796,3.095,1.444C37.458,8.173,38.29,7.026,38.141,5.878z"/>
	<path fill="#707070" d="M38.826,13.487c0.184-0.142,0.358-0.288,0.544-0.415c0.411-0.281,0.86-0.224,1.144,0.136
		c0.286,0.362,0.276,0.864-0.149,1.128c-0.664,0.413-0.648,0.919-0.567,1.615c0.234,2.031-1.176,4.129-3.46,4.498
		c-2.621,0.424-4.826-1.32-4.987-3.974c-0.136-2.242,1.495-4.049,3.54-4.374c1.459-0.232,2.701,0.207,3.75,1.23
		C38.691,13.38,38.748,13.422,38.826,13.487z M38.124,16.193c-0.137,0.098-0.264,0.18-0.382,0.274
		c-0.526,0.417-1.043,0.846-1.575,1.254c-0.532,0.408-1.03,0.296-1.344-0.297c-0.273-0.517-0.534-1.04-0.785-1.568
		c-0.232-0.487-0.085-0.955,0.344-1.164c0.425-0.207,0.84-0.049,1.106,0.425c0.129,0.23,0.252,0.462,0.4,0.734
		c0.568-0.454,1.088-0.869,1.607-1.284c-0.726-0.943-2.174-1.163-3.243-0.525c-1.138,0.679-1.588,2.123-1.036,3.321
		c0.559,1.212,1.924,1.813,3.186,1.403C37.513,18.403,38.327,17.215,38.124,16.193z"/>
	<path fill="#707070" d="M10.295,0c2.575,0.007,4.691,2.125,4.695,4.7c0.004,2.584-2.151,4.727-4.732,4.706
		C7.68,9.384,5.575,7.258,5.584,4.684C5.593,2.114,7.727-0.007,10.295,0z M13.301,4.711c0.004-1.67-1.348-3.024-3.017-3.022
		C8.631,1.691,7.284,3.026,7.273,4.673c-0.011,1.675,1.331,3.038,2.995,3.044C11.944,7.722,13.298,6.38,13.301,4.711z"/>
	<path fill="#707070" d="M39.863,26.56c0.008,2.349-1.932,4.292-4.281,4.288c-2.331-0.004-4.259-1.929-4.267-4.26
		c-0.008-2.348,1.933-4.292,4.282-4.288C37.927,22.303,39.855,24.228,39.863,26.56z M35.589,23.989
		c-1.432,0.001-2.584,1.152-2.584,2.585c-0.001,1.43,1.155,2.586,2.585,2.585c1.432-0.001,2.584-1.153,2.585-2.585
		C38.174,25.144,37.019,23.988,35.589,23.989z"/>
	<path fill="#707070" d="M25.682,9.407c-1.528,0-3.057,0.005-4.585-0.003c-0.552-0.003-0.937-0.371-0.929-0.853
		c0.007-0.468,0.381-0.811,0.909-0.832c0.071-0.003,0.143-0.001,0.214-0.001c2.3,0,4.599,0,6.899,0c0.643,0,1.286,0,1.928,0
		c0.75,0.001,1.157,0.293,1.164,0.834c0.008,0.544-0.406,0.854-1.144,0.854C28.653,9.407,27.167,9.407,25.682,9.407z"/>
	<path fill="#707070" d="M25.728,19.699c-1.528,0-3.057,0.003-4.585-0.001c-0.569-0.002-0.952-0.328-0.975-0.809
		c-0.023-0.481,0.363-0.865,0.906-0.876c0.6-0.012,1.2-0.003,1.8-0.003c2.471,0,4.942-0.002,7.413,0.002
		c0.757,0.001,1.204,0.598,0.907,1.201c-0.188,0.381-0.522,0.49-0.924,0.489C28.756,19.695,27.242,19.699,25.728,19.699z"/>
	<path fill="#707070" d="M25.728,29.991c-1.528,0-3.057,0.003-4.585-0.001c-0.569-0.002-0.952-0.328-0.975-0.809
		c-0.023-0.481,0.363-0.865,0.906-0.876c0.6-0.012,1.2-0.003,1.8-0.003c2.471,0,4.942-0.002,7.413,0.002
		c0.757,0.001,1.204,0.598,0.908,1.201c-0.187,0.381-0.522,0.49-0.924,0.489C28.756,29.988,27.242,29.991,25.728,29.991z"/>
	<path fill="#707070" d="M23.578,5.976c-0.8,0-1.599,0.003-2.399-0.001c-0.619-0.003-1.021-0.348-1.012-0.858
		c0.009-0.495,0.401-0.828,0.997-0.83c1.613-0.004,3.227-0.004,4.84,0c0.593,0.001,0.985,0.339,0.99,0.836
		C27,5.619,26.606,5.971,26.02,5.975C25.206,5.981,24.392,5.976,23.578,5.976z"/>
	<path fill="#707070" d="M23.577,16.269c-0.8,0-1.599,0.003-2.399-0.001c-0.618-0.003-1.021-0.35-1.01-0.859
		c0.01-0.495,0.402-0.827,0.998-0.828c1.613-0.003,3.227-0.004,4.84,0c0.592,0.001,0.984,0.341,0.989,0.837
		c0.005,0.495-0.39,0.845-0.976,0.85C25.204,16.273,24.391,16.269,23.577,16.269z"/>
	<path fill="#707070" d="M23.587,26.561c-0.814,0-1.628,0.004-2.442-0.002c-0.587-0.004-0.981-0.353-0.978-0.848
		c0.003-0.496,0.396-0.837,0.988-0.838c1.613-0.004,3.227-0.003,4.84,0c0.596,0.001,0.988,0.331,0.999,0.827
		c0.012,0.509-0.392,0.857-1.009,0.86C25.186,26.564,24.387,26.561,23.587,26.561z"/>
	<path fill="#707070" d="M36.456,40.314c0.451,0.006,0.843,0.412,0.831,0.86c-0.013,0.451-0.426,0.84-0.871,0.82
		c-0.435-0.019-0.808-0.406-0.809-0.839C35.605,40.705,36.006,40.308,36.456,40.314z"/>
	<path fill="#707070" d="M39.001,41.994c-0.453-0.012-0.839-0.421-0.821-0.869c0.019-0.452,0.434-0.835,0.88-0.81
		c0.438,0.024,0.805,0.413,0.8,0.847C39.854,41.614,39.45,42.006,39.001,41.994z"/>
	<path fill="#707070" d="M10.284,12.868c0.157,0,0.315-0.012,0.47,0.002c0.465,0.044,0.807,0.41,0.802,0.846
		c-0.005,0.437-0.348,0.797-0.818,0.83c-0.284,0.02-0.571,0.016-0.855,0.003c-0.5-0.024-0.857-0.373-0.866-0.827
		c-0.009-0.467,0.362-0.829,0.881-0.856c0.128-0.007,0.257-0.001,0.385-0.001C10.284,12.866,10.284,12.867,10.284,12.868z"/>
	<path fill="#707070" d="M10.289,17.122c-0.157,0-0.315,0.013-0.47-0.002c-0.465-0.045-0.806-0.412-0.801-0.847
		c0.006-0.437,0.349-0.796,0.819-0.828c0.284-0.019,0.571-0.016,0.855-0.002c0.499,0.023,0.856,0.374,0.864,0.828
		c0.008,0.467-0.363,0.828-0.883,0.854c-0.128,0.007-0.257,0.001-0.385,0.001C10.289,17.124,10.289,17.123,10.289,17.122z"/>
</g>
</svg>
