<?xml version="1.0" encoding="utf-8"?>
<!-- Generator: Adobe Illustrator 17.0.0, SVG Export Plug-In . SVG Version: 6.00 Build 0)  -->
<!DOCTYPE svg PUBLIC "-//W3C//DTD SVG 1.1//EN" "http://www.w3.org/Graphics/SVG/1.1/DTD/svg11.dtd">
<svg version="1.1" id="Layer_1" xmlns="http://www.w3.org/2000/svg" xmlns:xlink="http://www.w3.org/1999/xlink" x="0px" y="0px"
	 width="42px" height="42px" viewBox="0 0 42 42" enable-background="new 0 0 42 42" xml:space="preserve">
<g>
	<g>
		<path fill="#707070" d="M18.493,37.604c-0.287,0.077-0.565,0.15-0.843,0.224c-0.032,0.009-0.065,0.016-0.097,0.026
			c-0.097,0.032-0.185,0.019-0.25-0.063c-0.068-0.086-0.056-0.178-0.002-0.269c0.25-0.425,0.5-0.85,0.75-1.276
			c0.085-0.144,0.17-0.288,0.254-0.433c0.068-0.117-0.014-0.303-0.146-0.332c-0.196-0.042-0.394-0.074-0.588-0.124
			c-0.205-0.052-0.269-0.135-0.28-0.345c-0.009-0.18-0.012-0.36-0.009-0.54c0.001-0.112-0.035-0.186-0.139-0.239
			c-0.134-0.068-0.261-0.149-0.388-0.23c-0.258-0.164-0.292-0.253-0.202-0.542c0.051-0.164,0.105-0.326,0.166-0.486
			c0.03-0.078,0.014-0.134-0.036-0.194c-0.12-0.145-0.241-0.29-0.352-0.442c-0.138-0.188-0.138-0.287,0-0.477
			c0.101-0.139,0.207-0.274,0.321-0.402c0.079-0.088,0.098-0.169,0.053-0.282c-0.067-0.166-0.122-0.338-0.172-0.51
			c-0.059-0.202-0.025-0.302,0.15-0.42c0.159-0.108,0.325-0.206,0.492-0.302c0.075-0.043,0.106-0.098,0.106-0.181
			c0.001-0.188,0.003-0.377,0.011-0.565c0.009-0.219,0.081-0.31,0.294-0.362c0.178-0.043,0.36-0.075,0.541-0.106
			c0.09-0.016,0.147-0.051,0.178-0.146c0.057-0.174,0.124-0.346,0.197-0.515c0.093-0.216,0.176-0.265,0.411-0.241
			c0.178,0.018,0.356,0.048,0.532,0.086c0.101,0.022,0.164-0.006,0.226-0.083c0.107-0.134,0.219-0.265,0.336-0.39
			c0.182-0.195,0.272-0.211,0.507-0.09c0.16,0.082,0.316,0.172,0.47,0.264c0.069,0.041,0.128,0.041,0.198,0
			c0.159-0.093,0.318-0.185,0.482-0.268c0.22-0.111,0.305-0.098,0.476,0.083c0.129,0.137,0.241,0.29,0.373,0.424
			c0.041,0.042,0.123,0.071,0.182,0.065c0.17-0.015,0.338-0.05,0.507-0.079c0.246-0.042,0.36,0.016,0.455,0.244
			c0.069,0.166,0.131,0.334,0.19,0.504c0.031,0.089,0.082,0.135,0.177,0.15c0.169,0.027,0.336,0.062,0.503,0.1
			c0.258,0.059,0.33,0.152,0.335,0.42c0.003,0.159,0.006,0.318,0,0.477c-0.004,0.109,0.034,0.18,0.132,0.232
			c0.147,0.079,0.29,0.168,0.43,0.258c0.213,0.138,0.25,0.234,0.178,0.473c-0.053,0.176-0.114,0.349-0.176,0.522
			c-0.028,0.079-0.016,0.143,0.039,0.208c0.118,0.141,0.236,0.283,0.347,0.43c0.14,0.186,0.143,0.275,0.008,0.465
			c-0.107,0.15-0.222,0.294-0.343,0.432c-0.071,0.081-0.076,0.157-0.041,0.252c0.062,0.168,0.122,0.338,0.174,0.51
			c0.064,0.212,0.032,0.304-0.152,0.427c-0.153,0.102-0.31,0.199-0.469,0.29c-0.091,0.052-0.127,0.121-0.126,0.224
			c0.001,0.2-0.007,0.401-0.016,0.601c-0.007,0.163-0.109,0.249-0.256,0.283c-0.17,0.04-0.342,0.074-0.515,0.106
			c-0.238,0.044-0.319,0.214-0.197,0.424c0.315,0.542,0.634,1.083,0.945,1.627c0.036,0.063,0.058,0.151,0.045,0.22
			c-0.019,0.104-0.128,0.15-0.237,0.122c-0.283-0.073-0.566-0.145-0.847-0.224c-0.097-0.028-0.142-0.01-0.167,0.094
			c-0.064,0.268-0.14,0.533-0.209,0.799c-0.026,0.098-0.064,0.184-0.177,0.203c-0.118,0.019-0.183-0.046-0.238-0.142
			c-0.299-0.522-0.603-1.042-0.903-1.564c-0.042-0.073-0.075-0.121-0.18-0.103c-0.079,0.013-0.174-0.019-0.25-0.056
			c-0.165-0.08-0.325-0.173-0.483-0.267c-0.071-0.042-0.128-0.038-0.196,0.002c-0.151,0.089-0.3,0.184-0.46,0.255
			c-0.098,0.043-0.215,0.042-0.322,0.07c-0.04,0.011-0.085,0.041-0.105,0.076c-0.308,0.527-0.611,1.057-0.92,1.583
			c-0.034,0.058-0.087,0.119-0.146,0.144c-0.122,0.053-0.235-0.024-0.277-0.175c-0.078-0.282-0.152-0.564-0.228-0.847
			C18.516,37.67,18.507,37.647,18.493,37.604z M24.504,29.62c0-0.092-0.004-0.184,0.001-0.276c0.006-0.105-0.048-0.152-0.143-0.167
			c-0.107-0.017-0.213-0.044-0.321-0.053c-0.301-0.025-0.494-0.169-0.569-0.47c-0.028-0.113-0.087-0.217-0.119-0.329
			c-0.029-0.1-0.09-0.119-0.179-0.102c-0.111,0.021-0.224,0.033-0.332,0.063c-0.276,0.077-0.499,0.022-0.665-0.227
			c-0.065-0.097-0.156-0.176-0.223-0.271c-0.072-0.101-0.141-0.101-0.241-0.038c-0.145,0.091-0.298,0.169-0.447,0.253
			c-0.123,0.069-0.247,0.07-0.37,0.001c-0.157-0.087-0.318-0.167-0.47-0.263c-0.092-0.058-0.146-0.038-0.208,0.041
			c-0.109,0.137-0.229,0.267-0.341,0.401c-0.105,0.125-0.238,0.16-0.394,0.132c-0.16-0.029-0.323-0.048-0.482-0.082
			c-0.107-0.023-0.159,0.009-0.193,0.112c-0.056,0.17-0.127,0.336-0.191,0.503c-0.049,0.127-0.137,0.207-0.272,0.233
			c-0.164,0.032-0.326,0.073-0.492,0.096c-0.13,0.017-0.189,0.067-0.181,0.206c0.009,0.167-0.006,0.335-0.005,0.502
			c0.001,0.143-0.057,0.251-0.177,0.325c-0.156,0.097-0.311,0.196-0.471,0.286c-0.084,0.047-0.108,0.095-0.072,0.189
			c0.065,0.167,0.116,0.34,0.175,0.51c0.049,0.142,0.03,0.271-0.066,0.388c-0.114,0.139-0.223,0.282-0.339,0.42
			c-0.057,0.068-0.068,0.121-0.003,0.193c0.106,0.118,0.197,0.25,0.303,0.368c0.138,0.155,0.161,0.322,0.088,0.511
			c-0.057,0.148-0.103,0.3-0.16,0.449c-0.03,0.079-0.02,0.129,0.059,0.173c0.16,0.09,0.315,0.19,0.472,0.285
			c0.13,0.078,0.192,0.19,0.191,0.343c-0.001,0.18,0.009,0.36,0.009,0.54c0,0.09,0.032,0.134,0.126,0.148
			c0.169,0.026,0.336,0.068,0.504,0.096c0.165,0.028,0.27,0.119,0.327,0.274c0.06,0.165,0.128,0.327,0.185,0.493
			c0.028,0.082,0.065,0.112,0.155,0.095c0.185-0.035,0.371-0.056,0.557-0.085c0.146-0.022,0.261,0.028,0.355,0.14
			c0.118,0.141,0.243,0.277,0.359,0.42c0.05,0.061,0.094,0.066,0.159,0.028c0.155-0.091,0.315-0.173,0.47-0.264
			c0.14-0.082,0.274-0.085,0.414-0.003c0.148,0.087,0.302,0.162,0.447,0.254c0.095,0.061,0.153,0.04,0.219-0.041
			c0.11-0.137,0.229-0.267,0.343-0.4c0.082-0.095,0.182-0.145,0.31-0.127C22.8,35.92,23,35.943,23.196,35.98
			c0.086,0.017,0.123-0.009,0.15-0.083c0.06-0.165,0.126-0.327,0.185-0.492c0.059-0.165,0.17-0.26,0.345-0.288
			c0.169-0.027,0.335-0.068,0.504-0.095c0.095-0.015,0.126-0.066,0.125-0.154c-0.001-0.172,0.005-0.343,0.001-0.515
			c-0.004-0.162,0.059-0.282,0.198-0.365c0.154-0.092,0.307-0.187,0.463-0.277c0.077-0.045,0.101-0.094,0.068-0.183
			c-0.066-0.176-0.122-0.355-0.18-0.534c-0.042-0.128-0.028-0.247,0.058-0.354c0.12-0.15,0.237-0.303,0.36-0.451
			c0.053-0.063,0.051-0.116-0.001-0.177c-0.065-0.076-0.118-0.165-0.191-0.232c-0.274-0.248-0.274-0.52-0.143-0.85
			c0.174-0.438,0.217-0.331-0.205-0.568C24.63,30.192,24.416,30.001,24.504,29.62z M23.124,37.978
			c0.022-0.062,0.037-0.099,0.047-0.137c0.046-0.169,0.087-0.339,0.135-0.508c0.047-0.164,0.138-0.214,0.303-0.171
			c0.153,0.04,0.306,0.083,0.459,0.124c0.053,0.014,0.107,0.025,0.16,0.037c0.006-0.009,0.012-0.019,0.019-0.028
			c-0.208-0.353-0.417-0.706-0.633-1.072c-0.105,0.138-0.23,0.156-0.365,0.138c-0.128-0.017-0.262-0.018-0.383-0.057
			c-0.219-0.07-0.362,0.001-0.485,0.183c-0.05,0.074-0.06,0.121-0.015,0.198c0.227,0.385,0.448,0.774,0.671,1.162
			C23.061,37.885,23.086,37.921,23.124,37.978z M19.025,37.94c0.011,0.006,0.022,0.012,0.033,0.018
			c0.006-0.016,0.009-0.034,0.017-0.049c0.244-0.424,0.49-0.846,0.731-1.272c0.016-0.028,0.006-0.09-0.015-0.118
			c-0.196-0.26-0.197-0.259-0.518-0.203c-0.066,0.012-0.131,0.029-0.197,0.036c-0.187,0.021-0.383,0.087-0.531-0.116
			c-0.213,0.364-0.414,0.708-0.633,1.083c0.224-0.059,0.412-0.109,0.6-0.159c0.218-0.058,0.301-0.011,0.358,0.203
			C18.92,37.557,18.973,37.748,19.025,37.94z"/>
		<path fill="#707070" d="M21.088,28.702c1.782-0.007,3.399,1.424,3.388,3.422c-0.012,2.01-1.676,3.452-3.529,3.384
			c-1.784-0.065-3.301-1.541-3.279-3.461C17.69,30.195,19.239,28.682,21.088,28.702z M21.083,35.145
			c1.626,0.014,2.988-1.286,3.047-2.928c0.062-1.732-1.314-3.15-3.033-3.161c-1.666-0.011-3.051,1.353-3.057,3.003
			C18.033,33.782,19.37,35.138,21.083,35.145z"/>
		<path fill="#707070" d="M19.741,33.645c0.048-0.292,0.1-0.584,0.139-0.878c0.007-0.055-0.019-0.131-0.057-0.173
			c-0.107-0.117-0.23-0.219-0.344-0.33c-0.093-0.09-0.187-0.18-0.271-0.278c-0.227-0.265-0.162-0.48,0.178-0.555
			c0.273-0.06,0.551-0.094,0.828-0.132c0.093-0.013,0.151-0.049,0.19-0.136c0.091-0.202,0.185-0.403,0.287-0.599
			c0.054-0.103,0.118-0.204,0.194-0.29c0.103-0.118,0.259-0.12,0.365-0.006c0.078,0.085,0.144,0.185,0.199,0.287
			c0.109,0.202,0.201,0.413,0.311,0.615c0.027,0.05,0.092,0.099,0.147,0.109c0.267,0.048,0.536,0.079,0.804,0.123
			c0.077,0.013,0.154,0.04,0.224,0.076c0.133,0.067,0.182,0.21,0.108,0.338c-0.058,0.1-0.132,0.193-0.213,0.277
			c-0.15,0.157-0.307,0.308-0.467,0.455c-0.078,0.071-0.095,0.149-0.077,0.247c0.045,0.238,0.088,0.476,0.128,0.714
			c0.012,0.07,0.016,0.141,0.014,0.212c-0.006,0.207-0.162,0.333-0.356,0.263c-0.211-0.075-0.413-0.179-0.614-0.28
			c-0.458-0.23-0.281-0.226-0.729,0.005c-0.196,0.101-0.391,0.212-0.598,0.286c-0.226,0.08-0.372-0.043-0.378-0.285
			c0-0.021,0-0.042,0-0.063C19.749,33.646,19.745,33.645,19.741,33.645z M22.045,33.569c-0.034-0.19-0.059-0.349-0.093-0.507
			c-0.113-0.532-0.11-0.543,0.287-0.919c0.12-0.114,0.241-0.228,0.387-0.365c-0.084-0.02-0.126-0.033-0.169-0.039
			c-0.235-0.034-0.471-0.067-0.706-0.1c-0.125-0.017-0.219-0.082-0.276-0.193c-0.095-0.182-0.185-0.365-0.278-0.548
			c-0.035-0.069-0.074-0.137-0.122-0.227c-0.034,0.061-0.057,0.099-0.077,0.139c-0.099,0.203-0.198,0.406-0.295,0.609
			c-0.064,0.135-0.169,0.215-0.317,0.237c-0.128,0.02-0.256,0.039-0.384,0.059c-0.141,0.022-0.282,0.045-0.458,0.073
			c0.193,0.183,0.349,0.347,0.521,0.491c0.202,0.169,0.247,0.371,0.194,0.617c-0.046,0.214-0.076,0.432-0.118,0.68
			c0.078-0.036,0.127-0.057,0.174-0.081c0.204-0.106,0.407-0.213,0.61-0.32c0.108-0.057,0.216-0.058,0.324-0.002
			c0.19,0.097,0.379,0.195,0.569,0.291C21.884,33.497,21.951,33.526,22.045,33.569z"/>
	</g>
	<path fill="#707070" d="M14.587,8.654c0.064-1.648,0.109-3.203,0.194-4.757c0.022-0.397,0.141-0.796,0.262-1.179
		c0.561-1.785,1.625-2.453,3.499-2.439c1.409,0.01,2.823-0.125,4.228-0.261c1.722-0.168,3.203,0.856,3.737,2.504
		c0.358,1.103,0.775,2.179,0.797,3.354c0.017,0.896,0.003,1.792,0.003,2.729c0.716,0.347,0.935,0.653,0.804,1.557
		c-0.099,0.682-0.291,1.366-0.554,2.002c-0.119,0.288-0.514,0.461-0.779,0.692c-0.112,0.097-0.238,0.191-0.316,0.312
		c-0.51,0.8-0.983,1.625-1.52,2.406c-0.329,0.478-0.295,1.063,0.154,1.415c0.531,0.417,1.039,0.864,1.568,1.284
		c0.124,0.098,0.287,0.155,0.441,0.203c0.682,0.215,1.372,0.409,2.051,0.632c2.042,0.671,3.689,1.791,4.449,3.925
		c0.042,0.118,0.26,0.235,0.403,0.245c1.654,0.11,2.185,0.716,1.957,2.375c-0.677,4.929-1.37,9.856-2.072,14.782
		c-0.151,1.062-0.774,1.566-1.846,1.566C24.698,42,17.347,42,9.996,41.999c-1.12,0-1.737-0.515-1.9-1.644
		c-0.392-2.708-0.761-5.418-1.139-8.128c-0.312-2.237-0.616-4.474-0.939-6.709c-0.2-1.384,0.469-2.207,1.852-2.23
		c0.258-0.004,0.475,0.019,0.589-0.325c0.637-1.921,2.125-2.965,3.897-3.701c0.169-0.07,0.345-0.141,0.524-0.166
		c1.668-0.232,2.916-1.239,4.167-2.243c0.239-0.192,0.247-0.898,0.05-1.205c-0.542-0.844-1.065-1.699-1.603-2.546
		c-0.061-0.095-0.156-0.224-0.248-0.235c-0.518-0.066-0.794-0.421-0.911-0.853c-0.204-0.755-0.376-1.526-0.469-2.302
		C13.8,9.168,14.103,8.764,14.587,8.654z M21.005,24.154c0-0.001,0-0.002,0-0.002c-4.357,0-8.714-0.001-13.07,0.001
		c-0.889,0.001-1.18,0.361-1.056,1.245c0.69,4.892,1.376,9.784,2.059,14.677c0.119,0.85,0.328,1.052,1.16,1.052
		c7.261,0,14.523,0,21.784,0c0.868,0,1.089-0.207,1.208-1.069c0.68-4.893,1.362-9.786,2.05-14.678
		c0.121-0.863-0.162-1.225-1.009-1.225C29.755,24.153,25.38,24.154,21.005,24.154z M16.757,7.295
		c-0.324,1.368-0.523,2.753-0.346,4.176c0.026,0.211,0.082,0.513-0.027,0.628c-0.263,0.276-0.132,0.51-0.031,0.753
		c0.148,0.355,0.299,0.713,0.493,1.044c0.876,1.499,2.119,2.49,3.903,2.611c2.318,0.157,4.262-1.579,4.984-3.973
		c0.026-0.086-0.022-0.196-0.04-0.293c-0.043-0.235-0.146-0.474-0.124-0.703c0.203-2.166-0.331-4.18-1.18-6.15
		C21.223,7.278,21.223,7.278,16.757,7.295z M9.245,23.255c7.876,0,15.66,0,23.451,0c-0.14-0.73-0.635-1.397-1.411-2.064
		c-1.428-1.227-3.257-1.443-4.965-2.067c-0.615,1.13-1.21,2.223-1.805,3.317c-0.411,0.756-0.673,0.767-1.133,0.047
		c-0.46-0.719-0.92-1.437-1.38-2.157c-0.374,0.28-0.697,0.711-1.003,0.699c-0.34-0.013-0.664-0.43-1.015-0.687
		c-0.066,0.086-0.149,0.182-0.216,0.287c-0.426,0.665-0.843,1.335-1.275,1.997c-0.344,0.528-0.648,0.51-0.964-0.045
		c-0.082-0.143-0.158-0.29-0.237-0.435c-0.543-0.994-1.086-1.987-1.632-2.986c-1.071,0.328-2.111,0.577-3.097,0.965
		C11.089,20.706,9.885,21.626,9.245,23.255z M15.428,8.16c0.074,0.009,0.147,0.018,0.221,0.027c0.119-0.474,0.233-0.95,0.359-1.423
		c0.082-0.309,0.283-0.46,0.614-0.413c0.2,0.029,0.4,0.053,0.601,0.075c2.52,0.276,4.823-0.209,6.772-1.933
		c0.451-0.399,0.705-0.378,0.973,0.179c0.316,0.659,0.585,1.344,0.836,2.031c0.19,0.519,0.319,1.06,0.476,1.591
		c0.117-0.565,0.172-1.114,0.185-1.663c0.03-1.302-0.32-2.517-0.747-3.744c-0.476-1.37-1.49-2.13-2.943-1.995
		c-1.387,0.129-2.781,0.267-4.172,0.27c-1.679,0.004-2.531,0.478-2.799,2.131C15.543,4.894,15.542,6.536,15.428,8.16z
		 M20.982,20.036c0.847-0.778,1.623-1.529,2.444-2.228c0.402-0.342,0.535-0.698,0.363-1.237c-1.889,1.12-3.773,1.084-5.792-0.112
		c0.12,0.477,0.099,0.877,0.289,1.068C19.137,18.383,20.049,19.179,20.982,20.036z M18.047,21.704
		c0.451-0.71,0.86-1.353,1.275-2.006c-0.711-0.651-1.384-1.267-2.081-1.905c-0.326,0.248-0.625,0.477-0.94,0.716
		c0.493,0.908,0.964,1.775,1.435,2.641C17.825,21.31,17.915,21.468,18.047,21.704z M23.917,21.705
		c0.448-0.822,0.858-1.573,1.267-2.325c0.512-0.943,0.512-0.944-0.405-1.521c-0.025-0.016-0.07-0.002-0.133-0.002
		c-0.654,0.601-1.324,1.216-2.007,1.843C23.075,20.384,23.474,21.01,23.917,21.705z M26.749,11.844
		c0.489-0.872,0.643-1.911,0.343-2.321C26.638,10.533,26.474,11.643,26.749,11.844z M15.312,11.833
		c0.076-0.796-0.348-1.503-0.5-2.266C14.699,10.37,14.852,11.124,15.312,11.833z"/>
</g>
</svg>
