<?xml version="1.0" encoding="utf-8"?>
<!-- Generator: Adobe Illustrator 17.0.0, SVG Export Plug-In . SVG Version: 6.00 Build 0)  -->
<!DOCTYPE svg PUBLIC "-//W3C//DTD SVG 1.1//EN" "http://www.w3.org/Graphics/SVG/1.1/DTD/svg11.dtd">
<svg version="1.1" id="Layer_1" xmlns="http://www.w3.org/2000/svg" xmlns:xlink="http://www.w3.org/1999/xlink" x="0px" y="0px"
	 width="42px" height="42px" viewBox="0 0 42 42" enable-background="new 0 0 42 42" xml:space="preserve">
<g>
	<path fill="#707070" d="M30.084,8.263c-0.215,0.981-0.709,1.712-1.531,2.223c-0.084,0.052-0.12,0.263-0.1,0.388
		c0.289,1.795,0.596,3.588,0.885,5.383c0.05,0.307,0.038,0.625,0.055,0.938c0.018,0.323-0.133,0.541-0.453,0.554
		c-0.316,0.013-0.467-0.187-0.508-0.509c-0.214-1.664-0.433-3.327-0.672-4.988c-0.066-0.459-0.21-0.906-0.315-1.346
		c-1.886,0.041-2.934-0.69-3.52-2.403c-0.032-0.093-0.154-0.22-0.235-0.221c-1.267-0.015-2.535-0.012-3.803-0.011
		c-0.111,0-0.222,0.015-0.382,0.027c0,0.186,0,0.354,0,0.522c0,4.501,0.001,9.002-0.002,13.502c0,0.332,0.08,0.746-0.084,0.971
		c-0.144,0.198-0.577,0.19-0.885,0.264c-1.1,0.267-1.779,1.258-1.645,2.407c0.121,1.04,1.036,1.851,2.11,1.869
		c0.638,0.011,0.764,0.198,0.558,0.812c-0.031,0.092-0.037,0.195-0.037,0.293c-0.002,2.606-0.001,5.213,0.001,7.819
		c0,0.096,0.021,0.191,0.04,0.357c0.752-0.074,1.483-0.146,2.214-0.218c0.042-0.004,0.083-0.02,0.125-0.026
		c0.491-0.08,0.766,0.049,0.812,0.379c0.046,0.331-0.168,0.521-0.67,0.598c-9.409,1.432-18.256-4.023-21.183-13.061
		C-2.053,15.8,2.366,5.727,10.944,1.795c9.864-4.521,21.203-0.217,25.574,9.717c1.016,2.308,1.506,4.737,1.559,7.255
		c0.01,0.47-0.149,0.706-0.478,0.716c-0.331,0.01-0.5-0.21-0.507-0.69c-0.059-3.755-1.195-7.154-3.346-10.226
		c-0.156-0.223-0.318-0.316-0.593-0.311C32.144,8.273,31.134,8.263,30.084,8.263z M18.514,18.539c0-3.44,0-6.834,0-10.219
		c-0.048-0.022-0.072-0.043-0.097-0.043c-2.248-0.005-4.496-0.011-6.744-0.004c-0.095,0-0.246,0.101-0.277,0.188
		c-0.293,0.827-0.566,1.66-0.833,2.458c0.067,0.075,0.082,0.101,0.105,0.116c1.146,0.744,1.71,1.798,1.51,3.153
		c-0.196,1.331-1.008,2.188-2.303,2.581c-0.09,0.027-0.221,0.13-0.223,0.201c-0.019,0.519-0.01,1.038-0.01,1.569
		C12.593,18.539,15.534,18.539,18.514,18.539z M18.523,19.556c-2.999,0-5.952,0-8.895,0c0,0.468-0.02,0.906,0.003,1.342
		c0.152,2.927,0.66,5.785,1.667,8.547c0.101,0.278,0.222,0.396,0.539,0.393c2.092-0.016,4.184-0.009,6.276-0.009
		c0.134,0,0.269,0,0.403,0c0-0.397,0-0.72,0-1.036c-1.698-0.58-2.594-1.555-2.619-2.945c-0.031-1.797,0.953-2.836,2.626-3.302
		C18.523,21.551,18.523,20.571,18.523,19.556z M1.004,19.549c-0.009,0.11-0.023,0.18-0.02,0.249c0.146,3.61,1.29,6.876,3.397,9.804
		c0.087,0.122,0.298,0.217,0.452,0.219c1.75,0.015,3.5,0.01,5.251,0.008c0.102,0,0.204-0.025,0.215-0.026
		c-0.414-1.712-0.906-3.378-1.204-5.078c-0.297-1.698-0.401-3.43-0.592-5.175C6.046,19.549,3.547,19.549,1.004,19.549z M0.918,18.53
		c2.616,0,5.128,0,7.686,0c0-0.571,0-1.119,0-1.682c-0.111-0.03-0.234-0.064-0.357-0.098c-1.698-0.472-2.676-2.235-2.175-3.922
		c0.409-1.376,1.694-2.27,3.182-2.227c0.149,0.004,0.406-0.034,0.434-0.115c0.251-0.716,0.461-1.447,0.692-2.203
		c-0.174-0.008-0.3-0.019-0.426-0.019C8.274,8.263,6.593,8.27,4.913,8.257c-0.29-0.002-0.465,0.093-0.63,0.328
		c-1.512,2.15-2.532,4.51-3.007,7.093C1.106,16.607,1.038,17.555,0.918,18.53z M18.509,37.088c0-2.112,0-4.181,0-6.269
		c-2.21,0-4.391,0-6.6,0c0.018,0.085,0.019,0.142,0.041,0.189c0.732,1.571,1.627,3.034,2.895,4.236
		C15.868,36.213,17.034,36.911,18.509,37.088z M18.537,1.002c-1.325,0.147-2.384,0.728-3.326,1.541
		c-1.489,1.286-2.496,2.911-3.317,4.701c2.253,0,4.437,0,6.643,0c0-1.998,0-3.962,0-5.926C18.537,1.234,18.537,1.15,18.537,1.002z
		 M25.071,5.278c-0.987-2.154-3.927-4.396-5.528-4.222c0,2.065,0,4.13,0,6.197c1.469,0,2.901,0,4.341,0
		C24.046,6.438,24.448,5.786,25.071,5.278z M5.452,30.793c-0.016,0.036-0.033,0.072-0.049,0.109
		c2.552,2.885,5.686,4.806,9.496,5.736c-0.615-0.655-1.207-1.227-1.731-1.856c-0.914-1.099-1.601-2.344-2.198-3.641
		c-0.065-0.141-0.235-0.331-0.359-0.333C8.892,30.785,7.172,30.793,5.452,30.793z M14.917,1.438
		C11.11,2.376,7.953,4.287,5.321,7.277c1.702,0,3.28-0.02,4.857,0.012C10.653,7.299,10.87,7.15,11.1,6.722
		c0.618-1.146,1.279-2.278,2.026-3.342C13.617,2.681,14.288,2.108,14.917,1.438z M23.195,1.496c1.054,0.902,1.915,1.952,2.669,3.099
		c0.06,0.092,0.282,0.142,0.41,0.116c1.708-0.348,3.236,0.569,3.725,2.25c0.03,0.104,0.067,0.206,0.094,0.288
		c0.872,0,1.702,0,2.617,0C30.098,4.3,26.959,2.383,23.195,1.496z M9.1,15.903c1.183-0.009,2.176-1.023,2.151-2.196
		c-0.024-1.169-1.007-2.138-2.171-2.138c-1.185-0.001-2.173,0.991-2.17,2.178C6.915,14.929,7.913,15.912,9.1,15.903z M24.827,7.782
		c0.002,1.19,0.953,2.148,2.136,2.151c1.2,0.003,2.18-0.971,2.177-2.165c-0.002-1.188-0.955-2.145-2.139-2.148
		C25.796,5.617,24.825,6.582,24.827,7.782z"/>
	<path fill="#707070" d="M21.174,24.79c0.055-0.837,0.099-1.676,0.167-2.512c0.047-0.584,0.164-0.675,0.754-0.656
		c2.763,0.089,5.291-0.64,7.561-2.217c0.546-0.38,1.035-0.844,1.54-1.281c0.358-0.309,0.529-0.323,0.874,0.008
		c2.556,2.458,5.617,3.584,9.146,3.488c0.511-0.014,0.661,0.095,0.702,0.583c0.355,4.277-0.044,8.448-1.879,12.385
		c-1.645,3.531-4.301,6.003-7.974,7.341c-0.265,0.097-0.627,0.094-0.892-0.003c-4.389-1.613-7.174-4.772-8.696-9.121
		C21.569,30.213,21.228,27.526,21.174,24.79z M22.333,22.587c-0.033,0.073-0.051,0.097-0.056,0.124
		c-0.016,0.098-0.036,0.197-0.041,0.296c-0.193,3.637,0.145,7.199,1.587,10.586c1.474,3.462,3.907,5.971,7.454,7.33
		c0.201,0.077,0.49,0.088,0.679,0.001c0.825-0.379,1.669-0.742,2.433-1.226c2.916-1.848,4.657-4.577,5.666-7.813
		c0.896-2.875,1.125-5.828,0.967-8.824c-0.021-0.397-0.151-0.492-0.527-0.491c-1.966,0.009-3.835-0.43-5.61-1.276
		c-1.19-0.567-2.258-1.312-3.26-2.21C28.981,21.465,25.887,22.632,22.333,22.587z"/>
	<path fill="#707070" d="M9.074,14.377c-0.369-0.004-0.64-0.281-0.636-0.65c0.004-0.362,0.292-0.646,0.651-0.642
		c0.358,0.004,0.64,0.294,0.637,0.656C9.723,14.108,9.442,14.381,9.074,14.377z"/>
	<path fill="#707070" d="M26.999,8.416c-0.353,0.009-0.663-0.282-0.672-0.631c-0.009-0.343,0.292-0.66,0.638-0.671
		c0.343-0.011,0.658,0.289,0.669,0.637C27.645,8.104,27.356,8.407,26.999,8.416z"/>
	<path fill="#707070" d="M39.411,25.789c-0.105,2.803-0.589,5.515-1.887,8.035c-1.229,2.386-3.051,4.157-5.502,5.275
		c-0.286,0.131-0.521,0.126-0.806-0.004c-3.046-1.398-5.015-3.765-6.17-6.856c-0.892-2.389-1.21-4.877-1.215-7.415
		c-0.001-0.427,0.19-0.61,0.602-0.662c2.489-0.313,4.76-1.199,6.812-2.641c0.3-0.211,0.542-0.145,0.815,0.045
		c1.85,1.285,3.884,2.128,6.107,2.503c0.21,0.036,0.423,0.059,0.633,0.094c0.531,0.088,0.606,0.179,0.61,0.731
		C39.413,25.191,39.411,25.49,39.411,25.789z M38.442,26.318c0-0.299-0.016-0.598,0.005-0.895c0.018-0.257-0.086-0.341-0.329-0.379
		c-2.221-0.354-4.278-1.145-6.159-2.378c-0.254-0.166-0.425-0.16-0.674,0.003c-1.869,1.224-3.911,2.016-6.118,2.369
		c-0.276,0.044-0.343,0.153-0.339,0.415c0.041,2.236,0.37,4.421,1.17,6.518c1.016,2.663,2.688,4.764,5.274,6.071
		c0.256,0.129,0.458,0.124,0.71-0.003c2.265-1.142,3.873-2.904,4.928-5.191C37.865,30.776,38.285,28.581,38.442,26.318z"/>
	<path fill="#707070" d="M30.383,30.929c0.63-0.634,1.303-1.307,1.971-1.987c0.699-0.711,1.393-1.427,2.088-2.141
		c0.227-0.233,0.486-0.329,0.75-0.091c0.263,0.239,0.211,0.508-0.025,0.746c-1.434,1.446-2.862,2.898-4.31,4.331
		c-0.488,0.483-0.68,0.464-1.18-0.03c-0.557-0.551-1.093-1.122-1.639-1.683c-0.243-0.25-0.315-0.528-0.041-0.783
		c0.265-0.246,0.512-0.12,0.745,0.104C29.266,29.898,29.802,30.387,30.383,30.929z"/>
</g>
</svg>
