<svg id="Layer_1" data-name="Layer 1" xmlns="http://www.w3.org/2000/svg" viewBox="0 0 42 42"><defs><style>.cls-1{fill:#707070;}</style></defs><title>social-optimisation</title><path class="cls-1" d="M36.18,35.23a20.77,20.77,0,0,0,0-28.45l1.42-1.42a2.05,2.05,0,0,0,.86.2,2,2,0,1,0-2-2,2.05,2.05,0,0,0,.2.86L35.22,5.83A20.76,20.76,0,0,0,9.67,3.55H2.87A2.68,2.68,0,0,0,.19,6.23V35.77a2.68,2.68,0,0,0,2.68,2.68h6.8a20.79,20.79,0,0,0,22.54.08l2.53,2.53a2.57,2.57,0,1,0,3.63-3.64ZM38.45,2.87a.69.69,0,0,1,.68.68.68.68,0,0,1-.68.67.67.67,0,0,1-.67-.67A.68.68,0,0,1,38.45,2.87ZM21,1.53A19.38,19.38,0,0,1,34.27,6.78L32.6,8.45a1.92,1.92,0,0,0-.86-.21,2,2,0,0,0-1.16.38L27,6.09A1.84,1.84,0,0,0,27,5.56a2,2,0,1,0-.85,1.64l3.62,2.53a1.84,1.84,0,0,0-.08.53,2,2,0,0,0,4,0,1.92,1.92,0,0,0-.21-.86l1.67-1.67a19.42,19.42,0,0,1,0,26.55L30.85,29.9A10.58,10.58,0,0,0,32.38,25h6.75V23.69H37.78V12.94h-4V23.69H32.41V17h-4v6.72H27V12.94H23v.77a9.94,9.94,0,0,0-1.34-.09V6.23A2.68,2.68,0,0,0,19,3.55h-6.6A19.35,19.35,0,0,1,21,1.53Zm11.41,8.73a.67.67,0,1,1-.67-.67A.67.67,0,0,1,32.41,10.26ZM25.7,5.56A.67.67,0,1,1,25,4.89.67.67,0,0,1,25.7,5.56ZM11,25H4.22V18.31H12.8a10.7,10.7,0,0,0-1.87,6.05C10.93,24.58,11,24.81,11,25ZM21.67,15a8.55,8.55,0,0,1,1.34.11v1.35a7.5,7.5,0,0,0-1.34-.12,8.06,8.06,0,1,0,8,8.73H31A9.4,9.4,0,1,1,21.67,15ZM28.35,25A6.79,6.79,0,1,1,23,17.79v5.9H21.67V25Zm-4-1.34v-9.4H25.7v9.4Zm5.37,0V18.31h1.34v5.38Zm5.37,0v-9.4h1.34v9.4ZM1.53,6.23A1.34,1.34,0,0,1,2.87,4.89H19a1.34,1.34,0,0,1,1.34,1.34V8.92H1.53Zm0,4h18.8v3.45A10.77,10.77,0,0,0,13.89,17h-11v9.4h8.26a9.73,9.73,0,0,0,.34,1.34H2.87v1.35H12a10.63,10.63,0,0,0,1.86,2.68H1.53ZM2.87,37.11a1.34,1.34,0,0,1-1.34-1.34V33.08h13.9A10.57,10.57,0,0,0,20.33,35v.77A1.34,1.34,0,0,1,19,37.11ZM21,40.47a19.39,19.39,0,0,1-8.61-2H19a2.68,2.68,0,0,0,2.68-2.68V35.1a10.7,10.7,0,0,0,5.55-1.56l4,4A19.39,19.39,0,0,1,21,40.47Zm15.56,0a1.23,1.23,0,0,1-.87-.36l-7.35-7.35A11.38,11.38,0,0,0,30.08,31l7.34,7.34a1.19,1.19,0,0,1,.36.87A1.23,1.23,0,0,1,36.56,40.47Z"/><path class="cls-1" d="M7.57,34.43h6.72v1.34H7.57Z"/><path class="cls-1" d="M2.87,11.6H4.22v1.34H2.87Z"/><path class="cls-1" d="M5.56,11.6H6.9v1.34H5.56Z"/><path class="cls-1" d="M8.24,11.6H9.59v1.34H8.24Z"/><path class="cls-1" d="M10.93,11.6H19v1.34H10.93Z"/><path class="cls-1" d="M2.87,14.29h8.06v1.34H2.87Z"/><path class="cls-1" d="M12.27,14.29h1.35v1.34H12.27Z"/></svg>