<svg id="Layer_1" data-name="Layer 1" xmlns="http://www.w3.org/2000/svg" viewBox="0 0 42 42"><defs><style>.cls-1{fill:#707070;}</style></defs><title>user-engagement</title><path class="cls-1" d="M7.56,11.59v1.34a4,4,0,0,0,1.86,3.4A1.78,1.78,0,0,1,8.07,17H8a3.1,3.1,0,0,0-3.1,3.1v3.62a.67.67,0,0,0,.67.67h12.1a.67.67,0,0,0,.67-.67v-2h5.38v2a.67.67,0,0,0,.67.67h12.1a.67.67,0,0,0,.67-.67V20.07A3.1,3.1,0,0,0,34,17h-.1a1.78,1.78,0,0,1-1.35-.64,4,4,0,0,0,1.86-3.4V11.59a4,4,0,1,0-8.06,0v1.34a4,4,0,0,0,1.86,3.4,1.68,1.68,0,0,1-.76.52A3.12,3.12,0,0,0,24.62,15h-.1a1.75,1.75,0,0,1-1.35-.64A4,4,0,0,0,25,10.92V9.57a4,4,0,0,0-8.06,0v1.35a4,4,0,0,0,1.86,3.39,1.75,1.75,0,0,1-1.35.64h-.1a3.12,3.12,0,0,0-2.86,1.9,1.68,1.68,0,0,1-.76-.52,4,4,0,0,0,1.86-3.4V11.59a4,4,0,1,0-8.06,0ZM17,23H6.21V20.07A1.76,1.76,0,0,1,8,18.31h.1a4.38,4.38,0,0,0,.51,0l.24.24a3.9,3.9,0,0,0,5.46.07V21a.67.67,0,0,0,.67.67h2ZM34,18.31a1.76,1.76,0,0,1,1.76,1.76V23H25V21.67h2a.67.67,0,0,0,.67-.67V18.58a3.9,3.9,0,0,0,5.46-.07l.24-.24a4.38,4.38,0,0,0,.51,0Zm-6.31-6.72a2.69,2.69,0,0,1,5.38,0v1.34a2.69,2.69,0,0,1-5.38,0ZM30.41,17a3.82,3.82,0,0,0,.9-.11,3.18,3.18,0,0,0,.76.83,2.65,2.65,0,0,1-3.32,0,3,3,0,0,0,.76-.83,3.82,3.82,0,0,0,.9.11Zm-12.1-7.4a2.69,2.69,0,1,1,5.38,0v1.35a2.69,2.69,0,1,1-5.38,0ZM21,15a4.43,4.43,0,0,0,.9-.1,3.13,3.13,0,0,0,.76.82,2.62,2.62,0,0,1-3.32,0,3,3,0,0,0,.76-.82,4.43,4.43,0,0,0,.9.1Zm-5.38,3.1a1.76,1.76,0,0,1,1.76-1.76h.1a2.92,2.92,0,0,0,.51,0l.24.24a3.91,3.91,0,0,0,5.54,0l.24-.24a2.92,2.92,0,0,0,.51,0h.1a1.76,1.76,0,0,1,1.76,1.76v2.28H15.62Zm-2.37-.36a2.65,2.65,0,0,1-3.32,0,3.18,3.18,0,0,0,.76-.83,3.74,3.74,0,0,0,1.8,0,3,3,0,0,0,.76.83Zm1-6.1v1.34a2.69,2.69,0,0,1-5.38,0V11.59a2.69,2.69,0,0,1,5.38,0Z"/><path class="cls-1" d="M37.6,28.61,23.83,32.36a3.21,3.21,0,0,0-.34-.41l-4.7-4.7a.67.67,0,0,0-.48-.2H10.92v-.67a.67.67,0,0,0-.68-.67H.83a.67.67,0,0,0-.67.67V41.17a.67.67,0,0,0,.67.67H6.21a.67.67,0,0,0,.67-.67v-.68h3.36a.67.67,0,0,0,.68-.67v-.67h4.59l3.93,1.31a.78.78,0,0,0,.22,0l.21,0,21.51-7.4a.66.66,0,0,0,.46-.63v-.67a3.27,3.27,0,0,0-4.24-3.15ZM5.54,40.49h-4V27.05h4Zm4-1.34H6.88V27.05H9.57ZM40.49,32,19.65,39.11l-3.82-1.27a.71.71,0,0,0-.21,0h-4.7V28.39H18l4.51,4.51a1.23,1.23,0,0,1-1.74,1.74l-3.36-3.36-1,.95,3.36,3.36a2.58,2.58,0,0,0,3.64,0,2.53,2.53,0,0,0,.74-1.94L38,29.91a1.91,1.91,0,0,1,2.54,1.85Z"/><path class="cls-1" d="M27.16,1.09Q26.5.88,25.84.73L25.52,2c.42.1.83.22,1.24.34Z"/><path class="cls-1" d="M40.49,21c0,.3,0,.6,0,.9l1.35.07c0-.32,0-.65,0-1,0-.14,0-.27,0-.41l-1.34,0V21Z"/><path class="cls-1" d="M24.49.45c-.44-.07-.9-.13-1.36-.18L23,1.61c.43,0,.86.1,1.28.17Z"/><path class="cls-1" d="M40,16.8l1.31-.29c-.09-.45-.21-.89-.33-1.33l-1.3.38c.12.41.23.82.32,1.24Z"/><path class="cls-1" d="M29.72,2.07c-.41-.19-.84-.37-1.26-.53L28,2.79c.4.16.79.32,1.18.5Z"/><path class="cls-1" d="M40.42,19.34l1.34-.12c0-.46-.09-.91-.16-1.36l-1.33.2c.07.42.12.85.15,1.28Z"/><path class="cls-1" d="M37,9.8,38.06,9c-.27-.37-.54-.74-.83-1.1l-1,.85q.41.49.78,1Z"/><path class="cls-1" d="M39.33,14.34l1.26-.46c-.16-.43-.33-.86-.51-1.27l-1.23.54c.17.39.33.78.48,1.19Z"/><path class="cls-1" d="M36.34,6.89c-.31-.33-.63-.66-1-1l-.93,1c.31.29.61.6.9.91Z"/><path class="cls-1" d="M32.14,3.38c-.39-.24-.79-.47-1.19-.69l-.64,1.18c.38.2.74.42,1.11.65Z"/><path class="cls-1" d="M39.57,27l1.28.4c.14-.43.27-.88.38-1.32l-1.31-.32c-.1.42-.22.83-.35,1.24Z"/><path class="cls-1" d="M41.71,23.33l-1.34-.15c0,.43-.11.86-.18,1.27l1.32.24c.08-.45.15-.9.2-1.36Z"/><path class="cls-1" d="M34.35,5c-.35-.29-.71-.58-1.08-.84l-.79,1.08c.34.25.68.52,1,.79Z"/><path class="cls-1" d="M38.29,12l1.19-.62c-.21-.4-.43-.8-.67-1.19l-1.15.7Q38,11.42,38.29,12Z"/><path class="cls-1" d="M2.32,15.42,1,15c-.13.44-.25.89-.35,1.33l1.31.3C2.09,16.24,2.2,15.83,2.32,15.42Z"/><path class="cls-1" d="M3.21,13,2,12.46c-.19.41-.36.84-.52,1.27l1.26.47c.14-.4.31-.8.48-1.19Z"/><path class="cls-1" d="M4.42,10.75,3.28,10c-.24.38-.47.78-.69,1.19l1.19.63C4,11.48,4.19,11.11,4.42,10.75Z"/><path class="cls-1" d="M5.91,8.66l-1-.86c-.29.36-.57.72-.83,1.09l1.09.79Q5.51,9.16,5.91,8.66Z"/><path class="cls-1" d="M1.52,21.76c0-.25,0-.51,0-.76v-.52l-1.34,0c0,.18,0,.37,0,.56s0,.54,0,.81Z"/><path class="cls-1" d="M1.75,17.92.42,17.71c-.07.45-.13.91-.17,1.36l1.34.12C1.63,18.76,1.68,18.34,1.75,17.92Z"/><path class="cls-1" d="M.27,23.18c0,.46.11.91.19,1.36l1.33-.23c-.08-.42-.13-.84-.18-1.27Z"/><path class="cls-1" d="M9.65,5.15,8.86,4.06q-.55.41-1.08.84l.85,1Q9.13,5.53,9.65,5.15Z"/><path class="cls-1" d="M14.16,2.74l-.47-1.26c-.43.16-.86.34-1.27.53L13,3.23c.39-.18.79-.34,1.19-.49Z"/><path class="cls-1" d="M16.61,2,16.31.69c-.44.1-.89.22-1.32.35l.39,1.29C15.78,2.21,16.2,2.1,16.61,2Z"/><path class="cls-1" d="M19.15,1.59,19,.25c-.45,0-.91.11-1.36.18l.21,1.33c.42-.07.85-.13,1.28-.17Z"/><path class="cls-1" d="M11.82,3.8l-.63-1.19c-.4.22-.8.45-1.19.69l.71,1.14C11.08,4.21,11.45,4,11.82,3.8Z"/><path class="cls-1" d="M20.94,1.51h.77L21.76.18,21,.16h-.61l0,1.34Z"/><path class="cls-1" d="M7.66,6.78l-.91-1c-.33.31-.66.64-1,1l1,.92C7.05,7.37,7.36,7.07,7.66,6.78Z"/></svg>